<?xml version="1.0" encoding="UTF-8" standalone="no"?>
<!-- Created with Inkscape (http://www.inkscape.org/) -->

<svg
   xmlns:dc="http://purl.org/dc/elements/1.1/"
   xmlns:cc="http://creativecommons.org/ns#"
   xmlns:rdf="http://www.w3.org/1999/02/22-rdf-syntax-ns#"
   xmlns:svg="http://www.w3.org/2000/svg"
   xmlns="http://www.w3.org/2000/svg"
   xmlns:sodipodi="http://sodipodi.sourceforge.net/DTD/sodipodi-0.dtd"
   xmlns:inkscape="http://www.inkscape.org/namespaces/inkscape"
   width="1000"
   height="700"
   id="svg12286"
   version="1.1"
   inkscape:version="0.48.1 "
   sodipodi:docname="cherokey_back.svg">
  <defs
     id="defs12288">
    <inkscape:perspective
       sodipodi:type="inkscape:persp3d"
       inkscape:vp_x="0 : 526.18109 : 1"
       inkscape:vp_y="0 : 1000 : 0"
       inkscape:vp_z="744.09448 : 526.18109 : 1"
       inkscape:persp3d-origin="372.04724 : 350.78739 : 1"
       id="perspective16271" />
  </defs>
  <sodipodi:namedview
     id="base"
     pagecolor="#ffffff"
     bordercolor="#666666"
     borderopacity="1.0"
     inkscape:pageopacity="0.0"
     inkscape:pageshadow="2"
     inkscape:zoom="0.98994949"
     inkscape:cx="266.07301"
     inkscape:cy="337.39736"
     inkscape:document-units="px"
     inkscape:current-layer="layer1"
     showgrid="false"
     inkscape:window-width="1680"
     inkscape:window-height="988"
     inkscape:window-x="-8"
     inkscape:window-y="-8"
     inkscape:window-maximized="1" />
  <metadata
     id="metadata12291">
    <rdf:RDF>
      <cc:Work
         rdf:about="">
        <dc:format>image/svg+xml</dc:format>
        <dc:type
           rdf:resource="http://purl.org/dc/dcmitype/StillImage" />
        <dc:title />
      </cc:Work>
    </rdf:RDF>
  </metadata>
  <g
     inkscape:label="Layer 1"
     inkscape:groupmode="layer"
     id="layer1"
     transform="translate(0,-352.36218)">
    <g
       id="g8894"
       transform="matrix(1.2867036,0,0,1.2867036,21.255561,9.9639229)">
      <g
         transform="matrix(-1,0,0,1,744.85019,203.60467)"
         id="g16289"
         style="opacity:0.71499999;stroke:#333333">
        <path
           style="fill:#000000;fill-opacity:1;fill-rule:nonzero;stroke:#333333;stroke-width:0;stroke-linecap:round;stroke-linejoin:round;stroke-miterlimit:4;stroke-opacity:1;stroke-dasharray:none;stroke-dashoffset:0.15"
           d="m 7.90625,100.46875 0,478.34375 430.5625,0 101.6875,-22.46875 0,-0.3125 177.21875,0 16.90625,-218.65625 0,-4.15625 -17.375,-211.625 -175,0 -0.0312,0.15625 -96.34375,-21.28125 -437.625,0 z M 91.125,163.0625 c 0.293282,-0.0135 0.575574,-0.0173 0.875,0 4.790817,0.27705 8.45754,4.4911 8.1875,9.40625 -0.26845,4.8862 -4.329078,8.64092 -9.09375,8.40625 l -0.0625,-0.0312 c -4.790817,-0.27705 -8.45754,-4.45985 -8.1875,-9.375 0.253163,-4.60796 3.882021,-8.20345 8.28125,-8.40625 z"
           id="rect13337"
           inkscape:connector-curvature="0" />
      </g>
      <path
         transform="matrix(-1.3901297,0,0,1.3454791,719.77613,-356.34879)"
         sodipodi:open="true"
         sodipodi:end="7.9019517"
         sodipodi:start="1.627103"
         d="m 159.64827,581.10168 c -3.44631,-0.20591 -6.08262,-3.33424 -5.88836,-6.98733 0.19425,-3.65309 3.14551,-6.44758 6.59182,-6.24167 3.44631,0.20591 6.08262,3.33425 5.88836,6.98734 -0.19311,3.63157 -3.11229,6.41896 -6.53979,6.24454"
         sodipodi:ry="6.625"
         sodipodi:rx="6.25"
         sodipodi:cy="574.48718"
         sodipodi:cx="160"
         id="path28218"
         style="opacity:0.71499999;fill:#ffffff;fill-opacity:1;fill-rule:nonzero;stroke:#333333;stroke-width:0;stroke-linecap:round;stroke-linejoin:round;stroke-miterlimit:4;stroke-opacity:1;stroke-dasharray:none;stroke-dashoffset:0.15"
         sodipodi:type="arc" />
      <path
         sodipodi:type="arc"
         style="opacity:0.71499999;fill:#ffffff;fill-opacity:1;fill-rule:nonzero;stroke:#333333;stroke-width:0;stroke-linecap:round;stroke-linejoin:round;stroke-miterlimit:4;stroke-opacity:1;stroke-dasharray:none;stroke-dashoffset:0.15"
         id="path28297"
         sodipodi:cx="160"
         sodipodi:cy="574.48718"
         sodipodi:rx="6.25"
         sodipodi:ry="6.625"
         d="m 159.64827,581.10168 c -3.44631,-0.20591 -6.08262,-3.33424 -5.88836,-6.98733 0.19425,-3.65309 3.14551,-6.44758 6.59182,-6.24167 3.44631,0.20591 6.08262,3.33425 5.88836,6.98734 -0.19311,3.63157 -3.11229,6.41896 -6.53979,6.24454"
         sodipodi:start="1.627103"
         sodipodi:end="7.9019517"
         sodipodi:open="true"
         transform="matrix(-1.3901297,0,0,1.3454791,564.04541,-355.72112)" />
      <path
         transform="matrix(-1.3901297,0,0,1.3454791,564.54655,-106.66209)"
         sodipodi:open="true"
         sodipodi:end="7.9019517"
         sodipodi:start="1.627103"
         d="m 159.64827,581.10168 c -3.44631,-0.20591 -6.08262,-3.33424 -5.88836,-6.98733 0.19425,-3.65309 3.14551,-6.44758 6.59182,-6.24167 3.44631,0.20591 6.08262,3.33425 5.88836,6.98734 -0.19311,3.63157 -3.11229,6.41896 -6.53979,6.24454"
         sodipodi:ry="6.625"
         sodipodi:rx="6.25"
         sodipodi:cy="574.48718"
         sodipodi:cx="160"
         id="path28321"
         style="opacity:0.71499999;fill:#ffffff;fill-opacity:1;fill-rule:nonzero;stroke:#333333;stroke-width:0;stroke-linecap:round;stroke-linejoin:round;stroke-miterlimit:4;stroke-opacity:1;stroke-dasharray:none;stroke-dashoffset:0.15"
         sodipodi:type="arc" />
      <path
         sodipodi:type="arc"
         style="opacity:0.71499999;fill:#ffffff;fill-opacity:1;fill-rule:nonzero;stroke:#333333;stroke-width:0;stroke-linecap:round;stroke-linejoin:round;stroke-miterlimit:4;stroke-opacity:1;stroke-dasharray:none;stroke-dashoffset:0.15"
         id="path28334"
         sodipodi:cx="160"
         sodipodi:cy="574.48718"
         sodipodi:rx="6.25"
         sodipodi:ry="6.625"
         d="m 159.64827,581.10168 c -3.44631,-0.20591 -6.08262,-3.33424 -5.88836,-6.98733 0.19425,-3.65309 3.14551,-6.44758 6.59182,-6.24167 3.44631,0.20591 6.08262,3.33425 5.88836,6.98734 -0.19311,3.63157 -3.11229,6.41896 -6.53979,6.24454"
         sodipodi:start="1.627103"
         sodipodi:end="7.9019517"
         sodipodi:open="true"
         transform="matrix(-1.3901297,0,0,1.3454791,719.90142,-106.66209)" />
      <path
         transform="matrix(-1.3901297,0,0,1.3454791,875.75743,-64.479794)"
         sodipodi:open="true"
         sodipodi:end="7.9019517"
         sodipodi:start="1.627103"
         d="m 159.64827,581.10168 c -3.44631,-0.20591 -6.08262,-3.33424 -5.88836,-6.98733 0.19425,-3.65309 3.14551,-6.44758 6.59182,-6.24167 3.44631,0.20591 6.08262,3.33425 5.88836,6.98734 -0.19311,3.63157 -3.11229,6.41896 -6.53979,6.24454"
         sodipodi:ry="6.625"
         sodipodi:rx="6.25"
         sodipodi:cy="574.48718"
         sodipodi:cx="160"
         id="path28347"
         style="opacity:0.71499999;fill:#ffffff;fill-opacity:1;fill-rule:nonzero;stroke:#333333;stroke-width:0;stroke-linecap:round;stroke-linejoin:round;stroke-miterlimit:4;stroke-opacity:1;stroke-dasharray:none;stroke-dashoffset:0.15"
         sodipodi:type="arc" />
      <path
         sodipodi:type="arc"
         style="opacity:0.71499999;fill:#ffffff;fill-opacity:1;fill-rule:nonzero;stroke:#333333;stroke-width:0;stroke-linecap:round;stroke-linejoin:round;stroke-miterlimit:4;stroke-opacity:1;stroke-dasharray:none;stroke-dashoffset:0.15"
         id="path28360"
         sodipodi:cx="160"
         sodipodi:cy="574.48718"
         sodipodi:rx="6.25"
         sodipodi:ry="6.625"
         d="m 159.64827,581.10168 c -3.44631,-0.20591 -6.08262,-3.33424 -5.88836,-6.98733 0.19425,-3.65309 3.14551,-6.44758 6.59182,-6.24167 3.44631,0.20591 6.08262,3.33425 5.88836,6.98734 -0.19311,3.63157 -3.11229,6.41896 -6.53979,6.24454"
         sodipodi:start="1.627103"
         sodipodi:end="7.9019517"
         sodipodi:open="true"
         transform="matrix(-1.3901297,0,0,1.3454791,595.61753,-64.98487)" />
      <path
         transform="matrix(-1.3901297,0,0,1.3454791,314.47533,-64.98487)"
         sodipodi:open="true"
         sodipodi:end="7.9019517"
         sodipodi:start="1.627103"
         d="m 159.64827,581.10168 c -3.44631,-0.20591 -6.08262,-3.33424 -5.88836,-6.98733 0.19425,-3.65309 3.14551,-6.44758 6.59182,-6.24167 3.44631,0.20591 6.08262,3.33425 5.88836,6.98734 -0.19311,3.63157 -3.11229,6.41896 -6.53979,6.24454"
         sodipodi:ry="6.625"
         sodipodi:rx="6.25"
         sodipodi:cy="574.48718"
         sodipodi:cx="160"
         id="path28373"
         style="opacity:0.71499999;fill:#ffffff;fill-opacity:1;fill-rule:nonzero;stroke:#333333;stroke-width:0;stroke-linecap:round;stroke-linejoin:round;stroke-miterlimit:4;stroke-opacity:1;stroke-dasharray:none;stroke-dashoffset:0.15"
         sodipodi:type="arc" />
      <path
         sodipodi:type="arc"
         style="opacity:0.71499999;fill:#ffffff;fill-opacity:1;fill-rule:nonzero;stroke:#333333;stroke-width:0;stroke-linecap:round;stroke-linejoin:round;stroke-miterlimit:4;stroke-opacity:1;stroke-dasharray:none;stroke-dashoffset:0.15"
         id="path28386"
         sodipodi:cx="160"
         sodipodi:cy="574.48718"
         sodipodi:rx="6.25"
         sodipodi:ry="6.625"
         d="m 159.64827,581.10168 c -3.44631,-0.20591 -6.08262,-3.33424 -5.88836,-6.98733 0.19425,-3.65309 3.14551,-6.44758 6.59182,-6.24167 3.44631,0.20591 6.08262,3.33425 5.88836,6.98734 -0.19311,3.63157 -3.11229,6.41896 -6.53979,6.24454"
         sodipodi:start="1.627103"
         sodipodi:end="7.9019517"
         sodipodi:open="true"
         transform="matrix(-1.3901297,0,0,1.3454791,314.47533,-397.39833)" />
      <path
         transform="matrix(-1.3901297,0,0,1.3454791,595.11638,-397.39833)"
         sodipodi:open="true"
         sodipodi:end="7.9019517"
         sodipodi:start="1.627103"
         d="m 159.64827,581.10168 c -3.44631,-0.20591 -6.08262,-3.33424 -5.88836,-6.98733 0.19425,-3.65309 3.14551,-6.44758 6.59182,-6.24167 3.44631,0.20591 6.08262,3.33425 5.88836,6.98734 -0.19311,3.63157 -3.11229,6.41896 -6.53979,6.24454"
         sodipodi:ry="6.625"
         sodipodi:rx="6.25"
         sodipodi:cy="574.48718"
         sodipodi:cx="160"
         id="path28399"
         style="opacity:0.71499999;fill:#ffffff;fill-opacity:1;fill-rule:nonzero;stroke:#333333;stroke-width:0;stroke-linecap:round;stroke-linejoin:round;stroke-miterlimit:4;stroke-opacity:1;stroke-dasharray:none;stroke-dashoffset:0.15"
         sodipodi:type="arc" />
      <path
         sodipodi:type="arc"
         style="opacity:0.71499999;fill:#ffffff;fill-opacity:1;fill-rule:nonzero;stroke:#333333;stroke-width:0;stroke-linecap:round;stroke-linejoin:round;stroke-miterlimit:4;stroke-opacity:1;stroke-dasharray:none;stroke-dashoffset:0.15"
         id="path28425"
         sodipodi:cx="160"
         sodipodi:cy="574.48718"
         sodipodi:rx="6.25"
         sodipodi:ry="6.625"
         d="m 159.64827,581.10168 c -3.44631,-0.20591 -6.08262,-3.33424 -5.88836,-6.98733 0.19425,-3.65309 3.14551,-6.44758 6.59182,-6.24167 3.44631,0.20591 6.08262,3.33425 5.88836,6.98734 -0.19311,3.63157 -3.11229,6.41896 -6.53979,6.24454"
         sodipodi:start="1.627103"
         sodipodi:end="7.9019517"
         sodipodi:open="true"
         transform="matrix(-0.93959874,0,0,0.90941912,558.17108,-101.8225)" />
      <path
         transform="matrix(-0.93959874,0,0,0.90941912,599.39024,-65.91984)"
         sodipodi:open="true"
         sodipodi:end="7.9019517"
         sodipodi:start="1.627103"
         d="m 159.64827,581.10168 c -3.44631,-0.20591 -6.08262,-3.33424 -5.88836,-6.98733 0.19425,-3.65309 3.14551,-6.44758 6.59182,-6.24167 3.44631,0.20591 6.08262,3.33425 5.88836,6.98734 -0.19311,3.63157 -3.11229,6.41896 -6.53979,6.24454"
         sodipodi:ry="6.625"
         sodipodi:rx="6.25"
         sodipodi:cy="574.48718"
         sodipodi:cx="160"
         id="path28482"
         style="opacity:0.71499999;fill:#ffffff;fill-opacity:1;fill-rule:nonzero;stroke:#333333;stroke-width:0;stroke-linecap:round;stroke-linejoin:round;stroke-miterlimit:4;stroke-opacity:1;stroke-dasharray:none;stroke-dashoffset:0.15"
         sodipodi:type="arc" />
      <path
         sodipodi:type="arc"
         style="opacity:0.71499999;fill:#ffffff;fill-opacity:1;fill-rule:nonzero;stroke:#333333;stroke-width:0;stroke-linecap:round;stroke-linejoin:round;stroke-miterlimit:4;stroke-opacity:1;stroke-dasharray:none;stroke-dashoffset:0.15"
         id="path28495"
         sodipodi:cx="160"
         sodipodi:cy="574.48718"
         sodipodi:rx="6.25"
         sodipodi:ry="6.625"
         d="m 159.64827,581.10168 c -3.44631,-0.20591 -6.08262,-3.33424 -5.88836,-6.98733 0.19425,-3.65309 3.14551,-6.44758 6.59182,-6.24167 3.44631,0.20591 6.08262,3.33425 5.88836,6.98734 -0.19311,3.63157 -3.11229,6.41896 -6.53979,6.24454"
         sodipodi:start="1.627103"
         sodipodi:end="7.9019517"
         sodipodi:open="true"
         transform="matrix(-0.93959874,0,0,0.90941912,547.64705,-72.95216)" />
      <path
         transform="matrix(-0.93959874,0,0,0.90941912,491.51883,-48.59618)"
         sodipodi:open="true"
         sodipodi:end="7.9019517"
         sodipodi:start="1.627103"
         d="m 159.64827,581.10168 c -3.44631,-0.20591 -6.08262,-3.33424 -5.88836,-6.98733 0.19425,-3.65309 3.14551,-6.44758 6.59182,-6.24167 3.44631,0.20591 6.08262,3.33425 5.88836,6.98734 -0.19311,3.63157 -3.11229,6.41896 -6.53979,6.24454"
         sodipodi:ry="6.625"
         sodipodi:rx="6.25"
         sodipodi:cy="574.48718"
         sodipodi:cx="160"
         id="path28519"
         style="opacity:0.71499999;fill:#ffffff;fill-opacity:1;fill-rule:nonzero;stroke:#333333;stroke-width:0;stroke-linecap:round;stroke-linejoin:round;stroke-miterlimit:4;stroke-opacity:1;stroke-dasharray:none;stroke-dashoffset:0.15"
         sodipodi:type="arc" />
      <path
         sodipodi:type="arc"
         style="opacity:0.71499999;fill:#ffffff;fill-opacity:1;fill-rule:nonzero;stroke:#333333;stroke-width:0;stroke-linecap:round;stroke-linejoin:round;stroke-miterlimit:4;stroke-opacity:1;stroke-dasharray:none;stroke-dashoffset:0.15"
         id="path28532"
         sodipodi:cx="160"
         sodipodi:cy="574.48718"
         sodipodi:rx="6.25"
         sodipodi:ry="6.625"
         d="m 159.64827,581.10168 c -3.44631,-0.20591 -6.08262,-3.33424 -5.88836,-6.98733 0.19425,-3.65309 3.14551,-6.44758 6.59182,-6.24167 3.44631,0.20591 6.08262,3.33425 5.88836,6.98734 -0.19311,3.63157 -3.11229,6.41896 -6.53979,6.24454"
         sodipodi:start="1.627103"
         sodipodi:end="7.9019517"
         sodipodi:open="true"
         transform="matrix(-0.93959874,0,0,0.90941912,358.90484,-72.95216)" />
      <path
         transform="matrix(-0.93959874,0,0,0.90941912,313.67653,103.29728)"
         sodipodi:open="true"
         sodipodi:end="7.9019517"
         sodipodi:start="1.627103"
         d="m 159.64827,581.10168 c -3.44631,-0.20591 -6.08262,-3.33424 -5.88836,-6.98733 0.19425,-3.65309 3.14551,-6.44758 6.59182,-6.24167 3.44631,0.20591 6.08262,3.33425 5.88836,6.98734 -0.19311,3.63157 -3.11229,6.41896 -6.53979,6.24454"
         sodipodi:ry="6.625"
         sodipodi:rx="6.25"
         sodipodi:cy="574.48718"
         sodipodi:cx="160"
         id="path28582"
         style="opacity:0.71499999;fill:#ffffff;fill-opacity:1;fill-rule:nonzero;stroke:#333333;stroke-width:0;stroke-linecap:round;stroke-linejoin:round;stroke-miterlimit:4;stroke-opacity:1;stroke-dasharray:none;stroke-dashoffset:0.15"
         sodipodi:type="arc" />
      <path
         sodipodi:type="arc"
         style="opacity:0.71499999;fill:#ffffff;fill-opacity:1;fill-rule:nonzero;stroke:#333333;stroke-width:0;stroke-linecap:round;stroke-linejoin:round;stroke-miterlimit:4;stroke-opacity:1;stroke-dasharray:none;stroke-dashoffset:0.15"
         id="path28595"
         sodipodi:cx="160"
         sodipodi:cy="574.48718"
         sodipodi:rx="6.25"
         sodipodi:ry="6.625"
         d="m 159.64827,581.10168 c -3.44631,-0.20591 -6.08262,-3.33424 -5.88836,-6.98733 0.19425,-3.65309 3.14551,-6.44758 6.59182,-6.24167 3.44631,0.20591 6.08262,3.33425 5.88836,6.98734 -0.19311,3.63157 -3.11229,6.41896 -6.53979,6.24454"
         sodipodi:start="1.627103"
         sodipodi:end="7.9019517"
         sodipodi:open="true"
         transform="matrix(-0.93959874,0,0,0.90941912,313.17539,121.37413)" />
      <path
         transform="matrix(-0.93959874,0,0,0.90941912,358.77955,124.38694)"
         sodipodi:open="true"
         sodipodi:end="7.9019517"
         sodipodi:start="1.627103"
         d="m 159.64827,581.10168 c -3.44631,-0.20591 -6.08262,-3.33424 -5.88836,-6.98733 0.19425,-3.65309 3.14551,-6.44758 6.59182,-6.24167 3.44631,0.20591 6.08262,3.33425 5.88836,6.98734 -0.19311,3.63157 -3.11229,6.41896 -6.53979,6.24454"
         sodipodi:ry="6.625"
         sodipodi:rx="6.25"
         sodipodi:cy="574.48718"
         sodipodi:cx="160"
         id="path28608"
         style="opacity:0.71499999;fill:#ffffff;fill-opacity:1;fill-rule:nonzero;stroke:#333333;stroke-width:0;stroke-linecap:round;stroke-linejoin:round;stroke-miterlimit:4;stroke-opacity:1;stroke-dasharray:none;stroke-dashoffset:0.15"
         sodipodi:type="arc" />
      <path
         inkscape:transform-center-x="-1.7677669"
         sodipodi:type="arc"
         style="opacity:0.71499999;fill:#ffffff;fill-opacity:1;fill-rule:nonzero;stroke:#333333;stroke-width:0;stroke-linecap:round;stroke-linejoin:round;stroke-miterlimit:4;stroke-opacity:1;stroke-dasharray:none;stroke-dashoffset:0.15"
         id="path28621"
         sodipodi:cx="160"
         sodipodi:cy="574.48718"
         sodipodi:rx="6.25"
         sodipodi:ry="6.625"
         d="m 159.64827,581.10168 c -3.44631,-0.20591 -6.08262,-3.33424 -5.88836,-6.98733 0.19425,-3.65309 3.14551,-6.44758 6.59182,-6.24167 3.44631,0.20591 6.08262,3.33425 5.88836,6.98734 -0.19311,3.63157 -3.11229,6.41896 -6.53979,6.24454"
         sodipodi:start="1.627103"
         sodipodi:end="7.9019517"
         sodipodi:open="true"
         transform="matrix(-0.93959874,0,0,0.90941912,548.12627,124.38694)" />
      <path
         transform="matrix(-1.3901297,0,0,1.3454791,436.96224,-186.47112)"
         sodipodi:open="true"
         sodipodi:end="7.9019517"
         sodipodi:start="1.627103"
         d="m 159.64827,581.10168 c -3.44631,-0.20591 -6.08262,-3.33424 -5.88836,-6.98733 0.19425,-3.65309 3.14551,-6.44758 6.59182,-6.24167 3.44631,0.20591 6.08262,3.33425 5.88836,6.98734 -0.19311,3.63157 -3.11229,6.41896 -6.53979,6.24454"
         sodipodi:ry="6.625"
         sodipodi:rx="6.25"
         sodipodi:cy="574.48718"
         sodipodi:cx="160"
         id="path28634"
         style="opacity:0.71499999;fill:#ffffff;fill-opacity:1;fill-rule:nonzero;stroke:#333333;stroke-width:0;stroke-linecap:round;stroke-linejoin:round;stroke-miterlimit:4;stroke-opacity:1;stroke-dasharray:none;stroke-dashoffset:0.15"
         sodipodi:type="arc" />
      <path
         sodipodi:type="arc"
         style="opacity:0.71499999;fill:#ffffff;fill-opacity:1;fill-rule:nonzero;stroke:#333333;stroke-width:0;stroke-linecap:round;stroke-linejoin:round;stroke-miterlimit:4;stroke-opacity:1;stroke-dasharray:none;stroke-dashoffset:0.15"
         id="path28647"
         sodipodi:cx="160"
         sodipodi:cy="574.48718"
         sodipodi:rx="6.25"
         sodipodi:ry="6.625"
         d="m 159.64827,581.10168 c -3.44631,-0.20591 -6.08262,-3.33424 -5.88836,-6.98733 0.19425,-3.65309 3.14551,-6.44758 6.59182,-6.24167 3.44631,0.20591 6.08262,3.33425 5.88836,6.98734 -0.19311,3.63157 -3.11229,6.41896 -6.53979,6.24454"
         sodipodi:start="1.627103"
         sodipodi:end="7.9019517"
         sodipodi:open="true"
         transform="matrix(-1.3901297,0,0,1.3454791,652.24688,-186.50158)" />
      <path
         transform="matrix(-0.93959874,0,0,0.90941912,876.01371,62.2509)"
         sodipodi:open="true"
         sodipodi:end="7.9019517"
         sodipodi:start="1.627103"
         d="m 159.64827,581.10168 c -3.44631,-0.20591 -6.08262,-3.33424 -5.88836,-6.98733 0.19425,-3.65309 3.14551,-6.44758 6.59182,-6.24167 3.44631,0.20591 6.08262,3.33425 5.88836,6.98734 -0.19311,3.63157 -3.11229,6.41896 -6.53979,6.24454"
         sodipodi:ry="6.625"
         sodipodi:rx="6.25"
         sodipodi:cy="574.48718"
         sodipodi:cx="160"
         id="path6125"
         style="opacity:0.71499999;fill:#ffffff;fill-opacity:1;fill-rule:nonzero;stroke:#333333;stroke-width:0;stroke-linecap:round;stroke-linejoin:round;stroke-miterlimit:4;stroke-opacity:1;stroke-dasharray:none;stroke-dashoffset:0.15"
         sodipodi:type="arc"
         inkscape:transform-center-x="-1.7677669" />
      <path
         inkscape:transform-center-x="-1.7677669"
         sodipodi:type="arc"
         style="opacity:0.71499999;fill:#ffffff;fill-opacity:1;fill-rule:nonzero;stroke:#333333;stroke-width:0;stroke-linecap:round;stroke-linejoin:round;stroke-miterlimit:4;stroke-opacity:1;stroke-dasharray:none;stroke-dashoffset:0.15"
         id="path6127"
         sodipodi:cx="160"
         sodipodi:cy="574.48718"
         sodipodi:rx="6.25"
         sodipodi:ry="6.625"
         d="m 159.64827,581.10168 c -3.44631,-0.20591 -6.08262,-3.33424 -5.88836,-6.98733 0.19425,-3.65309 3.14551,-6.44758 6.59182,-6.24167 3.44631,0.20591 6.08262,3.33425 5.88836,6.98734 -0.19311,3.63157 -3.11229,6.41896 -6.53979,6.24454"
         sodipodi:start="1.627103"
         sodipodi:end="7.9019517"
         sodipodi:open="true"
         transform="matrix(-0.93959874,0,0,0.90941912,876.26625,111.24962)" />
      <path
         transform="matrix(-0.93959865,0,0,0.90941911,309.16625,-66.42439)"
         sodipodi:open="true"
         sodipodi:end="7.9019517"
         sodipodi:start="1.627103"
         d="m 159.64827,581.10168 c -3.44631,-0.20591 -6.08262,-3.33424 -5.88836,-6.98733 0.19425,-3.65309 3.14551,-6.44758 6.59182,-6.24167 3.44631,0.20591 6.08262,3.33425 5.88836,6.98734 -0.19311,3.63157 -3.11229,6.41896 -6.53979,6.24454"
         sodipodi:ry="6.625"
         sodipodi:rx="6.25"
         sodipodi:cy="574.48718"
         sodipodi:cx="160"
         id="path28556"
         style="opacity:0.71499999;fill:#ffffff;fill-opacity:1;fill-rule:nonzero;stroke:#333333;stroke-width:0;stroke-linecap:round;stroke-linejoin:round;stroke-miterlimit:4;stroke-opacity:1;stroke-dasharray:none;stroke-dashoffset:0.15"
         sodipodi:type="arc" />
      <path
         sodipodi:type="arc"
         style="opacity:0.71499999;fill:#ffffff;fill-opacity:1;fill-rule:nonzero;stroke:#333333;stroke-width:0;stroke-linecap:round;stroke-linejoin:round;stroke-miterlimit:4;stroke-opacity:1;stroke-dasharray:none;stroke-dashoffset:0.15"
         id="path28569"
         sodipodi:cx="160"
         sodipodi:cy="574.48718"
         sodipodi:rx="6.25"
         sodipodi:ry="6.625"
         d="m 159.64827,581.10168 c -3.44631,-0.20591 -6.08262,-3.33424 -5.88836,-6.98733 0.19425,-3.65309 3.14551,-6.44758 6.59182,-6.24167 3.44631,0.20591 6.08262,3.33425 5.88836,6.98734 -0.19311,3.63157 -3.11229,6.41896 -6.53979,6.24454"
         sodipodi:start="1.627103"
         sodipodi:end="7.9019517"
         sodipodi:open="true"
         transform="matrix(-0.93959865,0,0,0.90941911,281.10214,-76.969228)" />
      <rect
         y="484.46506"
         x="176.00975"
         height="203.95215"
         width="295.92023"
         id="rect34458"
         style="fill:none;stroke:#ffffff;stroke-width:0.98876905;stroke-linecap:round;stroke-linejoin:round;stroke-miterlimit:4;stroke-opacity:1;stroke-dasharray:none;stroke-dashoffset:0.15" />
      <text
         sodipodi:linespacing="100%"
         id="text34464"
         y="508.90009"
         x="275.77164"
         style="font-size:16px;font-style:normal;font-variant:normal;font-weight:normal;font-stretch:normal;text-align:start;line-height:100%;letter-spacing:0px;word-spacing:0px;writing-mode:lr-tb;text-anchor:start;fill:#ffffff;fill-opacity:1;stroke:none;font-family:Arial;-inkscape-font-specification:Arial"
         xml:space="preserve"><tspan
           y="508.90009"
           x="275.77164"
           id="tspan34466"
           sodipodi:role="line">Battery 6~7.5V</tspan></text>
      <text
         sodipodi:linespacing="100%"
         id="text34468"
         y="482.63614"
         x="375.77676"
         style="font-size:12px;font-style:normal;font-variant:normal;font-weight:normal;font-stretch:normal;text-align:start;line-height:100%;letter-spacing:0px;word-spacing:0px;writing-mode:lr-tb;text-anchor:start;fill:#ffffff;fill-opacity:1;stroke:none;font-family:Arial;-inkscape-font-specification:Arial"
         xml:space="preserve"><tspan
           y="482.63614"
           x="375.77676"
           id="tspan34470"
           sodipodi:role="line">Black  Red</tspan></text>
      <path
         inkscape:connector-curvature="0"
         id="path34472"
         d="m 392.94934,474.55493 0,-4.79823 105.26495,0.10548 1.07142,160.35715 223.57143,1.42857"
         style="fill:none;stroke:#000000;stroke-width:2;stroke-linecap:round;stroke-linejoin:round;stroke-miterlimit:4;stroke-opacity:1;stroke-dasharray:none" />
      <path
         inkscape:connector-curvature="0"
         id="path34474"
         d="m 423.92857,475.21932 0,-10 88.92857,0 1.81558,116.41178 205.06097,1.51523"
         style="fill:none;stroke:#ff0000;stroke-width:2;stroke-linecap:round;stroke-linejoin:round;stroke-miterlimit:4;stroke-opacity:1;stroke-dasharray:none" />
      <text
         transform="matrix(0.99999981,6.1479055e-4,-6.1479055e-4,0.99999981,0,0)"
         sodipodi:linespacing="100%"
         id="text34476"
         y="769.89246"
         x="614.12469"
         style="font-size:28px;font-style:normal;font-variant:normal;font-weight:normal;font-stretch:normal;text-align:start;line-height:100%;letter-spacing:0px;word-spacing:0px;writing-mode:lr-tb;text-anchor:start;fill:#ffffff;fill-opacity:1;stroke:none;font-family:Arial;-inkscape-font-specification:Arial"
         xml:space="preserve"><tspan
           y="769.89246"
           x="614.12469"
           id="tspan34478"
           sodipodi:role="line">DFRobot</tspan></text>
      <path
         transform="matrix(0.9175384,0,0,0.88318795,15.904971,52.157499)"
         sodipodi:open="true"
         sodipodi:end="7.9019517"
         sodipodi:start="1.627103"
         d="m 209.60009,459.89209 c -5.01307,-0.30611 -8.8479,-4.95682 -8.56533,-10.38764 0.28257,-5.43083 4.57553,-9.58523 9.5886,-9.27911 5.01307,0.30611 8.8479,4.95682 8.56533,10.38765 -0.2809,5.39884 -4.5272,9.54268 -9.51291,9.28338"
         sodipodi:ry="9.8489876"
         sodipodi:rx="9.0913725"
         sodipodi:cy="450.05872"
         sodipodi:cx="210.11172"
         id="path34480"
         style="fill:none;stroke:#ffffff;stroke-width:1;stroke-linecap:round;stroke-linejoin:round;stroke-miterlimit:4;stroke-opacity:1;stroke-dasharray:none;stroke-dashoffset:0.15"
         sodipodi:type="arc" />
      <path
         sodipodi:type="arc"
         style="fill:none;stroke:#ffffff;stroke-width:1;stroke-linecap:round;stroke-linejoin:round;stroke-miterlimit:4;stroke-opacity:1;stroke-dasharray:none;stroke-dashoffset:0.15"
         id="path34482"
         sodipodi:cx="210.11172"
         sodipodi:cy="450.05872"
         sodipodi:rx="9.0913725"
         sodipodi:ry="9.8489876"
         d="m 209.60009,459.89209 c -5.01307,-0.30611 -8.8479,-4.95682 -8.56533,-10.38764 0.28257,-5.43083 4.57553,-9.58523 9.5886,-9.27911 5.01307,0.30611 8.8479,4.95682 8.56533,10.38765 -0.2809,5.39884 -4.5272,9.54268 -9.51291,9.28338"
         sodipodi:start="1.627103"
         sodipodi:end="7.9019517"
         sodipodi:open="true"
         transform="matrix(0.9175384,0,0,0.88318795,15.904971,249.13725)" />
      <path
         transform="matrix(0.9175384,0,0,0.88318795,204.8035,249.64233)"
         sodipodi:open="true"
         sodipodi:end="7.9019517"
         sodipodi:start="1.627103"
         d="m 209.60009,459.89209 c -5.01307,-0.30611 -8.8479,-4.95682 -8.56533,-10.38764 0.28257,-5.43083 4.57553,-9.58523 9.5886,-9.27911 5.01307,0.30611 8.8479,4.95682 8.56533,10.38765 -0.2809,5.39884 -4.5272,9.54268 -9.51291,9.28338"
         sodipodi:ry="9.8489876"
         sodipodi:rx="9.0913725"
         sodipodi:cy="450.05872"
         sodipodi:cx="210.11172"
         id="path34484"
         style="fill:none;stroke:#ffffff;stroke-width:1;stroke-linecap:round;stroke-linejoin:round;stroke-miterlimit:4;stroke-opacity:1;stroke-dasharray:none;stroke-dashoffset:0.15"
         sodipodi:type="arc" />
      <path
         sodipodi:type="arc"
         style="fill:none;stroke:#ffffff;stroke-width:1;stroke-linecap:round;stroke-linejoin:round;stroke-miterlimit:4;stroke-opacity:1;stroke-dasharray:none;stroke-dashoffset:0.15"
         id="path34486"
         sodipodi:cx="210.11172"
         sodipodi:cy="450.05872"
         sodipodi:rx="9.0913725"
         sodipodi:ry="9.8489876"
         d="m 209.60009,459.89209 c -5.01307,-0.30611 -8.8479,-4.95682 -8.56533,-10.38764 0.28257,-5.43083 4.57553,-9.58523 9.5886,-9.27911 5.01307,0.30611 8.8479,4.95682 8.56533,10.38765 -0.2809,5.39884 -4.5272,9.54268 -9.51291,9.28338"
         sodipodi:start="1.627103"
         sodipodi:end="7.9019517"
         sodipodi:open="true"
         transform="matrix(0.9175384,0,0,0.88318795,204.29842,51.652431)" />
      <path
         inkscape:connector-curvature="0"
         id="path34488"
         d="m 208.09142,455.36203 0.50508,185.36299"
         style="fill:none;stroke:#ffffff;stroke-width:1;stroke-linecap:butt;stroke-linejoin:miter;stroke-miterlimit:4;stroke-opacity:1;stroke-dasharray:1, 2;stroke-dashoffset:0" />
      <path
         style="fill:none;stroke:#ffffff;stroke-width:1;stroke-linecap:butt;stroke-linejoin:miter;stroke-miterlimit:4;stroke-opacity:1;stroke-dasharray:1, 2;stroke-dashoffset:0"
         d="m 397.01999,455.36203 0.50508,185.36299"
         id="path34494"
         inkscape:connector-curvature="0" />
      <path
         inkscape:connector-curvature="0"
         id="path34496"
         d="m 213.01592,542.80336 -1.51523,0.69448 -1.76777,1.51523 -1.6415,2.2097 -1.38895,1.2627 -2.14658,0.44194 -1.95717,-1.38896 0,-1.89404 1.38896,-0.82075 2.27284,-0.69448 1.32583,1.38896 2.20971,1.89404 1.95717,0 2.20971,0.0631 0.69448,2.20974 -0.63135,1.6415 -2.14657,0.75761"
         style="fill:none;stroke:#ffffff;stroke-width:1;stroke-linecap:butt;stroke-linejoin:miter;stroke-miterlimit:4;stroke-opacity:1;stroke-dasharray:1, 2;stroke-dashoffset:0" />
      <path
         inkscape:connector-curvature="0"
         id="path34498"
         d="m 212.19517,552.2104 -2.11501,-0.2841 -0.66291,-1.89404 -0.22097,-2.20971 -0.56821,-0.85231 -1.5468,2.08344 -1.04172,1.70463 -0.78918,1.29426"
         style="fill:none;stroke:#ffffff;stroke-width:1;stroke-linecap:butt;stroke-linejoin:miter;stroke-miterlimit:4;stroke-opacity:1;stroke-dasharray:1, 1;stroke-dashoffset:0" />
      <path
         style="fill:none;stroke:#ffffff;stroke-width:1;stroke-linecap:butt;stroke-linejoin:miter;stroke-miterlimit:4;stroke-opacity:1;stroke-dasharray:1, 2;stroke-dashoffset:0"
         d="m 401.66191,543.81351 -1.51523,0.69448 -1.76777,1.51523 -1.6415,2.2097 -1.38895,1.2627 -2.14658,0.44194 -1.95717,-1.38896 0,-1.89404 1.38896,-0.82075 2.27284,-0.69448 1.32583,1.38896 2.20971,1.89404 1.95717,0 2.20971,0.0631 0.69448,2.20974 -0.63135,1.6415 -2.14657,0.75761"
         id="path34508"
         inkscape:connector-curvature="0" />
      <path
         style="fill:none;stroke:#ffffff;stroke-width:1;stroke-linecap:butt;stroke-linejoin:miter;stroke-miterlimit:4;stroke-opacity:1;stroke-dasharray:1, 1;stroke-dashoffset:0"
         d="m 400.84116,553.22055 -2.11501,-0.2841 -0.66291,-1.89404 -0.22097,-2.20971 -0.56821,-0.85231 -1.5468,2.08344 -1.04172,1.70463 -0.78918,1.29426"
         id="path34510"
         inkscape:connector-curvature="0" />
    </g>
  </g>
</svg>
