<?xml version="1.0" encoding="UTF-8" standalone="no"?>
<!-- Created with Inkscape (http://www.inkscape.org/) -->

<svg
   xmlns:dc="http://purl.org/dc/elements/1.1/"
   xmlns:cc="http://creativecommons.org/ns#"
   xmlns:rdf="http://www.w3.org/1999/02/22-rdf-syntax-ns#"
   xmlns:svg="http://www.w3.org/2000/svg"
   xmlns="http://www.w3.org/2000/svg"
   xmlns:sodipodi="http://sodipodi.sourceforge.net/DTD/sodipodi-0.dtd"
   xmlns:inkscape="http://www.inkscape.org/namespaces/inkscape"
   width="165.75214"
   height="118.19646"
   id="svg6590"
   version="1.1"
   inkscape:version="0.48.1 "
   sodipodi:docname="various.svg">
  <defs
     id="defs6592" />
  <sodipodi:namedview
     id="base"
     pagecolor="#ffffff"
     bordercolor="#666666"
     borderopacity="1.0"
     inkscape:pageopacity="0.0"
     inkscape:pageshadow="2"
     inkscape:zoom="0.98994949"
     inkscape:cx="-43.948645"
     inkscape:cy="-4.6278698"
     inkscape:document-units="px"
     inkscape:current-layer="layer1"
     showgrid="false"
     inkscape:window-width="1920"
     inkscape:window-height="1018"
     inkscape:window-x="-8"
     inkscape:window-y="-8"
     inkscape:window-maximized="1"
     fit-margin-top="0"
     fit-margin-left="0"
     fit-margin-right="0"
     fit-margin-bottom="0" />
  <metadata
     id="metadata6595">
    <rdf:RDF>
      <cc:Work
         rdf:about="">
        <dc:format>image/svg+xml</dc:format>
        <dc:type
           rdf:resource="http://purl.org/dc/dcmitype/StillImage" />
        <dc:title></dc:title>
      </cc:Work>
    </rdf:RDF>
  </metadata>
  <g
     inkscape:label="Layer 1"
     inkscape:groupmode="layer"
     id="layer1"
     transform="translate(-101.1444,-540.33475)">
    <g
       id="g3265"
       transform="translate(-238.4579,223.89224)">
      <text
         sodipodi:linespacing="125%"
         id="text3207"
         y="556.63232"
         x="347.71143"
         style="font-size:4px;font-style:normal;font-variant:normal;font-weight:normal;font-stretch:normal;line-height:125%;letter-spacing:0px;word-spacing:0px;fill:#ffffff;fill-opacity:1;stroke:none;font-family:OCRA;-inkscape-font-specification:OCRA"
         xml:space="preserve"><tspan
           y="556.63232"
           x="347.71143"
           id="tspan3209"
           sodipodi:role="line" /></text>
      <text
         sodipodi:linespacing="125%"
         id="text3199-9"
         y="542.02594"
         x="347.71143"
         style="font-size:4px;font-style:normal;font-variant:normal;font-weight:normal;font-stretch:normal;line-height:125%;letter-spacing:0px;word-spacing:0px;fill:#ffffff;fill-opacity:1;stroke:none;font-family:OCRA;-inkscape-font-specification:OCRA"
         xml:space="preserve"><tspan
           y="542.02594"
           x="347.71143"
           id="tspan3201-4"
           sodipodi:role="line" /></text>
      <text
         sodipodi:linespacing="125%"
         id="text3203-8"
         y="549.32916"
         x="347.71143"
         style="font-size:4px;font-style:normal;font-variant:normal;font-weight:normal;font-stretch:normal;line-height:125%;letter-spacing:0px;word-spacing:0px;fill:#ffffff;fill-opacity:1;stroke:none;font-family:OCRA;-inkscape-font-specification:OCRA"
         xml:space="preserve"><tspan
           y="549.32916"
           x="347.71143"
           id="tspan3205-8"
           sodipodi:role="line" /></text>
    </g>
    <g
       id="g19268"
       transform="matrix(0.21907595,0,0,0.21907595,20.148558,424.44172)">
      <path
         id="path19255"
         d="m 578.8125,618 -195.5,266.09375 -1.46875,-7.5 -11.625,6.0625 1.53125,16.15625 0.65625,0.15625 -0.65625,0.875 577.78125,168.68745 176.78125,-300.0312 -0.75,-0.21875 0.25,-0.28125 -1,-17.15625 -10.5,14.34375 L 578.8125,618 z"
         style="fill:#000000;stroke:none"
         inkscape:connector-curvature="0" />
      <path
         inkscape:connector-curvature="0"
         id="path19253"
         d="M 369.71583,882.65655 947.52309,1051.352 1124.2998,751.33672 576.7971,600.82399 z"
         style="fill:#333333;stroke:none" />
      <path
         id="rect19249"
         d="m 652.125,608.96875 c -13.66615,0.13664 -27.36662,6.46919 -33.8125,16.5625 l -150.875,236.25 -1.25,-11.4375 -16.65625,5.03125 3.03125,38.40625 0.15625,-0.0312 c 1.29393,7.84927 7.93104,14.59352 18.59375,17.46875 L 839.53125,1010.5 c 16.74451,4.5152 36.84302,-2.2681 45.09375,-15.1875 L 1046.9688,741.125 c 2.2211,-3.47819 3.3336,-7.03629 3.4687,-10.46875 l 0.625,-1.03125 -3.5313,-42.9375 -14.1562,23.46875 c -0.5647,-0.18208 -1.1292,-0.34105 -1.7188,-0.5 L 663.4375,610.375 c -3.66286,-0.9877 -7.48598,-1.44451 -11.3125,-1.40625 z"
         style="fill:#b3b3b3;fill-opacity:1;stroke:#cccccc;stroke-width:9.12925625;stroke-miterlimit:4;stroke-opacity:1;stroke-dasharray:none"
         inkscape:connector-curvature="0" />
      <rect
         transform="matrix(0.96551332,0.26035368,-0.53823399,0.84279545,0,0)"
         rx="31.304337"
         ry="27.670156"
         y="394.89856"
         x="871.77887"
         height="356.95428"
         width="443.97302"
         id="rect19247"
         style="fill:#e6e6e6;fill-opacity:1;stroke:#cccccc;stroke-width:9.34744167;stroke-miterlimit:4;stroke-opacity:1;stroke-dasharray:none" />
      <path
         transform="matrix(0.98484449,0,0,1,5.0222124,-8.0812204)"
         sodipodi:open="true"
         sodipodi:end="7.8188447"
         sodipodi:start="1.5364461"
         d="M 758.59394,920.93954 C 637.32405,924.24463 535.63712,848.95498 531.46983,752.77541 527.30255,656.59584 622.23297,575.94759 743.50286,572.6425 c 121.26989,-3.30509 222.95682,71.98455 227.12411,168.16412 4.16497,96.12607 -90.66116,176.74928 -211.86029,180.12815"
         sodipodi:ry="174.25131"
         sodipodi:rx="219.70818"
         sodipodi:cy="746.79102"
         sodipodi:cx="751.0484"
         id="path19245"
         style="opacity:0.65999995;fill:#e6e6e6;fill-opacity:1;stroke:#cccccc;stroke-width:9.19923019;stroke-miterlimit:4;stroke-opacity:1;stroke-dasharray:none"
         sodipodi:type="arc" />
      <path
         sodipodi:nodetypes="ccccccccccccccccccccccczzzcccccccccccc"
         inkscape:connector-curvature="0"
         id="path19243"
         d="m 911.07143,762.00504 28.21429,-37.14286 11.78571,-32.85714 0.35714,-23.21429 -3.92857,-16.07143 -5.71428,-13.92857 -7.85715,-14.28571 -10,-14.64286 -11.07143,-12.85714 -22.5,-22.85714 L 852.5,553.79075 815,538.07647 l -62.14286,-6.78572 -55.71428,4.28572 -38.57143,13.21428 -25,12.85715 -18.21429,9.28571 -17.85714,20 -17.85714,22.14286 -27.5,41.78571 -7.14286,17.14286 -3.57143,13.57143 -3.16812,21.86588 c 0,0 4.13919,21.60223 6.36541,33.28961 2.22622,11.68738 2.27878,25.65196 15.017,37.87415 12.73822,12.22219 29.10746,27.14826 45,34.8275 C 620.5354,821.11285 655,837.71933 655,837.71933 l 91.42857,9.64285 43.92857,-5.35714 L 860,813.43361 l 56.79857,-34.17304 26.5023,-35.57999 13.05411,-26.15328 0.14126,-30.5112 -4.80949,-21.06221 -1.15382,29.93739 -9.74116,25.52908 z"
         style="fill:#ececec;stroke:#cccccc;stroke-width:4.56462717px;stroke-linecap:butt;stroke-linejoin:miter;stroke-opacity:1" />
      <path
         inkscape:connector-curvature="0"
         id="path19225"
         d="m 691.07143,611.6479 -13.57143,7.85714 -23.21428,15 -31.07143,26.07143 -27.14286,26.42857 -8.92857,-15.71429 L 580,650.21932 581.07143,626.6479 587.5,612.71932 l 29.64286,-13.92857 32.14286,-7.5 34.28571,-5.71428 5.71429,0 -1.42858,7.85714 0.71429,10.71429 z"
         style="opacity:0.38116593;fill:#f9f9f9;stroke:#cccccc;stroke-width:4.56462717px;stroke-linecap:butt;stroke-linejoin:miter;stroke-opacity:1" />
      <path
         inkscape:connector-curvature="0"
         id="path19229"
         d="m 797.14286,597.36218 -4.28572,8.92857 -10.71428,12.5 -0.71429,1.42857 10.71429,11.42858 29.64286,33.21428 27.85714,35.35714 7.14286,12.14286 17.85714,-10.35714 21.42857,-27.85714 7.85714,-23.21429 -25.35714,-17.85714 -30.71429,-16.78572 -29.28571,-12.5 z"
         style="opacity:0.38116593;fill:#f9f9f9;stroke:#cccccc;stroke-width:4.56462717px;stroke-linecap:butt;stroke-linejoin:miter;stroke-opacity:1" />
      <path
         inkscape:connector-curvature="0"
         id="path19231"
         d="m 781.78572,620.57647 -15,8.21428 -14.64286,5.35715 -7.14286,0.35714 4.28572,8.57143 4.28571,18.21428 4.28571,34.64286 6.78572,43.92857 0.71428,5.71429 27.14286,-5.71429 31.78572,-10.71428 26.42857,-15 6.07143,-1.42858 L 847.5,697.36218 826.78572,670.93361 792.85714,632.00504 z"
         style="opacity:0.38116593;fill:#f9f9f9;stroke:#cccccc;stroke-width:4.56462717px;stroke-linecap:butt;stroke-linejoin:miter;stroke-opacity:1" />
      <path
         inkscape:connector-curvature="0"
         id="path19233"
         d="m 744.28572,634.50504 -10.71429,1.07143 -9.28571,-1.78572 -10.35715,-2.5 -7.5,15.35715 -18.57143,37.5 -14.28571,33.21428 -6.42857,17.14286 -1.07143,4.64286 21.42857,6.42857 24.28572,2.5 26.78571,1.07143 26.07143,-2.85715 0.35714,-1.07143 -10,-70.71428 -2.85714,-16.42857 -2.5,-12.14286 z"
         style="opacity:0.38116593;fill:#f9f9f9;stroke:#cccccc;stroke-width:4.56462717px;stroke-linecap:butt;stroke-linejoin:miter;stroke-opacity:1" />
      <path
         inkscape:connector-curvature="0"
         id="path19235"
         d="m 713.57143,630.57647 -4.64286,-2.14286 -7.85714,-4.64286 -6.42857,-7.5 -3.92857,-5 -17.85715,11.07143 -18.21428,11.78572 -31.07143,26.07142 -27.5,26.42858 7.14286,12.14285 15.35714,13.21429 14.28571,11.07143 19.28572,9.28571 13.57143,6.07143 18.92857,-47.14286 21.78571,-45.35714 z"
         style="opacity:0.38116593;fill:#f9f9f9;stroke:#cccccc;stroke-width:4.56462717px;stroke-linecap:butt;stroke-linejoin:miter;stroke-opacity:1" />
      <path
         inkscape:connector-curvature="0"
         id="path19237"
         d="m 586.42857,612.36218 -18.57143,57.14286 -2.85714,25 3.57143,27.14286 6.07143,17.5 19.28571,31.78571 57.5,42.5 50.71429,15.71429 18.57143,1.42857 1.78571,-0.35714 2.85714,-57.85715 0.71429,-22.14286 0.35714,-1.42857 -39.28571,-3.21428 -22.5,-7.14286 -32.14286,-15 -29.28571,-24.28571 -7.85715,-13.21429 -8.92857,-16.42857 L 580,649.86218 l 0.71429,-22.85714 z"
         style="fill:#ececec;stroke:#cccccc;stroke-width:4.56462717px;stroke-linecap:butt;stroke-linejoin:miter;stroke-opacity:1" />
      <path
         inkscape:connector-curvature="0"
         id="path19239"
         d="m 723.21429,831.29075 30,-1.07142 43.57143,-5.71429 34.28571,-12.14286 3.57143,-1.07143 -13.21429,-20.71428 -15.71428,-25 -4.28572,-10.35714 -3.21428,-10.35715 0,-6.42857 -33.21429,7.5 -26.78571,3.21429 -11.78572,-0.35715 z"
         style="fill:#ececec;stroke:#cccccc;stroke-width:4.56462717px;stroke-linecap:butt;stroke-linejoin:miter;stroke-opacity:1" />
      <path
         inkscape:connector-curvature="0"
         id="path19241"
         d="m 835.71429,810.21933 37.85714,-17.5 21.07143,-13.92858 15,-14.64285 0.71428,-7.5 -9.64285,-18.57143 -12.85715,-20.35715 -9.64285,-15.35714 -1.78572,-1.78571 -19.64285,11.07143 -21.42858,11.78571 -15,7.85714 -17.85714,5.35715 -3.92857,1.07142 1.78571,14.64286 21.78572,40 z"
         style="fill:#ececec;stroke:#cccccc;stroke-width:4.56462717px;stroke-linecap:butt;stroke-linejoin:miter;stroke-opacity:1" />
      <path
         transform="matrix(1.0290119,0,-0.12732158,0.9586272,51.338982,3.5178107)"
         sodipodi:open="true"
         sodipodi:end="7.8188447"
         sodipodi:start="1.5364461"
         d="m 749.87397,659.38483 c -29.8296,0.90052 -54.84225,-19.61318 -55.8673,-45.81863 -1.02506,-26.20545 22.32564,-48.17918 52.15524,-49.07969 29.82961,-0.90052 54.84226,19.61318 55.86731,45.81863 1.02449,26.19087 -22.30056,48.15777 -52.11276,49.07839"
         sodipodi:ry="47.477169"
         sodipodi:rx="54.043159"
         sodipodi:cy="611.93567"
         sodipodi:cx="748.01794"
         id="path18715"
         style="opacity:0.29596414;fill:#f9f9f9;fill-opacity:1;stroke:#cccccc;stroke-width:4.56462717"
         sodipodi:type="arc" />
      <path
         sodipodi:nodetypes="cccccccccccccccccccccccccccccccccccc"
         inkscape:connector-curvature="0"
         id="path19227"
         d="m 739.89126,545.58443 -19.62925,4.79033 -13.44352,8.379 -13.37638,15.10272 -4.20158,11.7673 -22.92788,3.05227 -48.33137,9.99369 -32.15397,14.20024 55.95841,-38.0078 38.92857,-21.78571 41.07143,-9.64286 58.57142,-0.35714 37.5,9.28571 28.92858,12.85714 19.28571,12.5 -26.42857,-1.90826 -24.5921,-0.77556 -17.55076,-1.60189 1.78572,10.71429 -1.78572,11.78571 0.35714,2.14286 21.07143,6.07143 27.5,11.78571 28.92857,15.35714 25,16.42857 2.85715,2.14286 1.42857,-13.21428 L 902.5,616.29075 893.21429,592.00504 890,585.57647 l -15,-5 -12.14286,-3.21429 -65.16279,-4.19905 -13.03046,-16.39704 -15.88874,-10.64734 -24.51736,-1.97956"
         style="opacity:0.38116593;fill:#f9f9f9;stroke:#cccccc;stroke-width:4.56462717px;stroke-linecap:butt;stroke-linejoin:miter;stroke-opacity:1" />
    </g>
  </g>
</svg>
