<?xml version="1.0" encoding="UTF-8" standalone="no"?>
<!-- Created with Inkscape (http://www.inkscape.org/) -->

<svg
   xmlns:dc="http://purl.org/dc/elements/1.1/"
   xmlns:cc="http://creativecommons.org/ns#"
   xmlns:rdf="http://www.w3.org/1999/02/22-rdf-syntax-ns#"
   xmlns:svg="http://www.w3.org/2000/svg"
   xmlns="http://www.w3.org/2000/svg"
   xmlns:sodipodi="http://sodipodi.sourceforge.net/DTD/sodipodi-0.dtd"
   xmlns:inkscape="http://www.inkscape.org/namespaces/inkscape"
   width="744.09448819"
   height="1052.3622047"
   id="svg16001"
   version="1.1"
   inkscape:version="0.48.1 "
   sodipodi:docname="新建文档 4">
  <defs
     id="defs16003" />
  <sodipodi:namedview
     id="base"
     pagecolor="#ffffff"
     bordercolor="#666666"
     borderopacity="1.0"
     inkscape:pageopacity="0.0"
     inkscape:pageshadow="2"
     inkscape:zoom="1.1169922"
     inkscape:cx="375"
     inkscape:cy="520"
     inkscape:document-units="px"
     inkscape:current-layer="layer1"
     showgrid="false"
     inkscape:window-width="1680"
     inkscape:window-height="987"
     inkscape:window-x="-8"
     inkscape:window-y="-8"
     inkscape:window-maximized="1" />
  <metadata
     id="metadata16006">
    <rdf:RDF>
      <cc:Work
         rdf:about="">
        <dc:format>image/svg+xml</dc:format>
        <dc:type
           rdf:resource="http://purl.org/dc/dcmitype/StillImage" />
        <dc:title></dc:title>
      </cc:Work>
    </rdf:RDF>
  </metadata>
  <g
     inkscape:label="Layer 1"
     inkscape:groupmode="layer"
     id="layer1">
    <g
       transform="translate(-90.643793,-292.93023)"
       id="g16009">
      <path
         inkscape:connector-curvature="0"
         id="rect2996"
         d="m 474.75633,701.3539 c -4.32885,0 -7.8125,3.48365 -7.8125,7.8125 l 0,176.78125 7.96875,17.1875 c 1.20685,0.71507 2.45223,1.09913 3.53125,1.03125 l 0.0312,0 c 1.32354,-0.0852 2.90323,-0.89283 4.34375,-2.1875 l 6.78125,-17.0625 0,-108.71875 0,-5.9375 0,-3.40625 c 1.53756,-5.74152 5.81485,-9.99876 10.96875,-10.21875 4.8446,-0.20678 9.09212,3.19375 11.125,8.25 l 0,5.375 0,8 0,106.375 8.40625,17.4375 c 1.40863,1.01315 2.93071,1.54978 4.21875,1.46875 l 0.0312,0 c 1.18213,-0.0761 2.55943,-0.75243 3.875,-1.8125 l 7.96875,-19.9375 0,-172.625 c 0,-4.32885 -3.48365,-7.8125 -7.8125,-7.8125 l -53.625,0 z m 2.625,4 c 2.93361,-0.10081 5.36794,2.19139 5.46875,5.125 0.10075,2.93197 -2.19311,5.39694 -5.125,5.5 -2.93361,0.10081 -5.39919,-2.19139 -5.5,-5.125 -0.10081,-2.93361 2.22264,-5.39919 5.15625,-5.5 z m 47.03125,0 c 2.93361,-0.10081 5.39919,2.19139 5.5,5.125 0.10075,2.93197 -2.19311,5.39694 -5.125,5.5 -2.93361,0.10081 -5.39919,-2.19139 -5.5,-5.125 -0.10081,-2.93361 2.19139,-5.39919 5.125,-5.5 z m -52.53125,64.21875 c 0.60983,-0.0227 1.13525,0.49414 1.15625,1.15625 0.0209,0.66174 -0.45302,1.2267 -1.0625,1.25 -0.60983,0.0228 -1.13525,-0.49414 -1.15625,-1.15625 -0.021,-0.66211 0.45267,-1.2273 1.0625,-1.25 z m 6.4375,0 c 0.60983,-0.0227 1.104,0.49414 1.125,1.15625 0.0209,0.66174 -0.45302,1.2267 -1.0625,1.25 -0.60983,0.0228 -1.104,-0.49414 -1.125,-1.15625 -0.021,-0.66211 0.45267,-1.2273 1.0625,-1.25 z m 6.4375,0 c 0.60983,-0.0227 1.104,0.49414 1.125,1.15625 0.0209,0.66174 -0.45302,1.2267 -1.0625,1.25 -0.60983,0.0228 -1.13525,-0.49414 -1.15625,-1.15625 -0.021,-0.66211 0.48392,-1.2273 1.09375,-1.25 z m 31.78125,0 c 0.60983,-0.0227 1.13525,0.49414 1.15625,1.15625 0.0209,0.66174 -0.45302,1.2267 -1.0625,1.25 -0.60983,0.0228 -1.13525,-0.49414 -1.15625,-1.15625 -0.021,-0.66211 0.45267,-1.2273 1.0625,-1.25 z m 6.4375,0 c 0.60983,-0.0227 1.104,0.49414 1.125,1.15625 0.0209,0.66174 -0.45302,1.2267 -1.0625,1.25 -0.60983,0.0228 -1.104,-0.49414 -1.125,-1.15625 -0.021,-0.66211 0.45267,-1.2273 1.0625,-1.25 z m 6.4375,0 c 0.60983,-0.0227 1.104,0.49414 1.125,1.15625 0.0209,0.66174 -0.45302,1.2267 -1.0625,1.25 -0.60983,0.0228 -1.13525,-0.49414 -1.15625,-1.15625 -0.021,-0.66211 0.48392,-1.2273 1.09375,-1.25 z m -57.53125,20.40625 c 0.60983,-0.0227 1.13525,0.49414 1.15625,1.15625 0.0209,0.66174 -0.45302,1.2267 -1.0625,1.25 -0.60983,0.0228 -1.13525,-0.49414 -1.15625,-1.15625 -0.021,-0.66211 0.45267,-1.2273 1.0625,-1.25 z m 6.4375,0 c 0.60983,-0.0227 1.104,0.49414 1.125,1.15625 0.0209,0.66174 -0.45302,1.2267 -1.0625,1.25 -0.60983,0.0228 -1.104,-0.49414 -1.125,-1.15625 -0.021,-0.66211 0.45267,-1.2273 1.0625,-1.25 z m 6.4375,0 c 0.60983,-0.0227 1.104,0.49414 1.125,1.15625 0.0209,0.66174 -0.45302,1.2267 -1.0625,1.25 -0.60983,0.0228 -1.13525,-0.49414 -1.15625,-1.15625 -0.021,-0.66211 0.48392,-1.2273 1.09375,-1.25 z m 31.78125,0 c 0.60983,-0.0227 1.13525,0.49414 1.15625,1.15625 0.0209,0.66174 -0.45302,1.2267 -1.0625,1.25 -0.60983,0.0228 -1.13525,-0.49414 -1.15625,-1.15625 -0.021,-0.66211 0.45267,-1.2273 1.0625,-1.25 z m 6.4375,0 c 0.60983,-0.0227 1.104,0.49414 1.125,1.15625 0.0209,0.66174 -0.45302,1.2267 -1.0625,1.25 -0.60983,0.0228 -1.104,-0.49414 -1.125,-1.15625 -0.021,-0.66211 0.45267,-1.2273 1.0625,-1.25 z m 6.4375,0 c 0.60983,-0.0227 1.104,0.49414 1.125,1.15625 0.0209,0.66174 -0.45302,1.2267 -1.0625,1.25 -0.60983,0.0228 -1.13525,-0.49414 -1.15625,-1.15625 -0.021,-0.66211 0.48392,-1.2273 1.09375,-1.25 z m -57.53125,20.4375 c 0.60983,-0.0227 1.13525,0.49414 1.15625,1.15625 0.0209,0.66174 -0.45302,1.2267 -1.0625,1.25 -0.60983,0.0228 -1.13525,-0.49414 -1.15625,-1.15625 -0.021,-0.66211 0.45267,-1.2273 1.0625,-1.25 z m 6.4375,0 c 0.60983,-0.0227 1.104,0.49414 1.125,1.15625 0.0209,0.66174 -0.45302,1.2267 -1.0625,1.25 -0.60983,0.0228 -1.104,-0.49414 -1.125,-1.15625 -0.021,-0.66211 0.45267,-1.2273 1.0625,-1.25 z m 6.4375,0 c 0.60983,-0.0227 1.104,0.49414 1.125,1.15625 0.0209,0.66174 -0.45302,1.2267 -1.0625,1.25 -0.60983,0.0228 -1.13525,-0.49414 -1.15625,-1.15625 -0.021,-0.66211 0.48392,-1.2273 1.09375,-1.25 z m 31.78125,0 c 0.60983,-0.0227 1.13525,0.49414 1.15625,1.15625 0.0209,0.66174 -0.45302,1.2267 -1.0625,1.25 -0.60983,0.0228 -1.13525,-0.49414 -1.15625,-1.15625 -0.021,-0.66211 0.45267,-1.2273 1.0625,-1.25 z m 6.4375,0 c 0.60983,-0.0227 1.104,0.49414 1.125,1.15625 0.0209,0.66174 -0.45302,1.2267 -1.0625,1.25 -0.60983,0.0228 -1.104,-0.49414 -1.125,-1.15625 -0.021,-0.66211 0.45267,-1.2273 1.0625,-1.25 z m 6.4375,0 c 0.60983,-0.0227 1.104,0.49414 1.125,1.15625 0.0209,0.66174 -0.45302,1.2267 -1.0625,1.25 -0.60983,0.0228 -1.13525,-0.49414 -1.15625,-1.15625 -0.021,-0.66211 0.48392,-1.2273 1.09375,-1.25 z m -57.53125,20.4375 c 0.60983,-0.0227 1.13525,0.49414 1.15625,1.15625 0.0209,0.66174 -0.45302,1.2267 -1.0625,1.25 -0.60983,0.0227 -1.13525,-0.49415 -1.15625,-1.15625 -0.021,-0.66211 0.45267,-1.2273 1.0625,-1.25 z m 6.4375,0 c 0.60983,-0.0227 1.104,0.49414 1.125,1.15625 0.0209,0.66174 -0.45302,1.2267 -1.0625,1.25 -0.60983,0.0227 -1.104,-0.49415 -1.125,-1.15625 -0.021,-0.66211 0.45267,-1.2273 1.0625,-1.25 z m 6.4375,0 c 0.60983,-0.0227 1.104,0.49414 1.125,1.15625 0.0209,0.66174 -0.45302,1.2267 -1.0625,1.25 -0.60983,0.0227 -1.13525,-0.49415 -1.15625,-1.15625 -0.021,-0.66211 0.48392,-1.2273 1.09375,-1.25 z m 31.78125,0 c 0.60983,-0.0227 1.13525,0.49414 1.15625,1.15625 0.0209,0.66174 -0.45302,1.2267 -1.0625,1.25 -0.60983,0.0227 -1.13525,-0.49415 -1.15625,-1.15625 -0.021,-0.66211 0.45267,-1.2273 1.0625,-1.25 z m 6.4375,0 c 0.60983,-0.0227 1.104,0.49414 1.125,1.15625 0.0209,0.66174 -0.45302,1.2267 -1.0625,1.25 -0.60983,0.0227 -1.104,-0.49415 -1.125,-1.15625 -0.021,-0.66211 0.45267,-1.2273 1.0625,-1.25 z m 6.4375,0 c 0.60983,-0.0227 1.104,0.49414 1.125,1.15625 0.0209,0.66174 -0.45302,1.2267 -1.0625,1.25 -0.60983,0.0227 -1.13525,-0.49415 -1.15625,-1.15625 -0.021,-0.66211 0.48392,-1.2273 1.09375,-1.25 z m -57.53125,20.4375 c 0.60983,-0.0227 1.13525,0.49414 1.15625,1.15625 0.0209,0.66174 -0.45302,1.2267 -1.0625,1.25 -0.60983,0.0228 -1.13525,-0.49414 -1.15625,-1.15625 -0.021,-0.66211 0.45267,-1.2273 1.0625,-1.25 z m 6.4375,0 c 0.60983,-0.0227 1.104,0.49414 1.125,1.15625 0.0209,0.66174 -0.45302,1.2267 -1.0625,1.25 -0.60983,0.0228 -1.104,-0.49414 -1.125,-1.15625 -0.021,-0.66211 0.45267,-1.2273 1.0625,-1.25 z m 6.4375,0 c 0.60983,-0.0227 1.104,0.49414 1.125,1.15625 0.0209,0.66174 -0.45302,1.2267 -1.0625,1.25 -0.60983,0.0228 -1.13525,-0.49414 -1.15625,-1.15625 -0.021,-0.66211 0.48392,-1.2273 1.09375,-1.25 z m 31.78125,0 c 0.60983,-0.0227 1.13525,0.49414 1.15625,1.15625 0.0209,0.66174 -0.45302,1.2267 -1.0625,1.25 -0.60983,0.0228 -1.13525,-0.49414 -1.15625,-1.15625 -0.021,-0.66211 0.45267,-1.2273 1.0625,-1.25 z m 6.4375,0 c 0.60983,-0.0227 1.104,0.49414 1.125,1.15625 0.0209,0.66174 -0.45302,1.2267 -1.0625,1.25 -0.60983,0.0228 -1.104,-0.49414 -1.125,-1.15625 -0.021,-0.66211 0.45267,-1.2273 1.0625,-1.25 z m 6.4375,0 c 0.60983,-0.0227 1.104,0.49414 1.125,1.15625 0.0209,0.66174 -0.45302,1.2267 -1.0625,1.25 -0.60983,0.0228 -1.13525,-0.49414 -1.15625,-1.15625 -0.021,-0.66211 0.48392,-1.2273 1.09375,-1.25 z m -57.53125,20.4375 c 0.60983,-0.0227 1.13525,0.49414 1.15625,1.15625 0.0209,0.66174 -0.45302,1.2267 -1.0625,1.25 -0.60983,0.0228 -1.13525,-0.49414 -1.15625,-1.15625 -0.021,-0.66211 0.45267,-1.2273 1.0625,-1.25 z m 6.4375,0 c 0.60983,-0.0227 1.104,0.49414 1.125,1.15625 0.0209,0.66174 -0.45302,1.2267 -1.0625,1.25 -0.60983,0.0228 -1.104,-0.49414 -1.125,-1.15625 -0.021,-0.66211 0.45267,-1.2273 1.0625,-1.25 z m 6.4375,0 c 0.60983,-0.0227 1.104,0.49414 1.125,1.15625 0.0209,0.66174 -0.45302,1.2267 -1.0625,1.25 -0.60983,0.0228 -1.13525,-0.49414 -1.15625,-1.15625 -0.021,-0.66211 0.48392,-1.2273 1.09375,-1.25 z m 31.78125,0 c 0.60983,-0.0227 1.13525,0.49414 1.15625,1.15625 0.0209,0.66174 -0.45302,1.2267 -1.0625,1.25 -0.60983,0.0228 -1.13525,-0.49414 -1.15625,-1.15625 -0.021,-0.66211 0.45267,-1.2273 1.0625,-1.25 z m 6.4375,0 c 0.60983,-0.0227 1.104,0.49414 1.125,1.15625 0.0209,0.66174 -0.45302,1.2267 -1.0625,1.25 -0.60983,0.0228 -1.104,-0.49414 -1.125,-1.15625 -0.021,-0.66211 0.45267,-1.2273 1.0625,-1.25 z m 6.4375,0 c 0.60983,-0.0227 1.104,0.49414 1.125,1.15625 0.0209,0.66174 -0.45302,1.2267 -1.0625,1.25 -0.60983,0.0228 -1.13525,-0.49414 -1.15625,-1.15625 -0.021,-0.66211 0.48392,-1.2273 1.09375,-1.25 z"
         style="fill:#1a1a1a;fill-opacity:1;stroke:none" />
      <path
         id="tspan9117-2"
         d="m 483.687,733.42426 c -1.16957,10e-6 -2.13611,0.35778 -2.90625,1.03125 -0.77014,0.67349 -1.15625,1.50275 -1.15625,2.53125 l 0,1 0,4.46875 0,0.8125 c 0,0.85638 -0.43054,1.28125 -1.25,1.28125 -0.34145,0 -0.6303,-0.0714 -0.875,-0.25 -0.2447,-0.17859 -0.375,-0.40665 -0.375,-0.65625 0,-0.2582 0.13883,-0.47335 0.375,-0.65625 0.23616,-0.18289 0.51369,-0.28125 0.84375,-0.28125 0.26177,0 0.51947,0.0638 0.78125,0.21875 l 0,-2.65625 c -0.38128,-0.0258 -0.65596,-0.0312 -0.84375,-0.0312 -1.18367,10e-6 -2.22876,0.33728 -3.09375,1 -0.86499,0.66273 -1.28125,1.43574 -1.28125,2.34375 0,0.93814 0.44182,1.72949 1.3125,2.375 0.87068,0.64551 1.91847,0.96875 3.1875,0.96875 0.63736,0 1.26893,-0.10163 1.875,-0.3125 0.60606,-0.21087 1.10733,-0.48657 1.5,-0.84375 0.68288,-0.61969 1.03124,-1.42077 1.03125,-2.40625 l 0,-0.90625 0,-2.28125 1.625,0 0,-2.375 -1.625,0 0,-1.09375 c 0,-0.55943 0.22795,-0.84374 0.71875,-0.84375 0.37071,10e-6 0.63505,0.16434 0.78125,0.5 l 2.59375,-1.5625 c -0.86674,-0.91661 -1.9291,-1.37499 -3.21875,-1.375 z"
         style="font-size:15.2023344px;font-style:normal;font-variant:normal;font-weight:normal;font-stretch:normal;line-height:125%;letter-spacing:0px;word-spacing:0px;fill:#ffffff;fill-opacity:1;stroke:none;font-family:Bauhaus 93;-inkscape-font-specification:Bauhaus 93"
         inkscape:connector-curvature="0" />
      <path
         inkscape:connector-curvature="0"
         id="rect2996-7-1"
         d="m 467.31883,764.9164 0,4.4375 0,8.03125 0,106.375 7.4375,17.4375 c 1.24789,1.01338 2.57769,1.54979 3.71875,1.46875 l 0.0312,0 c 1.04724,-0.0762 2.27205,-0.72094 3.4375,-1.78125 l 7.09375,-19.9375 0,-116.03125 -21.71875,0 z m 45.34375,0 0,4.4375 0,8.03125 0,106.375 7.4375,17.4375 c 1.24789,1.01338 2.57769,1.54979 3.71875,1.46875 l 0.0312,0 c 1.04724,-0.0762 2.27205,-0.72094 3.4375,-1.78125 l 7.0625,-19.9375 0,-116.03125 -21.6875,0 z m -40.78125,4.65625 c 0.60983,-0.0227 1.13525,0.49414 1.15625,1.15625 0.0209,0.66174 -0.45302,1.2267 -1.0625,1.25 -0.60983,0.0228 -1.13525,-0.49414 -1.15625,-1.15625 -0.021,-0.66211 0.45267,-1.2273 1.0625,-1.25 z m 6.4375,0 c 0.60983,-0.0227 1.104,0.49414 1.125,1.15625 0.0209,0.66174 -0.45302,1.2267 -1.0625,1.25 -0.60983,0.0228 -1.104,-0.49414 -1.125,-1.15625 -0.021,-0.66211 0.45267,-1.2273 1.0625,-1.25 z m 6.4375,0 c 0.60983,-0.0227 1.104,0.49414 1.125,1.15625 0.0209,0.66174 -0.45302,1.2267 -1.0625,1.25 -0.60983,0.0228 -1.13525,-0.49414 -1.15625,-1.15625 -0.021,-0.66211 0.48392,-1.2273 1.09375,-1.25 z m 31.78125,0 c 0.60983,-0.0227 1.13525,0.49414 1.15625,1.15625 0.0209,0.66174 -0.45302,1.2267 -1.0625,1.25 -0.60983,0.0228 -1.13525,-0.49414 -1.15625,-1.15625 -0.021,-0.66211 0.45267,-1.2273 1.0625,-1.25 z m 6.4375,0 c 0.60983,-0.0227 1.104,0.49414 1.125,1.15625 0.0209,0.66174 -0.45302,1.2267 -1.0625,1.25 -0.60983,0.0228 -1.104,-0.49414 -1.125,-1.15625 -0.021,-0.66211 0.45267,-1.2273 1.0625,-1.25 z m 6.4375,0 c 0.60983,-0.0227 1.104,0.49414 1.125,1.15625 0.0209,0.66174 -0.45302,1.2267 -1.0625,1.25 -0.60983,0.0228 -1.13525,-0.49414 -1.15625,-1.15625 -0.021,-0.66211 0.48392,-1.2273 1.09375,-1.25 z m -57.53125,20.40625 c 0.60983,-0.0227 1.13525,0.49414 1.15625,1.15625 0.0209,0.66174 -0.45302,1.2267 -1.0625,1.25 -0.60983,0.0228 -1.13525,-0.49414 -1.15625,-1.15625 -0.021,-0.66211 0.45267,-1.2273 1.0625,-1.25 z m 6.4375,0 c 0.60983,-0.0227 1.104,0.49414 1.125,1.15625 0.0209,0.66174 -0.45302,1.2267 -1.0625,1.25 -0.60983,0.0228 -1.104,-0.49414 -1.125,-1.15625 -0.021,-0.66211 0.45267,-1.2273 1.0625,-1.25 z m 6.4375,0 c 0.60983,-0.0227 1.104,0.49414 1.125,1.15625 0.0209,0.66174 -0.45302,1.2267 -1.0625,1.25 -0.60983,0.0228 -1.13525,-0.49414 -1.15625,-1.15625 -0.021,-0.66211 0.48392,-1.2273 1.09375,-1.25 z m 31.78125,0 c 0.60983,-0.0227 1.13525,0.49414 1.15625,1.15625 0.0209,0.66174 -0.45302,1.2267 -1.0625,1.25 -0.60983,0.0228 -1.13525,-0.49414 -1.15625,-1.15625 -0.021,-0.66211 0.45267,-1.2273 1.0625,-1.25 z m 6.4375,0 c 0.60983,-0.0227 1.104,0.49414 1.125,1.15625 0.0209,0.66174 -0.45302,1.2267 -1.0625,1.25 -0.60983,0.0228 -1.104,-0.49414 -1.125,-1.15625 -0.021,-0.66211 0.45267,-1.2273 1.0625,-1.25 z m 6.4375,0 c 0.60983,-0.0227 1.104,0.49414 1.125,1.15625 0.0209,0.66174 -0.45302,1.2267 -1.0625,1.25 -0.60983,0.0228 -1.13525,-0.49414 -1.15625,-1.15625 -0.021,-0.66211 0.48392,-1.2273 1.09375,-1.25 z m -57.53125,20.4375 c 0.60983,-0.0227 1.13525,0.49414 1.15625,1.15625 0.0209,0.66174 -0.45302,1.2267 -1.0625,1.25 -0.60983,0.0228 -1.13525,-0.49414 -1.15625,-1.15625 -0.021,-0.66211 0.45267,-1.2273 1.0625,-1.25 z m 6.4375,0 c 0.60983,-0.0227 1.104,0.49414 1.125,1.15625 0.0209,0.66174 -0.45302,1.2267 -1.0625,1.25 -0.60983,0.0228 -1.104,-0.49414 -1.125,-1.15625 -0.021,-0.66211 0.45267,-1.2273 1.0625,-1.25 z m 6.4375,0 c 0.60983,-0.0227 1.104,0.49414 1.125,1.15625 0.0209,0.66174 -0.45302,1.2267 -1.0625,1.25 -0.60983,0.0228 -1.13525,-0.49414 -1.15625,-1.15625 -0.021,-0.66211 0.48392,-1.2273 1.09375,-1.25 z m 31.78125,0 c 0.60983,-0.0227 1.13525,0.49414 1.15625,1.15625 0.0209,0.66174 -0.45302,1.2267 -1.0625,1.25 -0.60983,0.0228 -1.13525,-0.49414 -1.15625,-1.15625 -0.021,-0.66211 0.45267,-1.2273 1.0625,-1.25 z m 6.4375,0 c 0.60983,-0.0227 1.104,0.49414 1.125,1.15625 0.0209,0.66174 -0.45302,1.2267 -1.0625,1.25 -0.60983,0.0228 -1.104,-0.49414 -1.125,-1.15625 -0.021,-0.66211 0.45267,-1.2273 1.0625,-1.25 z m 6.4375,0 c 0.60983,-0.0227 1.104,0.49414 1.125,1.15625 0.0209,0.66174 -0.45302,1.2267 -1.0625,1.25 -0.60983,0.0228 -1.13525,-0.49414 -1.15625,-1.15625 -0.021,-0.66211 0.48392,-1.2273 1.09375,-1.25 z m -57.53125,20.4375 c 0.60983,-0.0227 1.13525,0.49414 1.15625,1.15625 0.0209,0.66174 -0.45302,1.2267 -1.0625,1.25 -0.60983,0.0227 -1.13525,-0.49415 -1.15625,-1.15625 -0.021,-0.66211 0.45267,-1.2273 1.0625,-1.25 z m 6.4375,0 c 0.60983,-0.0227 1.104,0.49414 1.125,1.15625 0.0209,0.66174 -0.45302,1.2267 -1.0625,1.25 -0.60983,0.0227 -1.104,-0.49415 -1.125,-1.15625 -0.021,-0.66211 0.45267,-1.2273 1.0625,-1.25 z m 6.4375,0 c 0.60983,-0.0227 1.104,0.49414 1.125,1.15625 0.0209,0.66174 -0.45302,1.2267 -1.0625,1.25 -0.60983,0.0227 -1.13525,-0.49415 -1.15625,-1.15625 -0.021,-0.66211 0.48392,-1.2273 1.09375,-1.25 z m 31.78125,0 c 0.60983,-0.0227 1.13525,0.49414 1.15625,1.15625 0.0209,0.66174 -0.45302,1.2267 -1.0625,1.25 -0.60983,0.0227 -1.13525,-0.49415 -1.15625,-1.15625 -0.021,-0.66211 0.45267,-1.2273 1.0625,-1.25 z m 6.4375,0 c 0.60983,-0.0227 1.104,0.49414 1.125,1.15625 0.0209,0.66174 -0.45302,1.2267 -1.0625,1.25 -0.60983,0.0227 -1.104,-0.49415 -1.125,-1.15625 -0.021,-0.66211 0.45267,-1.2273 1.0625,-1.25 z m 6.4375,0 c 0.60983,-0.0227 1.104,0.49414 1.125,1.15625 0.0209,0.66174 -0.45302,1.2267 -1.0625,1.25 -0.60983,0.0227 -1.13525,-0.49415 -1.15625,-1.15625 -0.021,-0.66211 0.48392,-1.2273 1.09375,-1.25 z m -57.53125,20.4375 c 0.60983,-0.0227 1.13525,0.49414 1.15625,1.15625 0.0209,0.66174 -0.45302,1.2267 -1.0625,1.25 -0.60983,0.0228 -1.13525,-0.49414 -1.15625,-1.15625 -0.021,-0.66211 0.45267,-1.2273 1.0625,-1.25 z m 6.4375,0 c 0.60983,-0.0227 1.104,0.49414 1.125,1.15625 0.0209,0.66174 -0.45302,1.2267 -1.0625,1.25 -0.60983,0.0228 -1.104,-0.49414 -1.125,-1.15625 -0.021,-0.66211 0.45267,-1.2273 1.0625,-1.25 z m 6.4375,0 c 0.60983,-0.0227 1.104,0.49414 1.125,1.15625 0.0209,0.66174 -0.45302,1.2267 -1.0625,1.25 -0.60983,0.0228 -1.13525,-0.49414 -1.15625,-1.15625 -0.021,-0.66211 0.48392,-1.2273 1.09375,-1.25 z m 31.78125,0 c 0.60983,-0.0227 1.13525,0.49414 1.15625,1.15625 0.0209,0.66174 -0.45302,1.2267 -1.0625,1.25 -0.60983,0.0228 -1.13525,-0.49414 -1.15625,-1.15625 -0.021,-0.66211 0.45267,-1.2273 1.0625,-1.25 z m 6.4375,0 c 0.60983,-0.0227 1.104,0.49414 1.125,1.15625 0.0209,0.66174 -0.45302,1.2267 -1.0625,1.25 -0.60983,0.0228 -1.104,-0.49414 -1.125,-1.15625 -0.021,-0.66211 0.45267,-1.2273 1.0625,-1.25 z m 6.4375,0 c 0.60983,-0.0227 1.104,0.49414 1.125,1.15625 0.0209,0.66174 -0.45302,1.2267 -1.0625,1.25 -0.60983,0.0228 -1.13525,-0.49414 -1.15625,-1.15625 -0.021,-0.66211 0.48392,-1.2273 1.09375,-1.25 z m -57.53125,20.4375 c 0.60983,-0.0227 1.13525,0.49414 1.15625,1.15625 0.0209,0.66174 -0.45302,1.2267 -1.0625,1.25 -0.60983,0.0228 -1.13525,-0.49414 -1.15625,-1.15625 -0.021,-0.66211 0.45267,-1.2273 1.0625,-1.25 z m 6.4375,0 c 0.60983,-0.0227 1.104,0.49414 1.125,1.15625 0.0209,0.66174 -0.45302,1.2267 -1.0625,1.25 -0.60983,0.0228 -1.104,-0.49414 -1.125,-1.15625 -0.021,-0.66211 0.45267,-1.2273 1.0625,-1.25 z m 6.4375,0 c 0.60983,-0.0227 1.104,0.49414 1.125,1.15625 0.0209,0.66174 -0.45302,1.2267 -1.0625,1.25 -0.60983,0.0228 -1.13525,-0.49414 -1.15625,-1.15625 -0.021,-0.66211 0.48392,-1.2273 1.09375,-1.25 z m 31.78125,0 c 0.60983,-0.0227 1.13525,0.49414 1.15625,1.15625 0.0209,0.66174 -0.45302,1.2267 -1.0625,1.25 -0.60983,0.0228 -1.13525,-0.49414 -1.15625,-1.15625 -0.021,-0.66211 0.45267,-1.2273 1.0625,-1.25 z m 6.4375,0 c 0.60983,-0.0227 1.104,0.49414 1.125,1.15625 0.0209,0.66174 -0.45302,1.2267 -1.0625,1.25 -0.60983,0.0228 -1.104,-0.49414 -1.125,-1.15625 -0.021,-0.66211 0.45267,-1.2273 1.0625,-1.25 z m 6.4375,0 c 0.60983,-0.0227 1.104,0.49414 1.125,1.15625 0.0209,0.66174 -0.45302,1.2267 -1.0625,1.25 -0.60983,0.0228 -1.13525,-0.49414 -1.15625,-1.15625 -0.021,-0.66211 0.48392,-1.2273 1.09375,-1.25 z"
         style="opacity:0.41466376;fill:#d99c43;fill-opacity:1;stroke:none" />
      <text
         sodipodi:linespacing="125%"
         id="text6662"
         y="754.50507"
         x="479.9491"
         style="font-size:4px;font-style:normal;font-variant:normal;font-weight:normal;font-stretch:normal;line-height:125%;letter-spacing:0px;word-spacing:0px;fill:#ffffff;fill-opacity:1;stroke:none;font-family:OCRA;-inkscape-font-specification:OCRA"
         xml:space="preserve"><tspan
           y="754.50507"
           x="479.9491"
           id="tspan6664"
           sodipodi:role="line">MOISTURE SENSOR</tspan></text>
      <g
         id="g41725"
         transform="matrix(1,0,0,-1,58.206643,1428.8065)">
        <rect
           style="fill:#fff6d5;fill-opacity:1;stroke:#00ffff;stroke-width:0;stroke-linecap:round;stroke-linejoin:round;stroke-miterlimit:4;stroke-opacity:1;stroke-dasharray:none;stroke-dashoffset:0"
           id="rect32255"
           width="34.564659"
           height="21.995691"
           x="426.05258"
           y="705.27631"
           ry="0" />
        <rect
           style="fill:#fff6d5;fill-opacity:1;stroke:#fff6d5;stroke-width:0;stroke-linecap:round;stroke-linejoin:round;stroke-miterlimit:4;stroke-opacity:1;stroke-dasharray:none;stroke-dashoffset:0"
           id="rect32626"
           width="2.4090517"
           height="6.0749998"
           x="426.15091"
           y="699.45416" />
        <rect
           y="699.45416"
           x="458.07217"
           height="6.0749998"
           width="2.4090517"
           id="rect33035"
           style="fill:#fff6d5;fill-opacity:1;stroke:#fff6d5;stroke-width:0;stroke-linecap:round;stroke-linejoin:round;stroke-miterlimit:4;stroke-opacity:1;stroke-dasharray:none;stroke-dashoffset:0" />
        <rect
           style="fill:#999999;fill-opacity:1;stroke:#00ffff;stroke-width:0;stroke-linecap:round;stroke-linejoin:round;stroke-miterlimit:4;stroke-opacity:1;stroke-dasharray:none;stroke-dashoffset:0"
           id="rect32477"
           width="3.0311463"
           height="9.2150612"
           x="453.02029"
           y="710.9975" />
        <rect
           style="opacity:0.76605506;fill:#ffeeaa;fill-opacity:1;stroke:#ffeeaa;stroke-width:0;stroke-linecap:round;stroke-linejoin:round;stroke-miterlimit:4;stroke-opacity:1;stroke-dasharray:none;stroke-dashoffset:0"
           id="rect32661"
           width="3.5180087"
           height="5.6475472"
           x="452.99637"
           y="705.33673" />
        <path
           style="fill:#b3b3b3;fill-opacity:1;stroke:#000000;stroke-width:0;stroke-linecap:round;stroke-linejoin:round;stroke-miterlimit:4;stroke-opacity:1;stroke-dasharray:none;stroke-dashoffset:0"
           d="m 454.91887,709.60775 0,1.389 1.09375,0 0,9.2391 0.5,0 0,-10.6281 -1.59375,0 z"
           id="rect33259"
           inkscape:connector-curvature="0" />
        <rect
           y="710.96808"
           x="-433.75647"
           height="9.2150612"
           width="3.0311463"
           id="rect33559"
           style="fill:#999999;fill-opacity:1;stroke:#00ffff;stroke-width:0;stroke-linecap:round;stroke-linejoin:round;stroke-miterlimit:4;stroke-opacity:1;stroke-dasharray:none;stroke-dashoffset:0"
           transform="scale(-1,1)" />
        <rect
           y="705.30731"
           x="-433.7804"
           height="5.6475472"
           width="3.5180087"
           id="rect33561"
           style="opacity:0.76605506;fill:#ffeeaa;fill-opacity:1;stroke:#ffeeaa;stroke-width:0;stroke-linecap:round;stroke-linejoin:round;stroke-miterlimit:4;stroke-opacity:1;stroke-dasharray:none;stroke-dashoffset:0"
           transform="scale(-1,1)" />
        <path
           inkscape:connector-curvature="0"
           id="path33563"
           d="m 431.85789,709.57829 0,1.389 -1.09375,0 0,9.2391 -0.5,0 0,-10.6281 1.59375,0 z"
           style="fill:#b3b3b3;fill-opacity:1;stroke:#000000;stroke-width:0;stroke-linecap:round;stroke-linejoin:round;stroke-miterlimit:4;stroke-opacity:1;stroke-dasharray:none;stroke-dashoffset:0" />
        <rect
           ry="0.99436891"
           y="696.75952"
           x="434.86993"
           height="6.2313786"
           width="1.9887378"
           id="rect33647"
           style="fill:#ececec;fill-opacity:1;stroke:#000000;stroke-width:0;stroke-linecap:round;stroke-linejoin:round;stroke-miterlimit:4;stroke-opacity:1;stroke-dasharray:none;stroke-dashoffset:0"
           rx="0.99436891" />
        <rect
           style="fill:#b3b3b3;fill-opacity:1;stroke:#000000;stroke-width:0;stroke-linecap:round;stroke-linejoin:round;stroke-miterlimit:4;stroke-opacity:1;stroke-dasharray:none;stroke-dashoffset:0"
           id="rect33634"
           width="1.9887378"
           height="3.2703688"
           x="434.86993"
           y="702.04077" />
        <rect
           style="fill:#ececec;fill-opacity:1;stroke:#000000;stroke-width:0;stroke-linecap:round;stroke-linejoin:round;stroke-miterlimit:4;stroke-opacity:1;stroke-dasharray:none;stroke-dashoffset:0"
           id="rect36702"
           width="1.9887378"
           height="6.2313786"
           x="442.73648"
           y="696.75952"
           ry="0.99436891"
           rx="0.99436891" />
        <rect
           y="702.04077"
           x="442.73648"
           height="3.2703688"
           width="1.9887378"
           id="rect36704"
           style="fill:#b3b3b3;fill-opacity:1;stroke:#000000;stroke-width:0;stroke-linecap:round;stroke-linejoin:round;stroke-miterlimit:4;stroke-opacity:1;stroke-dasharray:none;stroke-dashoffset:0" />
        <rect
           ry="0.99436891"
           y="696.75952"
           x="450.47046"
           height="6.2313786"
           width="1.9887378"
           id="rect36721"
           style="fill:#ececec;fill-opacity:1;stroke:#000000;stroke-width:0;stroke-linecap:round;stroke-linejoin:round;stroke-miterlimit:4;stroke-opacity:1;stroke-dasharray:none;stroke-dashoffset:0"
           rx="0.99436891" />
        <rect
           style="fill:#b3b3b3;fill-opacity:1;stroke:#000000;stroke-width:0;stroke-linecap:round;stroke-linejoin:round;stroke-miterlimit:4;stroke-opacity:1;stroke-dasharray:none;stroke-dashoffset:0"
           id="rect36723"
           width="1.9887378"
           height="3.2703688"
           x="450.47046"
           y="702.04077" />
      </g>
    </g>
  </g>
</svg>
