<?xml version="1.0" encoding="UTF-8" standalone="no"?>
<!-- Created with Fritzing (http://www.fritzing.org/) -->

<svg
   xmlns:dc="http://purl.org/dc/elements/1.1/"
   xmlns:cc="http://creativecommons.org/ns#"
   xmlns:rdf="http://www.w3.org/1999/02/22-rdf-syntax-ns#"
   xmlns:svg="http://www.w3.org/2000/svg"
   xmlns="http://www.w3.org/2000/svg"
   xmlns:sodipodi="http://sodipodi.sourceforge.net/DTD/sodipodi-0.dtd"
   xmlns:inkscape="http://www.inkscape.org/namespaces/inkscape"
   width="1.29919in"
   x="0in"
   version="1.2"
   y="0in"
   height="0.936681in"
   viewBox="0 0 93.5417 67.441"
   id="svg2"
   inkscape:version="0.48.1 "
   sodipodi:docname="minipro.svg">
  <metadata
     id="metadata273">
    <rdf:RDF>
      <cc:Work
         rdf:about="">
        <dc:format>image/svg+xml</dc:format>
        <dc:type
           rdf:resource="http://purl.org/dc/dcmitype/StillImage" />
      </cc:Work>
    </rdf:RDF>
  </metadata>
  <defs
     id="defs271" />
  <sodipodi:namedview
     pagecolor="#ffffff"
     bordercolor="#666666"
     borderopacity="1"
     objecttolerance="10"
     gridtolerance="10"
     guidetolerance="10"
     inkscape:pageopacity="0"
     inkscape:pageshadow="2"
     inkscape:window-width="1600"
     inkscape:window-height="838"
     id="namedview269"
     showgrid="false"
     inkscape:zoom="3.1197627"
     inkscape:cx="58.463551"
     inkscape:cy="42.150642"
     inkscape:window-x="-8"
     inkscape:window-y="-8"
     inkscape:window-maximized="1"
     inkscape:current-layer="svg2" />
  <g
     id="g5934">
    <circle
       cx="89.7967"
       cy="47.431"
       id="connector32pin"
       r="1.80999"
       sodipodi:cx="89.7967"
       sodipodi:cy="47.431"
       sodipodi:rx="1.80999"
       sodipodi:ry="1.80999"
       style="fill:none;stroke-width:0" />
    <circle
       cx="82.620697"
       cy="47.431"
       id="connector31pin"
       r="1.80999"
       sodipodi:cx="82.620697"
       sodipodi:cy="47.431"
       sodipodi:rx="1.80999"
       sodipodi:ry="1.80999"
       style="fill:none;stroke-width:0" />
    <circle
       cx="75.441704"
       cy="47.431"
       id="connector30pin"
       r="1.80999"
       sodipodi:cx="75.441704"
       sodipodi:cy="47.431"
       sodipodi:rx="1.80999"
       sodipodi:ry="1.80999"
       style="fill:none;stroke-width:0" />
    <circle
       cx="68.268799"
       cy="47.431"
       id="connector29pin"
       r="1.80999"
       sodipodi:cx="68.268799"
       sodipodi:cy="47.431"
       sodipodi:rx="1.80999"
       sodipodi:ry="1.80999"
       style="fill:none;stroke-width:0" />
    <circle
       cx="61.091801"
       cy="47.431"
       id="connector28pin"
       r="1.80999"
       sodipodi:cx="61.091801"
       sodipodi:cy="47.431"
       sodipodi:rx="1.80999"
       sodipodi:ry="1.80999"
       style="fill:none;stroke-width:0" />
    <circle
       cx="53.915798"
       cy="47.431"
       id="connector27pin"
       r="1.80999"
       sodipodi:cx="53.915798"
       sodipodi:cy="47.431"
       sodipodi:rx="1.80999"
       sodipodi:ry="1.80999"
       style="fill:none;stroke-width:0" />
    <circle
       cx="46.740799"
       cy="47.431"
       id="connector26pin"
       r="1.80999"
       sodipodi:cx="46.740799"
       sodipodi:cy="47.431"
       sodipodi:rx="1.80999"
       sodipodi:ry="1.80999"
       style="fill:none;stroke-width:0" />
    <circle
       cx="39.5639"
       cy="47.431"
       id="connector25pin"
       r="1.80999"
       sodipodi:cx="39.5639"
       sodipodi:cy="47.431"
       sodipodi:rx="1.80999"
       sodipodi:ry="1.80999"
       style="fill:none;stroke-width:0" />
    <circle
       cx="32.388901"
       cy="47.431"
       id="connector24pin"
       r="1.80999"
       sodipodi:cx="32.388901"
       sodipodi:cy="47.431"
       sodipodi:rx="1.80999"
       sodipodi:ry="1.80999"
       style="fill:none;stroke-width:0" />
    <circle
       cx="25.211901"
       cy="47.431"
       id="connector23pin"
       r="1.80999"
       sodipodi:cx="25.211901"
       sodipodi:cy="47.431"
       sodipodi:rx="1.80999"
       sodipodi:ry="1.80999"
       style="fill:none;stroke-width:0" />
    <circle
       cx="18.0369"
       cy="47.431"
       id="connector22pin"
       r="1.80999"
       sodipodi:cx="18.0369"
       sodipodi:cy="47.431"
       sodipodi:rx="1.80999"
       sodipodi:ry="1.80999"
       style="fill:none;stroke-width:0" />
    <circle
       cx="10.862"
       cy="47.431"
       id="connector21pin"
       r="1.80999"
       sodipodi:cx="10.862"
       sodipodi:cy="47.431"
       sodipodi:rx="1.80999"
       sodipodi:ry="1.80999"
       style="fill:none;stroke-width:0" />
    <circle
       cx="3.6519899"
       cy="43.451"
       id="connector20pin"
       r="1.80999"
       sodipodi:cx="3.6519899"
       sodipodi:cy="43.451"
       sodipodi:rx="1.80999"
       sodipodi:ry="1.80999"
       style="fill:none;stroke-width:0" />
    <circle
       cx="3.6519899"
       cy="36.275002"
       id="connector19pin"
       r="1.80999"
       sodipodi:cx="3.6519899"
       sodipodi:cy="36.275002"
       sodipodi:rx="1.80999"
       sodipodi:ry="1.80999"
       style="fill:none;stroke-width:0" />
    <circle
       cx="3.6529901"
       cy="29.101999"
       id="connector18pin"
       r="1.80999"
       sodipodi:cx="3.6529901"
       sodipodi:cy="29.101999"
       sodipodi:rx="1.80999"
       sodipodi:ry="1.80999"
       style="fill:none;stroke-width:0" />
    <circle
       cx="3.6529901"
       cy="21.927"
       id="connector17pin"
       r="1.80999"
       sodipodi:cx="3.6529901"
       sodipodi:cy="21.927"
       sodipodi:rx="1.80999"
       sodipodi:ry="1.80999"
       style="fill:none;stroke-width:0" />
    <circle
       cx="3.6529901"
       cy="14.75"
       id="connector16pin"
       r="1.80999"
       sodipodi:cx="3.6529901"
       sodipodi:cy="14.75"
       sodipodi:rx="1.80999"
       sodipodi:ry="1.80999"
       style="fill:none;stroke-width:0" />
    <circle
       cx="3.6529901"
       cy="7.5749998"
       id="connector15pin"
       r="1.80999"
       sodipodi:cx="3.6529901"
       sodipodi:cy="7.5749998"
       sodipodi:rx="1.80999"
       sodipodi:ry="1.80999"
       style="fill:none;stroke-width:0" />
    <circle
       cx="10.864"
       cy="3.5940001"
       id="connector14pin"
       r="1.80999"
       sodipodi:cx="10.864"
       sodipodi:cy="3.5940001"
       sodipodi:rx="1.80999"
       sodipodi:ry="1.80999"
       style="fill:none;stroke-width:0" />
    <circle
       cx="18.0399"
       cy="3.5940001"
       id="connector13pin"
       r="1.80999"
       sodipodi:cx="18.0399"
       sodipodi:cy="3.5940001"
       sodipodi:rx="1.80999"
       sodipodi:ry="1.80999"
       style="fill:none;stroke-width:0" />
    <circle
       cx="25.214899"
       cy="3.5940001"
       id="connector12pin"
       r="1.80999"
       sodipodi:cx="25.214899"
       sodipodi:cy="3.5940001"
       sodipodi:rx="1.80999"
       sodipodi:ry="1.80999"
       style="fill:none;stroke-width:0" />
    <circle
       cx="32.3909"
       cy="3.5940001"
       id="connector11pin"
       r="1.80999"
       sodipodi:cx="32.3909"
       sodipodi:cy="3.5940001"
       sodipodi:rx="1.80999"
       sodipodi:ry="1.80999"
       style="fill:none;stroke-width:0" />
    <circle
       cx="35.9799"
       cy="11.669"
       id="connector10pin"
       r="1.80999"
       sodipodi:cx="35.9799"
       sodipodi:cy="11.669"
       sodipodi:rx="1.80999"
       sodipodi:ry="1.80999"
       style="fill:none;stroke-width:0" />
    <circle
       cx="43.155899"
       cy="11.669"
       id="connector9pin"
       r="1.80999"
       sodipodi:cx="43.155899"
       sodipodi:cy="11.669"
       sodipodi:rx="1.80999"
       sodipodi:ry="1.80999"
       style="fill:none;stroke-width:0" />
    <circle
       cx="39.566898"
       cy="3.5940001"
       id="connector8pin"
       r="1.80999"
       sodipodi:cx="39.566898"
       sodipodi:cy="3.5940001"
       sodipodi:rx="1.80999"
       sodipodi:ry="1.80999"
       style="fill:none;stroke-width:0" />
    <circle
       cx="46.742802"
       cy="3.5940001"
       id="connector7pin"
       r="1.80999"
       sodipodi:cx="46.742802"
       sodipodi:cy="3.5940001"
       sodipodi:rx="1.80999"
       sodipodi:ry="1.80999"
       style="fill:none;stroke-width:0" />
    <circle
       cx="53.9188"
       cy="3.5940001"
       id="connector6pin"
       r="1.80999"
       sodipodi:cx="53.9188"
       sodipodi:cy="3.5940001"
       sodipodi:rx="1.80999"
       sodipodi:ry="1.80999"
       style="fill:none;stroke-width:0" />
    <circle
       cx="61.094799"
       cy="3.5940001"
       id="connector5pin"
       r="1.80999"
       sodipodi:cx="61.094799"
       sodipodi:cy="3.5940001"
       sodipodi:rx="1.80999"
       sodipodi:ry="1.80999"
       style="fill:none;stroke-width:0" />
    <circle
       cx="68.270798"
       cy="3.5940001"
       id="connector4pin"
       r="1.80999"
       sodipodi:cx="68.270798"
       sodipodi:cy="3.5940001"
       sodipodi:rx="1.80999"
       sodipodi:ry="1.80999"
       style="fill:none;stroke-width:0" />
    <circle
       cx="75.443703"
       cy="3.5940001"
       id="connector3pin"
       r="1.80999"
       sodipodi:cx="75.443703"
       sodipodi:cy="3.5940001"
       sodipodi:rx="1.80999"
       sodipodi:ry="1.80999"
       style="fill:none;stroke-width:0" />
    <circle
       cx="82.620697"
       cy="3.5940001"
       id="connector2pin"
       r="1.80999"
       sodipodi:cx="82.620697"
       sodipodi:cy="3.5940001"
       sodipodi:rx="1.80999"
       sodipodi:ry="1.80999"
       style="fill:none;stroke-width:0" />
    <path
       id="connector1pin"
       d="m 89.7967,5.405 c -0.999997,0 -1.81199,-0.812 -1.81199,-1.812 0,-0.999 0.811997,-1.812 1.81199,-1.812 0.997997,0 1.80999,0.812 1.80999,1.812 -0.003,1.001 -0.81199,1.812 -1.80999,1.812 z"
       inkscape:connector-curvature="0"
       style="fill:none;stroke-width:0" />
    <path
       d="m 0,0 0,51.023 93.5417,-0.142 0,-51.023 L 0,0 z M 3.65299,45.261 C 2.652993,45.261 1.842,44.449 1.842,43.45 c 0,-1 0.810997,-1.812 1.81099,-1.812 0.997997,0 1.80999,0.812 1.80999,1.812 -0.001,1 -0.812,1.811 -1.80999,1.811 z m 0,-7.176 c -0.999997,0 -1.81099,-0.812 -1.81099,-1.81 0,-1 0.810997,-1.812 1.81099,-1.812 0.997997,0 1.80999,0.812 1.80999,1.812 -0.001,0.999 -0.812,1.81 -1.80999,1.81 z m 0,-7.176 c -0.999997,0 -1.81099,-0.812 -1.81099,-1.81 0,-1 0.810997,-1.812 1.81099,-1.812 0.997997,0 1.80999,0.812 1.80999,1.812 0,1 -0.812,1.81 -1.80999,1.81 z m 0,-7.175 c -0.999997,0 -1.81099,-0.812 -1.81099,-1.81 0,-1 0.810997,-1.812 1.81099,-1.812 0.997997,0 1.80999,0.812 1.80999,1.812 -0.001,1.001 -0.812,1.81 -1.80999,1.81 z m 0,-7.175 c -0.999997,0 -1.81099,-0.812 -1.81099,-1.811 0,-1 0.810997,-1.812 1.81099,-1.812 0.997997,0 1.80999,0.812 1.80999,1.812 -0.001,1 -0.812,1.811 -1.80999,1.811 z m 0,-7.174 C 2.652993,9.385 1.842,8.573 1.842,7.573 c 0,-0.998 0.810997,-1.81 1.81099,-1.81 0.997997,0 1.80999,0.812 1.80999,1.81 -0.001,1.001 -0.812,1.812 -1.80999,1.812 z M 10.863,49.241 c -0.998997,0 -1.80999,-0.812 -1.80999,-1.812 0,-0.999 0.810997,-1.812 1.80999,-1.812 0.998993,0 1.81099,0.812 1.81099,1.812 -9.9e-4,1.002 -0.81199,1.812 -1.81099,1.812 z m 0,-43.836 c -0.998997,0 -1.80999,-0.812 -1.80999,-1.812 0,-0.999 0.810997,-1.812 1.80999,-1.812 0.998993,0 1.81099,0.812 1.81099,1.812 C 12.673,4.594 11.862,5.405 10.863,5.405 z m 7.1759,43.836 c -0.998997,0 -1.81099,-0.812 -1.81099,-1.812 0,-0.999 0.811997,-1.812 1.81099,-1.812 0.998993,0 1.80999,0.812 1.80999,1.812 10e-6,1.002 -0.81099,1.812 -1.80999,1.812 z m 0,-43.836 c -0.998997,0 -1.81099,-0.812 -1.81099,-1.812 0,-0.999 0.811997,-1.812 1.81099,-1.812 0.998993,0 1.80999,0.812 1.80999,1.812 10e-6,1.001 -0.81099,1.812 -1.80999,1.812 z m 7.176,43.836 c -0.998997,0 -1.81099,-0.812 -1.81099,-1.812 0,-0.999 0.811997,-1.812 1.81099,-1.812 0.998993,0 1.80999,0.812 1.80999,1.812 -9.9e-4,1.002 -0.81099,1.812 -1.80999,1.812 z m 0,-43.836 c -0.998997,0 -1.81099,-0.812 -1.81099,-1.812 0,-0.999 0.811997,-1.812 1.81099,-1.812 0.998993,0 1.80999,0.812 1.80999,1.812 -9.9e-4,1.001 -0.81099,1.812 -1.80999,1.812 z m 7.175,43.836 c -0.997997,0 -1.80899,-0.812 -1.80899,-1.812 0,-0.999 0.810997,-1.812 1.80899,-1.812 0.999997,0 1.81199,0.812 1.81199,1.812 -0.002,1.002 -0.81199,1.812 -1.81199,1.812 z m 0.002,-43.836 c -0.999997,0 -1.81099,-0.812 -1.81099,-1.812 0,-0.999 0.810997,-1.812 1.81099,-1.812 0.998997,0 1.80999,0.812 1.80999,1.812 -0.002,1.001 -0.81099,1.812 -1.80999,1.812 z m 7.173,43.836 c -0.997997,0 -1.80899,-0.812 -1.80899,-1.812 0,-0.999 0.810997,-1.812 1.80899,-1.812 0.999997,0 1.81199,0.812 1.81199,1.812 -9.9e-4,1.002 -0.81199,1.812 -1.81199,1.812 z m 0.002,-43.836 c -0.999997,0 -1.81099,-0.812 -1.81099,-1.812 0,-0.999 0.810997,-1.812 1.81099,-1.812 0.998997,0 1.80999,0.812 1.80999,1.812 -9.9e-4,1.001 -0.81099,1.812 -1.80999,1.812 z m 7.1749,43.836 c -0.998997,0 -1.80999,-0.812 -1.80999,-1.812 0,-0.999 0.811997,-1.812 1.80999,-1.812 0.999997,0 1.80999,0.812 1.80999,1.812 1e-5,1.002 -0.81099,1.812 -1.80999,1.812 z m 0.001,-43.836 c -0.999997,0 -1.81099,-0.812 -1.81099,-1.812 0,-0.999 0.811997,-1.812 1.81099,-1.812 0.998993,0 1.81099,0.812 1.81099,1.812 1e-5,1.001 -0.81199,1.812 -1.81099,1.812 z m -10.7639,8.07 c -0.999997,0 -1.81099,-0.812 -1.81099,-1.812 0,-0.999 0.810997,-1.811 1.81099,-1.811 0.998997,0 1.80999,0.812 1.80999,1.811 -9.9e-4,1.001 -0.81099,1.812 -1.80999,1.812 z m 7.175,0 c -0.999997,0 -1.80999,-0.812 -1.80999,-1.812 0,-0.999 0.810997,-1.811 1.80999,-1.811 0.998993,0 1.81099,0.812 1.81099,1.811 -0.0011,1.001 -0.81109,1.812 -1.81099,1.812 z m 10.7629,35.766 c -0.998997,0 -1.81199,-0.812 -1.81199,-1.812 0,-0.999 0.811997,-1.812 1.81199,-1.812 0.999993,0 1.81099,0.812 1.81099,1.812 1e-5,1.002 -0.81199,1.812 -1.81099,1.812 z m 0.002,-43.836 c -0.998997,0 -1.81199,-0.812 -1.81199,-1.812 0,-0.999 0.811997,-1.812 1.81199,-1.812 0.999993,0 1.81099,0.812 1.81099,1.812 -9.9e-4,1.001 -0.81199,1.812 -1.81099,1.812 z m 7.175,43.836 c -0.999997,0 -1.81099,-0.812 -1.81099,-1.812 0,-0.999 0.810997,-1.812 1.81099,-1.812 0.997997,0 1.80999,0.812 1.80999,1.812 -0.003,1.002 -0.81199,1.812 -1.80999,1.812 z m 10e-4,-43.836 c -0.999997,0 -1.81099,-0.812 -1.81099,-1.812 0,-0.999 0.810997,-1.812 1.81099,-1.812 0.997997,0 1.80899,0.812 1.80899,1.812 -9.9e-4,1.001 -0.81099,1.812 -1.80899,1.812 z m 7.176,43.836 c -0.999997,0 -1.81199,-0.812 -1.81199,-1.812 0,-0.999 0.811997,-1.812 1.81199,-1.812 0.997997,0 1.81099,0.812 1.81099,1.812 -0.004,1.002 -0.81299,1.812 -1.81099,1.812 z m 0,-43.836 c -0.999997,0 -1.81099,-0.812 -1.81099,-1.812 0,-0.999 0.810997,-1.812 1.81099,-1.812 0.997997,0 1.81199,0.812 1.81199,1.812 -0.004,1.001 -0.81399,1.812 -1.81199,1.812 z m 7.1729,43.836 c -0.999997,0 -1.81199,-0.812 -1.81199,-1.812 0,-0.999 0.811997,-1.812 1.81199,-1.812 0.997997,0 1.81099,0.812 1.81099,1.812 -9.9e-4,1.002 -0.81299,1.812 -1.81099,1.812 z m 0,-43.836 c -0.999997,0 -1.81199,-0.812 -1.81199,-1.812 0,-0.999 0.811997,-1.812 1.81199,-1.812 0.997997,0 1.81099,0.812 1.81099,1.812 -9.9e-4,1.001 -0.81299,1.812 -1.81099,1.812 z m 7.177,43.836 c -0.999997,0 -1.81199,-0.812 -1.81199,-1.812 0,-0.999 0.811997,-1.812 1.81199,-1.812 0.997997,0 1.80999,0.812 1.80999,1.812 1e-5,1.002 -0.81199,1.812 -1.80999,1.812 z m 0,-43.836 c -0.999997,0 -1.81199,-0.812 -1.81199,-1.812 0,-0.999 0.811997,-1.812 1.81199,-1.812 0.997997,0 1.80999,0.812 1.80999,1.812 1e-5,1.001 -0.81199,1.812 -1.80999,1.812 z m 7.176,43.836 c -0.999997,0 -1.81199,-0.812 -1.81199,-1.812 0,-0.999 0.811997,-1.812 1.81199,-1.812 0.997997,0 1.80999,0.812 1.80999,1.812 -0.003,1.002 -0.81199,1.812 -1.80999,1.812 z m 0,-43.836 c -0.999997,0 -1.81199,-0.812 -1.81199,-1.812 0,-0.999 0.811997,-1.812 1.81199,-1.812 0.997997,0 1.80999,0.812 1.80999,1.812 -0.003,1.001 -0.81199,1.812 -1.80999,1.812 z"
       id="path89"
       inkscape:connector-curvature="0"
       style="fill:#1a1a1a;stroke-width:0" />
    <g
       id="g91"
       style="stroke-width:0">
      <g
         id="g93"
         style="stroke-width:0">
        <g
           id="g95"
           style="stroke-width:0">
          <path
             d="m 10.863,1.042 c -1.407,0 -2.55199,1.146 -2.55199,2.554 0,1.407 1.145,2.552 2.55199,2.552 1.409,0 2.55299,-1.145 2.55299,-2.552 C 13.416,2.187 12.272,1.042 10.863,1.042 z m 0,4.362 c -0.998997,0 -1.80999,-0.812 -1.80999,-1.811 0,-0.999 0.810997,-1.812 1.80999,-1.812 0.998993,0 1.81099,0.812 1.81099,1.812 -9.9e-4,1 -0.81199,1.811 -1.81099,1.811 z"
             id="path97"
             inkscape:connector-curvature="0"
             style="fill:#9a916c;stroke-width:0" />
          <path
             d="m 18.0389,1.042 c -1.408,0 -2.55299,1.146 -2.55299,2.554 0,1.407 1.145,2.552 2.55299,2.552 1.409,0 2.55199,-1.145 2.55199,-2.552 C 20.5909,2.187 19.4479,1.042 18.0389,1.042 z m 0,4.362 c -0.998997,0 -1.81099,-0.812 -1.81099,-1.811 0,-0.999 0.811997,-1.812 1.81099,-1.812 0.998993,0 1.80999,0.812 1.80999,1.812 0,1 -0.81099,1.811 -1.80999,1.811 z"
             id="path99"
             inkscape:connector-curvature="0"
             style="fill:#9a916c;stroke-width:0" />
          <path
             d="m 25.2149,1.042 c -1.408,0 -2.55199,1.146 -2.55199,2.554 0,1.407 1.144,2.552 2.55199,2.552 1.409,0 2.55199,-1.145 2.55199,-2.552 C 27.7669,2.187 26.6239,1.042 25.2149,1.042 z m 0,4.362 c -0.998997,0 -1.81099,-0.812 -1.81099,-1.811 0,-0.999 0.811997,-1.812 1.81099,-1.812 0.998993,0 1.80999,0.812 1.80999,1.812 0,1 -0.81099,1.811 -1.80999,1.811 z"
             id="path101"
             inkscape:connector-curvature="0"
             style="fill:#9a916c;stroke-width:0" />
          <path
             d="m 32.3919,1.042 c -1.408,0 -2.55199,1.146 -2.55199,2.554 0,1.407 1.144,2.552 2.55199,2.552 1.408,0 2.55099,-1.145 2.55099,-2.552 C 34.9419,2.186 33.7999,1.042 32.3919,1.042 z m 0,4.362 c -0.999997,0 -1.81099,-0.812 -1.81099,-1.811 0,-0.999 0.810997,-1.812 1.81099,-1.812 0.998997,0 1.80999,0.812 1.80999,1.812 -9.9e-4,1 -0.81099,1.811 -1.80999,1.811 z"
             id="path103"
             inkscape:connector-curvature="0"
             style="fill:#9a916c;stroke-width:0" />
          <path
             d="m 39.5669,1.042 c -1.407,0 -2.55199,1.146 -2.55199,2.554 0,1.407 1.145,2.552 2.55199,2.552 1.408,0 2.55199,-1.145 2.55199,-2.552 C 42.1189,2.187 40.9759,1.042 39.5669,1.042 z m 0,4.362 c -0.999997,0 -1.81099,-0.812 -1.81099,-1.811 0,-0.999 0.810997,-1.812 1.81099,-1.812 0.998997,0 1.80999,0.812 1.80999,1.812 -9.9e-4,1 -0.81099,1.811 -1.80999,1.811 z"
             id="path105"
             inkscape:connector-curvature="0"
             style="fill:#9a916c;stroke-width:0" />
          <path
             d="m 46.7428,1.042 c -1.408,0 -2.55199,1.146 -2.55199,2.554 0,1.407 1.145,2.552 2.55199,2.552 1.406,0 2.55099,-1.145 2.55099,-2.552 C 49.2938,2.187 48.1508,1.042 46.7428,1.042 z m 0,4.362 c -0.999997,0 -1.81099,-0.812 -1.81099,-1.811 0,-0.999 0.811997,-1.812 1.81099,-1.812 0.998993,0 1.81099,0.812 1.81099,1.812 0,1 -0.81199,1.811 -1.81099,1.811 z"
             id="path107"
             inkscape:connector-curvature="0"
             style="fill:#9a916c;stroke-width:0" />
          <path
             d="m 35.9789,9.118 c -1.408,0 -2.55199,1.146 -2.55199,2.552 0,1.409 1.144,2.554 2.55199,2.554 1.40799,0 2.55099,-1.145 2.55099,-2.554 10e-6,-1.408 -1.14199,-2.552 -2.55099,-2.552 z m 0,4.361 c -0.999997,0 -1.81099,-0.812 -1.81099,-1.812 0,-1 0.810997,-1.811 1.81099,-1.811 0.998997,0 1.80999,0.812 1.80999,1.811 0,0.999 -0.80999,1.812 -1.80999,1.812 z"
             id="path109"
             inkscape:connector-curvature="0"
             style="fill:#9a916c;stroke-width:0" />
          <path
             d="m 43.1549,9.118 c -1.407,0 -2.55099,1.146 -2.55099,2.552 0,1.409 1.145,2.554 2.55099,2.554 1.409,0 2.55199,-1.145 2.55199,-2.554 C 45.7058,10.262 44.5628,9.118 43.1549,9.118 z m 0,4.361 c -0.999997,0 -1.80999,-0.812 -1.80999,-1.812 0,-1 0.811997,-1.811 1.80999,-1.811 0.998997,0 1.81099,0.812 1.81099,1.811 0,0.999 -0.81209,1.812 -1.81099,1.812 z"
             id="path111"
             inkscape:connector-curvature="0"
             style="fill:#9a916c;stroke-width:0" />
          <path
             d="m 53.9188,1.042 c -1.408,0 -2.55199,1.146 -2.55199,2.554 0,1.407 1.144,2.552 2.55199,2.552 1.409,0 2.55299,-1.145 2.55299,-2.552 1e-5,-1.409 -1.14399,-2.554 -2.55299,-2.554 z m 0,4.362 c -0.998997,0 -1.81199,-0.812 -1.81199,-1.811 0,-0.999 0.811997,-1.812 1.81199,-1.812 0.999993,0 1.81099,0.812 1.81099,1.812 0,1 -0.81199,1.811 -1.81099,1.811 z"
             id="path113"
             inkscape:connector-curvature="0"
             style="fill:#9a916c;stroke-width:0" />
          <path
             d="m 61.0948,1.042 c -1.408,0 -2.55299,1.146 -2.55299,2.554 0,1.407 1.145,2.552 2.55299,2.552 1.40799,0 2.55099,-1.145 2.55099,-2.552 1e-5,-1.409 -1.14299,-2.554 -2.55099,-2.554 z m 0,4.362 c -0.999997,0 -1.81099,-0.812 -1.81099,-1.811 0,-0.999 0.810997,-1.812 1.81099,-1.812 0.997997,0 1.80899,0.812 1.80899,1.812 0,1 -0.81099,1.811 -1.80899,1.811 z"
             id="path115"
             inkscape:connector-curvature="0"
             style="fill:#9a916c;stroke-width:0" />
          <path
             d="m 68.2708,1.042 c -1.408,0 -2.55299,1.146 -2.55299,2.554 0,1.407 1.145,2.552 2.55299,2.552 1.40799,0 2.55099,-1.145 2.55099,-2.552 C 70.8208,2.186 69.6788,1.042 68.2708,1.042 z m 0,4.362 c -0.999997,0 -1.81099,-0.812 -1.81099,-1.811 0,-0.999 0.810997,-1.812 1.81099,-1.812 0.997997,0 1.81199,0.812 1.81199,1.812 -0.002,1 -0.81399,1.811 -1.81199,1.811 z"
             id="path117"
             inkscape:connector-curvature="0"
             style="fill:#9a916c;stroke-width:0" />
          <path
             d="m 75.4437,1.042 c -1.406,0 -2.55299,1.146 -2.55299,2.554 0,1.407 1.146,2.552 2.55299,2.552 1.408,0 2.55299,-1.145 2.55299,-2.552 1e-5,-1.409 -1.14299,-2.554 -2.55299,-2.554 z m 0,4.362 c -0.999997,0 -1.81199,-0.812 -1.81199,-1.811 0,-0.999 0.811997,-1.812 1.81199,-1.812 0.997997,0 1.81099,0.812 1.81099,1.812 -9.9e-4,1 -0.81299,1.811 -1.81099,1.811 z"
             id="path119"
             inkscape:connector-curvature="0"
             style="fill:#9a916c;stroke-width:0" />
          <path
             d="m 82.6207,1.042 c -1.408,0 -2.55599,1.146 -2.55599,2.554 0,1.407 1.146,2.552 2.55599,2.552 1.405,0 2.55099,-1.145 2.55099,-2.552 1e-5,-1.409 -1.14399,-2.554 -2.55099,-2.554 z m 0,4.362 c -0.999997,0 -1.81199,-0.812 -1.81199,-1.811 0,-0.999 0.811997,-1.812 1.81199,-1.812 0.997997,0 1.80999,0.812 1.80999,1.812 0,1 -0.81199,1.811 -1.80999,1.811 z"
             id="path121"
             inkscape:connector-curvature="0"
             style="fill:#9a916c;stroke-width:0" />
          <path
             d="m 89.7967,1.042 c -1.407,0 -2.55299,1.146 -2.55299,2.554 0,1.407 1.146,2.552 2.55299,2.552 1.408,0 2.55199,-1.145 2.55199,-2.552 C 92.3487,2.187 91.2047,1.042 89.7967,1.042 z m 0,4.362 c -0.999997,0 -1.81199,-0.812 -1.81199,-1.811 0,-0.999 0.811997,-1.812 1.81199,-1.812 0.997997,0 1.80999,0.812 1.80999,1.812 0,1 -0.81199,1.811 -1.80999,1.811 z"
             id="path123"
             inkscape:connector-curvature="0"
             style="fill:#9a916c;stroke-width:0" />
        </g>
        <g
           id="g125"
           style="stroke-width:0">
          <path
             d="m 10.863,44.881 c -1.407,0 -2.55199,1.144 -2.55199,2.552 0,1.407 1.145,2.552 2.55199,2.552 1.409,0 2.55299,-1.145 2.55299,-2.552 C 13.415,46.023 12.272,44.881 10.863,44.881 z m 0,4.36 c -0.998997,0 -1.80999,-0.812 -1.80999,-1.812 0,-0.999 0.810997,-1.812 1.80999,-1.812 0.998993,0 1.81099,0.812 1.81099,1.812 -9.9e-4,1.002 -0.81199,1.812 -1.81099,1.812 z"
             id="path127"
             inkscape:connector-curvature="0"
             style="fill:#9a916c;stroke-width:0" />
          <path
             d="m 18.0389,44.881 c -1.408,0 -2.55299,1.144 -2.55299,2.552 0,1.407 1.145,2.552 2.55299,2.552 1.409,0 2.55199,-1.145 2.55199,-2.552 10e-6,-1.41 -1.14299,-2.552 -2.55199,-2.552 z m 0,4.36 c -0.998997,0 -1.81099,-0.812 -1.81099,-1.812 0,-0.999 0.811997,-1.812 1.81099,-1.812 0.998993,0 1.80999,0.812 1.80999,1.812 10e-6,1.002 -0.81099,1.812 -1.80999,1.812 z"
             id="path129"
             inkscape:connector-curvature="0"
             style="fill:#9a916c;stroke-width:0" />
          <path
             d="m 25.2149,44.881 c -1.408,0 -2.55199,1.144 -2.55199,2.552 0,1.407 1.144,2.552 2.55199,2.552 1.409,0 2.55199,-1.145 2.55199,-2.552 10e-6,-1.41 -1.14299,-2.552 -2.55199,-2.552 z m 0,4.36 c -0.998997,0 -1.81099,-0.812 -1.81099,-1.812 0,-0.999 0.811997,-1.812 1.81099,-1.812 0.998993,0 1.80999,0.812 1.80999,1.812 -9.9e-4,1.002 -0.81099,1.812 -1.80999,1.812 z"
             id="path131"
             inkscape:connector-curvature="0"
             style="fill:#9a916c;stroke-width:0" />
          <path
             d="m 32.3899,44.881 c -1.408,0 -2.55099,1.144 -2.55099,2.552 0,1.407 1.143,2.552 2.55099,2.552 1.409,0 2.55199,-1.145 2.55199,-2.552 10e-6,-1.41 -1.14299,-2.552 -2.55199,-2.552 z m 0,4.36 c -0.997997,0 -1.80899,-0.812 -1.80899,-1.812 0,-0.999 0.810997,-1.812 1.80899,-1.812 0.999997,0 1.81199,0.812 1.81199,1.812 -0.002,1.002 -0.81199,1.812 -1.81199,1.812 z"
             id="path133"
             inkscape:connector-curvature="0"
             style="fill:#9a916c;stroke-width:0" />
          <path
             d="m 39.5649,44.881 c -1.407,0 -2.55099,1.144 -2.55099,2.552 0,1.407 1.144,2.552 2.55099,2.552 1.409,0 2.55299,-1.145 2.55299,-2.552 -9.9e-4,-1.41 -1.14299,-2.552 -2.55299,-2.552 z m 0,4.36 c -0.997997,0 -1.80899,-0.812 -1.80899,-1.812 0,-0.999 0.810997,-1.812 1.80899,-1.812 0.999997,0 1.81199,0.812 1.81199,1.812 -9.9e-4,1.002 -0.81199,1.812 -1.81199,1.812 z"
             id="path135"
             inkscape:connector-curvature="0"
             style="fill:#9a916c;stroke-width:0" />
          <path
             d="m 46.7418,44.881 c -1.409,0 -2.55199,1.144 -2.55199,2.552 0,1.407 1.144,2.552 2.55199,2.552 1.405,0 2.55099,-1.145 2.55099,-2.552 1e-5,-1.41 -1.14399,-2.552 -2.55099,-2.552 z m 0,4.36 c -0.998997,0 -1.80999,-0.812 -1.80999,-1.812 0,-0.999 0.811997,-1.812 1.80999,-1.812 0.999997,0 1.80999,0.812 1.80999,1.812 1e-5,1.002 -0.81099,1.812 -1.80999,1.812 z"
             id="path137"
             inkscape:connector-curvature="0"
             style="fill:#9a916c;stroke-width:0" />
          <path
             d="m 53.9168,44.881 c -1.408,0 -2.55199,1.144 -2.55199,2.552 0,1.407 1.144,2.552 2.55199,2.552 1.409,0 2.55199,-1.145 2.55199,-2.552 1e-5,-1.41 -1.14299,-2.552 -2.55199,-2.552 z m 0,4.36 c -0.998997,0 -1.81199,-0.812 -1.81199,-1.812 0,-0.999 0.811997,-1.812 1.81199,-1.812 0.999993,0 1.81099,0.812 1.81099,1.812 1e-5,1.002 -0.81199,1.812 -1.81099,1.812 z"
             id="path139"
             inkscape:connector-curvature="0"
             style="fill:#9a916c;stroke-width:0" />
          <path
             d="m 61.0938,44.881 c -1.407,0 -2.55299,1.144 -2.55299,2.552 0,1.407 1.146,2.552 2.55299,2.552 1.408,0 2.55199,-1.145 2.55199,-2.552 1e-5,-1.41 -1.14399,-2.552 -2.55199,-2.552 z m 0,4.36 c -0.999997,0 -1.81099,-0.812 -1.81099,-1.812 0,-0.999 0.810997,-1.812 1.81099,-1.812 0.997997,0 1.80999,0.812 1.80999,1.812 -0.003,1.002 -0.81199,1.812 -1.80999,1.812 z"
             id="path141"
             inkscape:connector-curvature="0"
             style="fill:#9a916c;stroke-width:0" />
          <path
             d="m 68.2708,44.881 c -1.408,0 -2.55399,1.144 -2.55399,2.552 0,1.407 1.146,2.552 2.55399,2.552 1.40799,0 2.55099,-1.145 2.55099,-2.552 -9.9e-4,-1.41 -1.14299,-2.552 -2.55099,-2.552 z m 0,4.36 c -0.999997,0 -1.81199,-0.812 -1.81199,-1.812 0,-0.999 0.811997,-1.812 1.81199,-1.812 0.997997,0 1.81099,0.812 1.81099,1.812 -0.004,1.002 -0.81299,1.812 -1.81099,1.812 z"
             id="path143"
             inkscape:connector-curvature="0"
             style="fill:#9a916c;stroke-width:0" />
          <path
             d="m 75.4437,44.881 c -1.406,0 -2.55299,1.144 -2.55299,2.552 0,1.407 1.146,2.552 2.55299,2.552 1.408,0 2.55299,-1.145 2.55299,-2.552 -9.9e-4,-1.41 -1.14299,-2.552 -2.55299,-2.552 z m 0,4.36 c -0.999997,0 -1.81199,-0.812 -1.81199,-1.812 0,-0.999 0.811997,-1.812 1.81199,-1.812 0.997997,0 1.81099,0.812 1.81099,1.812 -9.9e-4,1.002 -0.81299,1.812 -1.81099,1.812 z"
             id="path145"
             inkscape:connector-curvature="0"
             style="fill:#9a916c;stroke-width:0" />
          <path
             d="m 82.6207,44.881 c -1.408,0 -2.55599,1.144 -2.55599,2.552 0,1.407 1.146,2.552 2.55599,2.552 1.405,0 2.55099,-1.145 2.55099,-2.552 1e-5,-1.41 -1.14399,-2.552 -2.55099,-2.552 z m 0,4.36 c -0.999997,0 -1.81199,-0.812 -1.81199,-1.812 0,-0.999 0.811997,-1.812 1.81199,-1.812 0.997997,0 1.80999,0.812 1.80999,1.812 1e-5,1.002 -0.81199,1.812 -1.80999,1.812 z"
             id="path147"
             inkscape:connector-curvature="0"
             style="fill:#9a916c;stroke-width:0" />
          <path
             d="m 89.7967,44.881 c -1.407,0 -2.55299,1.144 -2.55299,2.552 0,1.407 1.146,2.552 2.55299,2.552 1.408,0 2.55199,-1.145 2.55199,-2.552 10e-6,-1.41 -1.14399,-2.552 -2.55199,-2.552 z m 0,4.36 c -0.999997,0 -1.81199,-0.812 -1.81199,-1.812 0,-0.999 0.811997,-1.812 1.81199,-1.812 0.997997,0 1.80999,0.812 1.80999,1.812 -0.003,1.002 -0.81199,1.812 -1.80999,1.812 z"
             id="path149"
             inkscape:connector-curvature="0"
             style="fill:#9a916c;stroke-width:0" />
        </g>
      </g>
      <g
         id="g151"
         style="stroke-width:0">
        <path
           d="m 6.20398,7.575 c 0,-1.408 -1.144,-2.554 -2.55199,-2.554 C 2.24399,5.022 1.1,6.167 1.1,7.575 c 0,1.407 1.145,2.551 2.55299,2.551 1.40899,0 2.55099,-1.143 2.55099,-2.551 z m -4.36099,0 c 0,-1 0.810997,-1.812 1.81099,-1.812 0.997997,0 1.80999,0.812 1.80999,1.812 0,0.998 -0.811997,1.81 -1.80999,1.81 -1.00099,0 -1.81099,-0.812 -1.81099,-1.81 z"
           id="path153"
           inkscape:connector-curvature="0"
           style="fill:#9a916c;stroke-width:0" />
        <path
           d="m 6.20398,14.751 c 0,-1.406 -1.144,-2.553 -2.55199,-2.553 -1.408,0 -2.55199,1.146 -2.55199,2.553 0,1.408 1.145,2.553 2.55299,2.553 1.40899,-0.002 2.55099,-1.145 2.55099,-2.553 z m -4.36099,0 c 0,-1 0.810997,-1.812 1.81099,-1.812 0.997997,0 1.80999,0.812 1.80999,1.812 0,0.998 -0.811997,1.811 -1.80999,1.811 C 2.65299,16.56 1.84299,15.749 1.84299,14.751 z"
           id="path155"
           inkscape:connector-curvature="0"
           style="fill:#9a916c;stroke-width:0" />
        <path
           d="m 6.20398,21.927 c 0,-1.408 -1.144,-2.555 -2.55199,-2.555 -1.408,0 -2.55199,1.146 -2.55199,2.555 0,1.406 1.145,2.551 2.55299,2.551 1.40899,0 2.55099,-1.143 2.55099,-2.551 z m -4.36099,0 c 0,-1 0.810997,-1.812 1.81099,-1.812 0.997997,0 1.80999,0.812 1.80999,1.812 0,0.997 -0.811997,1.81 -1.80999,1.81 -1.00099,-0.002 -1.81099,-0.811 -1.81099,-1.81 z"
           id="path157"
           inkscape:connector-curvature="0"
           style="fill:#9a916c;stroke-width:0" />
        <path
           d="m 6.20398,29.101 c 0,-1.408 -1.144,-2.554 -2.55199,-2.554 -1.408,0 -2.55199,1.146 -2.55199,2.554 0,1.407 1.145,2.551 2.55299,2.551 1.40899,-0.001 2.55099,-1.142 2.55099,-2.551 z m -4.36099,0 c 0,-1 0.810997,-1.812 1.81099,-1.812 0.997997,0 1.80999,0.812 1.80999,1.812 0,0.998 -0.811997,1.81 -1.80999,1.81 -1.00099,-0.002 -1.81099,-0.812 -1.81099,-1.81 z"
           id="path159"
           inkscape:connector-curvature="0"
           style="fill:#9a916c;stroke-width:0" />
        <path
           d="m 6.20398,36.276 c 0,-1.407 -1.144,-2.553 -2.55199,-2.553 -1.408,0 -2.55199,1.146 -2.55199,2.553 0,1.408 1.145,2.552 2.55299,2.552 1.40899,-0.001 2.55099,-1.143 2.55099,-2.552 z m -4.36099,0 c 0,-1 0.810997,-1.812 1.81099,-1.812 0.997997,0 1.80999,0.812 1.80999,1.812 0,0.998 -0.811997,1.81 -1.80999,1.81 -1.00099,-10e-4 -1.81099,-0.812 -1.81099,-1.81 z"
           id="path161"
           inkscape:connector-curvature="0"
           style="fill:#9a916c;stroke-width:0" />
        <path
           d="m 6.20398,43.452 c 0,-1.408 -1.144,-2.554 -2.55199,-2.554 -1.408,0 -2.55199,1.146 -2.55199,2.554 0,1.407 1.145,2.551 2.55299,2.551 1.40899,0 2.55099,-1.143 2.55099,-2.551 z m -4.36099,0 c 0,-1 0.810997,-1.812 1.81099,-1.812 0.997997,0 1.80999,0.812 1.80999,1.812 0,0.998 -0.811997,1.811 -1.80999,1.811 C 2.65299,45.261 1.84299,44.45 1.84299,43.452 z"
           id="path163"
           inkscape:connector-curvature="0"
           style="fill:#9a916c;stroke-width:0" />
      </g>
    </g>
    <g
       id="g165"
       style="stroke-width:0;fill:#333333">
      <g
         id="g167"
         style="stroke-width:0;fill:#333333">
        <rect
           width="9.1759701"
           x="21.5149"
           y="11.243"
           height="4.4380002"
           id="rect169"
           style="fill:#333333;stroke-width:0" />
        <rect
           width="9.1759701"
           x="21.5149"
           y="35.345001"
           height="4.4380002"
           id="rect171"
           style="fill:#333333;stroke-width:0" />
      </g>
      <g
         id="g173"
         style="stroke-width:0;fill:#333333">
        <rect
           width="7.4709702"
           x="22.0159"
           y="23.926001"
           height="4.4380002"
           id="rect175"
           style="fill:#333333;stroke-width:0" />
      </g>
    </g>
    <rect
       width="18.503723"
       x="-29.338093"
       y="-65.419563"
       height="18.505823"
       transform="matrix(-0.70710678,0.70710678,-0.70710678,-0.70710678,0,0)"
       id="rect177"
       style="fill:#333333;stroke-width:0" />
    <text
       x="-30.3064"
       y="15.2992"
       transform="matrix(0,-1,1,0,0,0)"
       font-size="2.99999"
       id="text179"
       style="font-size:2.99998999px;fill:#ffffff;stroke-width:0;font-family:OCRA">Mini</text>
    <text
       x="-38.696999"
       y="19.499399"
       transform="matrix(0,-1,1,0,0,0)"
       font-size="2.99999"
       id="text181"
       style="font-size:2.99998999px;fill:#ffffff;stroke-width:0;font-family:OCRA">Arduino Pro</text>
    <text
       x="-31.5056"
       y="73.317101"
       transform="matrix(0,-1,1,0,0,0)"
       font-size="2.99999"
       id="text183"
       style="font-size:2.99998999px;fill:#ffffff;stroke-width:0;font-family:OCRA">Reset</text>
    <text
       x="-91.879601"
       y="-6.5700998"
       transform="scale(-1,-1)"
       font-size="2.99999"
       id="text201"
       style="font-size:2.99998999px;fill:#ffffff;stroke-width:0;font-family:OCRA">10</text>
    <text
       x="-84.703796"
       y="-6.5700998"
       transform="scale(-1,-1)"
       font-size="2.99999"
       id="text203"
       style="font-size:2.99998999px;fill:#ffffff;stroke-width:0;font-family:OCRA">11</text>
    <text
       x="-77.528"
       y="-6.5700998"
       transform="scale(-1,-1)"
       font-size="2.99999"
       id="text205"
       style="font-size:2.99998999px;fill:#ffffff;stroke-width:0;font-family:OCRA">12</text>
    <text
       x="-70.352303"
       y="-6.5700998"
       transform="scale(-1,-1)"
       font-size="2.99999"
       id="text207"
       style="font-size:2.99998999px;fill:#ffffff;stroke-width:0;font-family:OCRA">13</text>
    <text
       x="-63.176601"
       y="-6.5700998"
       transform="scale(-1,-1)"
       font-size="2.99999"
       id="text209"
       style="font-size:2.99998999px;fill:#ffffff;stroke-width:0;font-family:OCRA">A0</text>
    <text
       x="-56.000801"
       y="-6.5700998"
       transform="scale(-1,-1)"
       font-size="2.99999"
       id="text211"
       style="font-size:2.99998999px;fill:#ffffff;stroke-width:0;font-family:OCRA">A1</text>
    <text
       x="-48.825001"
       y="-6.5700998"
       transform="scale(-1,-1)"
       font-size="2.99999"
       id="text213"
       style="font-size:2.99998999px;fill:#ffffff;stroke-width:0;font-family:OCRA">A2</text>
    <text
       x="-41.649799"
       y="-6.5700998"
       transform="scale(-1,-1)"
       font-size="2.99999"
       id="text215"
       style="font-size:2.99998999px;fill:#ffffff;stroke-width:0;font-family:OCRA">A3</text>
    <text
       x="-45.238602"
       y="-14.7634"
       transform="scale(-1,-1)"
       font-size="2.99999"
       id="text217"
       style="font-size:2.99998999px;fill:#ffffff;stroke-width:0;font-family:OCRA">A4</text>
    <text
       x="-38.062901"
       y="-14.7634"
       transform="scale(-1,-1)"
       font-size="2.99999"
       id="text219"
       style="font-size:2.99998999px;fill:#ffffff;stroke-width:0;font-family:OCRA">A5</text>
    <text
       x="-35.478901"
       y="-6.5700998"
       transform="scale(-1,-1)"
       font-size="2.99999"
       id="text221"
       style="font-size:2.99998999px;fill:#ffffff;stroke-width:0;font-family:OCRA">VCC</text>
    <text
       x="-28.3041"
       y="-6.5700998"
       transform="scale(-1,-1)"
       font-size="2.99999"
       id="text223"
       style="font-size:2.99998999px;fill:#ffffff;stroke-width:0;font-family:OCRA">RST</text>
    <text
       x="-21.1283"
       y="-6.5700998"
       transform="scale(-1,-1)"
       font-size="2.99999"
       id="text225"
       style="font-size:2.99998999px;fill:#ffffff;stroke-width:0;font-family:OCRA">GND</text>
    <text
       x="-13.9526"
       y="-6.5700998"
       transform="scale(-1,-1)"
       font-size="2.99999"
       id="text227"
       style="font-size:2.99998999px;fill:#ffffff;stroke-width:0;font-family:OCRA">RAW</text>
    <text
       x="-90.875702"
       y="-41.759499"
       transform="scale(-1,-1)"
       font-size="2.99999"
       id="text231"
       style="font-size:2.99998999px;fill:#ffffff;stroke-width:0;font-family:OCRA">9</text>
    <text
       x="-83.699898"
       y="-41.759499"
       transform="scale(-1,-1)"
       font-size="2.99999"
       id="text233"
       style="font-size:2.99998999px;fill:#ffffff;stroke-width:0;font-family:OCRA">8</text>
    <text
       x="-76.524101"
       y="-41.759499"
       transform="scale(-1,-1)"
       font-size="2.99999"
       id="text235"
       style="font-size:2.99998999px;fill:#ffffff;stroke-width:0;font-family:OCRA">7</text>
    <text
       x="-69.348396"
       y="-41.759499"
       transform="scale(-1,-1)"
       font-size="2.99999"
       id="text237"
       style="font-size:2.99998999px;fill:#ffffff;stroke-width:0;font-family:OCRA">6</text>
    <text
       x="-62.172699"
       y="-41.759499"
       transform="scale(-1,-1)"
       font-size="2.99999"
       id="text239"
       style="font-size:2.99998999px;fill:#ffffff;stroke-width:0;font-family:OCRA">5</text>
    <text
       x="-54.996899"
       y="-41.759499"
       transform="scale(-1,-1)"
       font-size="2.99999"
       id="text241"
       style="font-size:2.99998999px;fill:#ffffff;stroke-width:0;font-family:OCRA">4</text>
    <text
       x="-47.821098"
       y="-41.759499"
       transform="scale(-1,-1)"
       font-size="2.99999"
       id="text243"
       style="font-size:2.99998999px;fill:#ffffff;stroke-width:0;font-family:OCRA">3</text>
    <text
       x="-40.645901"
       y="-41.759499"
       transform="scale(-1,-1)"
       font-size="2.99999"
       id="text245"
       style="font-size:2.99998999px;fill:#ffffff;stroke-width:0;font-family:OCRA">2</text>
    <text
       x="-35.478901"
       y="-41.759499"
       transform="scale(-1,-1)"
       font-size="2.99999"
       id="text247"
       style="font-size:2.99998999px;fill:#ffffff;stroke-width:0;font-family:OCRA">GND</text>
    <text
       x="-28.3041"
       y="-41.759499"
       transform="scale(-1,-1)"
       font-size="2.99999"
       id="text249"
       style="font-size:2.99998999px;fill:#ffffff;stroke-width:0;font-family:OCRA">RST</text>
    <text
       x="-20.561899"
       y="-41.759499"
       transform="scale(-1,-1)"
       font-size="2.99999"
       id="text251"
       style="font-size:2.99998999px;fill:#ffffff;stroke-width:0;font-family:OCRA">RXI</text>
    <text
       x="-13.9526"
       y="-41.759499"
       transform="scale(-1,-1)"
       font-size="2.99999"
       id="text253"
       style="font-size:2.99998999px;fill:#ffffff;stroke-width:0;font-family:OCRA">TX0</text>
    <text
       x="-39.3064"
       y="9.4428701"
       transform="matrix(0,-1,1,0,0,0)"
       font-size="2.99999"
       id="text257"
       style="font-size:2.99998999px;fill:#ffffff;stroke-width:0;font-family:OCRA">TX0</text>
    <text
       x="-32.1306"
       y="9.4428701"
       transform="matrix(0,-1,1,0,0,0)"
       font-size="2.99999"
       id="text259"
       style="font-size:2.99998999px;fill:#ffffff;stroke-width:0;font-family:OCRA">RXI</text>
    <text
       x="-24.956301"
       y="9.4428701"
       transform="matrix(0,-1,1,0,0,0)"
       font-size="2.99999"
       id="text261"
       style="font-size:2.99998999px;fill:#ffffff;stroke-width:0;font-family:OCRA">VCC</text>
    <text
       x="-17.7805"
       y="9.4428701"
       transform="matrix(0,-1,1,0,0,0)"
       font-size="2.99999"
       id="text263"
       style="font-size:2.99998999px;fill:#ffffff;stroke-width:0;font-family:OCRA">GND</text>
    <text
       style="font-size:2.99998999px;fill:#ffffff;stroke-width:0;font-family:OCRA"
       id="text265"
       font-size="2.99999"
       transform="scale(-1,-1)"
       y="-46.853298"
       x="-6.7416801">GRN</text>
    <text
       style="font-size:2.99998999px;fill:#ffffff;stroke-width:0;font-family:OCRA"
       id="text267"
       font-size="2.99999"
       transform="scale(-1,-1)"
       y="-1.9586999"
       x="-6.7416801">BLK</text>
    <g
       style="stroke-width:0"
       id="g73108"
       transform="matrix(0,1.0000001,-1.0000001,0,91.279259,17.959819)">
      <polygon
         style="fill:#6d6d6d;stroke-width:0"
         id="polygon73110"
         points="12.9779,1.141 3.41499,1.141 1.142,3.41299 1.142,12.976 3.41499,15.25 12.9779,15.25 15.25,12.976 15.25,3.41299 " />
      <rect
         style="fill:#6d6d6d;stroke-width:0"
         id="rect73112"
         height="16.392"
         y="0"
         x="3.4149899"
         width="9.5629702" />
      <rect
         style="fill:#6d6d6d;stroke-width:0"
         id="rect73114"
         height="9.5619602"
         y="3.4129901"
         x="0"
         width="16.392" />
      <polygon
         style="fill:#7f7f7f;stroke-width:0"
         id="polygon73116"
         points="12.513,1.82599 3.87899,1.82599 1.82699,3.87699 1.82699,12.513 3.87899,14.565 12.513,14.565 14.566,12.513 14.566,3.87699 " />
      <polyline
         style="opacity:0.2;fill:none;stroke:#ffffff;stroke-width:0.236899;stroke-miterlimit:10"
         id="polyline73118"
         stroke-miterlimit="10"
         points="4.10499,2.15999,2.16099,4.10298,2.16099,12.2869,4.10499,14.232,12.288,14.232" />
      <polyline
         style="opacity:0.2;fill:none;stroke:#606060;stroke-width:0.236899;stroke-miterlimit:10"
         id="polyline73120"
         stroke-miterlimit="10"
         points="12.289,14.232,14.233,12.289,14.233,4.10499,12.289,2.15999,4.10599,2.15999" />
      <g
         style="stroke-width:0"
         id="g73122">
        <path
           style="fill:#bca16a;stroke-width:0"
           inkscape:connector-curvature="0"
           id="path73124"
           d="m 8.19598,11.923 c -2.055,0 -3.72699,-1.672 -3.72699,-3.72699 0,-2.055 1.672,-3.72799 3.72699,-3.72799 2.05499,0 3.72699,1.672 3.72699,3.72799 C 11.922,10.251 10.25,11.923 8.19598,11.923 z" />
        <path
           style="fill:#606060;stroke-width:0"
           inkscape:connector-curvature="0"
           id="path73126"
           d="m 8.19598,4.71899 c 1.92,0 3.47699,1.55699 3.47699,3.47799 0,1.92 -1.55699,3.47699 -3.47699,3.47699 -1.92,0 -3.47699,-1.55699 -3.47699,-3.47699 0,-1.922 1.55699,-3.47799 3.47699,-3.47799 m 0,-0.5 c -2.19299,0 -3.97698,1.78399 -3.97698,3.97799 0,2.192 1.78399,3.97698 3.97698,3.97698 2.192,0 3.97698,-1.78399 3.97698,-3.97698 C 12.172,6.00299 10.3879,4.21899 8.19598,4.21899 l 0,0 z" />
      </g>
      <path
         style="opacity:0.2;fill:#bca16a;stroke:#ffffff;stroke-width:0.53039902;stroke-miterlimit:10"
         inkscape:connector-curvature="0"
         id="path73128"
         stroke-miterlimit="10"
         d="m 10.39,10.389 c -1.212,1.212 -3.17699,1.212 -4.38899,0 -1.212,-1.213 -1.212,-3.17799 0,-4.38998" />
      <path
         style="opacity:0.2;fill:#bca16a;stroke:#606060;stroke-width:0.53039902;stroke-miterlimit:10"
         inkscape:connector-curvature="0"
         id="path73130"
         stroke-miterlimit="10"
         d="m 6.00098,5.99898 c 1.212,-1.212 3.17699,-1.212 4.38899,0 1.212,1.213 1.212,3.17699 0,4.38998" />
    </g>
  </g>
</svg>
