<?xml version="1.0" encoding="UTF-8" standalone="no"?>
<!-- Created with Inkscape (http://www.inkscape.org/) -->

<svg
   xmlns:dc="http://purl.org/dc/elements/1.1/"
   xmlns:cc="http://creativecommons.org/ns#"
   xmlns:rdf="http://www.w3.org/1999/02/22-rdf-syntax-ns#"
   xmlns:svg="http://www.w3.org/2000/svg"
   xmlns="http://www.w3.org/2000/svg"
   xmlns:sodipodi="http://sodipodi.sourceforge.net/DTD/sodipodi-0.dtd"
   xmlns:inkscape="http://www.inkscape.org/namespaces/inkscape"
   width="744.09448819"
   height="1052.3622047"
   id="svg7347"
   version="1.1"
   inkscape:version="0.48.1 "
   sodipodi:docname="New document 7">
  <defs
     id="defs7349">
    <inkscape:path-effect
       effect="spiro"
       id="path-effect6984"
       is_visible="true" />
    <inkscape:path-effect
       effect="spiro"
       id="path-effect6980"
       is_visible="true" />
  </defs>
  <sodipodi:namedview
     id="base"
     pagecolor="#ffffff"
     bordercolor="#666666"
     borderopacity="1.0"
     inkscape:pageopacity="0.0"
     inkscape:pageshadow="2"
     inkscape:zoom="0.35"
     inkscape:cx="375"
     inkscape:cy="520"
     inkscape:document-units="px"
     inkscape:current-layer="layer1"
     showgrid="false"
     inkscape:window-width="469"
     inkscape:window-height="431"
     inkscape:window-x="150"
     inkscape:window-y="150"
     inkscape:window-maximized="0" />
  <metadata
     id="metadata7352">
    <rdf:RDF>
      <cc:Work
         rdf:about="">
        <dc:format>image/svg+xml</dc:format>
        <dc:type
           rdf:resource="http://purl.org/dc/dcmitype/StillImage" />
        <dc:title></dc:title>
      </cc:Work>
    </rdf:RDF>
  </metadata>
  <g
     inkscape:label="Layer 1"
     inkscape:groupmode="layer"
     id="layer1">
    <g
       transform="translate(-1129.4869,-202.30398)"
       id="g7222">
      <path
         id="rect3459"
         d="m 1422.9625,679.69072 0,47.09375 79.1563,0 0,-47.09375 -79.1563,0 z m 72.8125,3.65625 c 0.9942,0 1.7812,0.78715 1.7812,1.78125 0,0.9942 -0.787,1.8125 -1.7812,1.8125 -0.9941,0 -1.8125,-0.8183 -1.8125,-1.8125 0,-0.9941 0.8184,-1.78125 1.8125,-1.78125 z m 0,9 c 0.9942,0 1.7812,0.78715 1.7812,1.78125 0,0.9942 -0.787,1.8125 -1.7812,1.8125 -0.9941,0 -1.8125,-0.8183 -1.8125,-1.8125 0,-0.9941 0.8184,-1.78125 1.8125,-1.78125 z m 0,9 c 0.9942,0 1.7812,0.78715 1.7812,1.78125 0,0.9942 -0.787,1.8125 -1.7812,1.8125 -0.9941,0 -1.8125,-0.8183 -1.8125,-1.8125 0,-0.9941 0.8184,-1.78125 1.8125,-1.78125 z m 0,9 c 0.9942,0 1.7812,0.78715 1.7812,1.78125 0,0.9942 -0.787,1.8125 -1.7812,1.8125 -0.9941,0 -1.8125,-0.8183 -1.8125,-1.8125 0,-0.9941 0.8184,-1.78125 1.8125,-1.78125 z m 0,9 c 0.9942,0 1.7812,0.78715 1.7812,1.78125 0,0.9942 -0.787,1.8125 -1.7812,1.8125 -0.9941,0 -1.8125,-0.8183 -1.8125,-1.8125 0,-0.9941 0.8184,-1.78125 1.8125,-1.78125 z"
         style="fill:#008000;fill-opacity:1;stroke:none"
         inkscape:connector-curvature="0" />
      <g
         transform="matrix(0,1,-1,0,2119.1843,-829.85562)"
         id="g6905">
        <circle
           cx="4.3200002"
           cy="11.52"
           id="connector1pad-0-1-1"
           r="1.584"
           sodipodi:cx="4.3200002"
           sodipodi:cy="11.52"
           sodipodi:rx="1.584"
           sodipodi:ry="1.584"
           style="fill:none;stroke:#ffbf00;stroke-width:1.15199995"
           transform="matrix(0,1.25,1.25,0,1536.6724,617.59598)"
           d="m 5.9040002,11.52 c 0,0.874819 -0.709181,1.584 -1.584,1.584 -0.8748191,0 -1.584,-0.709181 -1.584,-1.584 0,-0.874819 0.7091809,-1.5839995 1.584,-1.5839995 0.874819,0 1.584,0.7091805 1.584,1.5839995 z" />
        <circle
           cx="4.3200002"
           cy="11.52"
           id="connector1pad-4-5-0-39"
           r="1.584"
           sodipodi:cx="4.3200002"
           sodipodi:cy="11.52"
           sodipodi:rx="1.584"
           sodipodi:ry="1.584"
           style="fill:none;stroke:#ffbf00;stroke-width:1.15199995"
           transform="matrix(0,1.25,1.25,0,1527.6725,617.59598)"
           d="m 5.9040002,11.52 c 0,0.874819 -0.709181,1.584 -1.584,1.584 -0.8748191,0 -1.584,-0.709181 -1.584,-1.584 0,-0.874819 0.7091809,-1.5839995 1.584,-1.5839995 0.874819,0 1.584,0.7091805 1.584,1.5839995 z" />
        <circle
           cx="4.3200002"
           cy="11.52"
           id="connector1pad-4-2-3-6"
           r="1.584"
           sodipodi:cx="4.3200002"
           sodipodi:cy="11.52"
           sodipodi:rx="1.584"
           sodipodi:ry="1.584"
           style="fill:none;stroke:#ffbf00;stroke-width:1.15199995"
           transform="matrix(0,1.25,1.25,0,1518.6727,617.59598)"
           d="m 5.9040002,11.52 c 0,0.874819 -0.709181,1.584 -1.584,1.584 -0.8748191,0 -1.584,-0.709181 -1.584,-1.584 0,-0.874819 0.7091809,-1.5839995 1.584,-1.5839995 0.874819,0 1.584,0.7091805 1.584,1.5839995 z" />
        <circle
           cx="4.3200002"
           cy="11.52"
           id="connector1pad-0-1-9-9"
           r="1.584"
           sodipodi:cx="4.3200002"
           sodipodi:cy="11.52"
           sodipodi:rx="1.584"
           sodipodi:ry="1.584"
           style="fill:none;stroke:#ffbf00;stroke-width:1.15199995"
           transform="matrix(0,1.25,1.25,0,1509.6728,617.59598)"
           d="m 5.9040002,11.52 c 0,0.874819 -0.709181,1.584 -1.584,1.584 -0.8748191,0 -1.584,-0.709181 -1.584,-1.584 0,-0.874819 0.7091809,-1.5839995 1.584,-1.5839995 0.874819,0 1.584,0.7091805 1.584,1.5839995 z" />
        <circle
           cx="4.3200002"
           cy="11.52"
           id="connector1pad-4-5-0-3-1"
           r="1.584"
           sodipodi:cx="4.3200002"
           sodipodi:cy="11.52"
           sodipodi:rx="1.584"
           sodipodi:ry="1.584"
           style="fill:none;stroke:#ffbf00;stroke-width:1.15199995"
           transform="matrix(0,1.25,1.25,0,1500.673,617.59598)"
           d="m 5.9040002,11.52 c 0,0.874819 -0.709181,1.584 -1.584,1.584 -0.8748191,0 -1.584,-0.709181 -1.584,-1.584 0,-0.874819 0.7091809,-1.5839995 1.584,-1.5839995 0.874819,0 1.584,0.7091805 1.584,1.5839995 z" />
        <line
           y1="618.53821"
           x1="1539.8416"
           y2="618.53821"
           x2="1544.3416"
           id="line72134"
           style="fill:none;stroke:#ffffff;stroke-width:0.71999991;stroke-linecap:round" />
        <line
           y1="618.53821"
           x1="1544.3416"
           y2="620.78821"
           x2="1546.5916"
           id="line72136"
           style="fill:none;stroke:#ffffff;stroke-width:0.71999991;stroke-linecap:round" />
        <line
           y1="625.28821"
           x1="1546.5916"
           y2="627.53821"
           x2="1544.3416"
           id="line72138"
           style="fill:none;stroke:#ffffff;stroke-width:0.71999991;stroke-linecap:round" />
        <line
           y1="620.78821"
           x1="1546.5916"
           y2="618.53821"
           x2="1548.8416"
           id="line72140"
           style="fill:none;stroke:#ffffff;stroke-width:0.71999991;stroke-linecap:round" />
        <line
           y1="618.53821"
           x1="1548.8416"
           y2="618.53821"
           x2="1553.3416"
           id="line72142"
           style="fill:none;stroke:#ffffff;stroke-width:0.71999991;stroke-linecap:round" />
        <line
           y1="618.53821"
           x1="1553.3416"
           y2="620.78821"
           x2="1555.5916"
           id="line72144"
           style="fill:none;stroke:#ffffff;stroke-width:0.71999991;stroke-linecap:round" />
        <line
           y1="625.28821"
           x1="1555.5916"
           y2="627.53821"
           x2="1553.3416"
           id="line72146"
           style="fill:none;stroke:#ffffff;stroke-width:0.71999991;stroke-linecap:round" />
        <line
           y1="627.53821"
           x1="1553.3416"
           y2="627.53821"
           x2="1548.8416"
           id="line72148"
           style="fill:none;stroke:#ffffff;stroke-width:0.71999991;stroke-linecap:round" />
        <line
           y1="627.53821"
           x1="1548.8416"
           y2="625.28821"
           x2="1546.5916"
           id="line72150"
           style="fill:none;stroke:#ffffff;stroke-width:0.71999991;stroke-linecap:round" />
        <line
           y1="620.78821"
           x1="1528.5916"
           y2="618.53821"
           x2="1530.8416"
           id="line72152"
           style="fill:none;stroke:#ffffff;stroke-width:0.71999991;stroke-linecap:round" />
        <line
           y1="618.53821"
           x1="1530.8416"
           y2="618.53821"
           x2="1535.3416"
           id="line72154"
           style="fill:none;stroke:#ffffff;stroke-width:0.71999991;stroke-linecap:round" />
        <line
           y1="618.53821"
           x1="1535.3416"
           y2="620.78821"
           x2="1537.5916"
           id="line72156"
           style="fill:none;stroke:#ffffff;stroke-width:0.71999991;stroke-linecap:round" />
        <line
           y1="625.28821"
           x1="1537.5916"
           y2="627.53821"
           x2="1535.3416"
           id="line72158"
           style="fill:none;stroke:#ffffff;stroke-width:0.71999991;stroke-linecap:round" />
        <line
           y1="627.53821"
           x1="1535.3416"
           y2="627.53821"
           x2="1530.8416"
           id="line72160"
           style="fill:none;stroke:#ffffff;stroke-width:0.71999991;stroke-linecap:round" />
        <line
           y1="627.53821"
           x1="1530.8416"
           y2="625.28821"
           x2="1528.5916"
           id="line72162"
           style="fill:none;stroke:#ffffff;stroke-width:0.71999991;stroke-linecap:round" />
        <line
           y1="618.53821"
           x1="1539.8416"
           y2="620.78821"
           x2="1537.5916"
           id="line72164"
           style="fill:none;stroke:#ffffff;stroke-width:0.71999991;stroke-linecap:round" />
        <line
           y1="625.28821"
           x1="1537.5916"
           y2="627.53821"
           x2="1539.8416"
           id="line72166"
           style="fill:none;stroke:#ffffff;stroke-width:0.71999991;stroke-linecap:round" />
        <line
           y1="627.53821"
           x1="1544.3416"
           y2="627.53821"
           x2="1539.8416"
           id="line72168"
           style="fill:none;stroke:#ffffff;stroke-width:0.71999991;stroke-linecap:round" />
        <line
           y1="618.53821"
           x1="1512.8416"
           y2="618.53821"
           x2="1517.3416"
           id="line72170"
           style="fill:none;stroke:#ffffff;stroke-width:0.71999991;stroke-linecap:round" />
        <line
           y1="618.53821"
           x1="1517.3416"
           y2="620.78821"
           x2="1519.5916"
           id="line72172"
           style="fill:none;stroke:#ffffff;stroke-width:0.71999991;stroke-linecap:round" />
        <line
           y1="625.28821"
           x1="1519.5916"
           y2="627.53821"
           x2="1517.3416"
           id="line72174"
           style="fill:none;stroke:#ffffff;stroke-width:0.71999991;stroke-linecap:round" />
        <line
           y1="620.78821"
           x1="1519.5916"
           y2="618.53821"
           x2="1521.8416"
           id="line72176"
           style="fill:none;stroke:#ffffff;stroke-width:0.71999991;stroke-linecap:round" />
        <line
           y1="618.53821"
           x1="1521.8416"
           y2="618.53821"
           x2="1526.3416"
           id="line72178"
           style="fill:none;stroke:#ffffff;stroke-width:0.71999991;stroke-linecap:round" />
        <line
           y1="618.53821"
           x1="1526.3416"
           y2="620.78821"
           x2="1528.5916"
           id="line72180"
           style="fill:none;stroke:#ffffff;stroke-width:0.71999991;stroke-linecap:round" />
        <line
           y1="625.28821"
           x1="1528.5916"
           y2="627.53821"
           x2="1526.3416"
           id="line72182"
           style="fill:none;stroke:#ffffff;stroke-width:0.71999991;stroke-linecap:round" />
        <line
           y1="627.53821"
           x1="1526.3416"
           y2="627.53821"
           x2="1521.8416"
           id="line72184"
           style="fill:none;stroke:#ffffff;stroke-width:0.71999991;stroke-linecap:round" />
        <line
           y1="627.53821"
           x1="1521.8416"
           y2="625.28821"
           x2="1519.5916"
           id="line72186"
           style="fill:none;stroke:#ffffff;stroke-width:0.71999991;stroke-linecap:round" />
        <line
           y1="620.78821"
           x1="1510.5916"
           y2="625.28821"
           x2="1510.5916"
           id="line72188"
           style="fill:none;stroke:#ffffff;stroke-width:0.71999991;stroke-linecap:round" />
        <line
           y1="618.53821"
           x1="1512.8416"
           y2="620.78821"
           x2="1510.5916"
           id="line72190"
           style="fill:none;stroke:#ffffff;stroke-width:0.71999991;stroke-linecap:round" />
        <line
           y1="625.28821"
           x1="1510.5916"
           y2="627.53821"
           x2="1512.8416"
           id="line72192"
           style="fill:none;stroke:#ffffff;stroke-width:0.71999991;stroke-linecap:round" />
        <line
           y1="627.53821"
           x1="1517.3416"
           y2="627.53821"
           x2="1512.8416"
           id="line72194"
           style="fill:none;stroke:#ffffff;stroke-width:0.71999991;stroke-linecap:round" />
        <line
           y1="620.80591"
           x1="1555.5787"
           y2="625.30591"
           x2="1555.5787"
           id="line72188-9"
           style="fill:none;stroke:#ffffff;stroke-width:0.71999991;stroke-linecap:round" />
      </g>
      <rect
         y="694.5603"
         x="1458.6632"
         height="14.394673"
         width="17.67767"
         id="rect6946"
         style="fill:#000000;fill-opacity:1;stroke:none" />
      <g
         transform="matrix(0.99550649,0.09469337,-0.09469337,0.99550649,49.398325,-134.70725)"
         id="g6952">
        <rect
           style="fill:#cccccc;fill-opacity:1;stroke:none"
           id="rect6948"
           width="6.5659914"
           height="21.970818"
           x="1501.5243"
           y="688.95068"
           ry="3.8520265" />
        <rect
           ry="3.7111406"
           y="689.39709"
           x="1502.0602"
           height="21.167246"
           width="2.8518858"
           id="rect6950"
           style="fill:#ffffff;fill-opacity:1;stroke:none" />
      </g>
      <path
         inkscape:connector-curvature="0"
         inkscape:original-d="m 1419.0607,705.0202 7.7679,1.25"
         inkscape:path-effect="#path-effect6984"
         id="path6982"
         d="m 1419.0607,705.0202 7.7679,1.25"
         style="fill:none;stroke:#d4aa00;stroke-width:1px;stroke-linecap:butt;stroke-linejoin:miter;stroke-opacity:1" />
      <g
         transform="translate(-17.142857,5.3571429)"
         id="g6973">
        <path
           style="fill:#cccccc;fill-opacity:1;stroke:none"
           d="m 1410.1991,678.05233 c -4.3614,0.36749 -7.7748,9.33705 -7.625,20.03125 0.1499,10.6942 3.8261,19.08624 8.1876,18.71875 0.032,-0.003 0.062,-0.0276 0.094,-0.0312 0.095,0.007 0.185,0.0312 0.2813,0.0312 l 22.1874,0 c 2.1341,0 3.875,-1.66278 3.875,-3.71875 l 0,-31.3125 c 0,-2.05597 -1.7409,-3.71875 -3.875,-3.71875 l -22.1874,0 c -0.1065,0 -0.2083,0.0232 -0.3126,0.0312 -0.206,-0.022 -0.4154,-0.0489 -0.625,-0.0312 z"
           id="rect6958"
           inkscape:connector-curvature="0" />
        <path
           inkscape:connector-curvature="0"
           id="path6963"
           d="m 1411.7609,679.9272 c -4.0803,0.10338 -7.2737,2.62668 -7.1336,5.63514 0.1403,3.00846 3.5795,5.36929 7.6599,5.26591 0.03,-8.4e-4 0.058,-0.007 0.088,-0.009 0.089,0.002 0.1731,0.009 0.2632,0.009 l 20.7573,0 c 1.9965,0 3.6252,-0.46777 3.6252,-1.04615 l 0,-8.80875 c 0,-0.57838 -1.6287,-1.04615 -3.6252,-1.04615 l -20.7573,0 c -0.099,0 -0.1949,0.006 -0.2924,0.009 -0.1928,-0.006 -0.3887,-0.0138 -0.5847,-0.009 z"
           style="fill:#f2f2f2;fill-opacity:1;stroke:none" />
        <path
           style="fill:#ffffff;fill-opacity:1;stroke:none"
           d="m 1412.4374,680.82006 c -3.9566,0.0458 -7.0532,1.16417 -6.9174,2.49754 0.136,1.33338 3.471,2.37972 7.4277,2.3339 0.029,-3.7e-4 0.057,-0.003 0.085,-0.004 0.086,8.9e-4 0.1679,0.004 0.2552,0.004 l 20.1281,0 c 1.936,0 3.5153,-0.20732 3.5153,-0.46366 l 0,-3.90412 c 0,-0.25634 -1.5793,-0.46366 -3.5153,-0.46366 l -20.1281,0 c -0.095,0 -0.1889,0.003 -0.2835,0.004 -0.1869,-0.003 -0.3769,-0.006 -0.5669,-0.004 z"
           id="path6965"
           inkscape:connector-curvature="0" />
      </g>
      <path
         inkscape:connector-curvature="0"
         inkscape:original-d="m 1420.0429,698.68092 7.1428,-1.07143"
         inkscape:path-effect="#path-effect6980"
         id="path6978"
         d="m 1420.0429,698.68092 7.1428,-1.07143"
         style="fill:none;stroke:#d4aa00;stroke-width:1px;stroke-linecap:butt;stroke-linejoin:miter;stroke-opacity:1" />
      <rect
         ry="4.9107141"
         rx="0.94367015"
         y="695.6452"
         x="1423.4359"
         height="4.9107141"
         width="8.9285707"
         id="rect6986"
         style="fill:#f2f2f2;fill-opacity:1;stroke:none" />
      <rect
         style="fill:#f2f2f2;fill-opacity:1;stroke:none"
         id="rect6988"
         width="8.9285707"
         height="4.9107141"
         x="1423.7037"
         y="703.32379"
         rx="0.94367015"
         ry="4.9107141" />
      <text
         transform="matrix(0,1,-1,0,0,0)"
         sodipodi:linespacing="0%"
         id="text6990"
         y="-1487.2191"
         x="684.15155"
         style="font-size:5.09000015px;font-style:normal;font-variant:normal;font-weight:normal;font-stretch:normal;line-height:0%;letter-spacing:0px;word-spacing:0px;fill:#ffffff;fill-opacity:1;stroke:none;font-family:OCRA;-inkscape-font-specification:OCRA"
         xml:space="preserve"><tspan
           style="font-size:4px;line-height:0%;letter-spacing:6.18000031px"
           y="-1487.2191"
           x="684.15155"
           id="tspan6992"
           sodipodi:role="line">AGCDV</tspan></text>
      <text
         transform="matrix(0,-1,1,0,0,0)"
         sodipodi:linespacing="125%"
         id="text6994"
         y="1438.0122"
         x="-714.97858"
         style="font-size:5.09000015px;font-style:normal;font-variant:normal;font-weight:normal;font-stretch:normal;line-height:125%;letter-spacing:0px;word-spacing:0px;fill:#ffffff;fill-opacity:1;stroke:none;font-family:OCRA;-inkscape-font-specification:OCRA"
         xml:space="preserve"><tspan
           style="font-size:4.5px"
           y="1438.0122"
           x="-714.97858"
           id="tspan6996"
           sodipodi:role="line">ZyTemp</tspan></text>
    </g>
  </g>
</svg>
