<?xml version="1.0" encoding="UTF-8" standalone="no"?>
<!-- Created with Inkscape (http://www.inkscape.org/) -->

<svg
   xmlns:dc="http://purl.org/dc/elements/1.1/"
   xmlns:cc="http://creativecommons.org/ns#"
   xmlns:rdf="http://www.w3.org/1999/02/22-rdf-syntax-ns#"
   xmlns:svg="http://www.w3.org/2000/svg"
   xmlns="http://www.w3.org/2000/svg"
   xmlns:sodipodi="http://sodipodi.sourceforge.net/DTD/sodipodi-0.dtd"
   xmlns:inkscape="http://www.inkscape.org/namespaces/inkscape"
   width="744.09448819"
   height="1052.3622047"
   id="svg2"
   version="1.1"
   inkscape:version="0.48.1 "
   sodipodi:docname="DFR0029.svg"
   inkscape:export-filename="Y:\Pictures\DFRobot SVGs\DFR0029\DFR0029.png"
   inkscape:export-xdpi="600"
   inkscape:export-ydpi="600">
  <defs
     id="defs4" />
  <sodipodi:namedview
     id="base"
     pagecolor="#ffffff"
     bordercolor="#666666"
     borderopacity="1.0"
     inkscape:pageopacity="0.0"
     inkscape:pageshadow="2"
     inkscape:zoom="3.1466258"
     inkscape:cx="396.61949"
     inkscape:cy="616.20829"
     inkscape:document-units="px"
     inkscape:current-layer="layer1"
     showgrid="false"
     inkscape:window-width="1920"
     inkscape:window-height="1017"
     inkscape:window-x="-8"
     inkscape:window-y="-8"
     inkscape:window-maximized="1" />
  <metadata
     id="metadata7">
    <rdf:RDF>
      <cc:Work
         rdf:about="">
        <dc:format>image/svg+xml</dc:format>
        <dc:type
           rdf:resource="http://purl.org/dc/dcmitype/StillImage" />
        <dc:title></dc:title>
      </cc:Work>
    </rdf:RDF>
  </metadata>
  <g
     inkscape:label="Layer 1"
     inkscape:groupmode="layer"
     id="layer1">
    <g
       id="g106319">
      <path
         id="rect30813"
         d="m 311.3753,463.75854 c 0,7.54972 6.07528,13.625 13.625,13.625 l 79.03125,0 c 7.54972,0 13.625,-6.07528 13.625,-13.625 l 0,-50.6875 c 0,-7.54972 -6.07528,-13.65625 -13.625,-13.65625 l -79.03125,0 c -7.54972,0 -13.625,6.10653 -13.625,13.65625 l 0,50.6875 z m 6.4375,-52.28125 c 0,-3.22891 2.61484,-5.84375 5.84375,-5.84375 3.22891,0 5.84375,2.61484 5.84375,5.84375 0,3.22891 -2.61484,5.84375 -5.84375,5.84375 -3.22891,0 -5.84375,-2.61484 -5.84375,-5.84375 z"
         style="fill:#000000;fill-opacity:1;stroke:#00ffff;stroke-width:0;stroke-linecap:round;stroke-linejoin:round;stroke-miterlimit:4;stroke-opacity:1;stroke-dasharray:none;stroke-dashoffset:0"
         inkscape:connector-curvature="0" />
      <rect
         transform="matrix(0,-1,1,0,0,0)"
         ry="0"
         y="395.75073"
         x="-455.42587"
         height="21.995691"
         width="34.564659"
         id="rect32255"
         style="fill:#fff6d5;fill-opacity:1;stroke:#00ffff;stroke-width:0;stroke-linecap:round;stroke-linejoin:round;stroke-miterlimit:4;stroke-opacity:1;stroke-dasharray:none;stroke-dashoffset:0" />
      <rect
         transform="matrix(0,-1,1,0,0,0)"
         y="389.92859"
         x="-455.32755"
         height="6.0749998"
         width="2.4090517"
         id="rect32626"
         style="fill:#fff6d5;fill-opacity:1;stroke:#fff6d5;stroke-width:0;stroke-linecap:round;stroke-linejoin:round;stroke-miterlimit:4;stroke-opacity:1;stroke-dasharray:none;stroke-dashoffset:0" />
      <rect
         transform="matrix(0,-1,1,0,0,0)"
         style="fill:#fff6d5;fill-opacity:1;stroke:#fff6d5;stroke-width:0;stroke-linecap:round;stroke-linejoin:round;stroke-miterlimit:4;stroke-opacity:1;stroke-dasharray:none;stroke-dashoffset:0"
         id="rect33035"
         width="2.4090517"
         height="6.0749998"
         x="-423.40628"
         y="389.92859" />
      <rect
         transform="matrix(0,-1,1,0,0,0)"
         y="401.47192"
         x="-428.45816"
         height="9.2150612"
         width="3.0311463"
         id="rect32477"
         style="fill:#999999;fill-opacity:1;stroke:#00ffff;stroke-width:0;stroke-linecap:round;stroke-linejoin:round;stroke-miterlimit:4;stroke-opacity:1;stroke-dasharray:none;stroke-dashoffset:0" />
      <rect
         transform="matrix(0,-1,1,0,0,0)"
         y="395.81116"
         x="-428.48209"
         height="5.6475472"
         width="3.5180087"
         id="rect32661"
         style="opacity:0.76605506;fill:#ffeeaa;fill-opacity:1;stroke:#ffeeaa;stroke-width:0;stroke-linecap:round;stroke-linejoin:round;stroke-miterlimit:4;stroke-opacity:1;stroke-dasharray:none;stroke-dashoffset:0" />
      <path
         inkscape:connector-curvature="0"
         id="rect33259"
         d="m 400.08216,426.55956 1.389,0 0,-1.09375 9.2391,0 0,-0.5 -10.6281,0 0,1.59375 z"
         style="fill:#b3b3b3;fill-opacity:1;stroke:#000000;stroke-width:0;stroke-linecap:round;stroke-linejoin:round;stroke-miterlimit:4;stroke-opacity:1;stroke-dasharray:none;stroke-dashoffset:0" />
      <rect
         transform="matrix(0,1,1,0,0,0)"
         style="fill:#999999;fill-opacity:1;stroke:#00ffff;stroke-width:0;stroke-linecap:round;stroke-linejoin:round;stroke-miterlimit:4;stroke-opacity:1;stroke-dasharray:none;stroke-dashoffset:0"
         id="rect33559"
         width="3.0311463"
         height="9.2150612"
         x="447.72202"
         y="401.44247" />
      <rect
         transform="matrix(0,1,1,0,0,0)"
         style="opacity:0.76605506;fill:#ffeeaa;fill-opacity:1;stroke:#ffeeaa;stroke-width:0;stroke-linecap:round;stroke-linejoin:round;stroke-miterlimit:4;stroke-opacity:1;stroke-dasharray:none;stroke-dashoffset:0"
         id="rect33561"
         width="3.5180087"
         height="5.6475472"
         x="447.69809"
         y="395.78171" />
      <path
         style="fill:#b3b3b3;fill-opacity:1;stroke:#000000;stroke-width:0;stroke-linecap:round;stroke-linejoin:round;stroke-miterlimit:4;stroke-opacity:1;stroke-dasharray:none;stroke-dashoffset:0"
         d="m 400.0527,449.62058 1.389,0 0,1.09375 9.2391,0 0,0.5 -10.6281,0 0,-1.59375 z"
         id="path33563"
         inkscape:connector-curvature="0" />
      <rect
         transform="matrix(0,-1,1,0,0,0)"
         style="fill:#ececec;fill-opacity:1;stroke:#000000;stroke-width:0;stroke-linecap:round;stroke-linejoin:round;stroke-miterlimit:4;stroke-opacity:1;stroke-dasharray:none;stroke-dashoffset:0"
         id="rect33647"
         width="1.9887378"
         height="6.2313786"
         x="-446.60852"
         y="387.23392"
         ry="0.99436891"
         rx="0.99436891" />
      <rect
         transform="matrix(0,-1,1,0,0,0)"
         y="392.51517"
         x="-446.60852"
         height="3.2703688"
         width="1.9887378"
         id="rect33634"
         style="fill:#b3b3b3;fill-opacity:1;stroke:#000000;stroke-width:0;stroke-linecap:round;stroke-linejoin:round;stroke-miterlimit:4;stroke-opacity:1;stroke-dasharray:none;stroke-dashoffset:0" />
      <rect
         transform="matrix(0,-1,1,0,0,0)"
         ry="0.99436891"
         y="387.23392"
         x="-438.74191"
         height="6.2313786"
         width="1.9887378"
         id="rect36702"
         style="fill:#ececec;fill-opacity:1;stroke:#000000;stroke-width:0;stroke-linecap:round;stroke-linejoin:round;stroke-miterlimit:4;stroke-opacity:1;stroke-dasharray:none;stroke-dashoffset:0"
         rx="0.99436891" />
      <rect
         transform="matrix(0,-1,1,0,0,0)"
         style="fill:#b3b3b3;fill-opacity:1;stroke:#000000;stroke-width:0;stroke-linecap:round;stroke-linejoin:round;stroke-miterlimit:4;stroke-opacity:1;stroke-dasharray:none;stroke-dashoffset:0"
         id="rect36704"
         width="1.9887378"
         height="3.2703688"
         x="-438.74191"
         y="392.51517" />
      <rect
         transform="matrix(0,-1,1,0,0,0)"
         style="fill:#ececec;fill-opacity:1;stroke:#000000;stroke-width:0;stroke-linecap:round;stroke-linejoin:round;stroke-miterlimit:4;stroke-opacity:1;stroke-dasharray:none;stroke-dashoffset:0"
         id="rect36721"
         width="1.9887378"
         height="6.2313786"
         x="-431.00803"
         y="387.23392"
         ry="0.99436891"
         rx="0.99436891" />
      <rect
         transform="matrix(0,-1,1,0,0,0)"
         y="392.51517"
         x="-431.00803"
         height="3.2703688"
         width="1.9887378"
         id="rect36723"
         style="fill:#b3b3b3;fill-opacity:1;stroke:#000000;stroke-width:0;stroke-linecap:round;stroke-linejoin:round;stroke-miterlimit:4;stroke-opacity:1;stroke-dasharray:none;stroke-dashoffset:0" />
      <text
         sodipodi:linespacing="125%"
         id="text37893"
         y="471.84735"
         x="340.68057"
         style="font-size:7.50709915000000020px;font-style:normal;font-variant:normal;font-weight:bold;font-stretch:normal;line-height:125%;letter-spacing:0px;word-spacing:0px;fill:#d99c43;fill-opacity:1;stroke:none;font-family:Arial;-inkscape-font-specification:Sans Bold"
         xml:space="preserve"><tspan
           y="471.84735"
           x="340.68057"
           id="tspan37895"
           sodipodi:role="line">Digital Push Button </tspan></text>
      <path
         transform="matrix(0,0.71257535,-0.71257535,0,663.3394,350.93403)"
         sodipodi:open="true"
         sodipodi:end="7.8188447"
         sodipodi:start="1.5364461"
         d="m 98.498034,408.89277 a 3.9143412,3.7880721 0 1 1 0.0031,-10e-5"
         sodipodi:ry="3.7880721"
         sodipodi:rx="3.9143412"
         sodipodi:cy="405.10693"
         sodipodi:cx="98.363602"
         id="path7418-0"
         style="fill:#cccccc;fill-opacity:1;stroke:none"
         sodipodi:type="arc" />
      <path
         transform="matrix(0,0.71257535,-0.71257535,0,647.14368,350.93403)"
         sodipodi:open="true"
         sodipodi:end="7.8188447"
         sodipodi:start="1.5364461"
         d="m 98.498034,408.89277 a 3.9143412,3.7880721 0 1 1 0.0031,-10e-5"
         sodipodi:ry="3.7880721"
         sodipodi:rx="3.9143412"
         sodipodi:cy="405.10693"
         sodipodi:cx="98.363602"
         id="path7418-8-9"
         style="fill:#cccccc;fill-opacity:1;stroke:none"
         sodipodi:type="arc" />
      <path
         transform="matrix(0,0.71257535,-0.71257535,0,663.3394,382.92058)"
         sodipodi:open="true"
         sodipodi:end="7.8188447"
         sodipodi:start="1.5364461"
         d="m 98.498034,408.89277 a 3.9143412,3.7880721 0 1 1 0.0031,-10e-5"
         sodipodi:ry="3.7880721"
         sodipodi:rx="3.9143412"
         sodipodi:cy="405.10693"
         sodipodi:cx="98.363602"
         id="path7418-7-3"
         style="fill:#cccccc;fill-opacity:1;stroke:none"
         sodipodi:type="arc" />
      <path
         transform="matrix(0,0.71257535,-0.71257535,0,647.14368,382.92058)"
         sodipodi:open="true"
         sodipodi:end="7.8188447"
         sodipodi:start="1.5364461"
         d="m 98.498034,408.89277 a 3.9143412,3.7880721 0 1 1 0.0031,-10e-5"
         sodipodi:ry="3.7880721"
         sodipodi:rx="3.9143412"
         sodipodi:cy="405.10693"
         sodipodi:cx="98.363602"
         id="path7418-8-1-9"
         style="fill:#cccccc;fill-opacity:1;stroke:none"
         sodipodi:type="arc" />
      <path
         inkscape:connector-curvature="0"
         id="rect6789-4"
         d="m 381.83356,424.863 -3.88411,-3.44336 -22.82947,0 -3.34694,4.13637 0,24.64488 3.49156,3.0752 23.36663,0 3.20233,-3.96311 0,-24.44997 z"
         style="fill:#333333;fill-opacity:1;stroke:none" />
      <path
         transform="matrix(0,0.71257535,-0.71257535,0,664.5991,363.5757)"
         sodipodi:open="true"
         sodipodi:end="7.8188447"
         sodipodi:start="1.5364461"
         d="m 104.27759,441.07995 a 23.296642,23.170374 0 1 1 0.0183,-6.3e-4"
         sodipodi:ry="23.170374"
         sodipodi:rx="23.296642"
         sodipodi:cy="417.92325"
         sodipodi:cx="103.4775"
         id="path3772-6"
         style="fill:#ffdd55;fill-opacity:1;stroke:none"
         sodipodi:type="arc" />
      <path
         transform="matrix(0,0.90160734,-0.80042663,0,699.90479,287.42921)"
         sodipodi:open="true"
         sodipodi:end="7.8188447"
         sodipodi:start="1.5364461"
         d="m 166.97771,434.64304 a 16.162441,18.435284 0 1 1 0.0127,-5.1e-4"
         sodipodi:ry="18.435284"
         sodipodi:rx="16.162441"
         sodipodi:cy="416.21863"
         sodipodi:cx="166.42264"
         id="path3766-8"
         style="fill:#ffdd55;fill-opacity:1;stroke:none"
         sodipodi:type="arc" />
      <path
         inkscape:connector-curvature="0"
         id="path3770-0"
         d="m 377.54945,447.52351 -2.15944,1.25967 -2.33938,1.16969 -2.42935,0.62984 -2.96922,0.62984 -1.07972,-0.17996 -1.34964,0.89976 0.80979,0.26994 2.15943,-0.09 2.33938,-0.26993 1.8895,-0.53986 2.24941,-1.34964 1.79952,-1.34964 z"
         style="fill:#ffffff;fill-opacity:0.44086022;stroke:none" />
      <path
         inkscape:connector-curvature="0"
         id="path3780-4"
         d="m 374.58023,424.93948 2.51934,1.97947 2.69928,3.32913 1.79953,5.39857 -0.44989,5.48855 -2.78926,5.6685 -2.06945,1.61957 -0.3599,0.17996 2.69928,-2.42936 1.70955,-3.14917 0.98974,-3.4191 0.26993,-3.59904 -1.34965,-4.13891 -1.25966,-2.60931 -3.23915,-3.59905 z"
         style="fill:#ffffff;fill-opacity:0.83333333;stroke:none" />
      <path
         sodipodi:nodetypes="ccccccccccccccccccccccc"
         inkscape:connector-curvature="0"
         id="path7709-4"
         d="m 360.27401,424.21967 c -1.35983,1.00333 -2.3124,1.46364 -4.31885,3.32912 l -1.5296,1.8895 -0.89977,2.06945 -0.89976,1.79953 -0.3599,1.79952 c -0.09,0.97421 -0.17995,2.21477 -0.26993,3.4191 0.24117,1.20092 0.43053,2.35001 0.89976,3.779 0.41954,1.40998 1.15896,2.50009 1.79953,3.68903 l 1.8895,2.24941 5.6685,3.23915 -3.95896,-0.98974 -1.52959,-0.53986 -1.43962,-1.16969 -1.25966,-0.62984 -1.07972,-1.70954 -1.16969,-1.8895 -1.07972,-3.4191 -0.53985,-3.95895 1.16969,-6.02842 2.33938,-3.86897 2.51933,-1.43962 z"
         style="fill:#33331a;fill-opacity:0.125;stroke:none" />
      <path
         inkscape:connector-curvature="0"
         id="path3768-6"
         d="m 376.55971,427.45882 -2.15943,-1.34965 -2.15944,-0.98974 -3.23913,-0.98973 -2.6993,-0.09 -1.97947,0.44988 0.3599,-0.98974 2.24941,-0.62984 0.44988,-0.09 0.17995,-0.26993 1.97948,0 2.06945,0.71981 1.8895,0.98974 2.06946,1.61957 z"
         style="fill:#ffffff;fill-opacity:0.47849462;stroke:none" />
      <path
         transform="matrix(0,-4.6903027,4.7116033,0,-1108.9383,2986.0087)"
         sodipodi:open="true"
         sodipodi:end="7.8188447"
         sodipodi:start="1.5364461"
         d="m 548.82068,306.41594 a 2.3689687,2.3689687 0 1 1 0.002,-6e-5"
         sodipodi:ry="2.3689687"
         sodipodi:rx="2.3689687"
         sodipodi:cy="304.04837"
         sodipodi:cx="548.73932"
         id="path90890-3"
         style="color:#000000;fill:#d99c43;fill-opacity:1;fill-rule:nonzero;stroke:none;stroke-width:1.20947742;marker:none;visibility:visible;display:inline;overflow:visible;enable-background:accumulate"
         sodipodi:type="arc" />
      <path
         transform="matrix(0,-5.5204178,5.2263125,0,-1266.2542,3440.2368)"
         sodipodi:open="true"
         sodipodi:end="7.8188447"
         sodipodi:start="1.5364461"
         d="m 548.56337,305.41161 a 1.1485909,1.2203778 0 1 1 9.1e-4,-3e-5"
         sodipodi:ry="1.2203778"
         sodipodi:rx="1.1485909"
         sodipodi:cy="304.19196"
         sodipodi:cx="548.52393"
         id="path90925-8"
         style="color:#000000;fill:#ffffff;fill-opacity:1;fill-rule:nonzero;stroke:none;stroke-width:1.20000005;marker:none;visibility:visible;display:inline;overflow:visible;enable-background:accumulate"
         sodipodi:type="arc" />
      <path
         transform="matrix(0,-4.1281701,3.6177922,0,-777.72437,2675.8469)"
         sodipodi:open="true"
         sodipodi:end="7.8188447"
         sodipodi:start="1.5364461"
         d="m 549.25168,302.52271 a 0.28714773,0.33201456 0 1 1 2.3e-4,-1e-5"
         sodipodi:ry="0.33201456"
         sodipodi:rx="0.28714773"
         sodipodi:cy="302.19089"
         sodipodi:cx="549.24182"
         id="path91527-2"
         style="color:#000000;fill:#ffffff;fill-opacity:1;fill-rule:nonzero;stroke:none;stroke-width:1.20000005;marker:none;visibility:visible;display:inline;overflow:visible;enable-background:accumulate"
         sodipodi:type="arc" />
      <path
         transform="matrix(0,-4.1281701,3.6177922,0,-772.82236,2671.237)"
         sodipodi:open="true"
         sodipodi:end="7.8188447"
         sodipodi:start="1.5364461"
         d="m 549.25168,302.52271 a 0.28714773,0.33201456 0 1 1 2.3e-4,-1e-5"
         sodipodi:ry="0.33201456"
         sodipodi:rx="0.28714773"
         sodipodi:cy="302.19089"
         sodipodi:cx="549.24182"
         id="path91527-7-3"
         style="color:#000000;fill:#ffffff;fill-opacity:1;fill-rule:nonzero;stroke:none;stroke-width:1.20000005;marker:none;visibility:visible;display:inline;overflow:visible;enable-background:accumulate"
         sodipodi:type="arc" />
      <path
         transform="matrix(0,-4.1281701,3.6177922,0,-766.84903,2671.237)"
         sodipodi:open="true"
         sodipodi:end="7.8188447"
         sodipodi:start="1.5364461"
         d="m 549.25168,302.52271 a 0.28714773,0.33201456 0 1 1 2.3e-4,-1e-5"
         sodipodi:ry="0.33201456"
         sodipodi:rx="0.28714773"
         sodipodi:cy="302.19089"
         sodipodi:cx="549.24182"
         id="path91527-7-4-2"
         style="color:#000000;fill:#ffffff;fill-opacity:1;fill-rule:nonzero;stroke:none;stroke-width:1.20000005;marker:none;visibility:visible;display:inline;overflow:visible;enable-background:accumulate"
         sodipodi:type="arc" />
      <path
         transform="matrix(0,-4.1281701,3.6177922,0,-761.78468,2683.2885)"
         sodipodi:open="true"
         sodipodi:end="7.8188447"
         sodipodi:start="1.5364461"
         d="m 549.25168,302.52271 a 0.28714773,0.33201456 0 1 1 2.3e-4,-1e-5"
         sodipodi:ry="0.33201456"
         sodipodi:rx="0.28714773"
         sodipodi:cy="302.19089"
         sodipodi:cx="549.24182"
         id="path91527-7-9-1"
         style="color:#000000;fill:#ffffff;fill-opacity:1;fill-rule:nonzero;stroke:none;stroke-width:1.20000005;marker:none;visibility:visible;display:inline;overflow:visible;enable-background:accumulate"
         sodipodi:type="arc" />
      <path
         transform="matrix(0,-4.1281701,3.6177922,0,-761.78468,2675.8469)"
         sodipodi:open="true"
         sodipodi:end="7.8188447"
         sodipodi:start="1.5364461"
         d="m 549.25168,302.52271 a 0.28714773,0.33201456 0 1 1 2.3e-4,-1e-5"
         sodipodi:ry="0.33201456"
         sodipodi:rx="0.28714773"
         sodipodi:cy="302.19089"
         sodipodi:cx="549.24182"
         id="path91527-7-0-04"
         style="color:#000000;fill:#ffffff;fill-opacity:1;fill-rule:nonzero;stroke:none;stroke-width:1.20000005;marker:none;visibility:visible;display:inline;overflow:visible;enable-background:accumulate"
         sodipodi:type="arc" />
      <path
         transform="matrix(0,-4.1281701,3.6177922,0,-766.84903,2687.8984)"
         sodipodi:open="true"
         sodipodi:end="7.8188447"
         sodipodi:start="1.5364461"
         d="m 549.25168,302.52271 a 0.28714773,0.33201456 0 1 1 2.3e-4,-1e-5"
         sodipodi:ry="0.33201456"
         sodipodi:rx="0.28714773"
         sodipodi:cy="302.19089"
         sodipodi:cx="549.24182"
         id="path91527-7-48-0"
         style="color:#000000;fill:#ffffff;fill-opacity:1;fill-rule:nonzero;stroke:none;stroke-width:1.20000005;marker:none;visibility:visible;display:inline;overflow:visible;enable-background:accumulate"
         sodipodi:type="arc" />
      <path
         transform="matrix(0,-4.1281701,3.6177922,0,-772.82236,2687.8984)"
         sodipodi:open="true"
         sodipodi:end="7.8188447"
         sodipodi:start="1.5364461"
         d="m 549.25168,302.52271 a 0.28714773,0.33201456 0 1 1 2.3e-4,-1e-5"
         sodipodi:ry="0.33201456"
         sodipodi:rx="0.28714773"
         sodipodi:cy="302.19089"
         sodipodi:cx="549.24182"
         id="path91527-7-8-7"
         style="color:#000000;fill:#ffffff;fill-opacity:1;fill-rule:nonzero;stroke:none;stroke-width:1.20000005;marker:none;visibility:visible;display:inline;overflow:visible;enable-background:accumulate"
         sodipodi:type="arc" />
      <path
         transform="matrix(0,-4.1281701,3.6177922,0,-777.72437,2683.2885)"
         sodipodi:open="true"
         sodipodi:end="7.8188447"
         sodipodi:start="1.5364461"
         d="m 549.25168,302.52271 a 0.28714773,0.33201456 0 1 1 2.3e-4,-1e-5"
         sodipodi:ry="0.33201456"
         sodipodi:rx="0.28714773"
         sodipodi:cy="302.19089"
         sodipodi:cx="549.24182"
         id="path91527-7-2-59"
         style="color:#000000;fill:#ffffff;fill-opacity:1;fill-rule:nonzero;stroke:none;stroke-width:1.20000005;marker:none;visibility:visible;display:inline;overflow:visible;enable-background:accumulate"
         sodipodi:type="arc" />
      <path
         transform="matrix(0,-4.6903027,4.7116033,0,-1108.5812,3037.7621)"
         sodipodi:open="true"
         sodipodi:end="7.8188447"
         sodipodi:start="1.5364461"
         d="m 548.82068,306.41594 a 2.3689687,2.3689687 0 1 1 0.002,-6e-5"
         sodipodi:ry="2.3689687"
         sodipodi:rx="2.3689687"
         sodipodi:cy="304.04837"
         sodipodi:cx="548.73932"
         id="path90890-3-0"
         style="color:#000000;fill:#d99c43;fill-opacity:1;fill-rule:nonzero;stroke:none;stroke-width:1.20947742;marker:none;visibility:visible;display:inline;overflow:visible;enable-background:accumulate"
         sodipodi:type="arc" />
      <path
         transform="matrix(0,-5.5204178,5.2263125,0,-1265.8971,3491.9902)"
         sodipodi:open="true"
         sodipodi:end="7.8188447"
         sodipodi:start="1.5364461"
         d="m 548.56337,305.41161 a 1.1485909,1.2203778 0 1 1 9.1e-4,-3e-5"
         sodipodi:ry="1.2203778"
         sodipodi:rx="1.1485909"
         sodipodi:cy="304.19196"
         sodipodi:cx="548.52393"
         id="path90925-8-9"
         style="color:#000000;fill:#ffffff;fill-opacity:1;fill-rule:nonzero;stroke:none;stroke-width:1.20000005;marker:none;visibility:visible;display:inline;overflow:visible;enable-background:accumulate"
         sodipodi:type="arc" />
      <path
         transform="matrix(0,-4.1281701,3.6177922,0,-777.36723,2727.6003)"
         sodipodi:open="true"
         sodipodi:end="7.8188447"
         sodipodi:start="1.5364461"
         d="m 549.25168,302.52271 a 0.28714773,0.33201456 0 1 1 2.3e-4,-1e-5"
         sodipodi:ry="0.33201456"
         sodipodi:rx="0.28714773"
         sodipodi:cy="302.19089"
         sodipodi:cx="549.24182"
         id="path91527-2-4"
         style="color:#000000;fill:#ffffff;fill-opacity:1;fill-rule:nonzero;stroke:none;stroke-width:1.20000005;marker:none;visibility:visible;display:inline;overflow:visible;enable-background:accumulate"
         sodipodi:type="arc" />
      <path
         transform="matrix(0,-4.1281701,3.6177922,0,-772.46522,2722.9904)"
         sodipodi:open="true"
         sodipodi:end="7.8188447"
         sodipodi:start="1.5364461"
         d="m 549.25168,302.52271 a 0.28714773,0.33201456 0 1 1 2.3e-4,-1e-5"
         sodipodi:ry="0.33201456"
         sodipodi:rx="0.28714773"
         sodipodi:cy="302.19089"
         sodipodi:cx="549.24182"
         id="path91527-7-3-8"
         style="color:#000000;fill:#ffffff;fill-opacity:1;fill-rule:nonzero;stroke:none;stroke-width:1.20000005;marker:none;visibility:visible;display:inline;overflow:visible;enable-background:accumulate"
         sodipodi:type="arc" />
      <path
         transform="matrix(0,-4.1281701,3.6177922,0,-766.49189,2722.9904)"
         sodipodi:open="true"
         sodipodi:end="7.8188447"
         sodipodi:start="1.5364461"
         d="m 549.25168,302.52271 a 0.28714773,0.33201456 0 1 1 2.3e-4,-1e-5"
         sodipodi:ry="0.33201456"
         sodipodi:rx="0.28714773"
         sodipodi:cy="302.19089"
         sodipodi:cx="549.24182"
         id="path91527-7-4-2-8"
         style="color:#000000;fill:#ffffff;fill-opacity:1;fill-rule:nonzero;stroke:none;stroke-width:1.20000005;marker:none;visibility:visible;display:inline;overflow:visible;enable-background:accumulate"
         sodipodi:type="arc" />
      <path
         transform="matrix(0,-4.1281701,3.6177922,0,-761.42754,2735.0419)"
         sodipodi:open="true"
         sodipodi:end="7.8188447"
         sodipodi:start="1.5364461"
         d="m 549.25168,302.52271 a 0.28714773,0.33201456 0 1 1 2.3e-4,-1e-5"
         sodipodi:ry="0.33201456"
         sodipodi:rx="0.28714773"
         sodipodi:cy="302.19089"
         sodipodi:cx="549.24182"
         id="path91527-7-9-1-2"
         style="color:#000000;fill:#ffffff;fill-opacity:1;fill-rule:nonzero;stroke:none;stroke-width:1.20000005;marker:none;visibility:visible;display:inline;overflow:visible;enable-background:accumulate"
         sodipodi:type="arc" />
      <path
         transform="matrix(0,-4.1281701,3.6177922,0,-761.42754,2727.6003)"
         sodipodi:open="true"
         sodipodi:end="7.8188447"
         sodipodi:start="1.5364461"
         d="m 549.25168,302.52271 a 0.28714773,0.33201456 0 1 1 2.3e-4,-1e-5"
         sodipodi:ry="0.33201456"
         sodipodi:rx="0.28714773"
         sodipodi:cy="302.19089"
         sodipodi:cx="549.24182"
         id="path91527-7-0-04-4"
         style="color:#000000;fill:#ffffff;fill-opacity:1;fill-rule:nonzero;stroke:none;stroke-width:1.20000005;marker:none;visibility:visible;display:inline;overflow:visible;enable-background:accumulate"
         sodipodi:type="arc" />
      <path
         transform="matrix(0,-4.1281701,3.6177922,0,-766.49189,2739.6518)"
         sodipodi:open="true"
         sodipodi:end="7.8188447"
         sodipodi:start="1.5364461"
         d="m 549.25168,302.52271 a 0.28714773,0.33201456 0 1 1 2.3e-4,-1e-5"
         sodipodi:ry="0.33201456"
         sodipodi:rx="0.28714773"
         sodipodi:cy="302.19089"
         sodipodi:cx="549.24182"
         id="path91527-7-48-0-5"
         style="color:#000000;fill:#ffffff;fill-opacity:1;fill-rule:nonzero;stroke:none;stroke-width:1.20000005;marker:none;visibility:visible;display:inline;overflow:visible;enable-background:accumulate"
         sodipodi:type="arc" />
      <path
         transform="matrix(0,-4.1281701,3.6177922,0,-772.46522,2739.6518)"
         sodipodi:open="true"
         sodipodi:end="7.8188447"
         sodipodi:start="1.5364461"
         d="m 549.25168,302.52271 a 0.28714773,0.33201456 0 1 1 2.3e-4,-1e-5"
         sodipodi:ry="0.33201456"
         sodipodi:rx="0.28714773"
         sodipodi:cy="302.19089"
         sodipodi:cx="549.24182"
         id="path91527-7-8-7-5"
         style="color:#000000;fill:#ffffff;fill-opacity:1;fill-rule:nonzero;stroke:none;stroke-width:1.20000005;marker:none;visibility:visible;display:inline;overflow:visible;enable-background:accumulate"
         sodipodi:type="arc" />
      <path
         transform="matrix(0,-4.1281701,3.6177922,0,-777.36723,2735.0419)"
         sodipodi:open="true"
         sodipodi:end="7.8188447"
         sodipodi:start="1.5364461"
         d="m 549.25168,302.52271 a 0.28714773,0.33201456 0 1 1 2.3e-4,-1e-5"
         sodipodi:ry="0.33201456"
         sodipodi:rx="0.28714773"
         sodipodi:cy="302.19089"
         sodipodi:cx="549.24182"
         id="path91527-7-2-59-1"
         style="color:#000000;fill:#ffffff;fill-opacity:1;fill-rule:nonzero;stroke:none;stroke-width:1.20000005;marker:none;visibility:visible;display:inline;overflow:visible;enable-background:accumulate"
         sodipodi:type="arc" />
      <g
         transform="translate(-15.306167,-0.2733244)"
         id="g108214">
        <rect
           style="color:#000000;fill:#ffffff;fill-opacity:1;fill-rule:nonzero;stroke:none;stroke-width:1;marker:none;visibility:visible;display:inline;overflow:visible;enable-background:accumulate"
           id="rect96045-1"
           width="13.255755"
           height="13.564989"
           x="-417.49387"
           y="393.41742"
           transform="matrix(0,-1,1,0,0,0)" />
        <text
           xml:space="preserve"
           style="font-size:43.95563126px;font-style:normal;font-weight:normal;line-height:125%;letter-spacing:0px;word-spacing:0px;fill:#000000;fill-opacity:1;stroke:none;font-family:Sans"
           x="-408.89285"
           y="410.22311"
           id="text96102-1"
           sodipodi:linespacing="125%"
           transform="matrix(0,-1.0149017,0.98531711,0,0,0)"><tspan
             sodipodi:role="line"
             id="tspan96104-5"
             x="-408.89285"
             y="410.22311"
             style="font-size:12.08779907px;font-weight:bold;-inkscape-font-specification:Sans Bold">D</tspan></text>
      </g>
      <g
         transform="matrix(0,-1.1286779,1.0623735,0,-230.19573,1151.9567)"
         id="g73767">
        <rect
           style="color:#000000;fill:#ffffff;fill-opacity:1;fill-rule:nonzero;stroke:none;stroke-width:1;marker:none;visibility:visible;display:inline;overflow:visible;enable-background:accumulate"
           id="rect73763"
           width="15.419339"
           height="16.348215"
           x="624.28809"
           y="513.42834"
           ry="2.5772476"
           rx="2.1263816" />
        <path
           id="path38020-2"
           d="m 635.09145,514.66669 c -1.10272,10e-6 -2.01401,0.35778 -2.74013,1.03125 -0.72611,0.67349 -1.09015,1.50275 -1.09015,2.53125 l 0,1 0,4.46875 0,0.8125 c 0,0.85638 -0.40593,1.28125 -1.17855,1.28125 -0.32193,0 -0.59427,-0.0714 -0.82498,-0.25 -0.23072,-0.17859 -0.35357,-0.40665 -0.35357,-0.65625 0,-0.2582 0.1309,-0.47335 0.35357,-0.65625 0.22266,-0.18289 0.48432,-0.28125 0.79552,-0.28125 0.2468,0 0.48977,0.0638 0.73659,0.21875 l 0,-2.65625 c -0.35949,-0.0258 -0.61847,-0.0312 -0.79552,-0.0312 -1.11601,10e-6 -2.10136,0.33728 -2.91691,1 -0.81554,0.66273 -1.20801,1.43574 -1.20801,2.34375 0,0.93814 0.41656,1.72949 1.23748,2.375 0.82091,0.64551 1.8088,0.96875 3.00529,0.96875 0.60093,0 1.1964,-0.10163 1.76782,-0.3125 0.57142,-0.21087 1.04404,-0.48657 1.41426,-0.84375 0.64385,-0.61969 0.9723,-1.42077 0.9723,-2.40625 l 0,-0.90625 0,-2.28125 1.53212,0 0,-2.375 -1.53212,0 0,-1.09375 c 0,-0.55943 0.21492,-0.84374 0.67767,-0.84375 0.34952,10e-6 0.59875,0.16434 0.73659,0.5 l 2.44549,-1.5625 c -0.8172,-0.91661 -1.81883,-1.37499 -3.03476,-1.375 z"
           style="font-size:15.2023344px;font-style:normal;font-variant:normal;font-weight:normal;font-stretch:normal;line-height:125%;letter-spacing:0px;word-spacing:0px;fill:#19171c;fill-opacity:1;stroke:none;font-family:Bauhaus 93;-inkscape-font-specification:Bauhaus 93"
           inkscape:connector-curvature="0" />
      </g>
      <g
         id="g108245">
        <path
           style="fill:#ffffff"
           inkscape:connector-curvature="0"
           d="m 407.84812,416.19007 0,-10.91502 -5.54799,0 c -0.70474,0 -1.28112,0.5249 -1.28112,1.16625 l 0,8.58252 c 0,0.64157 0.57638,1.16625 1.28112,1.16625 l 5.54799,0 z"
           id="path3417" />
        <path
           id="path3421"
           d="m 405.95016,417.31405 c 0,-0.0348 0.0285,-0.0636 0.0638,-0.0636 l 2.25516,0 c 0.0351,0 0.0639,-0.0288 0.0639,-0.0636 l 0,-12.90852 c 0,-0.0348 -0.0285,-0.0636 -0.0639,-0.0636 l -2.37767,0 c -0.0351,0 -0.0639,-0.0288 -0.0639,-0.0636 l 0,-0.40891 c 0,-0.0348 0.0286,-0.0636 0.0639,-0.0636 l 2.96709,0 c 0.0351,0 0.0638,0.0288 0.0638,0.0636 l 0,0.29763 c 0,0.0349 0,0.0888 0,0.11937 0,0.0306 0,0.0843 0,0.11914 l 0,12.90852 c 0,0.0348 0,0.0924 0,0.12723 l 0,0.007 c 0,0.0348 0,0.0924 0,0.12723 l 0,0.27515 c 0,0.0349 -0.0285,0.0636 -0.0638,0.0636 l -2.84458,0 c -0.0351,0 -0.0638,-0.0288 -0.0638,-0.0636 l 0,-0.40913 z"
           inkscape:connector-curvature="0"
           style="fill:#ffffff" />
        <polygon
           id="polygon3423"
           points="484.231,83.082 481.219,83.082 481.219,94.737 479.095,94.737 482.724,101.024 486.355,94.737 484.231,94.737 "
           style="fill:#ffffff"
           transform="matrix(0,0.22479694,0.22479694,0,377.32002,302.21757)" />
      </g>
    </g>
  </g>
</svg>
