<?xml version="1.0" encoding="UTF-8" standalone="no"?>
<!-- Created with Inkscape (http://www.inkscape.org/) -->

<svg
   xmlns:dc="http://purl.org/dc/elements/1.1/"
   xmlns:cc="http://creativecommons.org/ns#"
   xmlns:rdf="http://www.w3.org/1999/02/22-rdf-syntax-ns#"
   xmlns:svg="http://www.w3.org/2000/svg"
   xmlns="http://www.w3.org/2000/svg"
   xmlns:sodipodi="http://sodipodi.sourceforge.net/DTD/sodipodi-0.dtd"
   xmlns:inkscape="http://www.inkscape.org/namespaces/inkscape"
   width="744.09448819"
   height="1052.3622047"
   id="svg5618"
   version="1.1"
   inkscape:version="0.48.1 "
   sodipodi:docname="新建文档 1">
  <defs
     id="defs5620" />
  <sodipodi:namedview
     id="base"
     pagecolor="#ffffff"
     bordercolor="#666666"
     borderopacity="1.0"
     inkscape:pageopacity="0.0"
     inkscape:pageshadow="2"
     inkscape:zoom="2.8"
     inkscape:cx="417.32565"
     inkscape:cy="618.27564"
     inkscape:document-units="px"
     inkscape:current-layer="layer1"
     showgrid="false"
     inkscape:window-width="1920"
     inkscape:window-height="1017"
     inkscape:window-x="-8"
     inkscape:window-y="-8"
     inkscape:window-maximized="1" />
  <metadata
     id="metadata5623">
    <rdf:RDF>
      <cc:Work
         rdf:about="">
        <dc:format>image/svg+xml</dc:format>
        <dc:type
           rdf:resource="http://purl.org/dc/dcmitype/StillImage" />
        <dc:title></dc:title>
      </cc:Work>
    </rdf:RDF>
  </metadata>
  <g
     inkscape:label="Layer 1"
     inkscape:groupmode="layer"
     id="layer1">
    <g
       transform="matrix(0.14489355,0,0,0.14489355,-991.51474,-648.08598)"
       id="g13062">
      <rect
         transform="scale(-1,-1)"
         rx="78.623238"
         ry="70.486229"
         y="-7603.0103"
         x="-9671.8955"
         height="528.96552"
         width="727.80713"
         id="rect90734"
         style="color:#000000;fill:#151410;fill-opacity:1;fill-rule:nonzero;stroke:none;stroke-width:0.99999994;marker:none;visibility:visible;display:inline;overflow:visible;enable-background:accumulate" />
      <path
         transform="matrix(-32.433643,0,0,-32.065342,27384.759,17273.42)"
         sodipodi:open="true"
         sodipodi:end="7.8188447"
         sodipodi:start="1.5364461"
         d="m 548.82068,306.41594 c -1.30758,0.0449 -2.404,-0.97864 -2.44893,-2.28621 -0.0449,-1.30757 0.97864,-2.404 2.28621,-2.44893 1.30757,-0.0449 2.404,0.97864 2.44893,2.28621 0.0449,1.30685 -0.97754,2.40293 -2.28435,2.44887"
         sodipodi:ry="2.3689687"
         sodipodi:rx="2.3689687"
         sodipodi:cy="304.04837"
         sodipodi:cx="548.73932"
         id="path90890-3"
         style="color:#000000;fill:#d99c43;fill-opacity:1;fill-rule:nonzero;stroke:none;stroke-width:1.20947742;marker:none;visibility:visible;display:inline;overflow:visible;enable-background:accumulate"
         sodipodi:type="arc" />
      <path
         transform="matrix(-38.173925,0,0,-35.568252,30525.767,18344.051)"
         sodipodi:open="true"
         sodipodi:end="7.8188447"
         sodipodi:start="1.5364461"
         d="m 548.56337,305.41161 c -0.63397,0.0231 -1.16557,-0.50414 -1.18736,-1.17774 -0.0218,-0.6736 0.47449,-1.23842 1.10847,-1.26157 0.63397,-0.0232 1.16557,0.50415 1.18736,1.17774 0.0218,0.67323 -0.47396,1.23788 -1.10756,1.26154"
         sodipodi:ry="1.2203778"
         sodipodi:rx="1.1485909"
         sodipodi:cy="304.19196"
         sodipodi:cx="548.52393"
         id="path90925-8"
         style="color:#000000;fill:#ffffff;fill-opacity:1;fill-rule:nonzero;stroke:none;stroke-width:1.20000005;marker:none;visibility:visible;display:inline;overflow:visible;enable-background:accumulate"
         sodipodi:type="arc" />
      <path
         transform="matrix(-28.546472,0,0,-24.621288,25239.977,15019.307)"
         sodipodi:open="true"
         sodipodi:end="7.8188447"
         sodipodi:start="1.5364461"
         d="m 549.25168,302.52271 c -0.15849,0.006 -0.29139,-0.13716 -0.29684,-0.32042 -0.005,-0.18326 0.11863,-0.33692 0.27712,-0.34322 0.15849,-0.006 0.29139,0.13716 0.29684,0.32041 0.005,0.18316 -0.11849,0.33678 -0.27689,0.34322"
         sodipodi:ry="0.33201456"
         sodipodi:rx="0.28714773"
         sodipodi:cy="302.19089"
         sodipodi:cx="549.24182"
         id="path91527-2"
         style="color:#000000;fill:#ffffff;fill-opacity:1;fill-rule:nonzero;stroke:none;stroke-width:1.20000005;marker:none;visibility:visible;display:inline;overflow:visible;enable-background:accumulate"
         sodipodi:type="arc" />
      <path
         transform="matrix(-28.546472,0,0,-24.621288,25208.099,14985.946)"
         sodipodi:open="true"
         sodipodi:end="7.8188447"
         sodipodi:start="1.5364461"
         d="m 549.25168,302.52271 c -0.15849,0.006 -0.29139,-0.13716 -0.29684,-0.32042 -0.005,-0.18326 0.11863,-0.33692 0.27712,-0.34322 0.15849,-0.006 0.29139,0.13716 0.29684,0.32041 0.005,0.18316 -0.11849,0.33678 -0.27689,0.34322"
         sodipodi:ry="0.33201456"
         sodipodi:rx="0.28714773"
         sodipodi:cy="302.19089"
         sodipodi:cx="549.24182"
         id="path91527-7-3"
         style="color:#000000;fill:#ffffff;fill-opacity:1;fill-rule:nonzero;stroke:none;stroke-width:1.20000005;marker:none;visibility:visible;display:inline;overflow:visible;enable-background:accumulate"
         sodipodi:type="arc" />
      <path
         transform="matrix(-28.546472,0,0,-24.621288,25208.099,14945.293)"
         sodipodi:open="true"
         sodipodi:end="7.8188447"
         sodipodi:start="1.5364461"
         d="m 549.25168,302.52271 c -0.15849,0.006 -0.29139,-0.13716 -0.29684,-0.32042 -0.005,-0.18326 0.11863,-0.33692 0.27712,-0.34322 0.15849,-0.006 0.29139,0.13716 0.29684,0.32041 0.005,0.18316 -0.11849,0.33678 -0.27689,0.34322"
         sodipodi:ry="0.33201456"
         sodipodi:rx="0.28714773"
         sodipodi:cy="302.19089"
         sodipodi:cx="549.24182"
         id="path91527-7-4-2"
         style="color:#000000;fill:#ffffff;fill-opacity:1;fill-rule:nonzero;stroke:none;stroke-width:1.20000005;marker:none;visibility:visible;display:inline;overflow:visible;enable-background:accumulate"
         sodipodi:type="arc" />
      <path
         transform="matrix(-28.546472,0,0,-24.621288,25291.436,14910.827)"
         sodipodi:open="true"
         sodipodi:end="7.8188447"
         sodipodi:start="1.5364461"
         d="m 549.25168,302.52271 c -0.15849,0.006 -0.29139,-0.13716 -0.29684,-0.32042 -0.005,-0.18326 0.11863,-0.33692 0.27712,-0.34322 0.15849,-0.006 0.29139,0.13716 0.29684,0.32041 0.005,0.18316 -0.11849,0.33678 -0.27689,0.34322"
         sodipodi:ry="0.33201456"
         sodipodi:rx="0.28714773"
         sodipodi:cy="302.19089"
         sodipodi:cx="549.24182"
         id="path91527-7-9-1"
         style="color:#000000;fill:#ffffff;fill-opacity:1;fill-rule:nonzero;stroke:none;stroke-width:1.20000005;marker:none;visibility:visible;display:inline;overflow:visible;enable-background:accumulate"
         sodipodi:type="arc" />
      <path
         transform="matrix(-28.546472,0,0,-24.621288,25239.977,14910.827)"
         sodipodi:open="true"
         sodipodi:end="7.8188447"
         sodipodi:start="1.5364461"
         d="m 549.25168,302.52271 c -0.15849,0.006 -0.29139,-0.13716 -0.29684,-0.32042 -0.005,-0.18326 0.11863,-0.33692 0.27712,-0.34322 0.15849,-0.006 0.29139,0.13716 0.29684,0.32041 0.005,0.18316 -0.11849,0.33678 -0.27689,0.34322"
         sodipodi:ry="0.33201456"
         sodipodi:rx="0.28714773"
         sodipodi:cy="302.19089"
         sodipodi:cx="549.24182"
         id="path91527-7-0-04"
         style="color:#000000;fill:#ffffff;fill-opacity:1;fill-rule:nonzero;stroke:none;stroke-width:1.20000005;marker:none;visibility:visible;display:inline;overflow:visible;enable-background:accumulate"
         sodipodi:type="arc" />
      <path
         transform="matrix(-28.546472,0,0,-24.621288,25323.314,14945.293)"
         sodipodi:open="true"
         sodipodi:end="7.8188447"
         sodipodi:start="1.5364461"
         d="m 549.25168,302.52271 c -0.15849,0.006 -0.29139,-0.13716 -0.29684,-0.32042 -0.005,-0.18326 0.11863,-0.33692 0.27712,-0.34322 0.15849,-0.006 0.29139,0.13716 0.29684,0.32041 0.005,0.18316 -0.11849,0.33678 -0.27689,0.34322"
         sodipodi:ry="0.33201456"
         sodipodi:rx="0.28714773"
         sodipodi:cy="302.19089"
         sodipodi:cx="549.24182"
         id="path91527-7-48-0"
         style="color:#000000;fill:#ffffff;fill-opacity:1;fill-rule:nonzero;stroke:none;stroke-width:1.20000005;marker:none;visibility:visible;display:inline;overflow:visible;enable-background:accumulate"
         sodipodi:type="arc" />
      <path
         transform="matrix(-28.546472,0,0,-24.621288,25323.314,14985.946)"
         sodipodi:open="true"
         sodipodi:end="7.8188447"
         sodipodi:start="1.5364461"
         d="m 549.25168,302.52271 c -0.15849,0.006 -0.29139,-0.13716 -0.29684,-0.32042 -0.005,-0.18326 0.11863,-0.33692 0.27712,-0.34322 0.15849,-0.006 0.29139,0.13716 0.29684,0.32041 0.005,0.18316 -0.11849,0.33678 -0.27689,0.34322"
         sodipodi:ry="0.33201456"
         sodipodi:rx="0.28714773"
         sodipodi:cy="302.19089"
         sodipodi:cx="549.24182"
         id="path91527-7-8-7"
         style="color:#000000;fill:#ffffff;fill-opacity:1;fill-rule:nonzero;stroke:none;stroke-width:1.20000005;marker:none;visibility:visible;display:inline;overflow:visible;enable-background:accumulate"
         sodipodi:type="arc" />
      <path
         transform="matrix(-28.546472,0,0,-24.621288,25291.436,15019.307)"
         sodipodi:open="true"
         sodipodi:end="7.8188447"
         sodipodi:start="1.5364461"
         d="m 549.25168,302.52271 c -0.15849,0.006 -0.29139,-0.13716 -0.29684,-0.32042 -0.005,-0.18326 0.11863,-0.33692 0.27712,-0.34322 0.15849,-0.006 0.29139,0.13716 0.29684,0.32041 0.005,0.18316 -0.11849,0.33678 -0.27689,0.34322"
         sodipodi:ry="0.33201456"
         sodipodi:rx="0.28714773"
         sodipodi:cy="302.19089"
         sodipodi:cx="549.24182"
         id="path91527-7-2-59"
         style="color:#000000;fill:#ffffff;fill-opacity:1;fill-rule:nonzero;stroke:none;stroke-width:1.20000005;marker:none;visibility:visible;display:inline;overflow:visible;enable-background:accumulate"
         sodipodi:type="arc" />
      <path
         transform="matrix(-32.433643,0,0,-32.065342,27386.98,16908.61)"
         sodipodi:open="true"
         sodipodi:end="7.8188447"
         sodipodi:start="1.5364461"
         d="m 548.82068,306.41594 c -1.30758,0.0449 -2.404,-0.97864 -2.44893,-2.28621 -0.0449,-1.30757 0.97864,-2.404 2.28621,-2.44893 1.30757,-0.0449 2.404,0.97864 2.44893,2.28621 0.0449,1.30685 -0.97754,2.40293 -2.28435,2.44887"
         sodipodi:ry="2.3689687"
         sodipodi:rx="2.3689687"
         sodipodi:cy="304.04837"
         sodipodi:cx="548.73932"
         id="path90890-3-5"
         style="color:#000000;fill:#d99c43;fill-opacity:1;fill-rule:nonzero;stroke:none;stroke-width:1.20947742;marker:none;visibility:visible;display:inline;overflow:visible;enable-background:accumulate"
         sodipodi:type="arc" />
      <path
         transform="matrix(-38.173925,0,0,-35.568252,30527.986,17979.241)"
         sodipodi:open="true"
         sodipodi:end="7.8188447"
         sodipodi:start="1.5364461"
         d="m 548.56337,305.41161 c -0.63397,0.0231 -1.16557,-0.50414 -1.18736,-1.17774 -0.0218,-0.6736 0.47449,-1.23842 1.10847,-1.26157 0.63397,-0.0232 1.16557,0.50415 1.18736,1.17774 0.0218,0.67323 -0.47396,1.23788 -1.10756,1.26154"
         sodipodi:ry="1.2203778"
         sodipodi:rx="1.1485909"
         sodipodi:cy="304.19196"
         sodipodi:cx="548.52393"
         id="path90925-8-1"
         style="color:#000000;fill:#ffffff;fill-opacity:1;fill-rule:nonzero;stroke:none;stroke-width:1.20000005;marker:none;visibility:visible;display:inline;overflow:visible;enable-background:accumulate"
         sodipodi:type="arc" />
      <path
         transform="matrix(-28.546472,0,0,-24.621288,25242.197,14654.496)"
         sodipodi:open="true"
         sodipodi:end="7.8188447"
         sodipodi:start="1.5364461"
         d="m 549.25168,302.52271 c -0.15849,0.006 -0.29139,-0.13716 -0.29684,-0.32042 -0.005,-0.18326 0.11863,-0.33692 0.27712,-0.34322 0.15849,-0.006 0.29139,0.13716 0.29684,0.32041 0.005,0.18316 -0.11849,0.33678 -0.27689,0.34322"
         sodipodi:ry="0.33201456"
         sodipodi:rx="0.28714773"
         sodipodi:cy="302.19089"
         sodipodi:cx="549.24182"
         id="path91527-2-2"
         style="color:#000000;fill:#ffffff;fill-opacity:1;fill-rule:nonzero;stroke:none;stroke-width:1.20000005;marker:none;visibility:visible;display:inline;overflow:visible;enable-background:accumulate"
         sodipodi:type="arc" />
      <path
         transform="matrix(-28.546472,0,0,-24.621288,25210.319,14621.135)"
         sodipodi:open="true"
         sodipodi:end="7.8188447"
         sodipodi:start="1.5364461"
         d="m 549.25168,302.52271 c -0.15849,0.006 -0.29139,-0.13716 -0.29684,-0.32042 -0.005,-0.18326 0.11863,-0.33692 0.27712,-0.34322 0.15849,-0.006 0.29139,0.13716 0.29684,0.32041 0.005,0.18316 -0.11849,0.33678 -0.27689,0.34322"
         sodipodi:ry="0.33201456"
         sodipodi:rx="0.28714773"
         sodipodi:cy="302.19089"
         sodipodi:cx="549.24182"
         id="path91527-7-3-0"
         style="color:#000000;fill:#ffffff;fill-opacity:1;fill-rule:nonzero;stroke:none;stroke-width:1.20000005;marker:none;visibility:visible;display:inline;overflow:visible;enable-background:accumulate"
         sodipodi:type="arc" />
      <path
         transform="matrix(-28.546472,0,0,-24.621288,25210.319,14580.483)"
         sodipodi:open="true"
         sodipodi:end="7.8188447"
         sodipodi:start="1.5364461"
         d="m 549.25168,302.52271 c -0.15849,0.006 -0.29139,-0.13716 -0.29684,-0.32042 -0.005,-0.18326 0.11863,-0.33692 0.27712,-0.34322 0.15849,-0.006 0.29139,0.13716 0.29684,0.32041 0.005,0.18316 -0.11849,0.33678 -0.27689,0.34322"
         sodipodi:ry="0.33201456"
         sodipodi:rx="0.28714773"
         sodipodi:cy="302.19089"
         sodipodi:cx="549.24182"
         id="path91527-7-4-2-9"
         style="color:#000000;fill:#ffffff;fill-opacity:1;fill-rule:nonzero;stroke:none;stroke-width:1.20000005;marker:none;visibility:visible;display:inline;overflow:visible;enable-background:accumulate"
         sodipodi:type="arc" />
      <path
         transform="matrix(-28.546472,0,0,-24.621288,25293.657,14546.017)"
         sodipodi:open="true"
         sodipodi:end="7.8188447"
         sodipodi:start="1.5364461"
         d="m 549.25168,302.52271 c -0.15849,0.006 -0.29139,-0.13716 -0.29684,-0.32042 -0.005,-0.18326 0.11863,-0.33692 0.27712,-0.34322 0.15849,-0.006 0.29139,0.13716 0.29684,0.32041 0.005,0.18316 -0.11849,0.33678 -0.27689,0.34322"
         sodipodi:ry="0.33201456"
         sodipodi:rx="0.28714773"
         sodipodi:cy="302.19089"
         sodipodi:cx="549.24182"
         id="path91527-7-9-1-8"
         style="color:#000000;fill:#ffffff;fill-opacity:1;fill-rule:nonzero;stroke:none;stroke-width:1.20000005;marker:none;visibility:visible;display:inline;overflow:visible;enable-background:accumulate"
         sodipodi:type="arc" />
      <path
         transform="matrix(-28.546472,0,0,-24.621288,25242.197,14546.017)"
         sodipodi:open="true"
         sodipodi:end="7.8188447"
         sodipodi:start="1.5364461"
         d="m 549.25168,302.52271 c -0.15849,0.006 -0.29139,-0.13716 -0.29684,-0.32042 -0.005,-0.18326 0.11863,-0.33692 0.27712,-0.34322 0.15849,-0.006 0.29139,0.13716 0.29684,0.32041 0.005,0.18316 -0.11849,0.33678 -0.27689,0.34322"
         sodipodi:ry="0.33201456"
         sodipodi:rx="0.28714773"
         sodipodi:cy="302.19089"
         sodipodi:cx="549.24182"
         id="path91527-7-0-04-9"
         style="color:#000000;fill:#ffffff;fill-opacity:1;fill-rule:nonzero;stroke:none;stroke-width:1.20000005;marker:none;visibility:visible;display:inline;overflow:visible;enable-background:accumulate"
         sodipodi:type="arc" />
      <path
         transform="matrix(-28.546472,0,0,-24.621288,25325.534,14580.483)"
         sodipodi:open="true"
         sodipodi:end="7.8188447"
         sodipodi:start="1.5364461"
         d="m 549.25168,302.52271 c -0.15849,0.006 -0.29139,-0.13716 -0.29684,-0.32042 -0.005,-0.18326 0.11863,-0.33692 0.27712,-0.34322 0.15849,-0.006 0.29139,0.13716 0.29684,0.32041 0.005,0.18316 -0.11849,0.33678 -0.27689,0.34322"
         sodipodi:ry="0.33201456"
         sodipodi:rx="0.28714773"
         sodipodi:cy="302.19089"
         sodipodi:cx="549.24182"
         id="path91527-7-48-0-1"
         style="color:#000000;fill:#ffffff;fill-opacity:1;fill-rule:nonzero;stroke:none;stroke-width:1.20000005;marker:none;visibility:visible;display:inline;overflow:visible;enable-background:accumulate"
         sodipodi:type="arc" />
      <path
         transform="matrix(-28.546472,0,0,-24.621288,25325.534,14621.135)"
         sodipodi:open="true"
         sodipodi:end="7.8188447"
         sodipodi:start="1.5364461"
         d="m 549.25168,302.52271 c -0.15849,0.006 -0.29139,-0.13716 -0.29684,-0.32042 -0.005,-0.18326 0.11863,-0.33692 0.27712,-0.34322 0.15849,-0.006 0.29139,0.13716 0.29684,0.32041 0.005,0.18316 -0.11849,0.33678 -0.27689,0.34322"
         sodipodi:ry="0.33201456"
         sodipodi:rx="0.28714773"
         sodipodi:cy="302.19089"
         sodipodi:cx="549.24182"
         id="path91527-7-8-7-7"
         style="color:#000000;fill:#ffffff;fill-opacity:1;fill-rule:nonzero;stroke:none;stroke-width:1.20000005;marker:none;visibility:visible;display:inline;overflow:visible;enable-background:accumulate"
         sodipodi:type="arc" />
      <path
         transform="matrix(-28.546472,0,0,-24.621288,25293.657,14654.496)"
         sodipodi:open="true"
         sodipodi:end="7.8188447"
         sodipodi:start="1.5364461"
         d="m 549.25168,302.52271 c -0.15849,0.006 -0.29139,-0.13716 -0.29684,-0.32042 -0.005,-0.18326 0.11863,-0.33692 0.27712,-0.34322 0.15849,-0.006 0.29139,0.13716 0.29684,0.32041 0.005,0.18316 -0.11849,0.33678 -0.27689,0.34322"
         sodipodi:ry="0.33201456"
         sodipodi:rx="0.28714773"
         sodipodi:cy="302.19089"
         sodipodi:cx="549.24182"
         id="path91527-7-2-59-3"
         style="color:#000000;fill:#ffffff;fill-opacity:1;fill-rule:nonzero;stroke:none;stroke-width:1.20000005;marker:none;visibility:visible;display:inline;overflow:visible;enable-background:accumulate"
         sodipodi:type="arc" />
      <rect
         transform="matrix(0,1,1,0,0,0)"
         ry="0"
         y="9231.959"
         x="7316.3086"
         height="17.975489"
         width="6.6649675"
         id="rect7989-3-7-5-1-9-58-2"
         style="fill:#cccccc;fill-opacity:1;stroke:none" />
      <rect
         transform="matrix(0,1,1,0,0,0)"
         y="9232.4092"
         x="7322.9731"
         height="17.076586"
         width="29.325636"
         id="rect7991-37-8-2-6-8-1-7"
         style="fill:#808080;fill-opacity:1;stroke:none" />
      <rect
         transform="matrix(0,1,1,0,0,0)"
         ry="0"
         y="9231.959"
         x="7351.6323"
         height="17.975489"
         width="6.6649675"
         id="rect7989-8-26-50-9-6-7-7-4"
         style="fill:#cccccc;fill-opacity:1;stroke:none" />
      <rect
         transform="matrix(0,1,1,0,0,0)"
         ry="0"
         y="9230.5391"
         x="7225.2881"
         height="17.975489"
         width="6.6649675"
         id="rect7989-3-7-5-1-9-58-2-7"
         style="fill:#cccccc;fill-opacity:1;stroke:none" />
      <rect
         transform="matrix(0,1,1,0,0,0)"
         y="9230.9883"
         x="7231.9536"
         height="17.076586"
         width="29.325636"
         id="rect7991-37-8-2-6-8-1-7-6"
         style="fill:#808080;fill-opacity:1;stroke:none" />
      <rect
         transform="matrix(0,1,1,0,0,0)"
         ry="0"
         y="9230.5391"
         x="7260.6123"
         height="17.975489"
         width="6.6649675"
         id="rect7989-8-26-50-9-6-7-7-4-0"
         style="fill:#cccccc;fill-opacity:1;stroke:none" />
      <rect
         transform="matrix(0,-1,1,0,0,0)"
         ry="0"
         y="9230.043"
         x="-7453.0815"
         height="18.77499"
         width="7.2432675"
         id="rect7989-3-7-9"
         style="fill:#cccccc;fill-opacity:1;stroke:none" />
      <rect
         transform="matrix(0,-1,1,0,0,0)"
         y="9230.5127"
         x="-7445.8389"
         height="17.836103"
         width="31.870134"
         id="rect7991-37-8-3"
         style="fill:#744d2e;fill-opacity:1;stroke:none" />
      <rect
         transform="matrix(0,-1,1,0,0,0)"
         ry="0"
         y="9230.043"
         x="-7414.6924"
         height="18.77499"
         width="7.2432675"
         id="rect7989-8-26-50-8"
         style="fill:#cccccc;fill-opacity:1;stroke:none" />
      <rect
         transform="matrix(0,1,-1,0,0,0)"
         y="-9065.1719"
         x="7109.085"
         height="69.662361"
         width="74.599831"
         id="rect96045-7-6"
         style="color:#000000;fill:#ffffff;fill-opacity:1;fill-rule:nonzero;stroke:none;stroke-width:1;marker:none;visibility:visible;display:inline;overflow:visible;enable-background:accumulate" />
      <text
         transform="matrix(0,1.0624324,-0.94123636,0,0,0)"
         sodipodi:linespacing="125%"
         id="text96102-4-8"
         y="-9572.3037"
         x="6702.9727"
         style="font-size:236.30374146px;font-style:normal;font-weight:normal;line-height:125%;letter-spacing:0px;word-spacing:0px;fill:#000000;fill-opacity:1;stroke:none;font-family:Sans"
         xml:space="preserve"><tspan
           style="font-size:64.98352814px;font-weight:bold;-inkscape-font-specification:Sans Bold"
           y="-9572.3037"
           x="6702.9727"
           id="tspan96104-6-8"
           sodipodi:role="line">D</tspan></text>
      <g
         transform="matrix(0,9.1749813,-9.1749813,0,13980.653,1012.182)"
         id="g83378">
        <rect
           style="fill:#fff6d5;fill-opacity:1;stroke:#00ffff;stroke-width:0;stroke-linecap:round;stroke-linejoin:round;stroke-miterlimit:4;stroke-opacity:1;stroke-dasharray:none;stroke-dashoffset:0"
           id="rect32255"
           width="25.472403"
           height="16.470354"
           x="677.06561"
           y="532.49078"
           ry="0" />
        <rect
           style="fill:#fff6d5;fill-opacity:1;stroke:#fff6d5;stroke-width:0;stroke-linecap:round;stroke-linejoin:round;stroke-miterlimit:4;stroke-opacity:1;stroke-dasharray:none;stroke-dashoffset:0"
           id="rect32626"
           width="1.775349"
           height="4.548955"
           x="677.13806"
           y="528.13123" />
        <rect
           y="528.13123"
           x="700.66241"
           height="4.548955"
           width="1.775349"
           id="rect33035"
           style="fill:#fff6d5;fill-opacity:1;stroke:#fff6d5;stroke-width:0;stroke-linecap:round;stroke-linejoin:round;stroke-miterlimit:4;stroke-opacity:1;stroke-dasharray:none;stroke-dashoffset:0" />
        <rect
           style="fill:#999999;fill-opacity:1;stroke:#00ffff;stroke-width:0;stroke-linecap:round;stroke-linejoin:round;stroke-miterlimit:4;stroke-opacity:1;stroke-dasharray:none;stroke-dashoffset:0"
           id="rect32477"
           width="2.2338014"
           height="6.9002299"
           x="696.93945"
           y="536.77484" />
        <rect
           style="opacity:0.76605506;fill:#ffeeaa;fill-opacity:1;stroke:#ffeeaa;stroke-width:0;stroke-linecap:round;stroke-linejoin:round;stroke-miterlimit:4;stroke-opacity:1;stroke-dasharray:none;stroke-dashoffset:0"
           id="rect32661"
           width="2.5925944"
           height="4.2288785"
           x="696.92181"
           y="532.53607" />
        <path
           style="fill:#b3b3b3;fill-opacity:1;stroke:#000000;stroke-width:0;stroke-linecap:round;stroke-linejoin:round;stroke-miterlimit:4;stroke-opacity:1;stroke-dasharray:none;stroke-dashoffset:0"
           d="m 698.33862,535.73419 0,1.04009 0.80603,0 0,6.91822 0.36848,0 0,-7.95831 -1.17451,0 z"
           id="rect33259"
           inkscape:connector-curvature="0" />
        <rect
           y="536.75281"
           x="-682.74298"
           height="6.9002299"
           width="2.2338014"
           id="rect33559"
           style="fill:#999999;fill-opacity:1;stroke:#00ffff;stroke-width:0;stroke-linecap:round;stroke-linejoin:round;stroke-miterlimit:4;stroke-opacity:1;stroke-dasharray:none;stroke-dashoffset:0"
           transform="scale(-1,1)" />
        <rect
           y="532.51398"
           x="-682.76062"
           height="4.2288785"
           width="2.5925944"
           id="rect33561"
           style="opacity:0.76605506;fill:#ffeeaa;fill-opacity:1;stroke:#ffeeaa;stroke-width:0;stroke-linecap:round;stroke-linejoin:round;stroke-miterlimit:4;stroke-opacity:1;stroke-dasharray:none;stroke-dashoffset:0"
           transform="scale(-1,1)" />
        <path
           inkscape:connector-curvature="0"
           id="path33563"
           d="m 681.34382,535.71213 0,1.04008 -0.80604,0 0,6.91823 -0.36848,0 0,-7.95831 1.17452,0 z"
           style="fill:#b3b3b3;fill-opacity:1;stroke:#000000;stroke-width:0;stroke-linecap:round;stroke-linejoin:round;stroke-miterlimit:4;stroke-opacity:1;stroke-dasharray:none;stroke-dashoffset:0" />
        <rect
           ry="0.74798572"
           y="526.1134"
           x="683.56354"
           height="4.6660509"
           width="1.4655991"
           id="rect33647"
           style="fill:#ececec;fill-opacity:1;stroke:#000000;stroke-width:0;stroke-linecap:round;stroke-linejoin:round;stroke-miterlimit:4;stroke-opacity:1;stroke-dasharray:none;stroke-dashoffset:0"
           rx="0.74798578" />
        <rect
           style="fill:#b3b3b3;fill-opacity:1;stroke:#000000;stroke-width:0;stroke-linecap:round;stroke-linejoin:round;stroke-miterlimit:4;stroke-opacity:1;stroke-dasharray:none;stroke-dashoffset:0"
           id="rect33634"
           width="1.4655991"
           height="2.4488497"
           x="683.56354"
           y="530.06805" />
        <rect
           style="fill:#ececec;fill-opacity:1;stroke:#000000;stroke-width:0;stroke-linecap:round;stroke-linejoin:round;stroke-miterlimit:4;stroke-opacity:1;stroke-dasharray:none;stroke-dashoffset:0"
           id="rect36702"
           width="1.4655991"
           height="4.6660509"
           x="689.36078"
           y="526.1134"
           ry="0.74798572"
           rx="0.74798578" />
        <rect
           y="530.06805"
           x="689.36078"
           height="2.4488497"
           width="1.4655991"
           id="rect36704"
           style="fill:#b3b3b3;fill-opacity:1;stroke:#000000;stroke-width:0;stroke-linecap:round;stroke-linejoin:round;stroke-miterlimit:4;stroke-opacity:1;stroke-dasharray:none;stroke-dashoffset:0" />
        <rect
           ry="0.74798572"
           y="526.1134"
           x="695.06036"
           height="4.6660509"
           width="1.4655991"
           id="rect36721"
           style="fill:#ececec;fill-opacity:1;stroke:#000000;stroke-width:0;stroke-linecap:round;stroke-linejoin:round;stroke-miterlimit:4;stroke-opacity:1;stroke-dasharray:none;stroke-dashoffset:0"
           rx="0.74798578" />
        <rect
           style="fill:#b3b3b3;fill-opacity:1;stroke:#000000;stroke-width:0;stroke-linecap:round;stroke-linejoin:round;stroke-miterlimit:4;stroke-opacity:1;stroke-dasharray:none;stroke-dashoffset:0"
           id="rect36723"
           width="1.4655991"
           height="2.4488497"
           x="695.06036"
           y="530.06805" />
      </g>
      <rect
         transform="matrix(0,1,-1,0,0,0)"
         rx="7.8804245"
         ry="10.430195"
         y="-9653.0322"
         x="7273.0693"
         height="138.08131"
         width="136.17438"
         id="rect73763"
         style="color:#000000;fill:#ffffff;fill-opacity:1;fill-rule:nonzero;stroke:none;stroke-width:1;marker:none;visibility:visible;display:inline;overflow:visible;enable-background:accumulate" />
      <path
         inkscape:connector-curvature="0"
         style="font-size:15.2023344px;font-style:normal;font-variant:normal;font-weight:normal;font-stretch:normal;line-height:125%;letter-spacing:0px;word-spacing:0px;fill:#19171c;fill-opacity:1;stroke:none;font-family:Bauhaus 93;-inkscape-font-specification:Bauhaus 93"
         d="m 9642.5732,7368.4781 c 0,-9.7385 -3.022,-17.7865 -8.7102,-24.1991 -5.6885,-6.4127 -12.6927,-9.6276 -21.3796,-9.6276 l -8.4462,0 -37.7443,0 -6.8626,0 c -7.2333,0 -10.8218,-3.585 -10.8218,-10.4082 0,-2.8432 0.6032,-5.2484 2.1117,-7.2857 1.5076,-2.0377 3.4346,-3.1227 5.5428,-3.1227 2.1807,0 3.998,1.1567 5.5427,3.1227 1.5442,1.9663 2.3756,4.2772 2.3756,7.0254 0,2.1797 -0.5397,4.3254 -1.8476,6.5051 l 22.4354,0 c 0.2167,-3.1747 0.2629,-5.4619 0.2629,-7.0254 0,-9.8559 -2.8487,-18.5581 -8.4462,-25.7604 -5.5977,-7.2024 -12.1267,-10.6685 -19.796,-10.6685 -7.9238,0 -14.6077,3.6788 -20.0599,10.9287 -5.4522,7.2498 -8.1822,15.9743 -8.1822,26.5409 0,5.3071 0.8585,10.5658 2.6394,15.6123 1.7803,5.0464 4.1097,9.2204 7.1264,12.4899 5.2343,5.6861 12.0002,8.5867 20.324,8.5867 l 7.6544,0 19.268,0 0,13.5308 20.0599,0 0,-13.5308 9.2381,0 c 4.725,0 7.1265,1.8981 7.1265,5.9849 0,3.0868 -1.3885,5.2878 -4.223,6.5051 l 13.1972,21.5972 c 7.7419,-7.2171 11.6134,-16.0629 11.6136,-26.8013 z"
         id="path38020-2-4" />
      <g
         transform="matrix(0,5.9642048,-5.9642048,0,11842.21,6580.9426)"
         id="g13727">
        <path
           sodipodi:type="arc"
           style="fill:#cccccc;fill-opacity:1;stroke:none"
           id="path13707"
           sodipodi:cx="-16.607143"
           sodipodi:cy="64.988327"
           sodipodi:rx="5.8928571"
           sodipodi:ry="5.8928571"
           d="m -16.404762,70.877708 c -3.252615,0.111772 -5.97999,-2.434385 -6.091762,-5.687 -0.111772,-3.252615 2.434384,-5.97999 5.686999,-6.091762 3.252616,-0.111772 5.97999,2.434385 6.091762,5.687 0.11171,3.250806 -2.431649,5.977334 -5.682366,6.091601"
           transform="translate(116.97309,352.31657)"
           sodipodi:start="1.5364461"
           sodipodi:end="7.8188447"
           sodipodi:open="true" />
        <path
           sodipodi:type="arc"
           style="fill:#cccccc;fill-opacity:1;stroke:none"
           id="path13707-9"
           sodipodi:cx="-16.607143"
           sodipodi:cy="64.988327"
           sodipodi:rx="5.8928571"
           sodipodi:ry="5.8928571"
           d="m -16.404762,70.877708 c -3.252615,0.111772 -5.97999,-2.434385 -6.091762,-5.687 -0.111772,-3.252615 2.434384,-5.97999 5.686999,-6.091762 3.252616,-0.111772 5.97999,2.434385 6.091762,5.687 0.11171,3.250806 -2.431649,5.977334 -5.682366,6.091601"
           transform="translate(174.29452,352.49514)"
           sodipodi:start="1.5364461"
           sodipodi:end="7.8188447"
           sodipodi:open="true" />
      </g>
      <rect
         transform="matrix(0,1,-1,0,0,0)"
         rx="55.381901"
         ry="29.821024"
         y="-9409.7646"
         x="7165.7002"
         height="104.37358"
         width="364.24249"
         id="rect13665"
         style="fill:#666666;fill-opacity:1;stroke:none" />
    </g>
  </g>
</svg>
