<?xml version="1.0" encoding="UTF-8" standalone="no"?>
<!-- Generator: Adobe Illustrator 15.0.0, SVG Export Plug-In . SVG Version: 6.00 Build 0)  -->

<svg
   xmlns:dc="http://purl.org/dc/elements/1.1/"
   xmlns:cc="http://creativecommons.org/ns#"
   xmlns:rdf="http://www.w3.org/1999/02/22-rdf-syntax-ns#"
   xmlns:svg="http://www.w3.org/2000/svg"
   xmlns="http://www.w3.org/2000/svg"
   xmlns:xlink="http://www.w3.org/1999/xlink"
   xmlns:sodipodi="http://sodipodi.sourceforge.net/DTD/sodipodi-0.dtd"
   xmlns:inkscape="http://www.inkscape.org/namespaces/inkscape"
   version="1.1"
   id="图层_1"
   x="0px"
   y="0px"
   width="841.89px"
   height="595.28px"
   viewBox="0 0 841.89 595.28"
   enable-background="new 0 0 841.89 595.28"
   xml:space="preserve"
   inkscape:version="0.48.1 "
   sodipodi:docname="4.23.svg"
   inkscape:export-filename="F:\20-Files send to me\12-wenwen\4.23.png"
   inkscape:export-xdpi="90"
   inkscape:export-ydpi="90"><metadata
   id="metadata3537"><rdf:RDF><cc:Work
       rdf:about=""><dc:format>image/svg+xml</dc:format><dc:type
         rdf:resource="http://purl.org/dc/dcmitype/StillImage" /><dc:title></dc:title></cc:Work></rdf:RDF></metadata><defs
   id="defs3535">
	
	
	
</defs><sodipodi:namedview
   pagecolor="#ffffff"
   bordercolor="#666666"
   borderopacity="1"
   objecttolerance="10"
   gridtolerance="10"
   guidetolerance="10"
   inkscape:pageopacity="0"
   inkscape:pageshadow="2"
   inkscape:window-width="1680"
   inkscape:window-height="987"
   id="namedview3533"
   showgrid="false"
   inkscape:zoom="1.0482462"
   inkscape:cx="337.49638"
   inkscape:cy="299.46812"
   inkscape:window-x="-32000"
   inkscape:window-y="-32000"
   inkscape:window-maximized="1"
   inkscape:current-layer="图层_1" />
<g
   id="g3263"
   transform="matrix(1.3220081,0,0,1.3220081,-6.4023175,-35.054513)">
	<g
   id="g3265">
		<path
   d="M 73.233,120.124 V 86.75 c 0,-2.321 -2.163,-4.202 -4.829,-4.202 -2.668,0 -4.83,1.881 -4.83,4.202 v 33.374 c -2.884,1.67 -4.83,4.783 -4.83,8.355 0,5.334 4.325,9.659 9.659,9.659 5.333,0 9.657,-4.325 9.657,-9.659 0.002,-3.572 -1.943,-6.685 -4.827,-8.355 z"
   id="path3267"
   inkscape:connector-curvature="0"
   style="fill:#ffffff" />
		<path
   d="m 68.404,138.488 c -5.52,0 -10.008,-4.49 -10.008,-10.008 0,-3.485 1.844,-6.744 4.828,-8.555 V 86.75 c 0,-2.51 2.324,-4.551 5.181,-4.551 2.855,0 5.179,2.042 5.179,4.551 v 33.174 c 2.984,1.811 4.83,5.069 4.83,8.555 -0.001,5.519 -4.492,10.009 -10.01,10.009 z m 0,-55.588 c -2.47,0 -4.48,1.727 -4.48,3.851 v 33.576 l -0.175,0.102 c -2.87,1.662 -4.653,4.748 -4.653,8.052 0,5.134 4.176,9.309 9.309,9.309 5.131,0 9.307,-4.175 9.307,-9.309 0,-3.304 -1.784,-6.39 -4.654,-8.052 l -0.174,-0.102 V 86.75 C 72.883,84.627 70.873,82.9 68.404,82.9 z"
   id="path3269"
   inkscape:connector-curvature="0"
   style="fill:#231815" />
	</g>
	<g
   id="g3271">
		<defs
   id="defs3273">
			<rect
   id="SVGID_1_"
   x="55.573002"
   y="113.661"
   width="25.66"
   height="33.610001" />
		</defs>
		<clipPath
   id="SVGID_2_">
			<use
   xlink:href="#SVGID_1_"
   overflow="visible"
   id="use3277"
   style="overflow:visible"
   x="0"
   y="0"
   width="841.89001"
   height="595.28003" />
		</clipPath>
		<path
   clip-path="url(#SVGID_2_)"
   d="M 73.233,119.948 V 86.576 c 0,-2.32 -2.163,-4.202 -4.829,-4.202 -2.668,0 -4.83,1.882 -4.83,4.202 v 33.373 c -2.884,1.672 -4.83,4.784 -4.83,8.356 0,5.334 4.325,9.659 9.659,9.659 5.333,0 9.657,-4.325 9.657,-9.659 0.002,-3.573 -1.943,-6.685 -4.827,-8.357 z"
   id="path3279"
   inkscape:connector-curvature="0"
   style="fill:#231815" />
	</g>
	<rect
   x="68.403999"
   y="90.203003"
   width="4.829"
   height="0.70099998"
   id="rect3281"
   style="fill:#231815" />
	<rect
   x="68.403999"
   y="94.403999"
   width="4.829"
   height="0.70099998"
   id="rect3283"
   style="fill:#231815" />
	<rect
   x="68.403999"
   y="98.606003"
   width="4.829"
   height="0.69999999"
   id="rect3285"
   style="fill:#231815" />
	<rect
   x="68.403999"
   y="102.807"
   width="4.829"
   height="0.69999999"
   id="rect3287"
   style="fill:#231815" />
	<rect
   x="68.403999"
   y="107.009"
   width="4.829"
   height="0.69999999"
   id="rect3289"
   style="fill:#231815" />
</g>


<g
   id="g3303"
   transform="matrix(1.2861292,0,0,1.2861292,-42.373155,-35.213967)">
	<g
   id="g3305">
		<g
   id="g3307">
			<path
   d="M 157.244,113.959 V 93.372 c 0,-1.433 -1.334,-2.592 -2.98,-2.592 -1.645,0 -2.978,1.16 -2.978,2.592 v 20.588 c -1.78,1.031 -2.98,2.95 -2.98,5.155 0,3.29 2.668,5.958 5.958,5.958 3.292,0 5.958,-2.668 5.958,-5.958 0,-2.205 -1.199,-4.125 -2.978,-5.156 z"
   id="path3309"
   inkscape:connector-curvature="0"
   style="fill:#ffffff" />
			<path
   d="m 154.264,125.288 c -3.404,0 -6.173,-2.77 -6.173,-6.173 0,-2.15 1.137,-4.162 2.979,-5.278 V 93.372 c 0,-1.549 1.433,-2.809 3.194,-2.809 1.761,0 3.196,1.26 3.196,2.809 v 20.465 c 1.84,1.117 2.98,3.128 2.98,5.278 -0.001,3.404 -2.772,6.173 -6.176,6.173 z m 0,-34.293 c -1.522,0 -2.763,1.065 -2.763,2.376 v 20.712 l -0.108,0.063 c -1.771,1.027 -2.871,2.929 -2.871,4.969 0,3.166 2.576,5.742 5.742,5.742 3.167,0 5.743,-2.576 5.743,-5.742 0,-2.04 -1.101,-3.942 -2.871,-4.969 l -0.109,-0.063 V 93.372 c -10e-4,-1.311 -1.239,-2.377 -2.763,-2.377 z"
   id="path3311"
   inkscape:connector-curvature="0"
   style="fill:#231815" />
		</g>
		<g
   id="g3313">
			<defs
   id="defs3315">
				<rect
   id="SVGID_3_"
   x="146.349"
   y="109.972"
   width="15.83"
   height="20.735001" />
			</defs>
			<clipPath
   id="SVGID_4_">
				<use
   xlink:href="#SVGID_3_"
   overflow="visible"
   id="use3319"
   style="overflow:visible"
   x="0"
   y="0"
   width="841.89001"
   height="595.28003" />
			</clipPath>
			<path
   clip-path="url(#SVGID_4_)"
   d="M 157.244,113.851 V 93.263 c 0,-1.432 -1.334,-2.592 -2.98,-2.592 -1.645,0 -2.978,1.16 -2.978,2.592 v 20.587 c -1.78,1.031 -2.98,2.951 -2.98,5.155 0,3.291 2.668,5.958 5.958,5.958 3.292,0 5.958,-2.667 5.958,-5.958 0,-2.203 -1.199,-4.123 -2.978,-5.154 z"
   id="path3321"
   inkscape:connector-curvature="0"
   style="fill:#231815" />
		</g>
		<rect
   x="154.26401"
   y="95.500999"
   width="2.98"
   height="0.43200001"
   id="rect3323"
   style="fill:#231815" />
		<rect
   x="154.26401"
   y="98.092003"
   width="2.98"
   height="0.433"
   id="rect3325"
   style="fill:#231815" />
		<rect
   x="154.26401"
   y="100.685"
   width="2.98"
   height="0.433"
   id="rect3327"
   style="fill:#231815" />
		<rect
   x="154.26401"
   y="103.277"
   width="2.98"
   height="0.43200001"
   id="rect3329"
   style="fill:#231815" />
		<rect
   x="154.26401"
   y="105.869"
   width="2.98"
   height="0.43200001"
   id="rect3331"
   style="fill:#231815" />
	</g>
	<path
   d="m 188.125,125.215 c -0.406,-0.659 -0.812,-1.318 -1.219,-1.978 -0.692,-1.124 -1.384,-2.248 -2.079,-3.372 -0.376,-0.609 -0.73,-1.196 -1.021,-1.846 -0.253,-0.563 -0.513,-1.125 -0.771,-1.686 -0.581,-1.264 -1.15,-2.536 -1.731,-3.8 -0.098,-0.213 -0.197,-0.426 -0.292,-0.641 -0.01,-0.024 -0.114,-0.197 -0.102,-0.224 -0.281,0.678 -0.605,1.341 -0.906,2.01 -0.528,1.17 -1.054,2.342 -1.583,3.514 -0.301,0.667 -0.576,1.309 -0.958,1.929 -0.318,0.518 -0.641,1.035 -0.957,1.553 -0.4,0.658 -0.813,1.309 -1.215,1.964 -0.354,0.577 -0.712,1.151 -1.068,1.728 -0.171,0.276 -0.339,0.558 -0.526,0.848 -0.967,1.407 -1.534,3.109 -1.534,4.944 0,4.833 3.916,8.749 8.748,8.749 4.832,0 8.748,-3.917 8.748,-8.749 -0.001,-1.833 -0.569,-3.536 -1.534,-4.943 z"
   id="path3333"
   inkscape:connector-curvature="0"
   style="fill:#231815" />
	<line
   stroke-miterlimit="10"
   x1="178.231"
   y1="93.555"
   x2="158.51199"
   y2="138.02"
   id="line3335"
   style="fill:none;stroke:#231815;stroke-miterlimit:10" />
</g>
<g
   id="g3337"
   transform="matrix(1.3864289,0,0,1.3864289,-95.376764,-45.989012)">
	<polygon
   points="233.238,123.44 241.804,123.44 241.804,123.414 254.094,130.509 254.094,115.938 254.094,101.369 241.804,108.463 241.804,108.436 233.238,108.436 "
   id="polygon3339"
   style="fill:#231815" />
	<g
   id="g3341">
		
			<rect
   x="256.88101"
   y="102.727"
   transform="matrix(0.7072,-0.7071,0.7071,0.7072,3.3366,215.8647)"
   width="10.765"
   height="2.355"
   id="rect3343"
   style="fill:#231815" />
		<rect
   x="257.625"
   y="114.762"
   width="10.765"
   height="2.355"
   id="rect3345"
   style="fill:#231815" />
		
			<rect
   x="256.88101"
   y="126.78"
   transform="matrix(0.7072,0.707,-0.707,0.7072,167.2682,-147.9612)"
   width="10.764"
   height="2.355"
   id="rect3347"
   style="fill:#231815" />
	</g>
</g>
<path
   d="m 109.42066,208.52602 c 3.23409,-3.23409 3.2319,-8.4799 -0.002,-11.71399 -3.2319,-3.23409 -8.47551,-3.23409 -11.710698,0.001 -2.769259,2.76926 -3.149676,6.9966 -1.184006,10.18903 L 82.848495,220.67962 C 70.191689,220.92958 60.109,225.23695 60.109,230.5299 v 18.15695 h 47.77684 V 230.5299 c 0,-4.87197 -8.540193,-8.90855 -19.764132,-9.71762 l 11.105538,-11.10773 c 3.194624,1.96676 7.425254,1.58854 10.193414,-1.17853 z"
   id="path3349"
   inkscape:connector-curvature="0"
   style="fill:#231815" />
<g
   id="g3351"
   transform="matrix(1.1754028,0,0,1.1754028,-54.274675,-24.658307)">
	<g
   id="g3353">
		
			<rect
   x="309.09"
   y="94.785004"
   transform="matrix(-0.7072,-0.707,0.707,-0.7072,466.6165,385.115)"
   width="7.9359999"
   height="2.29"
   id="rect3355"
   style="fill:#231815" />
		<rect
   x="325.21201"
   y="86.739998"
   width="2.29"
   height="7.9359999"
   id="rect3357"
   style="fill:#231815" />
		
			<rect
   x="335.431"
   y="94.785004"
   transform="matrix(0.7071,-0.7071,0.7071,0.7071,31.5826,268.1018)"
   width="7.9359999"
   height="2.29"
   id="rect3359"
   style="fill:#231815" />
	</g>
	<path
   d="m 336.487,130.555 v -21.929 c 0,-5.422 -4.395,-9.818 -9.817,-9.818 h -0.627 c -5.421,0 -9.816,4.396 -9.816,9.818 v 21.929 h -4.863 v 1.672 h 4.863 3.101 l -10e-4,8.354 h 2.09 v -8.354 h 10.444 l -10e-4,8.354 h 2.089 v -8.354 h 2.539 4.863 v -1.672 h -4.864 z"
   id="path3361"
   inkscape:connector-curvature="0"
   style="fill:#231815" />
</g>
<g
   id="g3363"
   transform="matrix(1.1473818,0,0,1.1473818,-87.317865,-10.858851)">
	<rect
   x="637.77002"
   y="86.624001"
   width="29.386999"
   height="20.364"
   id="rect3365"
   style="fill:#231815" />
	<g
   id="g3367">
		<path
   d="m 652.291,138.406 c 0,0 -1.608,0.121 -4.082,-3.461 l -9.764,-12.486 c 0,0 3.832,-4.203 6.922,0.865 0,0 2.35,3.155 3.214,3.584 0,0 1.608,1.423 1.423,-1.667 v -21.322 c 0,0 0.431,-3.956 2.657,-3.956 0,0 2.102,-0.249 2.535,3.709 l 0.309,13.781 c 0,0 0.185,-2.04 2.473,-2.102 0,0 2.532,-0.497 2.596,3.832 0,0 0.494,-2.593 2.656,-2.284 0,0 2.532,-0.559 2.781,4.512 0,0 0.681,-2.102 2.35,-1.732 0,0 1.916,-0.061 1.853,3.029 l -2.163,13.905 c 0,0 -0.434,1.793 -2.224,1.793 h -13.536 z"
   id="path3369"
   inkscape:connector-curvature="0"
   style="fill:#231815" />
		<g
   id="g3371">
			<defs
   id="defs3373">
				<rect
   id="SVGID_5_"
   x="647.16901"
   y="97.862"
   width="10.791"
   height="9.0950003" />
			</defs>
			<clipPath
   id="SVGID_6_">
				<use
   xlink:href="#SVGID_5_"
   overflow="visible"
   id="use3377"
   style="overflow:visible"
   x="0"
   y="0"
   width="841.89001"
   height="595.28003" />
			</clipPath>
			<path
   clip-path="url(#SVGID_6_)"
   d="m 652.291,138.406 c 0,0 -1.608,0.121 -4.082,-3.461 l -9.764,-12.486 c 0,0 3.832,-4.203 6.922,0.865 0,0 2.35,3.155 3.214,3.584 0,0 1.608,1.423 1.423,-1.667 v -21.322 c 0,0 0.431,-3.956 2.657,-3.956 0,0 2.102,-0.249 2.535,3.709 l 0.309,13.781 c 0,0 0.185,-2.04 2.473,-2.102 0,0 2.532,-0.497 2.596,3.832 0,0 0.494,-2.593 2.656,-2.284 0,0 2.532,-0.559 2.781,4.512 0,0 0.681,-2.102 2.35,-1.732 0,0 1.916,-0.061 1.853,3.029 l -2.163,13.905 c 0,0 -0.434,1.793 -2.224,1.793 h -13.536 z"
   id="path3379"
   inkscape:connector-curvature="0"
   style="fill:#ffffff" />
		</g>
	</g>
</g>
<g
   id="g3381">
	<polygon
   fill="#231815"
   points="572.449,138.159 546.086,138.159 573.688,90.357 600.052,90.357  "
   id="polygon3383" />
	<path
   fill="#231815"
   d="M563.871,91.71c-0.808-2.214-2.132-3.696-3.943-4.401c-3.103-1.212-6.393,0.472-6.528,0.545l1.452,2.796   c0.021-0.009,2.184-1.089,3.945-0.398c0.92,0.364,1.602,1.176,2.086,2.471L559.5,93.19l4.598,4.042l1.202-6.005L563.871,91.71z"
   id="path3385" />
</g>
<g
   id="g3387"
   transform="matrix(1.1843695,0,0,1.1843695,-69.29995,-25.041244)">
	<g
   id="g3389">
		<defs
   id="defs3391">
			
				<rect
   id="SVGID_7_"
   x="382.198"
   y="96.911003"
   transform="matrix(0.3579,-0.9338,0.9338,0.3579,148.5604,455.4209)"
   width="46.426998"
   height="45.567001" />
		</defs>
		<clipPath
   id="SVGID_8_">
			<use
   xlink:href="#SVGID_7_"
   overflow="visible"
   id="use3395"
   style="overflow:visible"
   x="0"
   y="0"
   width="841.89001"
   height="595.28003" />
		</clipPath>
		<g
   clip-path="url(#SVGID_8_)"
   id="g3397">
			<path
   d="m 406.097,133.613 c -2.487,1.263 -5.154,2.007 -7.932,2.208 l -0.404,-5.529 c 2.667,-0.193 5.226,-1.08 7.451,-2.579 l 3.103,4.595 c -0.714,0.482 -1.454,0.917 -2.218,1.305 z m 9.26,-9.423 -4.986,-2.429 c 1.175,-2.407 1.695,-5.079 1.509,-7.729 l 5.53,-0.39 c 0.254,3.619 -0.454,7.268 -2.053,10.548 z m -27.719,9.62 -0.148,-0.073 c -3.217,-1.58 -5.998,-3.991 -8.014,-6.961 l 4.587,-3.114 c 1.477,2.176 3.517,3.943 5.896,5.111 l -2.321,5.037 z m 21.681,-27.239 c -1.479,-2.204 -3.532,-3.995 -5.937,-5.173 l 2.22,-5.085 0.248,0.117 c 3.251,1.598 6.053,4.04 8.073,7.053 l -4.604,3.088 z m -27.855,9.648 -5.531,0.417 c -0.271,-3.619 0.418,-7.271 1.999,-10.559 l 4.996,2.402 c -1.159,2.413 -1.665,5.089 -1.464,7.74 z m 14.032,-16.338 c -2.664,0.21 -5.222,1.1 -7.438,2.619 l -3.127,-4.578 c 3.021,-2.063 6.499,-3.282 10.133,-3.569 l 0.432,5.528 z"
   id="path3399"
   inkscape:connector-curvature="0"
   style="fill:#231815" />
			<g
   id="g3401">
				<defs
   id="defs3403">
					
						<rect
   id="SVGID_9_"
   x="387.34"
   y="81.664001"
   transform="matrix(0.2139,-0.9769,0.9769,0.2139,212.7306,471.3283)"
   width="23.735001"
   height="43.655998" />
				</defs>
				<clipPath
   id="SVGID_10_">
					<use
   xlink:href="#SVGID_9_"
   overflow="visible"
   id="use3407"
   style="overflow:visible"
   x="0"
   y="0"
   width="841.89001"
   height="595.28003" />
				</clipPath>
				<path
   clip-path="url(#SVGID_10_)"
   d="m 406.097,133.613 c -5.886,2.99 -12.662,3.042 -18.584,0.135 -10.29,-5.048 -14.557,-17.527 -9.51,-27.819 2.001,-4.079 5.197,-7.323 9.236,-9.375 5.888,-2.991 12.662,-3.039 18.585,-0.134 10.291,5.048 14.557,17.528 9.509,27.818 -2.001,4.082 -5.194,7.322 -9.236,9.375 z M 389.75,101.498 c -2.96,1.504 -5.302,3.883 -6.771,6.874 -3.7,7.545 -0.57,16.698 6.975,20.399 4.344,2.132 9.312,2.095 13.631,-0.099 2.96,-1.505 5.302,-3.881 6.769,-6.875 3.703,-7.547 0.574,-16.697 -6.973,-20.399 -4.341,-2.131 -9.31,-2.095 -13.631,0.1 z"
   id="path3409"
   inkscape:connector-curvature="0"
   style="fill:#231815" />
			</g>
		</g>
	</g>
	<polygon
   points="389.591,91.916 381.211,101.9 394.048,104.165 389.591,91.916 381.211,101.9 394.048,104.165 "
   id="polygon3411"
   style="fill:#231815" />
</g>
<g
   id="g3413">
	<g
   id="g3415">
		<path
   fill="#231815"
   d="M507.002,135.803h-48.555v-24.68c0-3.135,2.335-5.699,5.188-5.699h38.179c2.854,0,5.188,2.564,5.188,5.699    V135.803z"
   id="path3417" />
		<g
   id="g3419">
			<path
   fill="#231815"
   d="M512.002,127.36c-0.155,0-0.283,0.127-0.283,0.284v10.032c0,0.156-0.128,0.284-0.283,0.284h-57.423     c-0.155,0-0.283-0.127-0.283-0.284v-10.577c0-0.156-0.128-0.284-0.283-0.284h-1.819c-0.155,0-0.283,0.127-0.283,0.284v13.199     c0,0.156,0.128,0.284,0.283,0.284h1.324c0.155,0,0.395,0,0.531,0c0.136,0,0.375,0,0.53,0h57.423c0.155,0,0.411,0,0.566,0h0.03     c0.155,0,0.411,0,0.566,0h1.224c0.155,0,0.283-0.127,0.283-0.284v-12.654c0-0.156-0.128-0.284-0.283-0.284H512.002z"
   id="path3421" />
		</g>
	</g>
	<polygon
   fill="#231815"
   points="484.231,94.737 484.231,83.082 481.219,83.082 481.219,94.737 479.095,94.737 482.724,101.024    486.355,94.737  "
   id="polygon3423" />
</g>
<path
   d="m 197.74516,225.96414 14.17176,-13.66943 -4.50435,-4.66764 -20.74632,20.01012 4.50159,4.66764 2.4812,-2.3871 c 3.2423,1.51668 4.81433,3.20633 5.2959,5.18105 0.63102,2.56976 -0.32658,4.65795 -2.09373,5.88541 -0.66424,0.64763 -1.77683,0.667 -2.26255,0.60611 -5.75533,-0.73343 -8.13275,-5.28068 -8.13275,-5.28068 0,0 -0.2311,8.19225 -5.16443,10.08532 -2.96416,1.13612 -4.61368,0.75972 -6.57456,-0.7016 -3.81105,-2.83822 -2.94478,-7.46989 -2.59882,-9.22873 0.66147,-3.34471 0.64071,-3.88025 0.64071,-3.88025 0,0 -3.21463,0.0332 -4.05738,0.0305 -2.56699,-0.0913 -4.43516,-0.77356 -5.55191,-2.02592 -1.51805,-1.70072 -1.38659,-4.12519 -1.38797,-4.12519 0.33627,-2.59052 1.14442,-4.24142 2.39263,-4.91396 2.17676,-1.16933 9.18168,0.51478 10.95298,1.48484 -1.21777,-2.65417 -4.1584,-5.36924 -3.37792,-12.18043 0.20896,-1.7962 2.64034,-3.1565 4.21237,-3.63392 1.4115,-0.42622 3.94528,-0.41377 5.18104,0.7182 1.63983,1.50007 2.57945,4.19161 3.10669,6.49706 l -4.92089,6.86516 5.27653,3.77646 16.65849,-23.26487 -5.27237,-3.77508 -7.64149,10.66653 c -1.0351,-4.11688 -3.1136,-7.79648 -7.9653,-8.28497 -3.01258,-0.30582 -6.605,0.2657 -9.34359,1.57203 -4.73268,2.25287 -6.80288,7.78263 -5.35125,12.64678 -1.48069,0.0581 -3.04718,0.38609 -4.53895,1.17625 -3.21739,1.70626 -5.17274,5.00668 -5.81483,9.90681 -0.0498,0.53 -0.4193,5.27791 2.91157,9.09312 1.8903,2.16292 4.49881,3.52183 7.78817,4.05045 0.0457,3.46649 0.81092,8.67244 4.52511,11.79158 1.91106,1.60801 4.25526,2.41201 7.01599,2.41201 1.79067,0 3.76124,-0.3418 5.89095,-1.02126 l 0.71682,-0.33212 c 1.54573,-0.95207 3.60763,-2.97384 4.83508,-5.93108 1.14581,0.92993 2.45353,1.68689 3.91346,2.07574 1.91107,0.50925 4.86277,0.59505 8.08154,-1.87093 l 0.3169,-0.27815 c 0.22695,-0.22556 5.50209,-5.57543 3.94944,-12.08772 -0.85797,-3.60625 -3.23815,-5.74564 -7.51556,-7.65809 z"
   id="path3425"
   inkscape:connector-curvature="0"
   style="fill:#231815" />
<path
   d="m 275.56009,176.96723 c 0,0 4.50974,5.01174 -4.16638,18.50779 0,0 -33.41277,36.82142 2.66866,57.64387 0,0 -17.89805,-24.09849 -2.28269,-43.37705 -1.10109,1.3592 -1.67887,3.73424 -2.06839,5.37285 -0.77905,3.27249 -0.96138,7.36428 1.08688,10.23067 0.68789,0.96138 1.60191,1.72267 2.59052,2.35728 2.3265,1.49062 3.71056,2.21284 6.31529,1.08688 1.1591,-0.50082 2.24717,-1.06912 3.11976,-2.00327 0.66065,-0.70683 2.18797,-2.89125 1.87303,-3.93551 0.002,0.004 6.43014,21.40141 -5.36337,33.93016 0,0 14.61845,-3.85382 16.93193,-26.98974 0,0 -0.002,-15.61654 -8.86911,-24.48446 0,0 -1.92631,3.66319 -3.855,3.85618 0,0 -4.81875,1.9275 -2.89243,-9.06091 -0.001,-0.001 4.08942,-16.00133 -5.0887,-23.13474 z"
   id="path3427"
   inkscape:connector-curvature="0"
   style="fill:#231815" />
<g
   id="g3429">
	<path
   fill="#231815"
   d="M383.33,198.064v30.474c0,6.378-5.332,11.57-11.887,11.57s-11.889-5.191-11.889-11.57v-30.474h-16.086   v36.463c0,10.831,9.502,19.641,21.178,19.641h13.592c11.679,0,21.179-8.81,21.179-19.641v-36.463H383.33z M378.238,251.592h-13.592   c-10.255,0-18.6-7.654-18.6-17.064v-24.739h10.932v18.75c0,7.799,6.489,14.146,14.465,14.146s14.464-6.347,14.464-14.146v-18.75   h10.933v24.739C396.84,243.938,388.496,251.592,378.238,251.592z"
   id="path3431" />
	<polygon
   fill="#231815"
   points="366.951,206.508 371.84,208.886 370.051,198.363 377.949,208.059 373.504,206.21 374.849,216.205     "
   id="polygon3433" />
</g>
<g
   id="g3435">
	<path
   fill="#231815"
   d="M472.265,195.867c0,4.526-3.671,8.193-8.196,8.193c-4.522,0-8.193-3.667-8.193-8.193   c0-4.524,3.671-8.194,8.193-8.194C468.594,187.673,472.265,191.343,472.265,195.867z"
   id="path3437" />
	<path
   fill="#231815"
   d="M476.15,205.558h-23.637c-2.601,0-4.727,1.206-4.727,2.679c0,0.897,0,1.691,0,2.178   c0,0.315,0,0.501,0,0.501v20.552c0,1.202,1.123,2.175,2.513,2.175c1.386,0,2.509-0.974,2.509-2.175v-20.552   c0,0,0.066-0.523,0.7-0.523c0.636,0,0.724,0.523,0.724,0.523v23.697v0.427v19.502c0,1.839,1.405,3.331,3.141,3.331h0.115   c1.735,0,3.142-1.492,3.142-3.331v-16.995h7.313v16.995c0,1.839,1.404,3.331,3.136,3.331h0.12c1.735,0,3.139-1.492,3.139-3.331   v-19.502v-0.427v-23.697c0,0,0.017-0.51,0.709-0.51c0.696,0,0.808,0.51,0.808,0.51v20.552c0,1.202,1.125,2.175,2.511,2.175   c1.391,0,2.513-0.974,2.513-2.175v-20.552c0,0,0-0.187,0-0.501c0-0.487,0-1.281,0-2.178   C480.877,206.764,478.75,205.558,476.15,205.558z"
   id="path3439" />
</g>
<g
   id="g3441">
	<path
   fill="#231815"
   d="M498.62,227.435c-2.501-2.504-3.698-5.158-3.56-7.898c0.211-4.181,3.506-6.92,3.647-7.036l1.5,1.834   c-0.024,0.021-2.639,2.216-2.783,5.341c-0.095,2.036,0.871,4.08,2.871,6.082L498.62,227.435z"
   id="path3443" />
	<path
   fill="#231815"
   d="M495.397,230.911c-3.844-3.842-5.655-7.841-5.392-11.894c0.399-6.037,5.299-9.855,5.505-10.016l1.446,1.88   c-0.044,0.03-4.27,3.355-4.588,8.312c-0.212,3.335,1.369,6.713,4.703,10.046L495.397,230.911z"
   id="path3445" />
	<path
   fill="#231815"
   d="M492.338,234.318c-5.407-5.405-7.894-10.882-7.395-16.275c0.716-7.712,7.279-12.296,7.559-12.485   l1.34,1.954c-0.058,0.041-5.94,4.17-6.54,10.771c-0.421,4.653,1.835,9.485,6.711,14.36L492.338,234.318z"
   id="path3447" />
</g>
<g
   id="g3449">
	<path
   fill="#231815"
   d="M430.272,227.435c2.496-2.504,3.698-5.158,3.56-7.898c-0.21-4.181-3.509-6.92-3.647-7.036l-1.503,1.834   c0.027,0.021,2.638,2.216,2.786,5.341c0.1,2.036-0.871,4.08-2.871,6.082L430.272,227.435z"
   id="path3451" />
	<path
   fill="#231815"
   d="M433.498,230.911c3.842-3.842,5.654-7.841,5.388-11.894c-0.398-6.037-5.301-9.855-5.504-10.016l-1.444,1.88   c0.042,0.03,4.269,3.355,4.584,8.312c0.214,3.335-1.37,6.713-4.698,10.046L433.498,230.911z"
   id="path3453" />
	<path
   fill="#231815"
   d="M436.558,234.318c5.403-5.405,7.891-10.882,7.39-16.275c-0.713-7.712-7.28-12.296-7.559-12.485   l-1.338,1.954c0.058,0.041,5.94,4.17,6.541,10.771c0.424,4.653-1.836,9.485-6.709,14.36L436.558,234.318z"
   id="path3455" />
</g>
<g
   id="g3457"
   transform="translate(-216.55219,-115.4309)">
	<path
   d="m 338.338,464.438 c -3.24,-3.25 -4.801,-6.695 -4.621,-10.253 0.272,-5.428 4.555,-8.983 4.734,-9.134 l 1.951,2.381 c -0.036,0.028 -3.424,2.876 -3.617,6.933 -0.129,2.645 1.131,5.297 3.727,7.895 l -2.174,2.178 z"
   id="path3459"
   inkscape:connector-curvature="0"
   style="fill:#231815" />
	<path
   d="m 334.151,468.947 c -4.987,-4.986 -7.34,-10.177 -6.994,-15.437 0.518,-7.837 6.88,-12.793 7.145,-13.003 l 1.875,2.44 c -0.054,0.04 -5.541,4.355 -5.95,10.789 -0.277,4.329 1.779,8.714 6.099,13.04 l -2.175,2.171 z"
   id="path3461"
   inkscape:connector-curvature="0"
   style="fill:#231815" />
	<path
   d="m 330.18,473.372 c -7.014,-7.018 -10.242,-14.126 -9.592,-21.127 0.925,-10.011 9.45,-15.962 9.812,-16.206 l 1.737,2.536 c -0.075,0.053 -7.711,5.412 -8.491,13.982 -0.55,6.04 2.383,12.313 8.708,18.64 l -2.174,2.175 z"
   id="path3463"
   inkscape:connector-curvature="0"
   style="fill:#231815" />
</g>
<path
   d="m 73.667814,337.8301 c -0.969,0.633 -1.832,1.327 -2.602,2.058 v -4.397 c 6.005,-1.76 10.407,-7.31 10.407,-13.876 0,-7.977 -6.489,-14.466 -14.465,-14.466 -7.976,0 -14.465,6.489 -14.465,14.466 0,6.566 4.402,12.116 10.407,13.876 v 41.354 h 8.117 v -25.225 c 0.485,-1.932 1.964,-6.188 5.96,-8.768 4.332,-2.797 10.521,-3.018 18.397,-0.654 l 1.736,-5.786 c -9.696,-2.907 -17.6,-2.432 -23.492,1.418 z m -15.085,-16.216 c 0,-4.646 3.779,-8.425 8.424,-8.425 4.646,0 8.424,3.779 8.424,8.425 0,4.646 -3.779,8.425 -8.424,8.425 -4.645,0 -8.424,-3.78 -8.424,-8.425 z"
   id="path3465"
   inkscape:connector-curvature="0"
   style="fill:#231815" />
<rect
   style="fill:#231815"
   id="rect3471"
   height="4.8800001"
   width="63.16"
   y="235.35002"
   x="536.63757" /><g
   id="g3473"
   transform="matrix(1.073684,0,0,1.073684,-25.069602,-18.522315)">
		<polygon
   style="fill:#231815"
   id="polygon3475"
   points="527.96,229.985 539.398,238.428 555.607,215.84 558.727,217.893 559.023,212.795 559.323,207.698 554.758,209.988 550.194,212.278 553.16,214.23 538.75,234.31 529.697,227.629 " />
		<polygon
   style="fill:#231815"
   id="polygon3477"
   points="539.667,229.985 551.105,238.428 567.316,215.84 570.435,217.893 570.733,212.795 571.031,207.698 566.468,209.988 561.903,212.278 564.869,214.23 550.459,234.31 541.407,227.629 " />
		<polygon
   style="fill:#231815"
   id="polygon3479"
   points="551.62,229.985 563.059,238.428 579.268,215.84 582.388,217.893 582.686,212.795 582.984,207.698 578.421,209.988 573.856,212.278 576.82,214.23 562.412,234.31 553.36,227.629 " />
	</g>
<path
   d="m 657.94844,243.48203 -0.147,-0.012 c -0.728,-0.059 -7.175,-0.71 -9.549,-5.605 l -0.308,-0.634 1.643,-16.694 2.139,-0.12 c 0.429,-0.027 10.663,-0.776 10.93,-9.897 -0.107,-1.105 -0.739,-3.916 -2.541,-4.977 -1.732,-1.021 -4.319,-0.215 -6.186,0.64 l -2.082,-4.546 c 4.306,-1.972 7.953,-2.102 10.839,-0.383 4.413,2.628 4.924,8.376 4.967,9.023 l 0.008,0.108 -0.002,0.108 c -0.188,9.749 -7.995,13.641 -13.501,14.652 l -1.087,11.049 c 1.186,1.528 3.881,2.149 4.997,2.278 6.51,-0.362 7.414,-7.163 7.45,-7.455 l 0.025,-0.165 c 1.023,-5.37 4.943,-9.951 5.11,-10.144 1.077,-1.317 1.918,-2.93 2.528,-4.878 0.766,-2.446 1.161,-4.995 1.245,-8.02 0.075,-2.666 -2.383,-6.051 -3.852,-8.073 -2.782,-3.832 -8.055,-6.685 -12.821,-6.938 -2.547,-0.137 -4.689,0.227 -6.358,1.076 -4.966,2.528 -8.759,7.486 -6.037,12.861 1.458,2.88 5.847,4.465 9.249,4.331 l 0.195,4.996 c -5.053,0.2 -11.425,-2.168 -13.905,-7.068 -4.255,-8.404 1.283,-16.039 8.229,-19.575 2.461,-1.253 5.451,-1.796 8.894,-1.614 6.266,0.333 12.938,3.947 16.602,8.994 1.843,2.538 4.927,6.785 4.804,11.15 -0.096,3.449 -0.577,6.516 -1.472,9.374 -0.805,2.57 -1.941,4.73 -3.475,6.604 -0.072,0.085 -3.218,3.786 -4.01,7.788 -0.521,3.979 -3.747,11.429 -12.373,11.761 l -0.148,0.005 z"
   id="path3481"
   inkscape:connector-curvature="0"
   style="fill:#231815" />











<g
   id="g5719"><path
     style="fill:#231815"
     inkscape:connector-curvature="0"
     id="path3485"
     d="m 756.45108,208.41856 c 0,5.49805 -4.45633,9.95438 -9.95438,9.95438 h -0.38246 c -5.49691,0 -9.95438,-4.45633 -9.95438,-9.95438 v -17.64387 c 0,-5.49804 4.45747,-9.95439 9.95438,-9.95439 h 0.38246 c 5.49805,0 9.95438,4.45635 9.95438,9.95439 v 17.64387 z" /><circle
     style="fill:#ffffff"
     transform="matrix(1.1485391,0,0,1.1485391,-66.668981,-90.584083)"
     sodipodi:ry="2.102"
     sodipodi:rx="2.102"
     sodipodi:cy="242.33299"
     sodipodi:cx="707.83301"
     id="circle3487"
     r="2.102"
     cy="242.33299"
     cx="707.83301"
     d="m 709.93501,242.33299 c 0,1.16091 -0.9411,2.102 -2.102,2.102 -1.1609,0 -2.102,-0.94109 -2.102,-2.102 0,-1.1609 0.9411,-2.102 2.102,-2.102 1.1609,0 2.102,0.9411 2.102,2.102 z" /><circle
     style="fill:#ffffff"
     transform="matrix(1.1485391,0,0,1.1485391,-66.668981,-90.584083)"
     sodipodi:ry="2.102"
     sodipodi:rx="2.102"
     sodipodi:cy="248.37399"
     sodipodi:cx="707.83301"
     id="circle3489"
     r="2.102"
     cy="248.37399"
     cx="707.83301"
     d="m 709.93501,248.37399 c 0,1.16091 -0.9411,2.102 -2.102,2.102 -1.1609,0 -2.102,-0.94109 -2.102,-2.102 0,-1.1609 0.9411,-2.102 2.102,-2.102 1.1609,0 2.102,0.9411 2.102,2.102 z" /><circle
     style="fill:#ffffff"
     transform="matrix(1.1485391,0,0,1.1485391,-66.668981,-90.584083)"
     sodipodi:ry="2.102"
     sodipodi:rx="2.102"
     sodipodi:cy="248.37399"
     sodipodi:cx="702.66699"
     id="circle3491"
     r="2.102"
     cy="248.37399"
     cx="702.66699"
     d="m 704.76899,248.37399 c 0,1.16091 -0.9411,2.102 -2.102,2.102 -1.1609,0 -2.102,-0.94109 -2.102,-2.102 0,-1.1609 0.9411,-2.102 2.102,-2.102 1.1609,0 2.102,0.9411 2.102,2.102 z" /><circle
     style="fill:#ffffff"
     transform="matrix(1.1485391,0,0,1.1485391,-66.668981,-90.584083)"
     sodipodi:ry="2.102"
     sodipodi:rx="2.102"
     sodipodi:cy="253.707"
     sodipodi:cx="702.66699"
     id="circle3493"
     r="2.102"
     cy="253.707"
     cx="702.66699"
     d="m 704.76899,253.707 c 0,1.1609 -0.9411,2.102 -2.102,2.102 -1.1609,0 -2.102,-0.9411 -2.102,-2.102 0,-1.1609 0.9411,-2.102 2.102,-2.102 1.1609,0 2.102,0.9411 2.102,2.102 z" /><circle
     style="fill:#ffffff"
     transform="matrix(1.1485391,0,0,1.1485391,-66.668981,-90.584083)"
     sodipodi:ry="2.102"
     sodipodi:rx="2.102"
     sodipodi:cy="253.707"
     sodipodi:cx="707.83301"
     id="circle3495"
     r="2.102"
     cy="253.707"
     cx="707.83301"
     d="m 709.93501,253.707 c 0,1.1609 -0.9411,2.102 -2.102,2.102 -1.1609,0 -2.102,-0.9411 -2.102,-2.102 0,-1.1609 0.9411,-2.102 2.102,-2.102 1.1609,0 2.102,0.9411 2.102,2.102 z" /><circle
     style="fill:#ffffff"
     transform="matrix(1.1485391,0,0,1.1485391,-66.668981,-90.584083)"
     sodipodi:ry="2.102"
     sodipodi:rx="2.102"
     sodipodi:cy="253.707"
     sodipodi:cx="712.95898"
     id="circle3497"
     r="2.102"
     cy="253.707"
     cx="712.95898"
     d="m 715.06098,253.707 c 0,1.1609 -0.94109,2.102 -2.102,2.102 -1.1609,0 -2.102,-0.9411 -2.102,-2.102 0,-1.1609 0.9411,-2.102 2.102,-2.102 1.16091,0 2.102,0.9411 2.102,2.102 z" /><circle
     style="fill:#ffffff"
     transform="matrix(1.1485391,0,0,1.1485391,-66.668981,-90.584083)"
     sodipodi:ry="2.102"
     sodipodi:rx="2.102"
     sodipodi:cy="248.37399"
     sodipodi:cx="712.95898"
     id="circle3499"
     r="2.102"
     cy="248.37399"
     cx="712.95898"
     d="m 715.06098,248.37399 c 0,1.16091 -0.94109,2.102 -2.102,2.102 -1.1609,0 -2.102,-0.94109 -2.102,-2.102 0,-1.1609 0.9411,-2.102 2.102,-2.102 1.16091,0 2.102,0.9411 2.102,2.102 z" /><g
     transform="matrix(1.2597195,0,0,1.313851,-145.77188,-135.18185)"
     style="stroke-width:2;stroke-miterlimit:4;stroke-dasharray:none"
     id="g3501">
	<defs
   id="defs3503">
		<rect
   height="30.333"
   width="41.833"
   y="258.5"
   x="687"
   id="SVGID_11_" />
	</defs>
	<clipPath
   id="SVGID_12_">
		<use
   height="595.28003"
   width="841.89001"
   y="0"
   x="0"
   style="overflow:visible"
   id="use3507"
   overflow="visible"
   xlink:href="#SVGID_11_" />
	</clipPath>
	<path
   inkscape:connector-curvature="0"
   style="fill:#231815;stroke-width:2;stroke-miterlimit:4;stroke-dasharray:none"
   id="path3509"
   d="m 707.833,272.902 c -7.812,0 -14.166,-6.056 -14.166,-13.5 v -13.5 c 0,-7.444 6.354,-13.5 14.166,-13.5 7.812,0 14.167,6.056 14.167,13.5 v 13.5 c 0,7.444 -6.355,13.5 -14.167,13.5 z m 0,-38.5 c -6.708,0 -12.166,5.159 -12.166,11.5 v 13.5 c 0,6.341 5.458,11.5 12.166,11.5 6.709,0 12.167,-5.159 12.167,-11.5 v -13.5 c 0,-6.341 -5.458,-11.5 -12.167,-11.5 z"
   clip-path="url(#SVGID_12_)" />
</g><rect
     style="fill:#231815"
     id="rect3511"
     height="20.978065"
     width="4.8806505"
     y="221.29514"
     x="743.68658" /><ellipse
     style="fill:#231815"
     transform="matrix(1.1485391,0,0,1.1485391,-66.668981,-90.584083)"
     sodipodi:ry="3"
     sodipodi:rx="13.583"
     sodipodi:cy="290.5"
     sodipodi:cx="707.91602"
     id="ellipse3513"
     ry="3"
     rx="13.583"
     cy="290.5"
     cx="707.91602"
     d="m 721.49902,290.5 c 0,1.65685 -6.08132,3 -13.583,3 -7.50169,0 -13.583,-1.34315 -13.583,-3 0,-1.65685 6.08131,-3 13.583,-3 7.50168,0 13.583,1.34315 13.583,3 z" /></g>
<g
   id="g3515"
   transform="matrix(2.3782719,0,0,2.3782719,-1255.537,-328.1588)">
	<path
   d="m 777.368,270.685 h -5.164 c -0.46,-5.152 -4.796,-9.207 -10.065,-9.207 -5.269,0 -9.605,4.055 -10.064,9.207 h -5.165 v 1.589 h 5.154 c 0.354,5.256 4.731,9.426 10.075,9.426 5.344,0 9.722,-4.17 10.076,-9.426 h 5.153 v -1.589 z m -15.229,-6.207 c 3.614,0 6.601,2.712 7.047,6.207 h -1.721 v -1.848 h -10.652 v 1.848 h -1.72 c 0.446,-3.495 3.431,-6.207 7.046,-6.207 z m 0,14.223 c -3.689,0 -6.729,-2.825 -7.075,-6.426 h 1.749 v 2.421 h 10.652 v -2.421 h 1.75 c -0.346,3.6 -3.387,6.426 -7.076,6.426 z"
   id="path3517"
   inkscape:connector-curvature="0"
   style="fill:#231815" />
	<polygon
   points="750.717,262.458 750.095,262.858 751.232,263.443 752.369,264.03 752.308,262.751 752.247,261.473 751.612,261.881 748.055,256.242 747.153,256.809 "
   id="polygon3519"
   style="fill:#231815" />
	<polygon
   points="756.895,258.869 756.272,259.268 757.41,259.854 758.547,260.44 758.485,259.163 758.425,257.884 757.79,258.292 754.232,252.652 753.331,253.22 "
   id="polygon3521"
   style="fill:#231815" />
	<polygon
   points="753.912,260.746 753.29,261.145 754.428,261.73 755.565,262.317 755.504,261.039 755.443,259.76 754.809,260.168 751.25,254.529 750.349,255.096 "
   id="polygon3523"
   style="fill:#231815" />
</g>



<g
   id="g5574"
   transform="matrix(0.94052181,0,0,0.94052181,47.266294,-0.96339404)"><polygon
     style="fill:#231815"
     transform="matrix(1.6371967,0,0,1.6371967,-257.45514,-359.89436)"
     id="polygon3483"
     points="605.948,288.25 642.646,288.25 630.854,298.75 594.155,298.75 " /><path
     style="fill:#231815"
     inkscape:connector-curvature="0"
     id="path3525"
     d="m 752.51397,103.53423 c -1.50093,2.02071 -2.72192,-2.60978 -3.90424,-4.260756 -1.20074,-1.681072 -3.20994,-1.337116 -4.52486,-0.576131 -0.87293,0.507354 -1.40147,2.644167 -2.29281,2.996707 -1.02395,0.40847 -1.46225,-1.52199 -2.1768,-2.755917 -0.8803,-1.50913 -2.01288,-1.100669 -3.02762,-0.765304 -1.63904,0.546039 -3.56538,1.513402 -3.94107,5.834341 0.98711,0.18047 1.814,0.11183 2.75507,-0.66214 0.66666,-0.55031 1.3407,-1.36718 2.06814,-1.33709 0.90791,0.0385 1.49724,1.41019 2.25045,2.37328 1.3315,1.70255 2.40147,1.96055 3.56353,-0.0775 0.89688,-1.56929 1.9687,-2.68285 3.11234,-2.2142 1.02026,0.41705 1.74586,2.21852 2.61879,3.37508 1.41436,1.87881 3.17679,3.18157 4.70533,1.24252 1.52671,-1.93475 2.50093,-5.91174 4.53408,-4.69069 -0.0165,-1.19525 0.0147,-2.420584 -0.024,-3.598622 -2.2836,-0.107625 -3.67772,1.165127 -5.372,4.535892 -0.11599,0.23644 -0.23021,0.42564 -0.34439,0.58042 z" /><path
     style="fill:#231815"
     inkscape:connector-curvature="0"
     id="path3527"
     d="m 786.04265,103.87365 c -1.52067,1.80107 -2.75776,-2.32609 -3.95565,-3.79763 -1.21654,-1.498342 -3.25222,-1.191773 -4.58446,-0.51351 -0.88441,0.4522 -1.41993,2.35676 -2.32301,2.67099 -1.03742,0.36405 -1.48149,-1.35657 -2.20547,-2.456369 -0.89188,-1.345087 -2.0394,-0.981033 -3.06749,-0.682125 -1.66064,0.486686 -3.61233,1.348904 -3.99297,5.200184 1.0001,0.16082 1.83788,0.0996 2.79134,-0.59017 0.67545,-0.49049 1.35836,-1.21857 2.09538,-1.19175 0.91987,0.0343 1.51696,1.25689 2.28011,2.11532 1.34901,1.51748 2.4331,1.74744 3.61046,-0.069 0.90868,-1.39871 1.99461,-2.39125 3.15334,-1.97353 1.03369,0.37172 1.76884,1.97739 2.65327,3.00823 1.43299,1.67459 3.21863,2.83574 4.76731,1.10746 1.54681,-1.72446 2.53385,-5.26915 4.59378,-4.18083 -0.0167,-1.06534 0.0149,-2.15748 -0.0243,-3.207483 -2.31368,-0.09591 -3.72614,1.038493 -5.44276,4.042863 -0.11752,0.21076 -0.23322,0.37939 -0.34892,0.51734 z" /><path
     style="fill:#231815"
     inkscape:connector-curvature="0"
     id="path3529"
     d="m 735.595,139.20214 c -1.50092,1.65603 -2.72191,-2.13873 -3.90423,-3.49524 -1.20073,-1.37766 -3.20994,-1.09578 -4.52485,-0.46861 -0.87294,0.41224 -1.40148,2.1634 -2.29283,2.45583 -1.02394,0.3312 -1.46225,-1.2508 -2.17679,-2.25852 -0.8803,-1.24024 -2.01289,-0.90552 -3.02763,-0.62717 -1.63904,0.44748 -3.56538,1.24025 -3.94107,4.77777 0.98712,0.1479 1.814,0.0917 2.75507,-0.53908 0.66666,-0.45453 1.3407,-1.12044 2.06814,-1.0993 0.90792,0.0316 1.49724,1.15216 2.25046,1.94492 1.33149,1.39528 2.40148,1.60317 3.56354,-0.0635 0.89686,-1.28605 1.96869,-2.19862 3.11234,-1.81809 1.02026,0.34529 1.74585,1.81809 2.61877,2.7659 1.41437,1.53974 3.1768,2.60732 4.70535,1.01828 1.5267,-1.58203 2.50091,-4.84474 4.53406,-3.84407 -0.0165,-0.97951 0.0147,-1.98368 -0.024,-2.94912 -2.28361,-0.0882 -3.67771,0.95487 -5.37201,3.71722 -0.11599,0.20076 -0.23204,0.35586 -0.34438,0.48271 z" /><path
     style="fill:#231815"
     inkscape:connector-curvature="0"
     id="path3531"
     d="m 772.97804,139.20214 c -1.50092,1.65603 -2.72191,-2.13873 -3.90423,-3.49524 -1.20073,-1.37766 -3.20994,-1.09578 -4.52485,-0.46861 -0.87294,0.41224 -1.40148,2.1634 -2.29283,2.45583 -1.02394,0.3312 -1.46225,-1.2508 -2.17679,-2.25852 -0.88029,-1.24024 -2.01289,-0.90552 -3.02763,-0.62717 -1.63904,0.44748 -3.56536,1.24025 -3.94105,4.77777 0.9871,0.1479 1.81398,0.0917 2.75505,-0.53908 0.66668,-0.45453 1.3407,-1.12044 2.06814,-1.0993 0.90792,0.0316 1.49724,1.15216 2.25046,1.94492 1.33149,1.39528 2.40148,1.60317 3.56354,-0.0635 0.89686,-1.28605 1.96869,-2.19862 3.11234,-1.81809 1.02026,0.34529 1.74585,1.81809 2.61877,2.7659 1.41437,1.53974 3.1768,2.60732 4.70535,1.01828 1.5267,-1.58203 2.50091,-4.84474 4.53406,-3.84407 -0.0165,-0.97951 0.0147,-1.98368 -0.024,-2.94912 -2.28361,-0.0882 -3.67771,0.95487 -5.37201,3.71722 -0.11599,0.20076 -0.2302,0.35586 -0.34438,0.48271 z" /></g>
<path
   sodipodi:type="arc"
   style="fill:#000000;fill-opacity:1;stroke:#ff6600;stroke-width:0;stroke-linecap:round;stroke-linejoin:round;stroke-miterlimit:4;stroke-opacity:1;stroke-dasharray:none;stroke-dashoffset:0"
   id="path5412"
   sodipodi:cx="540.57697"
   sodipodi:cy="189.86841"
   sodipodi:rx="6.9985785"
   sodipodi:ry="6.914258"
   d="m 547.57554,189.86841 a 6.9985785,6.914258 0 1 1 -13.99715,0 6.9985785,6.914258 0 1 1 13.99715,0 z"
   transform="translate(6.5769772,13.491226)" /><path
   style="fill:none;stroke:#000000;stroke-width:1.99999997;stroke-linecap:round;stroke-linejoin:round;stroke-opacity:1;stroke-miterlimit:4;stroke-dasharray:none"
   d="m 535.12002,203.79277 24.30721,0"
   id="path5436"
   inkscape:connector-curvature="0" /><path
   style="fill:none;stroke:#000000;stroke-width:1.99999997;stroke-linecap:round;stroke-linejoin:round;stroke-opacity:1;stroke-miterlimit:4;stroke-dasharray:none"
   d="m 546.92545,191.92772 0,24.08786"
   id="path5438"
   inkscape:connector-curvature="0"
   transform="translate(0,-9.4696599e-6)" /><path
   style="fill:none;stroke:#000000;stroke-width:1.99999997;stroke-linecap:round;stroke-linejoin:round;stroke-opacity:1;stroke-miterlimit:4;stroke-dasharray:none"
   d="m 538.00821,194.69179 18.19646,17.97591"
   id="path5440"
   inkscape:connector-curvature="0" /><path
   style="fill:none;stroke:#000000;stroke-width:1.81590116;stroke-linecap:round;stroke-linejoin:round;stroke-miterlimit:4;stroke-opacity:1;stroke-dasharray:none"
   d="M 539.10751,212.81899 555.09047,194.6706"
   id="path5442"
   inkscape:connector-curvature="0" /></svg>