<?xml version="1.0" encoding="UTF-8" standalone="no"?>
<!-- Created with Inkscape (http://www.inkscape.org/) -->

<svg
   xmlns:dc="http://purl.org/dc/elements/1.1/"
   xmlns:cc="http://creativecommons.org/ns#"
   xmlns:rdf="http://www.w3.org/1999/02/22-rdf-syntax-ns#"
   xmlns:svg="http://www.w3.org/2000/svg"
   xmlns="http://www.w3.org/2000/svg"
   xmlns:sodipodi="http://sodipodi.sourceforge.net/DTD/sodipodi-0.dtd"
   xmlns:inkscape="http://www.inkscape.org/namespaces/inkscape"
   width="744.09448819"
   height="1052.3622047"
   id="svg2"
   version="1.1"
   inkscape:version="0.48.2 r9819"
   sodipodi:docname="新建文档 1">
  <defs
     id="defs4" />
  <sodipodi:namedview
     id="base"
     pagecolor="#ffffff"
     bordercolor="#666666"
     borderopacity="1.0"
     inkscape:pageopacity="0.0"
     inkscape:pageshadow="2"
     inkscape:zoom="1.979899"
     inkscape:cx="270.40641"
     inkscape:cy="718.57894"
     inkscape:document-units="px"
     inkscape:current-layer="layer1"
     showgrid="false"
     inkscape:window-width="1366"
     inkscape:window-height="716"
     inkscape:window-x="-8"
     inkscape:window-y="-8"
     inkscape:window-maximized="1" />
  <metadata
     id="metadata7">
    <rdf:RDF>
      <cc:Work
         rdf:about="">
        <dc:format>image/svg+xml</dc:format>
        <dc:type
           rdf:resource="http://purl.org/dc/dcmitype/StillImage" />
        <dc:title></dc:title>
      </cc:Work>
    </rdf:RDF>
  </metadata>
  <g
     inkscape:label="Layer 1"
     inkscape:groupmode="layer"
     id="layer1">
    <path
       style="fill:none;stroke:#000000;stroke-width:1px;stroke-linecap:butt;stroke-linejoin:miter;stroke-opacity:1"
       d="m 209.28571,237.71933 c 38.46443,3.29315 45.77961,0.84642 82.85715,-0.71429"
       id="path2987"
       inkscape:connector-curvature="0"
       sodipodi:nodetypes="cc" />
    <path
       style="fill:none;stroke:#000000;stroke-width:1px;stroke-linecap:butt;stroke-linejoin:miter;stroke-opacity:1"
       d="m 292.14286,236.29075 c -0.72423,15.40301 1.06385,37.83407 0.35714,46.78572 5.48004,5.36247 -12.1132,10.78447 2.54368,14.87196 4.4748,1.24792 -8.62411,6.51092 -3.94979,9.04023 6.95148,3.76149 3.16356,5.96451 -0.35422,11.03705"
       id="path2989"
       inkscape:connector-curvature="0"
       sodipodi:nodetypes="ccssc" />
    <path
       style="fill:none;stroke:#000000;stroke-width:1px;stroke-linecap:butt;stroke-linejoin:miter;stroke-opacity:1"
       d="m 290.35714,317.36218 c 2.26184,14.54792 -0.90825,37.5771 -1.76033,51.53318"
       id="path2991"
       inkscape:connector-curvature="0"
       sodipodi:nodetypes="cc" />
    <path
       style="fill:none;stroke:#000000;stroke-width:1px;stroke-linecap:butt;stroke-linejoin:miter;stroke-opacity:1"
       d="m 288.47252,369.43036 c 3.83605,1.27174 8.34771,4.34289 6.03708,5.76788 -2.86589,1.76743 -9.46421,6.18773 -6.66821,6.75613 4.8273,0.98135 10.19569,5.61219 7.18699,6.16509 -3.68569,0.6773 -9.3594,3.31482 -7.19806,4.16615 4.16401,1.64017 10.61881,3.94944 8.51336,4.88387 -10.44308,4.63479 -6.94917,14.80496 -6.861,23.52611"
       id="path2997"
       inkscape:connector-curvature="0"
       sodipodi:nodetypes="csssssc" />
    <path
       style="fill:none;stroke:#000000;stroke-width:1px;stroke-linecap:butt;stroke-linejoin:miter;stroke-opacity:1"
       d="m 291.07143,336.64789 c 29.08859,4.99926 61.69077,2.42624 73.57143,1.07143"
       id="path2999"
       inkscape:connector-curvature="0"
       sodipodi:nodetypes="cc" />
    <path
       style="fill:none;stroke:#000000;stroke-width:1px;stroke-linecap:butt;stroke-linejoin:miter;stroke-opacity:1"
       d="m 215.00001,419.86218 c 57.16478,4.83626 91.01172,-2.78441 148.21428,3.57143"
       id="path3001"
       inkscape:connector-curvature="0"
       sodipodi:nodetypes="cc" />
    <path
       style="fill:none;stroke:#000000;stroke-width:1px;stroke-linecap:butt;stroke-linejoin:miter;stroke-opacity:1"
       d="M 219.28571,243.79075 C 213.32729,300.71526 214.04666,360.87935 215,415.21932"
       id="path3003"
       inkscape:connector-curvature="0" />
    <path
       style="fill:none;stroke:#000000;stroke-width:1px;stroke-linecap:butt;stroke-linejoin:miter;stroke-opacity:1"
       d="m 211.07143,256.29075 c 1.79666,-2.73404 6.12825,-7.69787 8.21428,-12.5 -0.60614,6.29435 2.55865,11.94036 3.21429,15"
       id="path3005"
       inkscape:connector-curvature="0" />
    <path
       style="fill:none;stroke:#000000;stroke-width:1px;stroke-linecap:butt;stroke-linejoin:miter;stroke-opacity:1"
       d="m 362.14286,419.1479 c 0.19856,-22.8341 -0.76681,-53.40675 3.21428,-77.5 0.38871,4.90299 -5.62644,9.37741 -6.42857,10.71428"
       id="path3007"
       inkscape:connector-curvature="0" />
    <path
       style="fill:none;stroke:#000000;stroke-width:1px;stroke-linecap:butt;stroke-linejoin:miter;stroke-opacity:1"
       d="m 365.35714,341.29075 c 0.92056,5.05119 3.89255,11.07879 4.64286,13.21429"
       id="path3009"
       inkscape:connector-curvature="0" />
    <path
       style="fill:none;stroke:#000000;stroke-width:0.8229177px;stroke-linecap:butt;stroke-linejoin:miter;stroke-opacity:1"
       d="m 301.00827,309.4475 c 0.0595,-0.26415 -0.20848,-12.8149 1.80239,-17.17387 18.24587,3.73349 -0.59139,8.98815 -0.66581,10.11908 1.17504,3.14052 6.5553,4.04473 7.98972,4.9298"
       id="path3011"
       inkscape:connector-curvature="0"
       sodipodi:nodetypes="cccc" />
    <path
       style="fill:none;stroke:#000000;stroke-width:1px;stroke-linecap:butt;stroke-linejoin:miter;stroke-opacity:1"
       d="m 316.96429,294.86218 c 0.14029,5.42256 0.26971,8.77797 0.17856,11.78571"
       id="path3013"
       inkscape:connector-curvature="0"
       sodipodi:nodetypes="cc" />
    <path
       style="fill:none;stroke:#000000;stroke-width:1px;stroke-linecap:butt;stroke-linejoin:miter;stroke-opacity:1"
       d="m 307.5,373.96932 c -2.76806,5.31155 -0.74979,12.69354 -1.55112,16.21937"
       id="path3015"
       inkscape:connector-curvature="0"
       sodipodi:nodetypes="cc" />
    <path
       style="fill:none;stroke:#000000;stroke-width:1px;stroke-linecap:butt;stroke-linejoin:miter;stroke-opacity:1"
       d="m 307.63525,374.4744 c 12.66145,3.12203 -1.83366,9.87895 -1.42857,8.92858 0.84417,3.06504 4.07614,4.33911 5.53571,5.89285"
       id="path3017"
       inkscape:connector-curvature="0"
       sodipodi:nodetypes="ccc" />
    <path
       style="fill:none;stroke:#000000;stroke-width:1px;stroke-linecap:butt;stroke-linejoin:miter;stroke-opacity:1"
       d="m 318.03571,379.68361 c 11.18163,-3.68015 -0.57334,7.48381 -1.25,6.25 2.05104,1.68695 5.03428,-0.41952 6.42858,-0.53571"
       id="path3019"
       inkscape:connector-curvature="0"
       sodipodi:nodetypes="ccc" />
    <path
       style="fill:none;stroke:#000000;stroke-width:1px;stroke-linecap:butt;stroke-linejoin:miter;stroke-opacity:1"
       d="m 219.2031,320.50666 c 2.4488,39.72538 10.46431,3.32956 11.11168,3.53554"
       id="path3021"
       inkscape:connector-curvature="0" />
    <path
       style="fill:none;stroke:#000000;stroke-width:1px;stroke-linecap:butt;stroke-linejoin:miter;stroke-opacity:1"
       d="m 233.21429,331.82647 c -0.10926,1.8338 -0.2753,4.12939 -0.35715,5.35714"
       id="path3023"
       inkscape:connector-curvature="0" />
    <path
       style="fill:none;stroke:#000000;stroke-width:1px;stroke-linecap:butt;stroke-linejoin:miter;stroke-opacity:1"
       d="m 232.85714,328.96932 1.16072,1.25001"
       id="path3025"
       inkscape:connector-curvature="0"
       sodipodi:nodetypes="cc" />
    <path
       style="fill:none;stroke:#000000;stroke-width:1px;stroke-linecap:butt;stroke-linejoin:miter;stroke-opacity:1"
       d="m 236.96429,331.82647 c 0.51911,1.96476 -0.7375,4.57245 -0.89286,5.53571"
       id="path3027"
       inkscape:connector-curvature="0" />
    <path
       style="fill:none;stroke:#000000;stroke-width:1px;stroke-linecap:butt;stroke-linejoin:miter;stroke-opacity:1"
       d="m 236.24999,335.93362 c 0.68408,0.20106 2.31419,-4.16556 3.04205,-3.49586 0.81409,0.74904 0.75817,2.603 0.17225,4.65658"
       id="path3031"
       inkscape:connector-curvature="0"
       sodipodi:nodetypes="csc" />
    <path
       style="fill:none;stroke:#000000;stroke-width:1px;stroke-linecap:butt;stroke-linejoin:miter;stroke-opacity:1"
       d="m 371.73614,375.81251 c -4.66396,32.37329 6.59433,0.49458 10.10152,0.75762"
       id="path3035"
       inkscape:connector-curvature="0" />
    <path
       style="fill:none;stroke:#000000;stroke-width:1px;stroke-linecap:butt;stroke-linejoin:miter;stroke-opacity:1"
       d="m 382.15914,384.58504 c -2.58867,15.15222 9.1335,-2.77783 0,0 z"
       id="path3037"
       inkscape:connector-curvature="0"
       sodipodi:nodetypes="cc" />
    <path
       style="fill:none;stroke:#000000;stroke-width:1px;stroke-linecap:butt;stroke-linejoin:miter;stroke-opacity:1"
       d="m 387.88326,384.67433 c -1.52942,11.26986 3.30011,2.73031 3.40579,0.99033 0.0453,-0.74568 0.23252,1.48443 -0.0998,4.82308"
       id="path3039"
       inkscape:connector-curvature="0"
       sodipodi:nodetypes="csc" />
    <path
       style="fill:none;stroke:#000000;stroke-width:1px;stroke-linecap:butt;stroke-linejoin:miter;stroke-opacity:1"
       d="m 392.90178,386.06754 c 1.15308,0.41063 2.65547,-0.13446 3.52679,-0.17857"
       id="path3041"
       inkscape:connector-curvature="0" />
    <path
       style="fill:none;stroke:#000000;stroke-width:1px;stroke-linecap:butt;stroke-linejoin:miter;stroke-opacity:1"
       d="m 395.58036,384.19253 c -1.52217,1.74493 -2.29652,7.67273 0.58035,5.89286"
       id="path3043"
       inkscape:connector-curvature="0"
       sodipodi:nodetypes="cc" />
  </g>
</svg>
