<?xml version="1.0" encoding="UTF-8" standalone="no"?>
<!-- Created with Inkscape (http://www.inkscape.org/) -->

<svg
   xmlns:dc="http://purl.org/dc/elements/1.1/"
   xmlns:cc="http://creativecommons.org/ns#"
   xmlns:rdf="http://www.w3.org/1999/02/22-rdf-syntax-ns#"
   xmlns:svg="http://www.w3.org/2000/svg"
   xmlns="http://www.w3.org/2000/svg"
   xmlns:sodipodi="http://sodipodi.sourceforge.net/DTD/sodipodi-0.dtd"
   xmlns:inkscape="http://www.inkscape.org/namespaces/inkscape"
   width="744.09448819"
   height="1052.3622047"
   id="svg34914"
   version="1.1"
   inkscape:version="0.48.1 "
   sodipodi:docname="新建文档 21">
  <defs
     id="defs34916" />
  <sodipodi:namedview
     id="base"
     pagecolor="#ffffff"
     bordercolor="#666666"
     borderopacity="1.0"
     inkscape:pageopacity="0.0"
     inkscape:pageshadow="2"
     inkscape:zoom="2.8"
     inkscape:cx="417.74407"
     inkscape:cy="523.44565"
     inkscape:document-units="px"
     inkscape:current-layer="layer1"
     showgrid="false"
     inkscape:window-width="784"
     inkscape:window-height="821"
     inkscape:window-x="800"
     inkscape:window-y="0"
     inkscape:window-maximized="0" />
  <metadata
     id="metadata34919">
    <rdf:RDF>
      <cc:Work
         rdf:about="">
        <dc:format>image/svg+xml</dc:format>
        <dc:type
           rdf:resource="http://purl.org/dc/dcmitype/StillImage" />
        <dc:title></dc:title>
      </cc:Work>
    </rdf:RDF>
  </metadata>
  <g
     inkscape:label="Layer 1"
     inkscape:groupmode="layer"
     id="layer1">
    <g
       id="g35039">
      <rect
         id="rect12748-0-0-68"
         height="45.380161"
         y="506.16449"
         x="386.56351"
         width="2.1150167"
         style="fill:#8c8c8c;stroke-width:0" />
      <path
         id="path12750-9-4-3"
         d="m 395.759,519.18556 c 0,-1.54288 -1.04689,-2.76393 -2.05273,-3.93294 -0.40913,-0.48274 -1.17925,-1.31665 -1.17925,-1.87323 l 0,-7.19193 -2.12493,0 0,7.59895 c 0,1.39144 0.93151,2.46956 1.91328,3.61301 0.43674,0.4941 1.32578,1.64322 1.32578,2.32663 0,0.27451 0.003,31.82032 0.003,31.82032 l 2.11644,0 -10e-4,-32.36081 z"
         inkscape:connector-curvature="0"
         style="fill:#8c8c8c;stroke-width:0" />
      <ellipse
         transform="matrix(0.49291435,0,0,0.54213645,380.64598,496.0346)"
         d="m 35.099998,4.0636802 c 0,2.2437561 -7.857402,4.0626797 -17.549999,4.0626797 C 7.8574023,8.1263599 0,6.3074363 0,4.0636802 0,1.8199241 7.8574023,0.0010004 17.549999,0.0010004 c 9.692597,0 17.549999,1.8189237 17.549999,4.0626798 z"
         id="ellipse59229-8"
         ry="4.0626798"
         rx="17.549999"
         cy="4.0636802"
         cx="17.549999"
         sodipodi:cx="17.549999"
         sodipodi:cy="4.0636802"
         sodipodi:rx="17.549999"
         sodipodi:ry="4.0626798"
         style="fill:#8b8b8b;stroke-width:0" />
      <path
         id="path59231-9"
         d="m 380.64598,504.26006 c 0,1.21641 3.87283,2.20252 8.65065,2.20252 4.77781,0 8.65063,-0.98611 8.65063,-2.20252 l 0,-6.02238 c 0,1.2164 -3.87282,2.20252 -8.65063,2.20252 -4.77782,0 -8.65065,-0.98558 -8.65065,-2.20252 l 0,6.02238 z"
         inkscape:connector-curvature="0"
         style="fill:#b3b3b3;stroke-width:0" />
      <ellipse
         transform="matrix(0.49291435,0,0,0.54213645,380.64598,496.0346)"
         d="m 35.099998,4.0636802 c 0,2.2437561 -7.857402,4.0626797 -17.549999,4.0626797 C 7.8574023,8.1263599 0,6.3074363 0,4.0636802 0,1.8199241 7.8574023,0.0010004 17.549999,0.0010004 c 9.692597,0 17.549999,1.8189237 17.549999,4.0626798 z"
         id="ellipse59233-8"
         ry="4.0626798"
         rx="17.549999"
         cy="4.0636802"
         cx="17.549999"
         sodipodi:cx="17.549999"
         sodipodi:cy="4.0636802"
         sodipodi:rx="17.549999"
         sodipodi:ry="4.0626798"
         style="fill:#dfdfdf;stroke-width:0" />
      <path
         style="opacity:0.62999998;fill:#999999;stroke-width:0"
         inkscape:connector-curvature="0"
         d="m 380.64598,498.23768 0,6.02188 c 0,0.76833 1.54873,1.44452 3.89205,1.83896 l 0,-6.02189 c -2.34332,-0.39444 -3.89205,-1.07011 -3.89205,-1.83895 z"
         id="path59379-4" />
      <path
         style="fill:#b3b3b3;stroke-width:0"
         inkscape:connector-curvature="0"
         d="m 397.64708,499.18154 0,5.27034 c 0.18978,-0.18151 0.30018,-0.37115 0.30018,-0.56839 l 0,-5.26978 c 0,0.19668 -0.11043,0.38632 -0.30018,0.56783 z"
         id="path59383-1" />
      <path
         style="fill:#cccccc;stroke-width:0"
         inkscape:connector-curvature="0"
         d="m 396.47346,499.84148 c -0.99617,0.37603 -2.43992,0.66807 -4.13457,0.83009 l 0,5.27143 c 1.69465,-0.162 3.1379,-0.45405 4.13457,-0.83061 l 0,-5.27091 z"
         id="path59385-4" />
      <path
         style="opacity:0.3;fill:#cccccc;stroke-width:0"
         inkscape:connector-curvature="0"
         d="m 396.47346,499.84148 c -0.99617,0.37603 -2.43992,0.66807 -4.13457,0.83009 l 0,5.27143 c 1.69465,-0.162 3.1379,-0.45405 4.13457,-0.83061 l 0,-5.27091 z"
         id="path59387-3" />
      <path
         style="fill:#b3b3b3;stroke-width:0"
         inkscape:connector-curvature="0"
         d="m 396.47346,499.84148 0,5.27089 c 0.52741,-0.19938 0.92372,-0.42208 1.17362,-0.66048 l 0,-5.27035 c -0.2499,0.2384 -0.64621,0.46055 -1.17362,0.65994 z"
         id="path59389-9" />
      <path
         style="opacity:0.2;fill:#808080;stroke-width:0"
         inkscape:connector-curvature="0"
         d="m 396.47346,499.84148 0,5.27089 c 0.52741,-0.19938 0.92372,-0.42208 1.17362,-0.66048 l 0,-5.27035 c -0.2499,0.2384 -0.64621,0.46055 -1.17362,0.65994 z"
         id="path59391-8" />
      <ellipse
         transform="matrix(0.10523256,0,0,0.14323276,387.67188,497.60194)"
         d="m 35.099998,4.0636802 c 0,2.2437561 -7.857402,4.0626797 -17.549999,4.0626797 C 7.8574023,8.1263599 0,6.3074363 0,4.0636802 0,1.8199241 7.8574023,0.0010004 17.549999,0.0010004 c 9.692597,0 17.549999,1.8189237 17.549999,4.0626798 z"
         id="ellipse59233-9-8"
         ry="4.0626798"
         rx="17.549999"
         cy="4.0636802"
         cx="17.549999"
         sodipodi:cx="17.549999"
         sodipodi:cy="4.0636802"
         sodipodi:rx="17.549999"
         sodipodi:ry="4.0626798"
         style="fill:#b3b3b3;stroke-width:0" />
      <g
         transform="matrix(0.91187302,0,0,0.83308592,-136.97023,221.26731)"
         id="g33873">
        <polygon
           id="polygon28-1-8-60-8"
           points="3.19608,16.1071 3.19608,13.0946 6.0156,13.0946 10.0123,8.80488 3.40704,8.80488 2.2032,9.648 2.2032,16.1071 "
           style="fill:#808080;stroke-width:0"
           transform="matrix(0.86965427,0,0,0.70280753,571.11544,330.22383)" />
        <polygon
           id="polygon30-5-9-7-4"
           points="7.41168,13.0946 11.0599,13.0946 11.0599,16.1071 11.9736,16.1071 11.9736,8.52408 10.7784,8.52408 11.2147,9.03384 "
           style="fill:#808080;stroke-width:0"
           transform="matrix(0.86965427,0,0,0.70280753,571.11544,330.22383)" />
      </g>
    </g>
  </g>
</svg>
