<?xml version="1.0" encoding="UTF-8" standalone="no"?>
<!-- Created with Inkscape (http://www.inkscape.org/) -->

<svg
   xmlns:dc="http://purl.org/dc/elements/1.1/"
   xmlns:cc="http://creativecommons.org/ns#"
   xmlns:rdf="http://www.w3.org/1999/02/22-rdf-syntax-ns#"
   xmlns:svg="http://www.w3.org/2000/svg"
   xmlns="http://www.w3.org/2000/svg"
   xmlns:sodipodi="http://sodipodi.sourceforge.net/DTD/sodipodi-0.dtd"
   xmlns:inkscape="http://www.inkscape.org/namespaces/inkscape"
   width="744.09448819"
   height="1052.3622047"
   id="svg2"
   version="1.1"
   inkscape:version="0.48.1 "
   sodipodi:docname="新建文档 1">
  <defs
     id="defs4" />
  <sodipodi:namedview
     id="base"
     pagecolor="#ffffff"
     bordercolor="#666666"
     borderopacity="1.0"
     inkscape:pageopacity="0.0"
     inkscape:pageshadow="2"
     inkscape:zoom="7.9195959"
     inkscape:cx="337.43972"
     inkscape:cy="581.84714"
     inkscape:document-units="px"
     inkscape:current-layer="layer1"
     showgrid="false"
     inkscape:window-width="1600"
     inkscape:window-height="837"
     inkscape:window-x="-8"
     inkscape:window-y="-8"
     inkscape:window-maximized="1" />
  <metadata
     id="metadata7">
    <rdf:RDF>
      <cc:Work
         rdf:about="">
        <dc:format>image/svg+xml</dc:format>
        <dc:type
           rdf:resource="http://purl.org/dc/dcmitype/StillImage" />
        <dc:title></dc:title>
      </cc:Work>
    </rdf:RDF>
  </metadata>
  <g
     inkscape:label="Layer 1"
     inkscape:groupmode="layer"
     id="layer1">
    <rect
       style="fill:#333333;fill-opacity:1;stroke:none"
       id="rect26537-53"
       width="3.3590467"
       height="7.8843827"
       x="333.17719"
       y="491.12332"
       rx="2.97"
       ry="1.4" />
    <rect
       style="fill:#333333;fill-opacity:1;stroke:none"
       id="rect26537-2"
       width="3.3590467"
       height="7.8843827"
       x="318.29697"
       y="491.12332"
       rx="2.97"
       ry="1.4" />
    <rect
       style="fill:#333333;fill-opacity:1;stroke:none"
       id="rect26537-5"
       width="3.3590467"
       height="7.8843827"
       x="333.17719"
       y="470.30521"
       rx="2.97"
       ry="1.4" />
    <rect
       style="fill:#333333;fill-opacity:1;stroke:none"
       id="rect26537"
       width="3.3590467"
       height="7.8843827"
       x="318.29697"
       y="470.30521"
       rx="2.97"
       ry="1.4" />
    <polygon
       style="stroke-width:0"
       id="polygon24169-1"
       points="34.0157,2.98398 31.0307,0 2.98398,0 0,2.98398 0,31.0307 2.98398,34.0157 31.0317,34.0157 34.0157,31.0307 "
       transform="matrix(0,-0.68303372,0.70403242,0,315.31534,496.31128)" />
    <path
       d="m 336.00312,474.59648 c 0.93495,0 1.69811,0.73767 1.69811,1.64678 l 2e-5,16.90355 c 0,0.9057 -0.76317,1.64542 -1.69811,1.64542 l -17.42676,0 c -0.93354,0 -1.696,-0.73972 -1.696,-1.64542 l 0,-16.90631 c 0,-0.90638 0.76246,-1.64404 1.696,-1.64404 l 17.42674,2e-5 0,0 z"
       id="path24173-3"
       inkscape:connector-curvature="0"
       style="fill:#999999;stroke-width:0" />
    <circle
       d="m 9.0909202,6.5299401 c 0,1.4149425 -1.1470375,2.56198 -2.56198,2.56198 -1.4149425,0 -2.56198,-1.1470375 -2.56198,-2.56198 0,-1.4149425 1.1470375,-2.56198 2.56198,-2.56198 1.4149425,0 2.56198,1.1470375 2.56198,2.56198 z"
       cx="6.5289402"
       cy="6.5299401"
       r="2.56198"
       id="circle24175-5"
       sodipodi:cx="6.5289402"
       sodipodi:cy="6.5299401"
       sodipodi:rx="2.56198"
       sodipodi:ry="2.56198"
       style="stroke-width:0"
       transform="matrix(0,-0.68303372,0.70403242,0,315.31534,496.31128)" />
    <circle
       d="m 30.119681,6.5759401 c 0,1.4143903 -1.14659,2.5609801 -2.56098,2.5609801 -1.414391,0 -2.560981,-1.1465898 -2.560981,-2.5609801 0,-1.4143902 1.14659,-2.56098 2.560981,-2.56098 1.41439,0 2.56098,1.1465898 2.56098,2.56098 z"
       cx="27.558701"
       cy="6.5759401"
       r="2.5609801"
       id="circle24177-5"
       sodipodi:cx="27.558701"
       sodipodi:cy="6.5759401"
       sodipodi:rx="2.5609801"
       sodipodi:ry="2.5609801"
       style="stroke-width:0"
       transform="matrix(0,-0.68303372,0.70403242,0,315.31534,496.31128)" />
    <circle
       d="m 30.074679,27.603701 c 0,1.414942 -1.147037,2.56198 -2.56198,2.56198 -1.414942,0 -2.56198,-1.147038 -2.56198,-2.56198 0,-1.414943 1.147038,-2.56198 2.56198,-2.56198 1.414943,0 2.56198,1.147037 2.56198,2.56198 z"
       cx="27.512699"
       cy="27.603701"
       r="2.56198"
       id="circle24179-2"
       sodipodi:cx="27.512699"
       sodipodi:cy="27.603701"
       sodipodi:rx="2.56198"
       sodipodi:ry="2.56198"
       style="stroke-width:0"
       transform="matrix(0,-0.68303372,0.70403242,0,315.31534,496.31128)" />
    <circle
       d="m 9.0459201,27.555799 c 0,1.414943 -1.1470375,2.56198 -2.56198,2.56198 -1.4149425,0 -2.56198,-1.147037 -2.56198,-2.56198 0,-1.414942 1.1470375,-2.56198 2.56198,-2.56198 1.4149425,0 2.56198,1.147038 2.56198,2.56198 z"
       cx="6.4839401"
       cy="27.555799"
       r="2.56198"
       id="circle24181-6"
       sodipodi:cx="6.4839401"
       sodipodi:cy="27.555799"
       sodipodi:rx="2.56198"
       sodipodi:ry="2.56198"
       style="stroke-width:0"
       transform="matrix(0,-0.68303372,0.70403242,0,315.31534,496.31128)" />
    <circle
       d="m 25.629741,17.008801 c 0,4.76287 -3.86107,8.62394 -8.623941,8.62394 -4.762871,0 -8.6239402,-3.86107 -8.6239402,-8.62394 0,-4.762871 3.8610692,-8.623941 8.6239402,-8.623941 4.762871,0 8.623941,3.86107 8.623941,8.623941 z"
       cx="17.0058"
       cy="17.008801"
       r="8.6239405"
       id="circle24183-8"
       sodipodi:cx="17.0058"
       sodipodi:cy="17.008801"
       sodipodi:rx="8.6239405"
       sodipodi:ry="8.6239405"
       style="fill:#3f3f3f;stroke-width:0"
       transform="matrix(0,-0.68303372,0.70403242,0,315.31534,496.31128)" />
    <circle
       d="m 25.629741,17.008801 c 0,4.76287 -3.86107,8.62394 -8.623941,8.62394 -4.762871,0 -8.6239402,-3.86107 -8.6239402,-8.62394 0,-4.762871 3.8610692,-8.623941 8.6239402,-8.623941 4.762871,0 8.623941,3.86107 8.623941,8.623941 z"
       cx="17.0058"
       cy="17.008801"
       r="8.6239405"
       id="circle24185-9"
       sodipodi:cx="17.0058"
       sodipodi:cy="17.008801"
       sodipodi:rx="8.6239405"
       sodipodi:ry="8.6239405"
       style="fill:#2d2d2d;stroke-width:0"
       transform="matrix(0,-0.68303372,0.70403242,0,315.31534,496.31128)" />
    <circle
       d="m 24.74474,18.032801 c 0,4.190703 -3.397237,7.58794 -7.587941,7.58794 -4.190703,0 -7.5879399,-3.397237 -7.5879399,-7.58794 0,-4.190704 3.3972369,-7.587941 7.5879399,-7.587941 4.190704,0 7.587941,3.397237 7.587941,7.587941 z"
       cx="17.156799"
       cy="18.032801"
       r="7.5879402"
       id="circle24187-2"
       sodipodi:cx="17.156799"
       sodipodi:cy="18.032801"
       sodipodi:rx="7.5879402"
       sodipodi:ry="7.5879402"
       style="opacity:0.6;stroke-width:0"
       transform="matrix(0,-0.68303372,0.70403242,0,315.31534,496.31128)" />
    <circle
       d="m 24.412699,17.059799 c 0,4.084091 -3.310809,7.3949 -7.3949,7.3949 -4.08409,0 -7.3948995,-3.310809 -7.3948995,-7.3949 0,-4.08409 3.3108095,-7.3948997 7.3948995,-7.3948997 4.084091,0 7.3949,3.3108097 7.3949,7.3948997 z"
       cx="17.017799"
       cy="17.059799"
       r="7.3948998"
       id="circle24189-9"
       sodipodi:cx="17.017799"
       sodipodi:cy="17.059799"
       sodipodi:rx="7.3948998"
       sodipodi:ry="7.3948998"
       style="fill:#313131;stroke-width:0"
       transform="matrix(0,-0.68303372,0.70403242,0,315.31534,496.31128)" />
    <path
       d="m 319.81829,492.07788 c -0.0838,-0.0355 -0.14996,-0.0977 -0.16474,-0.18852 l -1.13771,0.17349 c 0.0113,0.0663 0.002,0.13592 0.0239,0.20081 l -0.006,0.001 c 0.12883,0.40845 0.44283,0.7124 0.84271,0.87018 l 0.44143,-1.05733 z"
       id="path24191-5"
       inkscape:connector-curvature="0"
       style="opacity:0.5;fill:#ffffff;stroke-width:0" />
    <path
       d="m 319.84997,477.71589 c -0.0866,-0.0342 -0.15207,-0.097 -0.16685,-0.18783 l -1.1363,0.17007 c 0.0127,0.0697 0.002,0.13593 0.0218,0.20355 l -0.006,0.003 c 0.12884,0.40367 0.44213,0.70966 0.84272,0.86607 l 0.44495,-1.05459 z"
       id="path24193-9"
       inkscape:connector-curvature="0"
       style="opacity:0.5;fill:#ffffff;stroke-width:0" />
    <path
       d="m 334.6542,477.74526 c -0.088,-0.0348 -0.15278,-0.0963 -0.16756,-0.18783 l -1.1356,0.17212 c 0.0127,0.0669 0.003,0.13592 0.0232,0.20081 l -0.01,0.003 c 0.12954,0.40641 0.44283,0.7124 0.84412,0.86677 l 0.44566,-1.0546 z"
       id="path24195-4"
       inkscape:connector-curvature="0"
       style="opacity:0.5;fill:#ffffff;stroke-width:0" />
    <path
       d="m 334.62251,492.1093 c -0.0866,-0.0348 -0.14995,-0.0977 -0.16615,-0.1892 l -1.13699,0.17349 c 0.0162,0.0669 0.003,0.13592 0.0232,0.20149 l -0.006,0.002 c 0.12672,0.40777 0.44142,0.71171 0.84272,0.86881 l 0.44282,-1.05664 z"
       id="path24197-5"
       inkscape:connector-curvature="0"
       style="opacity:0.5;fill:#ffffff;stroke-width:0" />
    <path
       d="m 322.47317,482.88024 c -0.157,0.39069 -0.26964,0.80256 -0.32174,1.23833 -0.12391,1.08532 0.1232,2.12285 0.6301,3.0101 l 0.29639,0.10997 c -0.54562,-0.99039 -0.79977,-2.14471 -0.66037,-3.34547 0.0444,-0.3702 0.12954,-0.72947 0.24218,-1.0703 l -0.18656,0.0574 z"
       id="path24199-0"
       inkscape:connector-curvature="0"
       style="opacity:0.6;fill:#ffffff;stroke-width:0" />
    <text
       xml:space="preserve"
       style="font-size:40px;font-style:normal;font-weight:normal;line-height:125%;letter-spacing:0px;word-spacing:0px;fill:#000000;fill-opacity:1;stroke:none;font-family:Sans"
       x="317.67856"
       y="468.9693"
       id="text25180"
       sodipodi:linespacing="125%"><tspan
         sodipodi:role="line"
         id="tspan25182"
         x="317.67856"
         y="468.9693"
         style="font-size:6px;font-style:normal;font-variant:normal;font-weight:normal;font-stretch:normal;font-family:'迷你简卡通';-inkscape-font-specification:'迷你简卡通';fill:#ff2a2a">1</tspan></text>
    <text
       xml:space="preserve"
       style="font-size:40px;font-style:normal;font-weight:normal;line-height:125%;letter-spacing:0px;word-spacing:0px;fill:#000000;fill-opacity:1;stroke:none;font-family:Sans"
       x="333.73883"
       y="468.49387"
       id="text25180-1"
       sodipodi:linespacing="125%"><tspan
         sodipodi:role="line"
         id="tspan25182-7"
         x="333.73883"
         y="468.49387"
         style="font-size:6px;font-style:normal;font-variant:normal;font-weight:normal;font-stretch:normal;font-family:'迷你简卡通';-inkscape-font-specification:'迷你简卡通';fill:#ff2a2a">2</tspan></text>
    <text
       xml:space="preserve"
       style="font-size:40px;font-style:normal;font-weight:normal;line-height:125%;letter-spacing:0px;word-spacing:0px;fill:#000000;fill-opacity:1;stroke:none;font-family:Sans"
       x="333.28793"
       y="504.15237"
       id="text25180-1-4"
       sodipodi:linespacing="125%"><tspan
         sodipodi:role="line"
         id="tspan25182-7-0"
         x="333.28793"
         y="504.15237"
         style="font-size:6px;font-style:normal;font-variant:normal;font-weight:normal;font-stretch:normal;font-family:'迷你简卡通';-inkscape-font-specification:'迷你简卡通';fill:#ff2a2a">3</tspan></text>
    <text
       xml:space="preserve"
       style="font-size:40px;font-style:normal;font-weight:normal;line-height:125%;letter-spacing:0px;word-spacing:0px;fill:#000000;fill-opacity:1;stroke:none;font-family:Sans"
       x="318.46652"
       y="503.68582"
       id="text25180-1-4-9"
       sodipodi:linespacing="125%"><tspan
         sodipodi:role="line"
         id="tspan25182-7-0-4"
         x="318.46652"
         y="503.68582"
         style="font-size:6px;font-style:normal;font-variant:normal;font-weight:normal;font-stretch:normal;font-family:'迷你简卡通';-inkscape-font-specification:'迷你简卡通';fill:#ff2a2a">4</tspan></text>
    <text
       xml:space="preserve"
       style="font-size:8px;font-style:normal;font-weight:normal;line-height:125%;letter-spacing:0px;word-spacing:0px;fill:#000000;fill-opacity:1;stroke:none;font-family:Sans"
       x="332.94644"
       y="510.39789"
       id="text25267"
       sodipodi:linespacing="125%"><tspan
         sodipodi:role="line"
         id="tspan25269"
         x="332.94644"
         y="510.39789" /></text>
    <polygon
       style="stroke-width:0;fill:#b3b3b3"
       id="polygon24169-1-7"
       points="31.0317,34.0157 34.0157,31.0307 34.0157,2.98398 31.0307,0 2.98398,0 0,2.98398 0,31.0307 2.98398,34.0157 "
       transform="matrix(0,-0.68303372,0.70403242,0,344.63306,496.5684)" />
    <rect
       style="fill:#000000;fill-opacity:1;stroke:none"
       id="rect25424"
       width="7.3660712"
       height="2.9017859"
       x="344.64285"
       y="475.33093" />
    <rect
       style="fill:#000000;fill-opacity:1;stroke:none"
       id="rect25424-7"
       width="23.214287"
       height="0.84821439"
       x="473.34433"
       y="-352.6116"
       transform="matrix(0,1,-1,0,0,0)" />
    <rect
       style="fill:#000000;fill-opacity:1;stroke:none"
       id="rect25424-7-5"
       width="23.214287"
       height="0.84821439"
       x="473.34433"
       y="-361.27231"
       transform="matrix(0,1,-1,0,0,0)" />
    <rect
       style="fill:#000000;fill-opacity:1;stroke:none"
       id="rect25424-86"
       width="8.125"
       height="2.9017859"
       x="352.56696"
       y="480.37558" />
    <rect
       style="fill:#000000;fill-opacity:1;stroke:none"
       id="rect25424-77"
       width="7.9464283"
       height="2.9017859"
       x="352.52231"
       y="486.53632" />
    <rect
       style="fill:#000000;fill-opacity:1;stroke:none"
       id="rect25424-2"
       width="7.3660712"
       height="2.9017859"
       x="344.64285"
       y="491.58096" />
    <rect
       style="fill:#000000;fill-opacity:1;stroke:none"
       id="rect25424-29"
       width="7.3660712"
       height="2.9017859"
       x="361.22769"
       y="475.33093" />
    <rect
       style="fill:#000000;fill-opacity:1;stroke:none"
       id="rect25424-4"
       width="7.3660712"
       height="2.9017859"
       x="361.22769"
       y="491.58096" />
    <text
       xml:space="preserve"
       style="font-size:40px;font-style:normal;font-weight:normal;line-height:125%;letter-spacing:0px;word-spacing:0px;fill:#000000;fill-opacity:1;stroke:none;font-family:Sans"
       x="352.33203"
       y="471.87442"
       id="text25180-1-9"
       sodipodi:linespacing="125%"><tspan
         sodipodi:role="line"
         id="tspan25182-7-3"
         x="352.33203"
         y="471.87442"
         style="font-size:4px;font-style:normal;font-variant:normal;font-weight:normal;font-stretch:normal;fill:#ff2a2a;font-family:'迷你简卡通';-inkscape-font-specification:'迷你简卡通'">背面</tspan></text>
  </g>
</svg>
