<?xml version="1.0" encoding="UTF-8" standalone="no"?>
<!-- Generator: Adobe Illustrator 15.0.0, SVG Export Plug-In . SVG Version: 6.00 Build 0)  -->

<svg
   xmlns:dc="http://purl.org/dc/elements/1.1/"
   xmlns:cc="http://creativecommons.org/ns#"
   xmlns:rdf="http://www.w3.org/1999/02/22-rdf-syntax-ns#"
   xmlns:svg="http://www.w3.org/2000/svg"
   xmlns="http://www.w3.org/2000/svg"
   xmlns:sodipodi="http://sodipodi.sourceforge.net/DTD/sodipodi-0.dtd"
   xmlns:inkscape="http://www.inkscape.org/namespaces/inkscape"
   version="1.1"
   id="图层_1"
   x="0px"
   y="0px"
   width="1190.55px"
   height="841.89px"
   viewBox="0 0 1190.55 841.89"
   enable-background="new 0 0 1190.55 841.89"
   xml:space="preserve"
   inkscape:version="0.48.1 "
   sodipodi:docname="风扇.svg"><metadata
   id="metadata42"><rdf:RDF><cc:Work
       rdf:about=""><dc:format>image/svg+xml</dc:format><dc:type
         rdf:resource="http://purl.org/dc/dcmitype/StillImage" /><dc:title></dc:title></cc:Work></rdf:RDF></metadata><defs
   id="defs40">
	
	

		
		
		
		
		
		
		
		
	
		
		
		
		
		
		
		
	</defs><sodipodi:namedview
   pagecolor="#ffffff"
   bordercolor="#666666"
   borderopacity="1"
   objecttolerance="10"
   gridtolerance="10"
   guidetolerance="10"
   inkscape:pageopacity="0"
   inkscape:pageshadow="2"
   inkscape:window-width="1920"
   inkscape:window-height="1017"
   id="namedview38"
   showgrid="false"
   inkscape:zoom="2.7557044"
   inkscape:cx="395.74533"
   inkscape:cy="390.98584"
   inkscape:window-x="-8"
   inkscape:window-y="-8"
   inkscape:window-maximized="1"
   inkscape:current-layer="图层_1" />
<path
   d="m 423.92433,463.24322 c 12.66694,2.33732 11.66503,13.57296 9.58965,19.3697 -2.07535,5.79673 -9.66122,14.81388 -23.83101,17.10395 -14.1698,2.29007 -9.7328,-6.79864 -9.7328,-9.01715 0,-2.2185 0.1002,-9.07583 -1.73901,-13.2323 v -0.002 c 5.30151,-1.26527 9.1345,-4.93224 9.1345,-9.25904 v -4.09922 c 0.63407,-0.3707 1.3397,-0.68702 2.12404,-0.94894 2.35305,-0.70993 6.82584,-1.32395 14.45463,0.0845 z"
   id="path6"
   inkscape:connector-curvature="0"
   style="fill:#efefef;stroke-width:0.69999999;stroke-miterlimit:10;stroke-dasharray:none" /><path
   d="m 394.1291,473.95359 c 0,0 1.01337,1.47853 -0.36784,3.9833 -1.19369,2.1727 -4.18795,5.11686 -11.20129,8.54052 -16.50854,8.05817 -26.83674,1.50285 -29.26995,-3.14885 -2.4332,-4.6517 -2.64789,-9.58966 -0.12022,-12.37925 1.70037,-1.87499 4.84349,-1.55009 11.78526,-0.45371 6.94178,1.09636 16.55148,0.85018 16.32676,0 0,0 2.6622,7.39405 12.84728,3.45799 z"
   id="path8"
   inkscape:connector-curvature="0"
   style="fill:#efefef;stroke-width:0.69999999;stroke-miterlimit:10;stroke-dasharray:none" /><path
   d="m 380.91685,463.39924 c 0.11306,5.30294 5.98566,9.57679 13.21225,9.57679 6.88882,0 12.54528,-3.88167 13.15916,-8.83538 0.002,-0.002 0.004,-0.004 0.006,-0.004 0.0172,-0.008 0.0344,-0.0186 0.0515,-0.0286 v 4.09922 c 0,4.3268 -3.833,7.99377 -9.13451,9.25903 -1.2853,0.30773 -2.65792,0.47376 -4.08205,0.47376 -0.12309,0 -0.24475,-0.002 -0.36784,-0.004 1.3812,-2.50476 0.36784,-3.98328 0.36784,-3.98328 -10.18507,3.93605 -12.84728,-3.45801 -12.84728,-3.45801 -0.24046,-0.73425 -0.36785,-1.49985 -0.36785,-2.28864 l 0.002,-3.79721 0.002,-1.0105 z"
   id="path10"
   inkscape:connector-curvature="0"
   style="fill:#efefef;stroke-width:0.69999999;stroke-miterlimit:10;stroke-dasharray:none" /><path
   d="m 394.1291,458.12922 c 2.25428,0 4.08206,1.34684 4.08206,3.00572 0,1.6603 -1.82778,3.00571 -4.08206,3.00571 -2.25285,0 -4.08061,-1.34541 -4.08061,-3.00571 0,-1.65888 1.82776,-3.00572 4.08061,-3.00572 z"
   id="path12"
   inkscape:connector-curvature="0"
   style="fill:#efefef;stroke-width:0.69999999;stroke-miterlimit:10;stroke-dasharray:none" /><path
   d="m 407.34566,463.24322 c 0,0.30201 -0.0186,0.60258 -0.0573,0.89743 -0.61388,4.95371 -6.27049,8.83538 -13.15916,8.83538 -7.2266,0 -13.09919,-4.27385 -13.21227,-9.57679 v -0.32347 -0.0244 c 0.10307,-3.92317 3.35639,-7.27669 7.97373,-8.74664 1.48855,-0.47375 3.11879,-0.75142 4.83205,-0.79007 0.13455,-0.004 0.27051,-0.004 0.40649,-0.004 7.29945,0 13.21641,4.35684 13.21641,9.73278 z m -9.1345,-2.10828 c 0,-1.65888 -1.82778,-3.00572 -4.08206,-3.00572 -2.25285,0 -4.08061,1.34684 -4.08061,3.00572 0,1.6603 1.82776,3.00571 4.08061,3.00571 2.25428,0 4.08206,-1.34541 4.08206,-3.00571 z"
   id="path14"
   inkscape:connector-curvature="0"
   style="fill:#efefef;stroke-width:0.69999999;stroke-miterlimit:10;stroke-dasharray:none" /><path
   d="m 378.76704,433.51957 c 11.87973,0.78721 11.02096,4.93796 10.12354,8.73089 -0.89743,3.79292 0,12.05435 0,12.05435 -4.61735,1.46993 -7.87068,4.82345 -7.97373,8.74663 v 0.0244 c -0.004,0.0558 -0.004,0.11164 -0.004,0.16745 0,0.0529 0,0.10448 0.004,0.15602 l -0.002,1.01048 c -0.18463,-0.0658 -0.79723,-0.27623 -2.57775,-0.83301 -2.29008,-0.71564 -2.50477,0.14314 -12.9532,-6.8702 -10.44845,-7.01333 -11.45035,-11.87974 -9.37498,-16.10205 2.07537,-4.22231 10.87783,-7.87211 22.75755,-7.08489 z"
   id="path16"
   inkscape:connector-curvature="0"
   style="fill:#efefef;stroke-width:0.69999999;stroke-miterlimit:10;stroke-dasharray:none" /><path
   d="m 407.34566,463.24322 c 0,-5.37593 -5.91696,-9.73278 -13.21656,-9.73278 -0.13597,0 -0.27194,0.002 -0.40648,0.004 0,0 -1.54436,-8.04386 4.48854,-15.34345 6.03289,-7.2996 8.75235,-9.80437 17.41167,-7.51429 8.65932,2.29008 16.88926,10.59157 19.17932,18.67837 2.29007,8.08681 1.71755,13.35826 -3.36352,13.90788 -5.08111,0.54819 -7.29961,-0.66842 -12.59539,-0.95468 -3.94607,-0.21326 -7.01333,0.0816 -9.37354,0.87022 -1.28673,0.38932 -1.93797,0.80726 -2.12404,0.94037 v -0.85591 z"
   id="path18"
   inkscape:connector-curvature="0"
   style="fill:#efefef;stroke-width:0.69999999;stroke-miterlimit:10;stroke-dasharray:none" /><path
   stroke-miterlimit="10"
   d="m 380.91685,463.05144 c 0.10305,-3.92318 3.35638,-7.2767 7.97373,-8.74663 1.48854,-0.47377 3.11878,-0.75143 4.83204,-0.79007 0.13454,-0.004 0.27051,-0.004 0.40648,-0.004 7.2996,0 13.21656,4.35685 13.21656,9.73279 0,0.302 -0.0186,0.60257 -0.0573,0.89742 -0.61388,4.9537 -6.27049,8.83537 -13.15916,8.83537 -7.2266,0 -13.09919,-4.27385 -13.21227,-9.57678 -0.004,-0.0516 -0.004,-0.10306 -0.004,-0.15601 0,-0.0557 0,-0.11164 0.004,-0.16746"
   id="path22"
   inkscape:connector-curvature="0"
   style="fill:none;stroke:#000000;stroke-width:0.69999999;stroke-miterlimit:10;stroke-dasharray:none" /><path
   stroke-miterlimit="10"
   d="m 394.1291,458.12922 c -2.25285,0 -4.08061,1.34684 -4.08061,3.00572 0,1.6603 1.82776,3.00571 4.08061,3.00571 2.25428,0 4.08206,-1.34541 4.08206,-3.00571 0,-1.65888 -1.82778,-3.00572 -4.08206,-3.00572 z"
   id="path24"
   inkscape:connector-curvature="0"
   style="fill:none;stroke:#000000;stroke-width:0.69999999;stroke-miterlimit:10;stroke-dasharray:none" /><path
   stroke-miterlimit="10"
   d="m 393.76126,477.93689 c 0.12309,0.002 0.24475,0.004 0.36784,0.004 1.42414,0 2.79675,-0.1659 4.08206,-0.47376 5.30151,-1.26526 9.1345,-4.93224 9.1345,-9.25904 v -4.09922 -0.008 -0.85592 -0.19179"
   id="path26"
   inkscape:connector-curvature="0"
   style="fill:none;stroke:#000000;stroke-width:0.69999999;stroke-miterlimit:10;stroke-dasharray:none" /><path
   stroke-miterlimit="10"
   d="m 380.91685,463.05144 v 0.0244 0.32347 l -0.002,1.01048 -0.002,3.79722 c 0,0.78865 0.12738,1.55439 0.36784,2.28864"
   id="path28"
   inkscape:connector-curvature="0"
   style="fill:none;stroke:#000000;stroke-width:0.69999999;stroke-miterlimit:10;stroke-dasharray:none" /><path
   stroke-miterlimit="10"
   d="m 407.28841,464.14065 c 0.002,-0.002 0.004,-0.004 0.006,-0.004 0.0173,-0.008 0.0344,-0.0186 0.0516,-0.0286 0.63406,-0.37071 1.33969,-0.68702 2.12404,-0.94895 2.36021,-0.78864 5.42746,-1.08349 9.37353,-0.87022 5.29579,0.28625 7.51429,1.50285 12.59538,0.95467 5.08108,-0.54962 5.65361,-5.82108 3.36354,-13.90787 -2.29007,-8.08681 -10.52001,-16.38831 -19.17933,-18.67838 -8.65932,-2.29007 -11.37878,0.2147 -17.41167,7.51429 -6.0329,7.29959 -4.48853,15.34346 -4.48853,15.34346"
   id="path30"
   inkscape:connector-curvature="0"
   style="fill:none;stroke:#000000;stroke-width:0.69999999;stroke-miterlimit:10;stroke-dasharray:none" /><path
   stroke-miterlimit="10"
   d="m 398.21116,477.46742 c 1.83921,4.15647 1.73901,11.0138 1.73901,13.2323 0,2.21851 -4.437,11.30722 9.7328,9.01715 14.16979,-2.29007 21.75566,-11.30722 23.83101,-17.10395 2.07538,-5.79674 3.07729,-17.03238 -9.58965,-19.3697 -7.62879,-1.40838 -12.10158,-0.79436 -14.45463,-0.0845 -1.28673,0.38931 -1.93797,0.80725 -2.12404,0.94036 -0.0258,0.0172 -0.0429,0.03 -0.0515,0.0373"
   id="path32"
   inkscape:connector-curvature="0"
   style="fill:none;stroke:#000000;stroke-width:0.69999999;stroke-miterlimit:10;stroke-dasharray:none" /><path
   stroke-miterlimit="10"
   d="m 381.28182,470.4956 c 0.22472,0.85018 -9.38498,1.09636 -16.32676,0 -6.94177,-1.09638 -10.08489,-1.42128 -11.78526,0.45371 -2.52767,2.78959 -2.31298,7.72755 0.12022,12.37925 2.43321,4.6517 12.76141,11.20702 29.26995,3.14885 7.01334,-3.42366 10.0076,-6.36782 11.20129,-8.54052 1.38121,-2.50477 0.36784,-3.9833 0.36784,-3.9833 -10.18508,3.93606 -12.84728,-3.45799 -12.84728,-3.45799 z"
   id="path34"
   inkscape:connector-curvature="0"
   style="fill:none;stroke:#000000;stroke-width:0.69999999;stroke-miterlimit:10;stroke-dasharray:none" /><path
   stroke-miterlimit="10"
   d="m 388.89058,454.30481 c 0,0 -0.89743,-8.26143 0,-12.05435 0.89742,-3.79293 1.75619,-7.94368 -10.12354,-8.73089 -11.87973,-0.78721 -20.68219,2.86259 -22.75756,7.0849 -2.07537,4.22231 -1.07347,9.08871 9.37497,16.10205 10.44844,7.01333 10.66314,6.15455 12.9532,6.87021 1.78052,0.55676 2.39312,0.76716 2.57776,0.83301 0.0529,0.0185 0.0701,0.0258 0.0701,0.0258"
   id="path36"
   inkscape:connector-curvature="0"
   style="fill:none;stroke:#000000;stroke-width:0.69999999;stroke-miterlimit:10;stroke-dasharray:none" />
<text
   xml:space="preserve"
   style="font-size:8px;font-style:normal;font-weight:normal;line-height:125%;letter-spacing:0px;word-spacing:0px;fill:#000000;fill-opacity:1;stroke:none;font-family:Sans"
   x="446.60388"
   y="371.82178"
   id="text13605"
   sodipodi:linespacing="125%"><tspan
     sodipodi:role="line"
     id="tspan13607"
     x="446.60388"
     y="371.82178" /></text>
<g
   inkscape:label="Layer 1"
   inkscape:groupmode="layer"
   id="layer1-82"
   transform="translate(-1016.8683,-875.73942)"><g
     inkscape:label="Layer 1"
     inkscape:groupmode="layer"
     transform="translate(-101.483,-31.8235)"
     id="layer1-7" /><g
     inkscape:label="Layer 1"
     inkscape:groupmode="layer"
     transform="translate(-869.168,-61.9491)"
     id="layer1-8"><g
       inkscape:label="Layer 1"
       inkscape:groupmode="layer"
       transform="translate(1254.55,10.4576)"
       id="layer1-79-2" /></g></g><g
   inkscape:label="Layer 1"
   inkscape:groupmode="layer"
   id="layer1-89"
   transform="translate(-914.84292,-812.09981)"><g
     inkscape:label="Layer 1"
     inkscape:groupmode="layer"
     transform="translate(-101.483,-31.8235)"
     id="layer1-7-5" /><g
     inkscape:label="Layer 1"
     inkscape:groupmode="layer"
     transform="translate(-869.168,-61.9491)"
     id="layer1-8-4"><g
       inkscape:label="Layer 1"
       inkscape:groupmode="layer"
       transform="translate(1254.55,10.4576)"
       id="layer1-79-4-8" /><g
       inkscape:label="Layer 1"
       inkscape:groupmode="layer"
       id="layer1-6-3"
       transform="matrix(4.7559622,0,0,4.7559622,-461.58092,-1251.3744)"><g
         inkscape:label="Layer 1"
         inkscape:groupmode="layer"
         transform="translate(-101.483,-31.8235)"
         id="layer1-7-2-5" /><g
         inkscape:label="Layer 1"
         inkscape:groupmode="layer"
         transform="translate(-869.168,-61.9491)"
         id="layer1-8-47-5"><g
           inkscape:label="Layer 1"
           inkscape:groupmode="layer"
           transform="translate(1254.55,10.4576)"
           id="layer1-79-9-6" /></g></g></g></g><g
   id="g4392"
   transform="translate(-193.44532,-301.85952)" /></svg>