<?xml version="1.0" encoding="UTF-8" standalone="no"?>
<!-- Created with Inkscape (http://www.inkscape.org/) -->

<svg
   xmlns:dc="http://purl.org/dc/elements/1.1/"
   xmlns:cc="http://creativecommons.org/ns#"
   xmlns:rdf="http://www.w3.org/1999/02/22-rdf-syntax-ns#"
   xmlns:svg="http://www.w3.org/2000/svg"
   xmlns="http://www.w3.org/2000/svg"
   xmlns:sodipodi="http://sodipodi.sourceforge.net/DTD/sodipodi-0.dtd"
   xmlns:inkscape="http://www.inkscape.org/namespaces/inkscape"
   width="744.09448819"
   height="1052.3622047"
   id="svg2"
   version="1.1"
   inkscape:version="0.48.1 "
   sodipodi:docname="SEN0042.svg">
  <defs
     id="defs4">
    <inkscape:path-effect
       effect="spiro"
       id="path-effect3823"
       is_visible="true" />
    <inkscape:path-effect
       effect="spiro"
       id="path-effect3006"
       is_visible="true" />
    <inkscape:path-effect
       effect="spiro"
       id="path-effect3002"
       is_visible="true" />
    <inkscape:path-effect
       effect="spiro"
       id="path-effect2998"
       is_visible="true" />
  </defs>
  <sodipodi:namedview
     id="base"
     pagecolor="#ffffff"
     bordercolor="#666666"
     borderopacity="1.0"
     inkscape:pageopacity="0.0"
     inkscape:pageshadow="2"
     inkscape:zoom="1.979899"
     inkscape:cx="629.95691"
     inkscape:cy="742.00456"
     inkscape:document-units="px"
     inkscape:current-layer="layer1"
     showgrid="false"
     inkscape:window-width="1920"
     inkscape:window-height="1018"
     inkscape:window-x="-8"
     inkscape:window-y="-8"
     inkscape:window-maximized="1" />
  <metadata
     id="metadata7">
    <rdf:RDF>
      <cc:Work
         rdf:about="">
        <dc:format>image/svg+xml</dc:format>
        <dc:type
           rdf:resource="http://purl.org/dc/dcmitype/StillImage" />
        <dc:title />
      </cc:Work>
    </rdf:RDF>
  </metadata>
  <g
     inkscape:label="Layer 1"
     inkscape:groupmode="layer"
     id="layer1">
    <g
       id="g7647"
       transform="matrix(0.25403366,0,0,0.25403366,440.08007,136.45985)">
      <path
         id="rect7626"
         d="m 723,797.46875 c -0.50878,-0.0407 -1.0146,0.0168 -1.53125,0.1875 l -42.75,14.125 c -2.06659,0.68267 -3.15142,2.90216 -2.46875,4.96875 l 8.375,25.40625 -16.21875,3.5 c -2.12777,0.45763 -3.48888,2.52848 -3.03125,4.65625 l 9.46875,44 c 0.45763,2.12777 2.55973,3.48888 4.6875,3.03125 l 28.625,-6.15625 c 2.12777,-0.45763 3.45763,-2.55973 3,-4.6875 l -9.3125,-43.25 31.28125,-10.3125 c 2.06659,-0.68267 3.18267,-2.90216 2.5,-4.96875 l -9.1875,-27.8125 c -0.512,-1.54994 -1.91116,-2.56528 -3.4375,-2.6875 z"
         style="fill:#cccccc;stroke:none"
         inkscape:connector-curvature="0" />
      <rect
         transform="matrix(0.96486342,-0.26275192,0.26275192,0.96486342,0,0)"
         rx="3.9285715"
         ry="3.9285715"
         y="918.79639"
         x="466.66565"
         height="83.571426"
         width="7.8571429"
         id="rect7624"
         style="fill:#4d4d4d;stroke:none" />
      <path
         inkscape:connector-curvature="0"
         id="rect6851"
         d="m 731.9866,728.1741 -123.53125,37.02019 46,144.20302 52.8125,-15.84415 -9.40625,-47.07805 0.71875,-5.51364 6.40625,-5.54394 9.3125,-4.15038 7.84375,-1.39356 16.25,54.34878 39.5625,-11.84524 L 731.9866,728.1741 z"
         style="fill:#e6e6e6;stroke:none" />
      <path
         id="path6835"
         d="m 893.90625,575.21875 -925.3125,209.09375 2.25,107.9375 -8.21875,2.53125 8.09375,32.8125 0.875,-0.15625 0.03125,1.34375 L 4.03125,921.5625 929.25,715.625 893.90625,575.21875 z M 822.125,636.125 l 0.0625,0 c 27.37944,-0.50375 48.83613,13.86986 47.9375,32.125 -0.89863,18.25514 -23.83931,33.465 -51.21875,33.96875 -27.37944,0.50375 -48.83613,-13.86986 -47.9375,-32.125 0.89813,-18.24499 23.79134,-33.45092 51.15625,-33.96875 z M 64.71875,811.5 c 18.26253,-0.32156 32.811744,8.06668 34.40625,21.03125 1.88979,15.36541 -15.134776,31.35369 -38.03125,35.71875 -22.896474,4.36506 -42.985215,-4.54084 -44.875,-19.90625 -1.888733,-15.35687 15.117755,-31.34403 38,-35.71875 L 54.25,812.5938 c 3.577574,-0.68204 7.0868,-1.0342 10.46875,-1.09375 z"
         style="fill:#4d4d4d;stroke:#000000;stroke-width:1px;stroke-linecap:butt;stroke-linejoin:miter;stroke-opacity:1"
         inkscape:connector-curvature="0" />
      <path
         id="path2996"
         d="M 885.90625,541.21875 -39.40625,750.3125 -36.375,894.78125 921.25,681.625 885.90625,541.21875 z M 814.125,602.125 l 0.0625,0 c 27.37944,-0.50375 48.83613,13.86986 47.9375,32.125 -0.89863,18.25514 -23.83931,33.465 -51.21875,33.96875 -27.37944,0.50375 -48.83613,-13.86986 -47.9375,-32.125 0.89813,-18.24499 23.79134,-33.45092 51.15625,-33.96875 z M 56.71875,777.5 c 18.26253,-0.32156 32.811744,8.06668 34.40625,21.03125 1.889785,15.36541 -15.134776,31.35369 -38.03125,35.71875 -22.896474,4.36506 -42.985215,-4.54084 -44.875,-19.90625 -1.8887334,-15.35687 15.117755,-31.34403 38,-35.71875 L 46.25,778.5938 c 3.577574,-0.68204 7.0868,-1.0342 10.46875,-1.09375 z"
         style="fill:#1a1a1a;stroke:#000000;stroke-width:1px;stroke-linecap:butt;stroke-linejoin:miter;stroke-opacity:1"
         inkscape:connector-curvature="0" />
      <path
         inkscape:connector-curvature="0"
         inkscape:original-d="M 256.57875,796.79359 208.09143,621.02705 573.76665,538.19454 619.22351,721.03215 z"
         inkscape:path-effect="#path-effect3002"
         id="path3000"
         d="M 256.57875,796.79359 208.09143,621.02705 573.76665,538.19454 619.22351,721.03215 256.57875,796.79359"
         style="fill:#333333;stroke:#000000;stroke-width:1px;stroke-linecap:butt;stroke-linejoin:miter;stroke-opacity:1" />
      <path
         inkscape:connector-curvature="0"
         inkscape:original-d="m 207.08127,625.06766 -6.06091,-87.88328 359.6143,-81.82235 13.13199,84.85281 z"
         inkscape:path-effect="#path-effect3006"
         id="path3004"
         d="m 207.08127,625.06766 -6.06091,-87.88328 359.6143,-81.82235 13.13199,84.85281 -366.68538,84.85282"
         style="fill:#1a1a1a;stroke:#000000;stroke-width:1px;stroke-linecap:butt;stroke-linejoin:miter;stroke-opacity:1" />
      <path
         transform="matrix(1.1844039,-0.10315865,-0.21186948,0.82148312,64.816686,115.77764)"
         sodipodi:open="true"
         sodipodi:end="7.8188447"
         sodipodi:start="1.5364461"
         d="m 312.68813,622.01187 c -25.09032,0.8143 -46.129,-17.73532 -46.99119,-41.43174 -0.8622,-23.69642 18.77857,-43.56628 43.8689,-44.38058 25.09032,-0.81429 46.12899,17.73533 46.99119,41.43175 0.86172,23.68323 -18.75748,43.54692 -43.83316,44.3794"
         sodipodi:ry="42.931484"
         sodipodi:rx="45.456863"
         sodipodi:cy="579.10571"
         sodipodi:cx="311.12698"
         id="path3798"
         style="opacity:0.49775786;fill:#4d4d4d;fill-opacity:1;stroke:none"
         sodipodi:type="arc" />
      <path
         inkscape:connector-curvature="0"
         id="path3798-4"
         d="m 535.97969,472.3336 c -2.4295,0.0437 -4.92849,0.19651 -7.5,0.46875 -29.8896,3.16434 -57.37564,20.98778 -61.375,39.8125 -3.99936,18.82472 17.01665,31.50809 46.90625,28.34375 l 0.0312,0 c 10.73673,-1.14187 21.14785,-4.17838 30.28125,-8.46875 l -8.34375,-60.15625 z"
         style="opacity:0.49775786;fill:#4d4d4d;fill-opacity:1;stroke:none" />
      <path
         inkscape:connector-curvature="0"
         inkscape:original-d="m 560.63466,452.33157 36.36549,157.5838 22.22336,113.13708 -44.44671,-181.82746 z"
         inkscape:path-effect="#path-effect3823"
         id="path3821"
         d="m 560.63466,452.33157 c 13.1274,52.2891 25.2522,104.8299 36.36549,157.5838 7.92277,37.60876 15.33148,75.32582 22.22336,113.13708 L 574.7768,541.22499 560.63466,452.33157"
         style="fill:#333333;stroke:#000000;stroke-width:1px;stroke-linecap:butt;stroke-linejoin:miter;stroke-opacity:1" />
    </g>
    <g
       id="g10162"
       transform="matrix(0.23657867,0.93548413,-0.99615553,0.2879056,854.17125,-434.19145)">
      <circle
         d="m 5.9040002,11.52 c 0,0.874819 -0.709181,1.584 -1.584,1.584 -0.8748191,0 -1.584,-0.709181 -1.584,-1.584 0,-0.874819 0.7091809,-1.5839995 1.584,-1.5839995 0.874819,0 1.584,0.7091805 1.584,1.5839995 z"
         transform="matrix(0,1.25,1.25,0,658.76765,401.28244)"
         style="fill:none;stroke:#ffbf00;stroke-width:1.15199995"
         sodipodi:ry="1.584"
         sodipodi:rx="1.584"
         sodipodi:cy="11.52"
         sodipodi:cx="4.3200002"
         r="1.584"
         id="connector1pad-4-2-3-6"
         cy="11.52"
         cx="4.3200002" />
      <circle
         d="m 5.9040002,11.52 c 0,0.874819 -0.709181,1.584 -1.584,1.584 -0.8748191,0 -1.584,-0.709181 -1.584,-1.584 0,-0.874819 0.7091809,-1.5839995 1.584,-1.5839995 0.874819,0 1.584,0.7091805 1.584,1.5839995 z"
         transform="matrix(0,1.25,1.25,0,649.7678,401.28244)"
         style="fill:none;stroke:#ffbf00;stroke-width:1.15199995"
         sodipodi:ry="1.584"
         sodipodi:rx="1.584"
         sodipodi:cy="11.52"
         sodipodi:cx="4.3200002"
         r="1.584"
         id="connector1pad-0-1-9-9"
         cy="11.52"
         cx="4.3200002" />
      <circle
         d="m 5.9040002,11.52 c 0,0.874819 -0.709181,1.584 -1.584,1.584 -0.8748191,0 -1.584,-0.709181 -1.584,-1.584 0,-0.874819 0.7091809,-1.5839995 1.584,-1.5839995 0.874819,0 1.584,0.7091805 1.584,1.5839995 z"
         transform="matrix(0,1.25,1.25,0,640.76796,401.28244)"
         style="fill:none;stroke:#ffbf00;stroke-width:1.15199995"
         sodipodi:ry="1.584"
         sodipodi:rx="1.584"
         sodipodi:cy="11.52"
         sodipodi:cx="4.3200002"
         r="1.584"
         id="connector1pad-4-5-0-3-1"
         cy="11.52"
         cx="4.3200002" />
      <line
         style="fill:none;stroke:#ffffff;stroke-width:0.71999991;stroke-linecap:round"
         id="line72152"
         x2="670.93652"
         y2="402.22467"
         x1="668.68652"
         y1="404.47467" />
      <line
         style="fill:none;stroke:#ffffff;stroke-width:0.71999991;stroke-linecap:round"
         id="line72154"
         x2="675.43652"
         y2="402.22467"
         x1="670.93652"
         y1="402.22467" />
      <line
         style="fill:none;stroke:#ffffff;stroke-width:0.71999991;stroke-linecap:round"
         id="line72156"
         x2="677.68652"
         y2="404.47467"
         x1="675.43652"
         y1="402.22467" />
      <line
         style="fill:none;stroke:#ffffff;stroke-width:0.71999991;stroke-linecap:round"
         id="line72158"
         x2="675.43652"
         y2="411.22467"
         x1="677.68652"
         y1="408.97467" />
      <line
         style="fill:none;stroke:#ffffff;stroke-width:0.71999991;stroke-linecap:round"
         id="line72160"
         x2="670.93652"
         y2="411.22467"
         x1="675.43652"
         y1="411.22467" />
      <line
         style="fill:none;stroke:#ffffff;stroke-width:0.71999991;stroke-linecap:round"
         id="line72162"
         x2="668.68652"
         y2="408.97467"
         x1="670.93652"
         y1="411.22467" />
      <line
         style="fill:none;stroke:#ffffff;stroke-width:0.71999991;stroke-linecap:round"
         id="line72170"
         x2="657.43652"
         y2="402.22467"
         x1="652.93652"
         y1="402.22467" />
      <line
         style="fill:none;stroke:#ffffff;stroke-width:0.71999991;stroke-linecap:round"
         id="line72172"
         x2="659.68652"
         y2="404.47467"
         x1="657.43652"
         y1="402.22467" />
      <line
         style="fill:none;stroke:#ffffff;stroke-width:0.71999991;stroke-linecap:round"
         id="line72174"
         x2="657.43652"
         y2="411.22467"
         x1="659.68652"
         y1="408.97467" />
      <line
         style="fill:none;stroke:#ffffff;stroke-width:0.71999991;stroke-linecap:round"
         id="line72176"
         x2="661.93652"
         y2="402.22467"
         x1="659.68652"
         y1="404.47467" />
      <line
         style="fill:none;stroke:#ffffff;stroke-width:0.71999991;stroke-linecap:round"
         id="line72178"
         x2="666.43652"
         y2="402.22467"
         x1="661.93652"
         y1="402.22467" />
      <line
         style="fill:none;stroke:#ffffff;stroke-width:0.71999991;stroke-linecap:round"
         id="line72180"
         x2="668.68652"
         y2="404.47467"
         x1="666.43652"
         y1="402.22467" />
      <line
         style="fill:none;stroke:#ffffff;stroke-width:0.71999991;stroke-linecap:round"
         id="line72182"
         x2="666.43652"
         y2="411.22467"
         x1="668.68652"
         y1="408.97467" />
      <line
         style="fill:none;stroke:#ffffff;stroke-width:0.71999991;stroke-linecap:round"
         id="line72184"
         x2="661.93652"
         y2="411.22467"
         x1="666.43652"
         y1="411.22467" />
      <line
         style="fill:none;stroke:#ffffff;stroke-width:0.71999991;stroke-linecap:round"
         id="line72186"
         x2="659.68652"
         y2="408.97467"
         x1="661.93652"
         y1="411.22467" />
      <line
         style="fill:none;stroke:#ffffff;stroke-width:0.71999991;stroke-linecap:round"
         id="line72188"
         x2="650.68652"
         y2="408.97467"
         x1="650.68652"
         y1="404.47467" />
      <line
         style="fill:none;stroke:#ffffff;stroke-width:0.71999991;stroke-linecap:round"
         id="line72190"
         x2="650.68652"
         y2="404.47467"
         x1="652.93652"
         y1="402.22467" />
      <line
         style="fill:none;stroke:#ffffff;stroke-width:0.71999991;stroke-linecap:round"
         id="line72192"
         x2="652.93652"
         y2="411.22467"
         x1="650.68652"
         y1="408.97467" />
      <line
         style="fill:none;stroke:#ffffff;stroke-width:0.71999991;stroke-linecap:round"
         id="line72194"
         x2="652.93652"
         y2="411.22467"
         x1="657.43652"
         y1="411.22467" />
      <line
         style="fill:none;stroke:#ffffff;stroke-width:0.71999991;stroke-linecap:round"
         id="line72188-4"
         x2="677.6861"
         y2="408.99841"
         x1="677.6861"
         y1="404.49841" />
    </g>
    <text
       xml:space="preserve"
       style="font-size:40px;font-style:normal;font-weight:normal;line-height:125%;letter-spacing:1.95000017px;word-spacing:0px;fill:#000000;fill-opacity:1;stroke:none;font-family:Sans"
       x="349.00635"
       y="-536.24695"
       id="text10187"
       sodipodi:linespacing="125%"
       transform="matrix(0.26817824,1.0073435,-0.96336932,0.11021089,0,0)"><tspan
         sodipodi:role="line"
         id="tspan10189"
         x="349.00635"
         y="-536.24695"
         style="font-size:4px;font-style:normal;font-variant:normal;font-weight:normal;font-stretch:normal;letter-spacing:1.16999996px;fill:#ffffff;font-family:OCRA;-inkscape-font-specification:OCRA">3 2 1</tspan></text>
  </g>
</svg>
