<?xml version="1.0" encoding="UTF-8" standalone="no"?>
<!-- Created with Inkscape (http://www.inkscape.org/) -->

<svg
   xmlns:dc="http://purl.org/dc/elements/1.1/"
   xmlns:cc="http://creativecommons.org/ns#"
   xmlns:rdf="http://www.w3.org/1999/02/22-rdf-syntax-ns#"
   xmlns:svg="http://www.w3.org/2000/svg"
   xmlns="http://www.w3.org/2000/svg"
   xmlns:sodipodi="http://sodipodi.sourceforge.net/DTD/sodipodi-0.dtd"
   xmlns:inkscape="http://www.inkscape.org/namespaces/inkscape"
   width="321.97897"
   height="177.16536"
   id="svg9014"
   version="1.1"
   inkscape:version="0.48.1 "
   sodipodi:docname="Spkr.svg">
  <defs
     id="defs9016" />
  <sodipodi:namedview
     id="base"
     pagecolor="#ffffff"
     bordercolor="#666666"
     borderopacity="1.0"
     inkscape:pageopacity="0.0"
     inkscape:pageshadow="2"
     inkscape:zoom="1.4"
     inkscape:cx="104.83909"
     inkscape:cy="54.296966"
     inkscape:document-units="px"
     inkscape:current-layer="layer1"
     showgrid="false"
     inkscape:window-width="1600"
     inkscape:window-height="838"
     inkscape:window-x="-8"
     inkscape:window-y="-8"
     inkscape:window-maximized="1"
     fit-margin-top="0"
     fit-margin-left="0"
     fit-margin-right="0"
     fit-margin-bottom="0" />
  <metadata
     id="metadata9019">
    <rdf:RDF>
      <cc:Work
         rdf:about="">
        <dc:format>image/svg+xml</dc:format>
        <dc:type
           rdf:resource="http://purl.org/dc/dcmitype/StillImage" />
        <dc:title />
      </cc:Work>
    </rdf:RDF>
  </metadata>
  <g
     inkscape:label="Layer 1"
     inkscape:groupmode="layer"
     id="layer1"
     transform="translate(135.27073,-323.77951)">
    <g
       id="g3004">
      <g
         inkscape:export-ydpi="90"
         inkscape:export-xdpi="90"
         id="g8973"
         transform="translate(-428.65721,-100.17155)">
        <g
           id="g8934">
          <path
             sodipodi:nodetypes="ccccccccccccccc"
             inkscape:connector-curvature="0"
             id="path8914"
             d="m 466.94302,505.86965 23.73858,-11.11167 3.53553,-2.02031 14.14214,-5.55584 9.09137,-1.01015 16.16244,6.06091 12.12183,8.08122 14.64721,14.14214 10.10153,11.11168 11.11168,14.14213 6.06091,13.13199 6.06092,15.15229 8.08122,8.58629 9.59645,4.04061 0,0"
             style="fill:none;stroke:#000000;stroke-width:3;stroke-linecap:butt;stroke-linejoin:miter;stroke-opacity:1" />
          <path
             sodipodi:nodetypes="cccccccccccccc"
             inkscape:connector-curvature="0"
             id="path8914-0"
             d="m 466.69048,508.9001 23.73858,-11.11167 3.53553,-2.02031 14.14214,-5.55584 9.09137,-1.01015 16.16244,6.06091 10.85914,7.57614 16.16244,15.90991 9.34391,10.6066 9.34392,11.86929 7.3236,15.40483 5.05076,13.13199 9.09138,9.84898 3.28299,9.34391"
             style="fill:none;stroke:#d00000;stroke-width:3;stroke-linecap:butt;stroke-linejoin:miter;stroke-opacity:1" />
          <g
             id="g8904">
            <path
               sodipodi:type="arc"
               style="fill:#000000;fill-opacity:1;stroke:none"
               id="path8737"
               sodipodi:cx="468.07944"
               sodipodi:cy="466.97879"
               sodipodi:rx="45.078056"
               sodipodi:ry="32.072342"
               d="m 469.62757,499.03221 c -24.88123,0.60833 -45.74458,-13.24933 -46.5996,-30.95194 -0.85501,-17.70262 18.62209,-32.54657 43.50333,-33.1549 24.88124,-0.60833 45.74459,13.24933 46.5996,30.95194 0.85454,17.69277 -18.60117,32.53212 -43.46788,33.15403"
               sodipodi:start="1.5364461"
               sodipodi:end="7.8188447"
               sodipodi:open="true"
               transform="matrix(1.9650729,0,0,2.7619332,-537.84106,-777.23049)" />
            <path
               sodipodi:type="arc"
               style="fill:#1a1a1a;fill-opacity:1;stroke:none"
               id="path8737-3"
               sodipodi:cx="468.07944"
               sodipodi:cy="466.97879"
               sodipodi:rx="45.078056"
               sodipodi:ry="32.072342"
               d="m 469.62757,499.03221 c -24.88123,0.60833 -45.74458,-13.24933 -46.5996,-30.95194 -0.85501,-17.70262 18.62209,-32.54657 43.50333,-33.1549 24.88124,-0.60833 45.74459,13.24933 46.5996,30.95194 0.85454,17.69277 -18.60117,32.53212 -43.46788,33.15403"
               sodipodi:start="1.5364461"
               sodipodi:end="7.8188447"
               sodipodi:open="true"
               transform="matrix(1.7642426,0,0,2.4796636,-443.83653,-645.41657)" />
            <path
               sodipodi:type="arc"
               style="fill:#333333;fill-opacity:1;stroke:none"
               id="path8737-3-0"
               sodipodi:cx="468.07944"
               sodipodi:cy="466.97879"
               sodipodi:rx="45.078056"
               sodipodi:ry="32.072342"
               d="m 469.62757,499.03221 c -24.88123,0.60833 -45.74458,-13.24933 -46.5996,-30.95194 -0.85501,-17.70262 18.62209,-32.54657 43.50333,-33.1549 24.88124,-0.60833 45.74459,13.24933 46.5996,30.95194 0.85454,17.69277 -18.60117,32.53212 -43.46788,33.15403"
               sodipodi:start="1.5364461"
               sodipodi:end="7.8188447"
               sodipodi:open="true"
               transform="matrix(1.5795262,0,0,2.2200419,-357.37458,-524.17875)" />
            <path
               sodipodi:type="arc"
               style="fill:#4d4d4d;fill-opacity:1;stroke:none"
               id="path8737-3-1"
               sodipodi:cx="468.07944"
               sodipodi:cy="466.97879"
               sodipodi:rx="45.078056"
               sodipodi:ry="32.072342"
               d="m 469.62757,499.03221 c -24.88123,0.60833 -45.74458,-13.24933 -46.5996,-30.95194 -0.85501,-17.70262 18.62209,-32.54657 43.50333,-33.1549 24.88124,-0.60833 45.74459,13.24933 46.5996,30.95194 0.85454,17.69277 -18.60117,32.53212 -43.46788,33.15403"
               sodipodi:start="1.5364461"
               sodipodi:end="7.8188447"
               sodipodi:open="true"
               transform="matrix(1.4679096,0,0,2.0631641,-305.12914,-450.92014)" />
            <path
               sodipodi:type="arc"
               style="fill:#1a1a1a;fill-opacity:0.2142857;stroke:none"
               id="path8782-0"
               sodipodi:cx="486.96429"
               sodipodi:cy="430.93359"
               sodipodi:rx="28.75"
               sodipodi:ry="27.857143"
               d="m 487.95167,458.7743 c -15.86882,0.52838 -29.1751,-11.508 -29.72042,-26.884 -0.54531,-15.37599 11.87685,-28.26904 27.74567,-28.79742 15.86882,-0.52837 29.1751,11.508 29.72041,26.884 0.54501,15.36745 -11.8635,28.25649 -27.72306,28.79666"
               sodipodi:start="1.5364461"
               sodipodi:end="7.8188447"
               sodipodi:open="true"
               transform="matrix(0.94589814,0,0,0.97621536,-77.518266,92.761804)" />
            <path
               sodipodi:type="arc"
               style="fill:#1a1a1a;fill-opacity:1;stroke:none"
               id="path8782"
               sodipodi:cx="486.96429"
               sodipodi:cy="430.93359"
               sodipodi:rx="28.75"
               sodipodi:ry="27.857143"
               d="m 487.95167,458.7743 c -15.86882,0.52838 -29.1751,-11.508 -29.72042,-26.884 -0.54531,-15.37599 11.87685,-28.26904 27.74567,-28.79742 15.86882,-0.52837 29.1751,11.508 29.72041,26.884 0.54501,15.36745 -11.8635,28.25649 -27.72306,28.79666"
               sodipodi:start="1.5364461"
               sodipodi:end="7.8188447"
               sodipodi:open="true"
               transform="matrix(0.94589814,0,0,0.97621536,-78.649464,91.849744)" />
            <path
               sodipodi:type="arc"
               style="fill:#333333;fill-opacity:1;stroke:none"
               id="path8782-4"
               sodipodi:cx="486.96429"
               sodipodi:cy="430.93359"
               sodipodi:rx="28.75"
               sodipodi:ry="27.857143"
               d="m 487.95167,458.7743 c -15.86882,0.52838 -29.1751,-11.508 -29.72042,-26.884 -0.54531,-15.37599 11.87685,-28.26904 27.74567,-28.79742 15.86882,-0.52837 29.1751,11.508 29.72041,26.884 0.54501,15.36745 -11.8635,28.25649 -27.72306,28.79666"
               sodipodi:start="1.5364461"
               sodipodi:end="7.8188447"
               sodipodi:open="true"
               transform="matrix(0.73823191,0,0,0.76189316,22.47658,184.20838)" />
            <path
               sodipodi:type="arc"
               style="fill:#1a1a1a;fill-opacity:1;stroke:none"
               id="path8782-4-7"
               sodipodi:cx="486.96429"
               sodipodi:cy="430.93359"
               sodipodi:rx="28.75"
               sodipodi:ry="27.857143"
               d="m 487.95167,458.7743 c -15.86882,0.52838 -29.1751,-11.508 -29.72042,-26.884 -0.54531,-15.37599 11.87685,-28.26904 27.74567,-28.79742 15.86882,-0.52837 29.1751,11.508 29.72041,26.884 0.54501,15.36745 -11.8635,28.25649 -27.72306,28.79666"
               sodipodi:start="1.5364461"
               sodipodi:end="7.8188447"
               sodipodi:open="true"
               transform="matrix(0.23539615,0,0,0.24294089,267.33964,407.84234)" />
          </g>
        </g>
        <circle
           style="fill:none;stroke:#ffbf00;stroke-width:1.05988002;stroke-opacity:1"
           sodipodi:ry="1.5220701"
           sodipodi:rx="1.5220701"
           sodipodi:cy="28.034599"
           sodipodi:cx="17.007799"
           d="m 18.529869,28.034599 c 0,0.840616 -0.681454,1.52207 -1.52207,1.52207 -0.840616,0 -1.52207,-0.681454 -1.52207,-1.52207 0,-0.840616 0.681454,-1.52207 1.52207,-1.52207 0.840616,0 1.52207,0.681454 1.52207,1.52207 z"
           id="circle18149-1"
           r="1.5220701"
           connectorname="GND"
           cy="28.034599"
           cx="17.007799"
           transform="matrix(0,-1.2499988,1.2499988,0,577.74829,602.76459)" />
        <circle
           style="fill:none;stroke:#ffbf00;stroke-width:1.05988002;stroke-opacity:1"
           sodipodi:ry="1.5220701"
           sodipodi:rx="1.5220701"
           sodipodi:cy="22.3654"
           sodipodi:cx="17.007799"
           d="m 18.529869,22.3654 c 0,0.840616 -0.681454,1.52207 -1.52207,1.52207 -0.840616,0 -1.52207,-0.681454 -1.52207,-1.52207 0,-0.840616 0.681454,-1.52207 1.52207,-1.52207 0.840616,0 1.52207,0.681454 1.52207,1.52207 z"
           id="circle18151-5"
           r="1.5220701"
           connectorname="VBAT"
           cy="22.3654"
           cx="17.007799"
           transform="matrix(0,-1.2499988,1.2499988,0,576.16992,611.47715)" />
      </g>
      <path
         id="tspan9117-2"
         d="m -41.632338,461.3377 c -1.16957,1e-5 -2.13611,0.35778 -2.90625,1.03125 -0.77014,0.67349 -1.15625,1.50275 -1.15625,2.53125 l 0,1 0,4.46875 0,0.8125 c 0,0.85638 -0.43054,1.28125 -1.25,1.28125 -0.34145,0 -0.6303,-0.0714 -0.875,-0.25 -0.2447,-0.17859 -0.375,-0.40665 -0.375,-0.65625 0,-0.2582 0.13883,-0.47335 0.375,-0.65625 0.23616,-0.18289 0.51369,-0.28125 0.84375,-0.28125 0.26177,0 0.51947,0.0638 0.78125,0.21875 l 0,-2.65625 c -0.38128,-0.0258 -0.65596,-0.0312 -0.84375,-0.0312 -1.18367,10e-6 -2.22876,0.33728 -3.09375,1 -0.86499,0.66273 -1.28125,1.43574 -1.28125,2.34375 0,0.93814 0.44182,1.72949 1.3125,2.375 0.87068,0.64551 1.91847,0.96875 3.1875,0.96875 0.63736,0 1.26893,-0.10163 1.875,-0.3125 0.60606,-0.21087 1.10733,-0.48657 1.5,-0.84375 0.68288,-0.61969 1.03124,-1.42077 1.03125,-2.40625 l 0,-0.90625 0,-2.28125 1.625001,0 0,-2.375 -1.625001,0 0,-1.09375 c 0,-0.55943 0.22795,-0.84374 0.71875,-0.84375 0.37071,10e-6 0.63505,0.16434 0.781251,0.5 l 2.59375,-1.5625 c -0.86674,-0.91661 -1.9291,-1.37499 -3.218751,-1.375 z"
         style="font-size:15.2023344px;font-style:normal;font-variant:normal;font-weight:normal;font-stretch:normal;line-height:125%;letter-spacing:0px;word-spacing:0px;fill:#ffffff;fill-opacity:1;stroke:none;font-family:Bauhaus 93;-inkscape-font-specification:Bauhaus 93"
         inkscape:connector-curvature="0" />
    </g>
  </g>
</svg>
