<?xml version="1.0" encoding="UTF-8" standalone="no"?>
<!-- Created with Inkscape (http://www.inkscape.org/) -->

<svg
   xmlns:dc="http://purl.org/dc/elements/1.1/"
   xmlns:cc="http://creativecommons.org/ns#"
   xmlns:rdf="http://www.w3.org/1999/02/22-rdf-syntax-ns#"
   xmlns:svg="http://www.w3.org/2000/svg"
   xmlns="http://www.w3.org/2000/svg"
   xmlns:sodipodi="http://sodipodi.sourceforge.net/DTD/sodipodi-0.dtd"
   xmlns:inkscape="http://www.inkscape.org/namespaces/inkscape"
   width="744.09448819"
   height="1052.3622047"
   id="svg2"
   version="1.1"
   inkscape:version="0.48.1 "
   sodipodi:docname="DFR0094.svg">
  <defs
     id="defs4">
    <filter
       color-interpolation-filters="sRGB"
       inkscape:collect="always"
       id="filter12563"
       x="-0.14180695"
       width="1.2836139"
       y="-0.67267394"
       height="2.3453479">
      <feGaussianBlur
         inkscape:collect="always"
         stdDeviation="1.3802411"
         id="feGaussianBlur12565" />
    </filter>
  </defs>
  <sodipodi:namedview
     id="base"
     pagecolor="#ffffff"
     bordercolor="#666666"
     borderopacity="1.0"
     inkscape:pageopacity="0.0"
     inkscape:pageshadow="2"
     inkscape:zoom="2.8"
     inkscape:cx="-6430.1144"
     inkscape:cy="536.82149"
     inkscape:document-units="px"
     inkscape:current-layer="layer1"
     showgrid="false"
     inkscape:window-width="944"
     inkscape:window-height="1001"
     inkscape:window-x="960"
     inkscape:window-y="0"
     inkscape:window-maximized="1" />
  <metadata
     id="metadata7">
    <rdf:RDF>
      <cc:Work
         rdf:about="">
        <dc:format>image/svg+xml</dc:format>
        <dc:type
           rdf:resource="http://purl.org/dc/dcmitype/StillImage" />
        <dc:title></dc:title>
      </cc:Work>
    </rdf:RDF>
  </metadata>
  <g
     inkscape:label="Layer 1"
     inkscape:groupmode="layer"
     id="layer1">
    <g
       id="g16027"
       inkscape:export-filename="C:\Users\静\Desktop\中级套件连线图\项目 9\DFR0094.png"
       inkscape:export-xdpi="900"
       inkscape:export-ydpi="900"
       transform="translate(-6997.5,-30.357143)">
      <path
         id="rect30813"
         d="m 496.38551,539.30598 c 0,7.54972 6.07528,13.625 13.625,13.625 l 79.03125,0 c 7.54972,0 13.625,-6.07528 13.625,-13.625 l 0,-50.6875 c 0,-7.54972 -6.07528,-13.65625 -13.625,-13.65625 l -79.03125,0 c -7.54972,0 -13.625,6.10653 -13.625,13.65625 l 0,50.6875 z m 6.4375,-52.28125 c 0,-3.22891 2.61484,-5.84375 5.84375,-5.84375 3.22891,0 5.84375,2.61484 5.84375,5.84375 0,3.22891 -2.61484,5.84375 -5.84375,5.84375 -3.22891,0 -5.84375,-2.61484 -5.84375,-5.84375 z"
         style="fill:#000000;fill-opacity:1;stroke:#00ffff;stroke-width:0;stroke-linecap:round;stroke-linejoin:round;stroke-miterlimit:4;stroke-opacity:1;stroke-dasharray:none;stroke-dashoffset:0"
         inkscape:connector-curvature="0" />
      <rect
         transform="matrix(0,-1,1,0,0,0)"
         ry="0"
         y="580.76093"
         x="-530.97333"
         height="21.995691"
         width="34.564659"
         id="rect32255"
         style="fill:#fff6d5;fill-opacity:1;stroke:#00ffff;stroke-width:0;stroke-linecap:round;stroke-linejoin:round;stroke-miterlimit:4;stroke-opacity:1;stroke-dasharray:none;stroke-dashoffset:0" />
      <rect
         transform="matrix(0,-1,1,0,0,0)"
         y="574.93878"
         x="-530.875"
         height="6.0749998"
         width="2.4090517"
         id="rect32626"
         style="fill:#fff6d5;fill-opacity:1;stroke:#fff6d5;stroke-width:0;stroke-linecap:round;stroke-linejoin:round;stroke-miterlimit:4;stroke-opacity:1;stroke-dasharray:none;stroke-dashoffset:0" />
      <rect
         transform="matrix(0,-1,1,0,0,0)"
         style="fill:#fff6d5;fill-opacity:1;stroke:#fff6d5;stroke-width:0;stroke-linecap:round;stroke-linejoin:round;stroke-miterlimit:4;stroke-opacity:1;stroke-dasharray:none;stroke-dashoffset:0"
         id="rect33035"
         width="2.4090517"
         height="6.0749998"
         x="-498.95374"
         y="574.93878" />
      <rect
         transform="matrix(0,-1,1,0,0,0)"
         y="586.48212"
         x="-504.00562"
         height="9.2150612"
         width="3.0311463"
         id="rect32477"
         style="fill:#999999;fill-opacity:1;stroke:#00ffff;stroke-width:0;stroke-linecap:round;stroke-linejoin:round;stroke-miterlimit:4;stroke-opacity:1;stroke-dasharray:none;stroke-dashoffset:0" />
      <rect
         transform="matrix(0,-1,1,0,0,0)"
         y="580.82135"
         x="-504.02954"
         height="5.6475472"
         width="3.5180087"
         id="rect32661"
         style="opacity:0.76605506;fill:#ffeeaa;fill-opacity:1;stroke:#ffeeaa;stroke-width:0;stroke-linecap:round;stroke-linejoin:round;stroke-miterlimit:4;stroke-opacity:1;stroke-dasharray:none;stroke-dashoffset:0" />
      <path
         inkscape:connector-curvature="0"
         id="rect33259"
         d="m 585.09237,502.107 1.389,0 0,-1.09375 9.2391,0 0,-0.5 -10.6281,0 0,1.59375 z"
         style="fill:#b3b3b3;fill-opacity:1;stroke:#000000;stroke-width:0;stroke-linecap:round;stroke-linejoin:round;stroke-miterlimit:4;stroke-opacity:1;stroke-dasharray:none;stroke-dashoffset:0" />
      <rect
         transform="matrix(0,1,1,0,0,0)"
         style="fill:#999999;fill-opacity:1;stroke:#00ffff;stroke-width:0;stroke-linecap:round;stroke-linejoin:round;stroke-miterlimit:4;stroke-opacity:1;stroke-dasharray:none;stroke-dashoffset:0"
         id="rect33559"
         width="3.0311463"
         height="9.2150612"
         x="523.26947"
         y="586.4527" />
      <rect
         transform="matrix(0,1,1,0,0,0)"
         style="opacity:0.76605506;fill:#ffeeaa;fill-opacity:1;stroke:#ffeeaa;stroke-width:0;stroke-linecap:round;stroke-linejoin:round;stroke-miterlimit:4;stroke-opacity:1;stroke-dasharray:none;stroke-dashoffset:0"
         id="rect33561"
         width="3.5180087"
         height="5.6475472"
         x="523.24554"
         y="580.79193" />
      <path
         style="fill:#b3b3b3;fill-opacity:1;stroke:#000000;stroke-width:0;stroke-linecap:round;stroke-linejoin:round;stroke-miterlimit:4;stroke-opacity:1;stroke-dasharray:none;stroke-dashoffset:0"
         d="m 585.06291,525.16802 1.389,0 0,1.09375 9.2391,0 0,0.5 -10.6281,0 0,-1.59375 z"
         id="path33563"
         inkscape:connector-curvature="0" />
      <rect
         transform="matrix(0,-1,1,0,0,0)"
         style="fill:#ececec;fill-opacity:1;stroke:#000000;stroke-width:0;stroke-linecap:round;stroke-linejoin:round;stroke-miterlimit:4;stroke-opacity:1;stroke-dasharray:none;stroke-dashoffset:0"
         id="rect33647"
         width="1.9887378"
         height="6.2313786"
         x="-522.15594"
         y="572.24414"
         ry="0.99436891"
         rx="0.99436891" />
      <rect
         transform="matrix(0,-1,1,0,0,0)"
         y="577.52539"
         x="-522.15594"
         height="3.2703688"
         width="1.9887378"
         id="rect33634"
         style="fill:#b3b3b3;fill-opacity:1;stroke:#000000;stroke-width:0;stroke-linecap:round;stroke-linejoin:round;stroke-miterlimit:4;stroke-opacity:1;stroke-dasharray:none;stroke-dashoffset:0" />
      <rect
         transform="matrix(0,-1,1,0,0,0)"
         ry="0.99436891"
         y="572.24414"
         x="-514.28937"
         height="6.2313786"
         width="1.9887378"
         id="rect36702"
         style="fill:#ececec;fill-opacity:1;stroke:#000000;stroke-width:0;stroke-linecap:round;stroke-linejoin:round;stroke-miterlimit:4;stroke-opacity:1;stroke-dasharray:none;stroke-dashoffset:0"
         rx="0.99436891" />
      <rect
         transform="matrix(0,-1,1,0,0,0)"
         style="fill:#b3b3b3;fill-opacity:1;stroke:#000000;stroke-width:0;stroke-linecap:round;stroke-linejoin:round;stroke-miterlimit:4;stroke-opacity:1;stroke-dasharray:none;stroke-dashoffset:0"
         id="rect36704"
         width="1.9887378"
         height="3.2703688"
         x="-514.28937"
         y="577.52539" />
      <rect
         transform="matrix(0,-1,1,0,0,0)"
         style="fill:#ececec;fill-opacity:1;stroke:#000000;stroke-width:0;stroke-linecap:round;stroke-linejoin:round;stroke-miterlimit:4;stroke-opacity:1;stroke-dasharray:none;stroke-dashoffset:0"
         id="rect36721"
         width="1.9887378"
         height="6.2313786"
         x="-506.55548"
         y="572.24414"
         ry="0.99436891"
         rx="0.99436891" />
      <rect
         transform="matrix(0,-1,1,0,0,0)"
         y="577.52539"
         x="-506.55548"
         height="3.2703688"
         width="1.9887378"
         id="rect36723"
         style="fill:#b3b3b3;fill-opacity:1;stroke:#000000;stroke-width:0;stroke-linecap:round;stroke-linejoin:round;stroke-miterlimit:4;stroke-opacity:1;stroke-dasharray:none;stroke-dashoffset:0" />
      <path
         transform="matrix(0,-4.6903027,4.7116033,0,-923.92811,3061.5561)"
         sodipodi:open="true"
         sodipodi:end="7.8188447"
         sodipodi:start="1.5364461"
         d="m 548.82068,306.41594 c -1.30758,0.0449 -2.404,-0.97864 -2.44893,-2.28621 -0.0449,-1.30757 0.97864,-2.404 2.28621,-2.44893 1.30757,-0.0449 2.404,0.97864 2.44893,2.28621 0.0449,1.30685 -0.97754,2.40293 -2.28435,2.44887"
         sodipodi:ry="2.3689687"
         sodipodi:rx="2.3689687"
         sodipodi:cy="304.04837"
         sodipodi:cx="548.73932"
         id="path90890-3"
         style="color:#000000;fill:#d99c43;fill-opacity:1;fill-rule:nonzero;stroke:none;stroke-width:1.20947742;marker:none;visibility:visible;display:inline;overflow:visible;enable-background:accumulate"
         sodipodi:type="arc" />
      <path
         transform="matrix(0,-5.5204178,5.2263125,0,-1081.244,3515.7842)"
         sodipodi:open="true"
         sodipodi:end="7.8188447"
         sodipodi:start="1.5364461"
         d="m 548.56337,305.41161 c -0.63397,0.0231 -1.16557,-0.50414 -1.18736,-1.17774 -0.0218,-0.6736 0.47449,-1.23842 1.10847,-1.26157 0.63397,-0.0232 1.16557,0.50415 1.18736,1.17774 0.0218,0.67323 -0.47396,1.23788 -1.10756,1.26154"
         sodipodi:ry="1.2203778"
         sodipodi:rx="1.1485909"
         sodipodi:cy="304.19196"
         sodipodi:cx="548.52393"
         id="path90925-8"
         style="color:#000000;fill:#ffffff;fill-opacity:1;fill-rule:nonzero;stroke:none;stroke-width:1.20000005;marker:none;visibility:visible;display:inline;overflow:visible;enable-background:accumulate"
         sodipodi:type="arc" />
      <path
         transform="matrix(0,-4.1281701,3.6177922,0,-592.71416,2751.3943)"
         sodipodi:open="true"
         sodipodi:end="7.8188447"
         sodipodi:start="1.5364461"
         d="m 549.25168,302.52271 c -0.15849,0.006 -0.29139,-0.13716 -0.29684,-0.32042 -0.005,-0.18326 0.11863,-0.33692 0.27712,-0.34322 0.15849,-0.006 0.29139,0.13716 0.29684,0.32041 0.005,0.18316 -0.11849,0.33678 -0.27689,0.34322"
         sodipodi:ry="0.33201456"
         sodipodi:rx="0.28714773"
         sodipodi:cy="302.19089"
         sodipodi:cx="549.24182"
         id="path91527-2"
         style="color:#000000;fill:#ffffff;fill-opacity:1;fill-rule:nonzero;stroke:none;stroke-width:1.20000005;marker:none;visibility:visible;display:inline;overflow:visible;enable-background:accumulate"
         sodipodi:type="arc" />
      <path
         transform="matrix(0,-4.1281701,3.6177922,0,-587.81215,2746.7844)"
         sodipodi:open="true"
         sodipodi:end="7.8188447"
         sodipodi:start="1.5364461"
         d="m 549.25168,302.52271 c -0.15849,0.006 -0.29139,-0.13716 -0.29684,-0.32042 -0.005,-0.18326 0.11863,-0.33692 0.27712,-0.34322 0.15849,-0.006 0.29139,0.13716 0.29684,0.32041 0.005,0.18316 -0.11849,0.33678 -0.27689,0.34322"
         sodipodi:ry="0.33201456"
         sodipodi:rx="0.28714773"
         sodipodi:cy="302.19089"
         sodipodi:cx="549.24182"
         id="path91527-7-3"
         style="color:#000000;fill:#ffffff;fill-opacity:1;fill-rule:nonzero;stroke:none;stroke-width:1.20000005;marker:none;visibility:visible;display:inline;overflow:visible;enable-background:accumulate"
         sodipodi:type="arc" />
      <path
         transform="matrix(0,-4.1281701,3.6177922,0,-581.83882,2746.7844)"
         sodipodi:open="true"
         sodipodi:end="7.8188447"
         sodipodi:start="1.5364461"
         d="m 549.25168,302.52271 c -0.15849,0.006 -0.29139,-0.13716 -0.29684,-0.32042 -0.005,-0.18326 0.11863,-0.33692 0.27712,-0.34322 0.15849,-0.006 0.29139,0.13716 0.29684,0.32041 0.005,0.18316 -0.11849,0.33678 -0.27689,0.34322"
         sodipodi:ry="0.33201456"
         sodipodi:rx="0.28714773"
         sodipodi:cy="302.19089"
         sodipodi:cx="549.24182"
         id="path91527-7-4-2"
         style="color:#000000;fill:#ffffff;fill-opacity:1;fill-rule:nonzero;stroke:none;stroke-width:1.20000005;marker:none;visibility:visible;display:inline;overflow:visible;enable-background:accumulate"
         sodipodi:type="arc" />
      <path
         transform="matrix(0,-4.1281701,3.6177922,0,-576.77447,2758.8359)"
         sodipodi:open="true"
         sodipodi:end="7.8188447"
         sodipodi:start="1.5364461"
         d="m 549.25168,302.52271 c -0.15849,0.006 -0.29139,-0.13716 -0.29684,-0.32042 -0.005,-0.18326 0.11863,-0.33692 0.27712,-0.34322 0.15849,-0.006 0.29139,0.13716 0.29684,0.32041 0.005,0.18316 -0.11849,0.33678 -0.27689,0.34322"
         sodipodi:ry="0.33201456"
         sodipodi:rx="0.28714773"
         sodipodi:cy="302.19089"
         sodipodi:cx="549.24182"
         id="path91527-7-9-1"
         style="color:#000000;fill:#ffffff;fill-opacity:1;fill-rule:nonzero;stroke:none;stroke-width:1.20000005;marker:none;visibility:visible;display:inline;overflow:visible;enable-background:accumulate"
         sodipodi:type="arc" />
      <path
         transform="matrix(0,-4.1281701,3.6177922,0,-576.77447,2751.3943)"
         sodipodi:open="true"
         sodipodi:end="7.8188447"
         sodipodi:start="1.5364461"
         d="m 549.25168,302.52271 c -0.15849,0.006 -0.29139,-0.13716 -0.29684,-0.32042 -0.005,-0.18326 0.11863,-0.33692 0.27712,-0.34322 0.15849,-0.006 0.29139,0.13716 0.29684,0.32041 0.005,0.18316 -0.11849,0.33678 -0.27689,0.34322"
         sodipodi:ry="0.33201456"
         sodipodi:rx="0.28714773"
         sodipodi:cy="302.19089"
         sodipodi:cx="549.24182"
         id="path91527-7-0-04"
         style="color:#000000;fill:#ffffff;fill-opacity:1;fill-rule:nonzero;stroke:none;stroke-width:1.20000005;marker:none;visibility:visible;display:inline;overflow:visible;enable-background:accumulate"
         sodipodi:type="arc" />
      <path
         transform="matrix(0,-4.1281701,3.6177922,0,-581.83882,2763.4458)"
         sodipodi:open="true"
         sodipodi:end="7.8188447"
         sodipodi:start="1.5364461"
         d="m 549.25168,302.52271 c -0.15849,0.006 -0.29139,-0.13716 -0.29684,-0.32042 -0.005,-0.18326 0.11863,-0.33692 0.27712,-0.34322 0.15849,-0.006 0.29139,0.13716 0.29684,0.32041 0.005,0.18316 -0.11849,0.33678 -0.27689,0.34322"
         sodipodi:ry="0.33201456"
         sodipodi:rx="0.28714773"
         sodipodi:cy="302.19089"
         sodipodi:cx="549.24182"
         id="path91527-7-48-0"
         style="color:#000000;fill:#ffffff;fill-opacity:1;fill-rule:nonzero;stroke:none;stroke-width:1.20000005;marker:none;visibility:visible;display:inline;overflow:visible;enable-background:accumulate"
         sodipodi:type="arc" />
      <path
         transform="matrix(0,-4.1281701,3.6177922,0,-587.81215,2763.4458)"
         sodipodi:open="true"
         sodipodi:end="7.8188447"
         sodipodi:start="1.5364461"
         d="m 549.25168,302.52271 c -0.15849,0.006 -0.29139,-0.13716 -0.29684,-0.32042 -0.005,-0.18326 0.11863,-0.33692 0.27712,-0.34322 0.15849,-0.006 0.29139,0.13716 0.29684,0.32041 0.005,0.18316 -0.11849,0.33678 -0.27689,0.34322"
         sodipodi:ry="0.33201456"
         sodipodi:rx="0.28714773"
         sodipodi:cy="302.19089"
         sodipodi:cx="549.24182"
         id="path91527-7-8-7"
         style="color:#000000;fill:#ffffff;fill-opacity:1;fill-rule:nonzero;stroke:none;stroke-width:1.20000005;marker:none;visibility:visible;display:inline;overflow:visible;enable-background:accumulate"
         sodipodi:type="arc" />
      <path
         transform="matrix(0,-4.1281701,3.6177922,0,-592.71416,2758.8359)"
         sodipodi:open="true"
         sodipodi:end="7.8188447"
         sodipodi:start="1.5364461"
         d="m 549.25168,302.52271 c -0.15849,0.006 -0.29139,-0.13716 -0.29684,-0.32042 -0.005,-0.18326 0.11863,-0.33692 0.27712,-0.34322 0.15849,-0.006 0.29139,0.13716 0.29684,0.32041 0.005,0.18316 -0.11849,0.33678 -0.27689,0.34322"
         sodipodi:ry="0.33201456"
         sodipodi:rx="0.28714773"
         sodipodi:cy="302.19089"
         sodipodi:cx="549.24182"
         id="path91527-7-2-59"
         style="color:#000000;fill:#ffffff;fill-opacity:1;fill-rule:nonzero;stroke:none;stroke-width:1.20000005;marker:none;visibility:visible;display:inline;overflow:visible;enable-background:accumulate"
         sodipodi:type="arc" />
      <path
         transform="matrix(0,-4.6903027,4.7116033,0,-923.57101,3113.3095)"
         sodipodi:open="true"
         sodipodi:end="7.8188447"
         sodipodi:start="1.5364461"
         d="m 548.82068,306.41594 c -1.30758,0.0449 -2.404,-0.97864 -2.44893,-2.28621 -0.0449,-1.30757 0.97864,-2.404 2.28621,-2.44893 1.30757,-0.0449 2.404,0.97864 2.44893,2.28621 0.0449,1.30685 -0.97754,2.40293 -2.28435,2.44887"
         sodipodi:ry="2.3689687"
         sodipodi:rx="2.3689687"
         sodipodi:cy="304.04837"
         sodipodi:cx="548.73932"
         id="path90890-3-0"
         style="color:#000000;fill:#d99c43;fill-opacity:1;fill-rule:nonzero;stroke:none;stroke-width:1.20947742;marker:none;visibility:visible;display:inline;overflow:visible;enable-background:accumulate"
         sodipodi:type="arc" />
      <path
         transform="matrix(0,-5.5204178,5.2263125,0,-1080.8868,3567.5376)"
         sodipodi:open="true"
         sodipodi:end="7.8188447"
         sodipodi:start="1.5364461"
         d="m 548.56337,305.41161 c -0.63397,0.0231 -1.16557,-0.50414 -1.18736,-1.17774 -0.0218,-0.6736 0.47449,-1.23842 1.10847,-1.26157 0.63397,-0.0232 1.16557,0.50415 1.18736,1.17774 0.0218,0.67323 -0.47396,1.23788 -1.10756,1.26154"
         sodipodi:ry="1.2203778"
         sodipodi:rx="1.1485909"
         sodipodi:cy="304.19196"
         sodipodi:cx="548.52393"
         id="path90925-8-9"
         style="color:#000000;fill:#ffffff;fill-opacity:1;fill-rule:nonzero;stroke:none;stroke-width:1.20000005;marker:none;visibility:visible;display:inline;overflow:visible;enable-background:accumulate"
         sodipodi:type="arc" />
      <path
         transform="matrix(0,-4.1281701,3.6177922,0,-592.35702,2803.1477)"
         sodipodi:open="true"
         sodipodi:end="7.8188447"
         sodipodi:start="1.5364461"
         d="m 549.25168,302.52271 c -0.15849,0.006 -0.29139,-0.13716 -0.29684,-0.32042 -0.005,-0.18326 0.11863,-0.33692 0.27712,-0.34322 0.15849,-0.006 0.29139,0.13716 0.29684,0.32041 0.005,0.18316 -0.11849,0.33678 -0.27689,0.34322"
         sodipodi:ry="0.33201456"
         sodipodi:rx="0.28714773"
         sodipodi:cy="302.19089"
         sodipodi:cx="549.24182"
         id="path91527-2-4"
         style="color:#000000;fill:#ffffff;fill-opacity:1;fill-rule:nonzero;stroke:none;stroke-width:1.20000005;marker:none;visibility:visible;display:inline;overflow:visible;enable-background:accumulate"
         sodipodi:type="arc" />
      <path
         transform="matrix(0,-4.1281701,3.6177922,0,-587.45501,2798.5378)"
         sodipodi:open="true"
         sodipodi:end="7.8188447"
         sodipodi:start="1.5364461"
         d="m 549.25168,302.52271 c -0.15849,0.006 -0.29139,-0.13716 -0.29684,-0.32042 -0.005,-0.18326 0.11863,-0.33692 0.27712,-0.34322 0.15849,-0.006 0.29139,0.13716 0.29684,0.32041 0.005,0.18316 -0.11849,0.33678 -0.27689,0.34322"
         sodipodi:ry="0.33201456"
         sodipodi:rx="0.28714773"
         sodipodi:cy="302.19089"
         sodipodi:cx="549.24182"
         id="path91527-7-3-8"
         style="color:#000000;fill:#ffffff;fill-opacity:1;fill-rule:nonzero;stroke:none;stroke-width:1.20000005;marker:none;visibility:visible;display:inline;overflow:visible;enable-background:accumulate"
         sodipodi:type="arc" />
      <path
         transform="matrix(0,-4.1281701,3.6177922,0,-581.48168,2798.5378)"
         sodipodi:open="true"
         sodipodi:end="7.8188447"
         sodipodi:start="1.5364461"
         d="m 549.25168,302.52271 c -0.15849,0.006 -0.29139,-0.13716 -0.29684,-0.32042 -0.005,-0.18326 0.11863,-0.33692 0.27712,-0.34322 0.15849,-0.006 0.29139,0.13716 0.29684,0.32041 0.005,0.18316 -0.11849,0.33678 -0.27689,0.34322"
         sodipodi:ry="0.33201456"
         sodipodi:rx="0.28714773"
         sodipodi:cy="302.19089"
         sodipodi:cx="549.24182"
         id="path91527-7-4-2-8"
         style="color:#000000;fill:#ffffff;fill-opacity:1;fill-rule:nonzero;stroke:none;stroke-width:1.20000005;marker:none;visibility:visible;display:inline;overflow:visible;enable-background:accumulate"
         sodipodi:type="arc" />
      <path
         transform="matrix(0,-4.1281701,3.6177922,0,-576.41733,2810.5893)"
         sodipodi:open="true"
         sodipodi:end="7.8188447"
         sodipodi:start="1.5364461"
         d="m 549.25168,302.52271 c -0.15849,0.006 -0.29139,-0.13716 -0.29684,-0.32042 -0.005,-0.18326 0.11863,-0.33692 0.27712,-0.34322 0.15849,-0.006 0.29139,0.13716 0.29684,0.32041 0.005,0.18316 -0.11849,0.33678 -0.27689,0.34322"
         sodipodi:ry="0.33201456"
         sodipodi:rx="0.28714773"
         sodipodi:cy="302.19089"
         sodipodi:cx="549.24182"
         id="path91527-7-9-1-2"
         style="color:#000000;fill:#ffffff;fill-opacity:1;fill-rule:nonzero;stroke:none;stroke-width:1.20000005;marker:none;visibility:visible;display:inline;overflow:visible;enable-background:accumulate"
         sodipodi:type="arc" />
      <path
         transform="matrix(0,-4.1281701,3.6177922,0,-576.41733,2803.1477)"
         sodipodi:open="true"
         sodipodi:end="7.8188447"
         sodipodi:start="1.5364461"
         d="m 549.25168,302.52271 c -0.15849,0.006 -0.29139,-0.13716 -0.29684,-0.32042 -0.005,-0.18326 0.11863,-0.33692 0.27712,-0.34322 0.15849,-0.006 0.29139,0.13716 0.29684,0.32041 0.005,0.18316 -0.11849,0.33678 -0.27689,0.34322"
         sodipodi:ry="0.33201456"
         sodipodi:rx="0.28714773"
         sodipodi:cy="302.19089"
         sodipodi:cx="549.24182"
         id="path91527-7-0-04-4"
         style="color:#000000;fill:#ffffff;fill-opacity:1;fill-rule:nonzero;stroke:none;stroke-width:1.20000005;marker:none;visibility:visible;display:inline;overflow:visible;enable-background:accumulate"
         sodipodi:type="arc" />
      <path
         transform="matrix(0,-4.1281701,3.6177922,0,-581.48168,2815.1992)"
         sodipodi:open="true"
         sodipodi:end="7.8188447"
         sodipodi:start="1.5364461"
         d="m 549.25168,302.52271 c -0.15849,0.006 -0.29139,-0.13716 -0.29684,-0.32042 -0.005,-0.18326 0.11863,-0.33692 0.27712,-0.34322 0.15849,-0.006 0.29139,0.13716 0.29684,0.32041 0.005,0.18316 -0.11849,0.33678 -0.27689,0.34322"
         sodipodi:ry="0.33201456"
         sodipodi:rx="0.28714773"
         sodipodi:cy="302.19089"
         sodipodi:cx="549.24182"
         id="path91527-7-48-0-5"
         style="color:#000000;fill:#ffffff;fill-opacity:1;fill-rule:nonzero;stroke:none;stroke-width:1.20000005;marker:none;visibility:visible;display:inline;overflow:visible;enable-background:accumulate"
         sodipodi:type="arc" />
      <path
         transform="matrix(0,-4.1281701,3.6177922,0,-587.45501,2815.1992)"
         sodipodi:open="true"
         sodipodi:end="7.8188447"
         sodipodi:start="1.5364461"
         d="m 549.25168,302.52271 c -0.15849,0.006 -0.29139,-0.13716 -0.29684,-0.32042 -0.005,-0.18326 0.11863,-0.33692 0.27712,-0.34322 0.15849,-0.006 0.29139,0.13716 0.29684,0.32041 0.005,0.18316 -0.11849,0.33678 -0.27689,0.34322"
         sodipodi:ry="0.33201456"
         sodipodi:rx="0.28714773"
         sodipodi:cy="302.19089"
         sodipodi:cx="549.24182"
         id="path91527-7-8-7-5"
         style="color:#000000;fill:#ffffff;fill-opacity:1;fill-rule:nonzero;stroke:none;stroke-width:1.20000005;marker:none;visibility:visible;display:inline;overflow:visible;enable-background:accumulate"
         sodipodi:type="arc" />
      <path
         transform="matrix(0,-4.1281701,3.6177922,0,-592.35702,2810.5893)"
         sodipodi:open="true"
         sodipodi:end="7.8188447"
         sodipodi:start="1.5364461"
         d="m 549.25168,302.52271 c -0.15849,0.006 -0.29139,-0.13716 -0.29684,-0.32042 -0.005,-0.18326 0.11863,-0.33692 0.27712,-0.34322 0.15849,-0.006 0.29139,0.13716 0.29684,0.32041 0.005,0.18316 -0.11849,0.33678 -0.27689,0.34322"
         sodipodi:ry="0.33201456"
         sodipodi:rx="0.28714773"
         sodipodi:cy="302.19089"
         sodipodi:cx="549.24182"
         id="path91527-7-2-59-1"
         style="color:#000000;fill:#ffffff;fill-opacity:1;fill-rule:nonzero;stroke:none;stroke-width:1.20000005;marker:none;visibility:visible;display:inline;overflow:visible;enable-background:accumulate"
         sodipodi:type="arc" />
      <g
         transform="matrix(0,-1.1286779,1.1396107,0,-68.948443,1226.9683)"
         id="g73767">
        <rect
           style="color:#000000;fill:#ffffff;fill-opacity:1;fill-rule:nonzero;stroke:none;stroke-width:1;marker:none;visibility:visible;display:inline;overflow:visible;enable-background:accumulate"
           id="rect73763"
           width="15.419339"
           height="16.348215"
           x="624.28809"
           y="513.42834"
           ry="2.5772476"
           rx="2.1263816" />
        <path
           id="path38020-2"
           d="m 635.09145,514.66669 c -1.10272,10e-6 -2.01401,0.35778 -2.74013,1.03125 -0.72611,0.67349 -1.09015,1.50275 -1.09015,2.53125 l 0,1 0,4.46875 0,0.8125 c 0,0.85638 -0.40593,1.28125 -1.17855,1.28125 -0.32193,0 -0.59427,-0.0714 -0.82498,-0.25 -0.23072,-0.17859 -0.35357,-0.40665 -0.35357,-0.65625 0,-0.2582 0.1309,-0.47335 0.35357,-0.65625 0.22266,-0.18289 0.48432,-0.28125 0.79552,-0.28125 0.2468,0 0.48977,0.0638 0.73659,0.21875 l 0,-2.65625 c -0.35949,-0.0258 -0.61847,-0.0312 -0.79552,-0.0312 -1.11601,10e-6 -2.10136,0.33728 -2.91691,1 -0.81554,0.66273 -1.20801,1.43574 -1.20801,2.34375 0,0.93814 0.41656,1.72949 1.23748,2.375 0.82091,0.64551 1.8088,0.96875 3.00529,0.96875 0.60093,0 1.1964,-0.10163 1.76782,-0.3125 0.57142,-0.21087 1.04404,-0.48657 1.41426,-0.84375 0.64385,-0.61969 0.9723,-1.42077 0.9723,-2.40625 l 0,-0.90625 0,-2.28125 1.53212,0 0,-2.375 -1.53212,0 0,-1.09375 c 0,-0.55943 0.21492,-0.84374 0.67767,-0.84375 0.34952,10e-6 0.59875,0.16434 0.73659,0.5 l 2.44549,-1.5625 c -0.8172,-0.91661 -1.81883,-1.37499 -3.03476,-1.375 z"
           style="font-size:15.2023344px;font-style:normal;font-variant:normal;font-weight:normal;font-stretch:normal;line-height:125%;letter-spacing:0px;word-spacing:0px;fill:#19171c;fill-opacity:1;stroke:none;font-family:Bauhaus 93;-inkscape-font-specification:Bauhaus 93"
           inkscape:connector-curvature="0" />
      </g>
      <g
         transform="translate(8.125,-0.98214286)"
         id="g16021">
        <text
           xml:space="preserve"
           style="font-size:7.50709915px;font-style:normal;font-variant:normal;font-weight:bold;font-stretch:normal;line-height:125%;letter-spacing:0px;word-spacing:0px;fill:#d99c43;fill-opacity:1;stroke:none;font-family:Arial;-inkscape-font-specification:Sans Bold"
           x="523.16541"
           y="540.57623"
           id="text37893"
           sodipodi:linespacing="125%"><tspan
             sodipodi:role="line"
             id="tspan37895"
             x="523.16541"
             y="540.57623"
             style="font-size:6.5px;font-weight:bold;-inkscape-font-specification:Arial Bold">IR Receiver</tspan></text>
        <text
           xml:space="preserve"
           style="font-size:7.50709915px;font-style:normal;font-variant:normal;font-weight:bold;font-stretch:normal;line-height:125%;letter-spacing:0px;word-spacing:0px;fill:#d99c43;fill-opacity:1;stroke:none;font-family:Arial;-inkscape-font-specification:Sans Bold"
           x="522.91724"
           y="548.72021"
           id="text37893-8"
           sodipodi:linespacing="125%"><tspan
             sodipodi:role="line"
             id="tspan37895-6"
             x="522.91724"
             y="548.72021"
             style="font-size:6.5px">Module V2</tspan></text>
      </g>
      <g
         transform="matrix(0,-1.5407334,1.4958208,0,255.1305,1282.6497)"
         id="g5548">
        <g
           id="g15906">
          <g
             transform="matrix(0.58629122,0,0,0.58629122,204.54357,86.214972)"
             id="g15911">
            <rect
               style="color:#000000;fill:#ffffff;fill-opacity:1;fill-rule:nonzero;stroke:none;stroke-width:1;marker:none;visibility:visible;display:inline;overflow:visible;enable-background:accumulate"
               id="rect96045"
               width="11.885734"
               height="12.528206"
               x="467.07721"
               y="229.20775" />
            <text
               xml:space="preserve"
               style="font-size:40px;font-style:normal;font-weight:normal;line-height:125%;letter-spacing:0px;word-spacing:0px;fill:#000000;fill-opacity:1;stroke:none;font-family:Sans"
               x="469.32584"
               y="239.16606"
               id="text96102"
               sodipodi:linespacing="125%"><tspan
                 sodipodi:role="line"
                 id="tspan96104"
                 x="469.32584"
                 y="239.16606"
                 style="font-size:11px;font-weight:bold;-inkscape-font-specification:Sans Bold">D</tspan></text>
          </g>
        </g>
      </g>
      <g
         style="fill:#ffffff"
         transform="matrix(0,-0.17255102,0.17255102,0,506.92598,598.96348)"
         id="g15931">
        <g
           style="fill:#ffffff"
           id="g3457"
           transform="translate(351.79565,27.733528)">
          <path
             d="m 338.338,464.438 c -3.24,-3.25 -4.801,-6.695 -4.621,-10.253 0.272,-5.428 4.555,-8.983 4.734,-9.134 l 1.951,2.381 c -0.036,0.028 -3.424,2.876 -3.617,6.933 -0.129,2.645 1.131,5.297 3.727,7.895 l -2.174,2.178 z"
             id="path3459"
             inkscape:connector-curvature="0"
             style="fill:#ffffff" />
          <path
             d="m 334.151,468.947 c -4.987,-4.986 -7.34,-10.177 -6.994,-15.437 0.518,-7.837 6.88,-12.793 7.145,-13.003 l 1.875,2.44 c -0.054,0.04 -5.541,4.355 -5.95,10.789 -0.277,4.329 1.779,8.714 6.099,13.04 l -2.175,2.171 z"
             id="path3461"
             inkscape:connector-curvature="0"
             style="fill:#ffffff" />
          <path
             d="m 330.18,473.372 c -7.014,-7.018 -10.242,-14.126 -9.592,-21.127 0.925,-10.011 9.45,-15.962 9.812,-16.206 l 1.737,2.536 c -0.075,0.053 -7.711,5.412 -8.491,13.982 -0.55,6.04 2.383,12.313 8.708,18.64 l -2.174,2.175 z"
             id="path3463"
             inkscape:connector-curvature="0"
             style="fill:#ffffff" />
        </g>
        <path
           d="m 642.01565,480.99453 c -0.969,0.633 -1.832,1.327 -2.602,2.058 v -4.397 c 6.005,-1.76 10.407,-7.31 10.407,-13.876 0,-7.977 -6.489,-14.466 -14.465,-14.466 -7.976,0 -14.465,6.489 -14.465,14.466 0,6.566 4.402,12.116 10.407,13.876 v 41.354 h 8.117 v -25.225 c 0.485,-1.932 1.964,-6.188 5.96,-8.768 4.332,-2.797 10.521,-3.018 18.397,-0.654 l 1.736,-5.786 c -9.696,-2.907 -17.6,-2.432 -23.492,1.418 z m -15.085,-16.216 c 0,-4.646 3.779,-8.425 8.424,-8.425 4.646,0 8.424,3.779 8.424,8.425 0,4.646 -3.779,8.425 -8.424,8.425 -4.645,0 -8.424,-3.78 -8.424,-8.425 z"
           id="path3465"
           inkscape:connector-curvature="0"
           style="fill:#ffffff" />
      </g>
      <g
         transform="translate(85.803571,-2.97946)"
         id="g16015">
        <path
           style="fill:#b3b3b3;fill-opacity:1;stroke:none"
           d="m 425.01357,527.4857 3.03589,-1.83025 0,-17.82247 -3.03671,-1.46655 z"
           id="path11874"
           inkscape:connector-curvature="0"
           sodipodi:nodetypes="ccccc" />
        <rect
           style="fill:#808080;fill-opacity:1;stroke:none"
           id="rect11876"
           width="5.8860927"
           height="21.102995"
           x="-425.01651"
           y="-527.47693"
           transform="scale(-1,-1)" />
        <path
           sodipodi:type="arc"
           style="fill:#4d4d4d;fill-opacity:1;stroke:none"
           id="path12069"
           sodipodi:cx="469.15179"
           sodipodi:cy="399.05862"
           sodipodi:rx="9.0625"
           sodipodi:ry="6.4285712"
           d="m 478.21429,399.05862 c 0,3.55041 -4.05742,6.42858 -9.0625,6.42858 -5.00508,0 -9.0625,-2.87817 -9.0625,-6.42858 0,0 0,0 0,0 l 9.0625,0 z"
           sodipodi:start="0"
           sodipodi:end="3.1415927"
           transform="matrix(0,1.0558674,-1.0688031,0,845.74456,21.513649)" />
        <path
           sodipodi:type="arc"
           style="opacity:0.95412843;fill:#ffffff;fill-opacity:1;stroke:none;filter:url(#filter12563)"
           id="path12224"
           sodipodi:cx="453.11655"
           sodipodi:cy="393.1745"
           sodipodi:rx="11.679889"
           sodipodi:ry="2.4622469"
           d="m 464.79644,393.1745 c 0,1.35986 -5.22927,2.46225 -11.67989,2.46225 -6.45063,0 -11.67989,-1.10239 -11.67989,-2.46225 0,-1.35986 5.22926,-2.46225 11.67989,-2.46225 6.45062,0 11.67989,1.10239 11.67989,2.46225 z"
           transform="matrix(-0.07501038,0,0,-0.90359351,450.7679,871.54709)" />
      </g>
    </g>
  </g>
</svg>
